<?xml version="1.0" standalone="no"?>
<!DOCTYPE svg PUBLIC "-//W3C//DTD SVG 1.1//EN" "http://www.w3.org/Graphics/SVG/1.1/DTD/svg11.dtd" >
<svg xmlns="http://www.w3.org/2000/svg" xmlns:xlink="http://www.w3.org/1999/xlink" version="1.1">
<metadata>
Created by FontForge 20170731 at Tue Dec 20 07:41:17 2022
 By Aleksey,,,
Generated in 2010 by FontLab Studio. Copyright info pending.
</metadata>
<defs>
<font id="BrownVN" horiz-adv-x="1208" >
  <font-face 
    font-family="BrownVN Regular"
    font-weight="400"
    font-stretch="normal"
    units-per-em="2048"
    panose-1="0 0 0 0 0 0 0 0 0 0"
    ascent="1638"
    descent="-410"
    x-height="963"
    cap-height="1434"
    bbox="-760 -512 2806 2273"
    underline-thickness="163"
    underline-position="-367"
    unicode-range="U+0020-FB04"
  />
<missing-glyph horiz-adv-x="1103" 
d="M154 0v1434h796v-1434h-796zM348 1249v-1065h408v1065h-408z" />
    <glyph glyph-name="f_f" unicode="ff" horiz-adv-x="1546" 
d="M1485 1460l-41 -178q-24 8 -72 8q-95 0 -147 -67q-37 -49 -37 -172v-88h297v-175h-297v-788h-195v788h-522v-788h-195v788h-225v175h225v81q0 182 62 271q112 160 315 160q69 0 115 -15l-41 -178q-24 8 -72 8q-95 0 -147 -67q-37 -49 -37 -172v-88h522v81q0 182 62 271
q112 160 315 160q68 0 115 -15z" />
    <glyph glyph-name="fi" unicode="fi" horiz-adv-x="1361" 
d="M999 1417q37 37 91 37q52 0 92 -37q37 -40 37 -92q0 -53 -37 -90q-40 -37 -92 -37q-54 0 -91 37q-36 36 -36 90q0 53 36 92zM276 963v81q0 182 62 271q112 160 315 160q69 0 115 -15l-41 -178q-24 8 -72 8q-95 0 -147 -67q-37 -49 -37 -172v-88h717v-963h-195v788h-522
v-788h-195v788h-225v175h225z" />
    <glyph glyph-name="fl" unicode="fl" horiz-adv-x="1361" 
d="M276 963v81q0 182 62 271q112 160 315 160q69 0 115 -15l-41 -178q-24 8 -72 8q-95 0 -147 -67q-37 -49 -37 -172v-88h522v491h195v-1454h-195v788h-522v-788h-195v788h-225v175h225z" />
    <glyph glyph-name="f_f_i" unicode="ffi" horiz-adv-x="2078" 
d="M1485 1460l-41 -178q-24 8 -72 8q-95 0 -147 -67q-37 -49 -37 -172v-88h717v-963h-195v788h-522v-788h-195v788h-522v-788h-195v788h-225v175h225v81q0 182 62 271q112 160 315 160q69 0 115 -15l-41 -178q-24 8 -72 8q-95 0 -147 -67q-37 -49 -37 -172v-88h522v81
q0 182 62 271q112 160 315 160q68 0 115 -15zM1716 1417q37 37 90 37q52 0 92 -37q37 -40 37 -92q0 -53 -37 -90q-40 -37 -92 -37q-53 0 -90 37t-37 90q0 52 37 92z" />
    <glyph glyph-name="f_f_l" unicode="ffl" horiz-adv-x="2078" 
d="M1485 1460l-41 -178q-24 8 -72 8q-95 0 -147 -67q-37 -49 -37 -172v-88h522v491h195v-1454h-195v788h-522v-788h-195v788h-522v-788h-195v788h-225v175h225v81q0 182 62 271q112 160 315 160q69 0 115 -15l-41 -178q-24 8 -72 8q-95 0 -147 -67q-37 -49 -37 -172v-88h522
v81q0 182 62 271q112 160 315 160q68 0 115 -15z" />
    <glyph glyph-name=".notdef" horiz-adv-x="1103" 
d="M154 0v1434h796v-1434h-796zM348 1249v-1065h408v1065h-408z" />
    <glyph glyph-name=".null" horiz-adv-x="0" 
 />
    <glyph glyph-name=".null" horiz-adv-x="0" 
 />
    <glyph glyph-name="nonmarkingreturn" horiz-adv-x="682" 
 />
    <glyph glyph-name="space" unicode=" " horiz-adv-x="552" 
 />
    <glyph glyph-name="exclam" unicode="!" horiz-adv-x="696" 
d="M283 451l-31 512v471h194v-471l-30 -512h-133zM246 225q44 41 102 41q59 0 103 -41q41 -44 41 -102q0 -59 -41 -103q-43 -40 -103 -40q-59 0 -102 40q-41 44 -41 103q0 58 41 102z" />
    <glyph glyph-name="quotedbl" unicode="&#x22;" horiz-adv-x="942" 
d="M195 922l-31 512h194l-30 -512h-133zM614 922l-30 512h194l-30 -512h-134z" />
    <glyph glyph-name="numbersign" unicode="#" horiz-adv-x="1187" 
d="M1100 399h-260l-109 -399h-190l108 399h-280l-109 -399h-190l108 399h-209v185h258l70 266h-211v184h260l109 400h190l-108 -400h280l109 400h190l-108 -400h211v-184h-261l-69 -266h211v-185zM487 850l-69 -266h280l70 266h-281z" />
    <glyph glyph-name="dollar" unicode="$" horiz-adv-x="1089" 
d="M727 233q76 61 76 156q0 133 -176 219q-43 21 -78 35l-82 35q-107 46 -158 80q-182 120 -182 315q0 136 94 240t244 131v225h194v-223q91 -15 170 -57q57 -28 117 -78l-121 -150q-117 99 -256 99q-95 0 -163 -50q-74 -56 -74 -143q0 -112 176 -195q7 -4 78 -34l82 -35
q99 -43 153 -80q187 -123 187 -328q0 -158 -99 -272q-94 -107 -250 -135v-224h-194v224q-245 35 -404 231l142 139q150 -184 350 -184q103 0 174 59z" />
    <glyph glyph-name="percent" unicode="%" horiz-adv-x="1935" 
d="M647 0h-196l837 1434h197zM756 807q-108 -111 -264 -111q-157 0 -265 111q-104 110 -104 268t104 268q108 111 265 111q156 0 264 -111q104 -110 104 -268t-104 -268zM356 930q54 -60 136 -60q81 0 135 60q49 58 49 145q0 88 -49 146q-53 59 -135 59q-83 0 -136 -59
q-49 -58 -49 -146q0 -87 49 -145zM1708 90q-107 -110 -264 -110t-264 110q-105 111 -105 268q0 158 105 269q107 110 264 110t264 -110q104 -110 104 -269q0 -158 -104 -268zM1309 213q53 -59 135 -59t135 59q49 58 49 145q0 88 -49 146q-53 59 -135 59t-135 -59
q-49 -58 -49 -146q0 -87 49 -145z" />
    <glyph glyph-name="ampersand" unicode="&#x26;" horiz-adv-x="1341" 
d="M1108 293l295 -293h-262l-146 143q-175 -163 -430 -163q-219 0 -358 118q-146 125 -146 320q0 228 250 416q-157 168 -157 299q0 133 92 225q96 96 237 96q130 0 224 -88q100 -90 100 -233q0 -180 -203 -336l359 -359q30 79 30 172q0 89 -14 160q-6 27 -12 51l-6 19
l-5 14l185 51q1 -3 3 -8t3 -8q5 -20 6 -23q3 -11 8.5 -33.5t7.5 -31.5q19 -97 19 -191q0 -169 -80 -317zM344 236q87 -72 221 -72q174 0 295 115l-418 419q-186 -125 -186 -280q0 -112 88 -182zM575 1229q-41 41 -92 41q-60 0 -100 -43q-35 -41 -35 -94q0 -49 39 -105
q24 -39 80 -98q145 112 145 203q0 56 -37 96z" />
    <glyph glyph-name="quotesingle" unicode="'" horiz-adv-x="522" 
d="M195 922l-31 512h194l-30 -512h-133z" />
    <glyph glyph-name="parenleft" unicode="(" horiz-adv-x="911" 
d="M768 -322l-158 -108q-303 422 -303 942t303 942l158 -108q-266 -374 -266 -834t266 -834z" />
    <glyph glyph-name="parenright" unicode=")" horiz-adv-x="911" 
d="M143 1346l158 108q303 -422 303 -942t-303 -942l-158 108q267 375 267 834t-267 834z" />
    <glyph glyph-name="asterisk" unicode="*" horiz-adv-x="1024" 
d="M82 1061l49 153l299 -96v316h164v-314l299 99l51 -156l-301 -98l186 -254l-131 -97l-186 256l-184 -256l-131 95l184 256z" />
    <glyph glyph-name="plus" unicode="+" horiz-adv-x="1105" 
d="M102 625h359v358h184v-358h359v-185h-359v-358h-184v358h-359v185z" />
    <glyph glyph-name="comma" unicode="," horiz-adv-x="696" 
d="M246 246h225l-246 -533h-133z" />
    <glyph glyph-name="hyphen" unicode="-" horiz-adv-x="942" 
d="M164 604h614v-164h-614v164z" />
    <glyph glyph-name="period" unicode="." horiz-adv-x="696" 
d="M266 225q44 41 103 41q58 0 102 -41q41 -44 41 -102q0 -59 -41 -103q-43 -40 -102 -40q-60 0 -103 40q-41 44 -41 103q0 58 41 102z" />
    <glyph glyph-name="slash" unicode="/" horiz-adv-x="890" 
d="M213 0h-203l668 1434h203z" />
    <glyph glyph-name="zero" unicode="0" 
d="M604 1260q-287 0 -287 -543t287 -543t287 543t-287 543zM223 1239q126 215 381 215t381 -215q111 -191 111 -522t-111 -522q-126 -215 -381 -215t-381 215q-110 189 -110 522t110 522z" />
    <glyph glyph-name="one" unicode="1" horiz-adv-x="829" 
d="M379 1178l-277 -140v203l338 193h144v-1434h-205v1178z" />
    <glyph glyph-name="two" unicode="2" horiz-adv-x="1064" 
d="M256 1069l-182 59q53 184 192 265q101 61 230 61q184 0 311 -127q125 -125 125 -305q0 -209 -187 -420l-360 -407h547v-195h-860v133l489 559q166 190 166 330q0 97 -63 166q-66 72 -164 72q-179 0 -244 -191z" />
    <glyph glyph-name="three" unicode="3" horiz-adv-x="1105" 
d="M51 225l170 99q77 -150 271 -150q121 0 208 84q88 85 88 213q0 130 -86 213q-90 84 -223 84q-57 0 -104 -8q-6 -1 -18.5 -4t-18.5 -4l-14 -4l-11 -3v134l305 360h-495v195h799v-134l-316 -362q164 -24 275 -156q112 -130 112 -311q0 -207 -145 -352q-142 -139 -344 -139
q-151 0 -268 63q-125 66 -185 182z" />
    <glyph glyph-name="four" unicode="4" horiz-adv-x="1157" 
d="M31 348v133l737 953h143v-891h226v-195h-226v-348h-204v348h-676zM322 543h385v483z" />
    <glyph glyph-name="five" unicode="5" horiz-adv-x="1126" 
d="M913 1239h-503l-41 -301q77 25 135 25q207 0 350 -146q139 -145 139 -346t-139 -346q-145 -145 -352 -145q-277 0 -420 204l156 121q101 -131 266 -131q128 0 207 88q77 83 77 209q0 127 -79 209q-82 88 -211 88t-217 -82l-142 21l103 727h671v-195z" />
    <glyph glyph-name="six" unicode="6" horiz-adv-x="1198" 
d="M315 471q0 -126 84 -213q84 -84 209 -84q128 0 211 86q82 82 82 207q0 123 -82 211q-84 90 -207 90q-146 0 -225 -76q-72 -113 -72 -221zM866 1434l-313 -482l39 4h39q197 0 336 -139t139 -346t-141 -348q-143 -143 -357 -143q-212 0 -356 141q-139 142 -139 344
q0 110 47 219q43 93 135 234l340 516h231z" />
    <glyph glyph-name="seven" unicode="7" horiz-adv-x="1064" 
d="M352 0h-219l615 1239h-656v195h901v-134z" />
    <glyph glyph-name="eight" unicode="8" horiz-adv-x="1187" 
d="M244 113q-142 133 -142 321q0 119 66 223q63 101 162 152q-58 40 -99 115q-36 71 -36 151q0 157 114 268t285 111t285 -111t114 -268q0 -78 -37 -151q-42 -76 -98 -115q98 -50 164 -152q63 -100 63 -223q0 -189 -141 -321q-145 -133 -350 -133t-350 133zM389 621
q-82 -76 -82 -187t82 -184q82 -76 205 -76t205 76q82 73 82 184t-82 187q-81 75 -205 75t-205 -75zM455 1206q-56 -53 -56 -131t56 -131t139 -53t139 53q55 52 55 131t-55 131q-57 54 -139 54t-139 -54z" />
    <glyph glyph-name="nine" unicode="9" horiz-adv-x="1198" 
d="M883 963q0 126 -84 213q-84 84 -209 84q-128 0 -211 -86q-82 -82 -82 -207q0 -123 82 -211q84 -90 207 -90q147 0 225 75q72 113 72 222zM332 0l313 481l-39 -4h-39q-197 0 -336 139t-139 347q0 207 141 348q143 143 357 143q215 0 356 -141q139 -139 139 -344
q0 -110 -47 -219q-43 -93 -135 -234l-340 -516h-231z" />
    <glyph glyph-name="colon" unicode=":" horiz-adv-x="696" 
d="M266 942q44 41 103 41q58 0 102 -41q41 -44 41 -102q0 -59 -41 -103q-44 -41 -102 -41q-59 0 -103 41q-41 44 -41 103q0 58 41 102zM266 225q44 41 103 41q58 0 102 -41q41 -44 41 -102q0 -59 -41 -103q-43 -40 -102 -40q-60 0 -103 40q-41 44 -41 103q0 58 41 102z" />
    <glyph glyph-name="semicolon" unicode=";" horiz-adv-x="696" 
d="M266 942q44 41 103 41q58 0 102 -41q41 -44 41 -102q0 -59 -41 -103q-44 -41 -102 -41q-59 0 -103 41q-41 44 -41 103q0 58 41 102zM246 246h225l-246 -533h-133z" />
    <glyph glyph-name="less" unicode="&#x3c;" horiz-adv-x="1116" 
d="M428 532l576 -245v-201l-902 385v123l902 385v-201z" />
    <glyph glyph-name="equal" unicode="=" horiz-adv-x="1105" 
d="M102 809h902v-184h-902v184zM102 440h902v-184h-902v184z" />
    <glyph glyph-name="greater" unicode="&#x3e;" horiz-adv-x="1116" 
d="M113 287l575 245l-575 246v201l901 -385v-123l-901 -385v201z" />
    <glyph glyph-name="question" unicode="?" horiz-adv-x="1024" 
d="M317 1114l-184 53q29 124 146 205q113 82 262 82q172 0 286 -108q115 -109 115 -265q0 -186 -178 -336l-33 -26l-33 -25q-12 -10 -23.5 -19.5t-21 -16.5t-12.5 -9q-55 -49 -55 -82q0 -39 53 -86l-129 -135q-119 88 -119 219q0 88 55 158q33 44 123 113l33 26l33 27
q36 28 57 55q56 65 56 137q0 81 -58 133q-59 56 -149 56q-84 0 -146 -45q-63 -48 -78 -111zM430 225q44 41 102 41q59 0 103 -41q41 -44 41 -102q0 -59 -41 -103q-43 -40 -103 -40q-59 0 -102 40q-41 44 -41 103q0 58 41 102z" />
    <glyph glyph-name="at" unicode="@" horiz-adv-x="2048" 
d="M1210 348v338q-83 92 -211 92q-99 0 -170 -65q-77 -74 -77 -201q0 -131 79 -201q71 -65 173 -65q66 0 122 33q34 19 84 69zM1460 -74l96 -143q-224 -172 -518 -172q-371 0 -632 264q-263 266 -263 637t263 637q261 264 632 264q368 0 613 -227q254 -230 254 -592
q0 -220 -97 -365q-109 -157 -297 -157q-171 0 -254 121q-44 -50 -98 -78q-79 -43 -184 -43q-164 0 -279 112q-129 126 -129 328q0 203 131 328q115 112 283 112q91 0 154 -32q16 -7 51 -29q18 -12 35 -29v70h174v-498q0 -91 20 -127q37 -61 111 -61q94 0 147 96
q51 92 51 256q0 280 -196 461q-192 180 -490 180q-294 0 -501 -213q-209 -212 -209 -514t209 -514q207 -213 501 -213q232 0 422 141z" />
    <glyph glyph-name="A045" unicode="A" horiz-adv-x="1351" 
d="M1128 0l-151 369h-604l-150 -369h-213l594 1434h144l593 -1434h-213zM676 1096l-221 -533h442z" />
    <glyph glyph-name="B053" unicode="B" horiz-adv-x="1280" 
d="M389 195h311q163 0 236 73q68 71 68 168q0 95 -68 166q-74 74 -236 74h-311v-481zM389 870h246q142 0 196 60q50 53 50 125t-50 125q-53 59 -196 59h-246v-369zM737 0h-553v1434h488q185 0 295 -101q118 -106 118 -272q0 -150 -112 -256q103 -52 168 -154
q67 -104 67 -223q0 -205 -157 -332q-116 -96 -314 -96z" />
    <glyph glyph-name="C055" unicode="C" horiz-adv-x="1413" 
d="M279 1241q210 213 518 213q324 0 524 -221l-137 -135q-146 162 -387 162q-221 0 -371 -156t-150 -387q0 -240 156 -393q150 -150 383 -150q128 0 248 66q97 56 164 137l145 -131q-97 -124 -242 -193q-149 -73 -315 -73q-321 0 -532 208q-211 211 -211 529q0 311 207 524z
" />
    <glyph glyph-name="D056" unicode="D" horiz-adv-x="1464" 
d="M1014 1118q-139 121 -410 121h-215v-1044h215q272 0 410 120q174 152 174 402q0 249 -174 401zM614 0h-430v1434h430q306 0 492 -136q135 -105 209 -249q78 -159 78 -332q0 -178 -76 -330t-209 -252q-184 -135 -494 -135z" />
    <glyph glyph-name="E043" unicode="E" horiz-adv-x="1105" 
d="M389 870h471v-194h-471v-481h635v-195h-840v1434h820v-195h-615v-369z" />
    <glyph glyph-name="F124" unicode="F" horiz-adv-x="1044" 
d="M389 870h471v-194h-471v-676h-205v1434h820v-195h-615v-369z" />
    <glyph glyph-name="G123" unicode="G" horiz-adv-x="1505" 
d="M1372 870v-624q-95 -120 -242 -191q-150 -75 -315 -75q-321 0 -532 208q-211 211 -211 529q0 311 207 524q210 213 518 213q324 0 524 -221l-137 -135q-146 162 -387 162q-221 0 -371 -156t-150 -387q0 -240 156 -393q150 -150 383 -150q219 0 352 133v369h-409v194h614z
" />
    <glyph glyph-name="H125" unicode="H" horiz-adv-x="1576" 
d="M1188 0v676h-799v-676h-205v1434h205v-564h799v564h205v-1434h-205z" />
    <glyph glyph-name="I127" unicode="I" horiz-adv-x="573" 
d="M184 0v1434h205v-1434h-205z" />
    <glyph glyph-name="J126" unicode="J" horiz-adv-x="942" 
d="M0 211l182 78q53 -115 191 -115q103 0 162 80q38 49 38 162v1018h205v-1004q0 -156 -49 -244q-52 -93 -147 -149q-92 -57 -209 -57q-125 0 -226 61q-100 60 -147 170z" />
    <glyph glyph-name="K" unicode="K" horiz-adv-x="1331" 
d="M184 0v1434h205v-605l590 605h270l-647 -666l688 -768h-262l-639 717v-717h-205z" />
    <glyph glyph-name="L" unicode="L" horiz-adv-x="1064" 
d="M389 1434v-1239h635v-195h-840v1434h205z" />
    <glyph glyph-name="M" unicode="M" horiz-adv-x="1761" 
d="M1372 965l-420 -658h-143l-420 658v-965h-205v1434h144l553 -875l553 875h143v-1434h-205v965z" />
    <glyph glyph-name="N" unicode="N" horiz-adv-x="1576" 
d="M1249 0l-860 1053v-1053h-205v1434h144l860 -1053v1053h205v-1434h-144z" />
    <glyph glyph-name="O" unicode="O" horiz-adv-x="1576" 
d="M279 1243q205 211 509 211q305 0 510 -211q207 -213 207 -526q0 -311 -207 -524t-510 -213q-302 0 -509 213t-207 524q0 313 207 526zM422 330q147 -156 366 -156q220 0 367 156q145 154 145 387q0 230 -145 387q-147 156 -367 156q-219 0 -366 -156q-146 -158 -146 -387
q0 -232 146 -387z" />
    <glyph glyph-name="P" unicode="P" horiz-adv-x="1228" 
d="M389 829h328q130 0 188 64q58 61 58 141q0 81 -58 142q-57 63 -188 63h-328v-410zM727 635h-338v-635h-205v1434h543q187 0 299 -95q141 -120 141 -305t-141 -305q-110 -94 -299 -94z" />
    <glyph glyph-name="Q" unicode="Q" horiz-adv-x="1587" 
d="M279 1243q205 211 509 211q305 0 510 -211q207 -213 207 -526q0 -280 -170 -486l211 -231h-254l-96 104q-179 -124 -408 -124q-302 0 -509 213t-207 524q0 313 207 526zM422 330q147 -156 366 -156q150 0 275 78l-344 383l143 123l336 -375q102 144 102 334
q0 230 -145 387q-147 156 -367 156q-219 0 -366 -156q-146 -158 -146 -387q0 -232 146 -387z" />
    <glyph glyph-name="R" unicode="R" horiz-adv-x="1310" 
d="M553 676h-164v-676h-205v1434h502q175 0 279 -84q141 -114 141 -295t-141 -295q-74 -61 -168 -76l514 -684h-248zM389 870h287q118 0 172 54q53 53 53 131t-53 131t-172 53h-287v-369z" />
    <glyph glyph-name="S" unicode="S" horiz-adv-x="1089" 
d="M61 219l142 139q150 -184 350 -184q103 0 174 59q76 61 76 156q0 133 -176 219q-43 21 -78 35l-82 35q-107 46 -158 80q-182 120 -182 315q0 157 123 268q125 113 311 113q122 0 234 -47q82 -39 151 -96l-121 -150q-117 99 -256 99q-95 0 -163 -50q-74 -56 -74 -143
q0 -112 176 -195q7 -4 78 -34l82 -35q99 -43 153 -80q187 -123 187 -328q0 -186 -129 -303q-124 -112 -316 -112q-303 0 -502 239z" />
    <glyph glyph-name="T" unicode="T" horiz-adv-x="1044" 
d="M31 1239v195h983v-195h-389v-1239h-205v1239h-389z" />
    <glyph glyph-name="U" unicode="U" horiz-adv-x="1515" 
d="M313 168q-149 162 -149 426v840h205v-850q0 -179 90 -283q115 -127 299 -127t299 127q90 104 90 283v850h205v-840q0 -262 -150 -426q-176 -188 -444 -188q-269 0 -445 188z" />
    <glyph glyph-name="V" unicode="V" horiz-adv-x="1310" 
d="M1290 1434l-563 -1434h-143l-564 1434h213l422 -1082l422 1082h213z" />
    <glyph glyph-name="W" unicode="W" horiz-adv-x="1945" 
d="M973 1061l-359 -1061h-143l-451 1434h209l322 -1039l350 1039h143l351 -1039l321 1039h209l-450 -1434h-144z" />
    <glyph glyph-name="X" unicode="X" horiz-adv-x="1349" 
d="M272 0h-241l510 784l-428 650h252l309 -478l311 478h252l-430 -650l512 -784h-242l-403 612z" />
    <glyph glyph-name="Y" unicode="Y" horiz-adv-x="1228" 
d="M1208 1434l-491 -779v-655h-205v655l-492 779h230l364 -576l365 576h229z" />
    <glyph glyph-name="Z" unicode="Z" 
d="M143 1239v195h963v-134l-746 -1105h787v-195h-1065v133l749 1106h-688z" />
    <glyph glyph-name="bracketleft" unicode="[" horiz-adv-x="911" 
d="M307 -410v1844h502v-185h-307v-1474h307v-185h-502z" />
    <glyph glyph-name="backslash" unicode="\" horiz-adv-x="890" 
d="M881 0h-203l-668 1434h203z" />
    <glyph glyph-name="bracketright" unicode="]" horiz-adv-x="911" 
d="M604 1434v-1844h-502v185h308v1474h-308v185h502z" />
    <glyph glyph-name="asciicircum" unicode="^" horiz-adv-x="1105" 
d="M328 717h-205l362 717h136l362 -717h-205l-225 444z" />
    <glyph glyph-name="underscore" unicode="_" horiz-adv-x="1003" 
d="M41 0h922v-164h-922v164z" />
    <glyph glyph-name="grave" unicode="`" horiz-adv-x="634" 
d="M492 1126h-134l-188 250h215z" />
    <glyph glyph-name="A" unicode="a" horiz-adv-x="1239" 
d="M877 0v88q-120 -108 -297 -108q-137 0 -242 63q-112 63 -178 180q-68 118 -68 258q0 141 70 260q67 118 178 181q104 61 235 61q175 0 302 -109v89h188v-963h-188zM870 301v361q-104 137 -274 137q-134 0 -225 -97q-84 -90 -84 -221q0 -130 90 -223q91 -94 229 -94
q163 0 264 137z" />
    <glyph glyph-name="B" unicode="b" horiz-adv-x="1239" 
d="M362 88v-88h-188v1454h195v-575q125 104 295 104q131 0 235 -61q111 -63 178 -181q70 -119 70 -260q0 -140 -68 -258q-66 -117 -178 -180q-105 -63 -242 -63q-177 0 -297 108zM369 662v-361q101 -137 264 -137q138 0 229 94q90 93 90 223q0 131 -84 221q-91 97 -225 97
q-170 0 -274 -137z" />
    <glyph glyph-name="C" unicode="c" horiz-adv-x="1085" 
d="M885 313l149 -108q-57 -100 -178 -162q-117 -63 -250 -63q-222 0 -368 143q-146 146 -146 358q0 215 144 359q143 143 358 143q260 0 410 -209l-144 -121q-106 146 -266 146q-129 0 -219 -90q-88 -88 -88 -228q0 -139 90 -229q88 -88 229 -88q166 0 279 149z" />
    <glyph glyph-name="D" unicode="d" horiz-adv-x="1239" 
d="M877 0v88q-120 -108 -297 -108q-137 0 -242 63q-112 63 -178 180q-68 118 -68 258q0 141 70 260q67 118 178 181q104 61 235 61q170 0 295 -104v575h195v-1454h-188zM870 301v361q-104 137 -274 137q-134 0 -225 -97q-84 -90 -84 -221q0 -130 90 -223q91 -94 229 -94
q163 0 264 137z" />
    <glyph glyph-name="E" unicode="e" horiz-adv-x="1116" 
d="M1022 440h-741q9 -126 96 -207q89 -83 215 -83q96 0 172 43q46 24 104 88l127 -121q-137 -180 -405 -180q-211 0 -354 143q-144 144 -144 358q0 217 133 359q131 143 336 143q201 0 332 -143t131 -359v-16q0 -17 -2 -25zM397 756q-75 -58 -100 -152h524q-22 92 -94 152
q-69 57 -160 57q-95 0 -170 -57z" />
    <glyph glyph-name="F" unicode="f" horiz-adv-x="829" 
d="M768 1460l-41 -178q-24 8 -72 8q-95 0 -147 -67q-37 -49 -37 -172v-88h297v-175h-297v-788h-195v788h-225v175h225v81q0 182 62 271q112 160 315 160q69 0 115 -15z" />
    <glyph glyph-name="G" unicode="g" horiz-adv-x="1239" 
d="M870 31v53q-119 -104 -290 -104q-137 0 -242 63q-112 63 -178 180q-68 118 -68 258q0 141 70 260q67 118 178 181q104 61 235 61q175 0 302 -109v89h188v-922q0 -204 -57 -315q-124 -238 -416 -238q-171 0 -305 76q-109 59 -164 147l143 133q129 -172 318 -172
q162 0 233 111q53 83 53 248zM870 301v361q-104 137 -274 137q-134 0 -225 -97q-84 -90 -84 -221q0 -130 90 -223q91 -94 229 -94q163 0 264 137z" />
    <glyph glyph-name="H" unicode="h" horiz-adv-x="1249" 
d="M369 1454v-575q50 41 110 69q84 35 172 35q218 0 350 -170q95 -121 95 -342v-471h-195v481q0 155 -57 224q-73 94 -199 94q-163 0 -276 -137v-662h-195v1454h195z" />
    <glyph glyph-name="I" unicode="i" horiz-adv-x="542" 
d="M174 0v963h195v-963h-195zM180 1397q37 37 90 37q52 0 92 -37q37 -40 37 -92q0 -54 -37 -91q-39 -36 -92 -36q-54 0 -90 36q-37 37 -37 91q0 52 37 92z" />
    <glyph glyph-name="J" unicode="j" horiz-adv-x="583" 
d="M221 1397q37 37 90 37q52 0 92 -37q37 -40 37 -92q0 -54 -37 -91q-39 -36 -92 -36q-54 0 -90 36q-37 37 -37 91q0 52 37 92zM215 -88v1051h195v-1045q0 -181 -62 -270q-112 -160 -315 -160q-72 0 -115 14l41 179q27 -9 72 -9q94 0 147 68q37 49 37 172z" />
    <glyph glyph-name="K001" unicode="k" horiz-adv-x="1126" 
d="M563 528l543 -528h-260l-477 471v-471h-195v1454h195v-860l401 369h274z" />
    <glyph glyph-name="L002" unicode="l" horiz-adv-x="542" 
d="M174 0v1454h195v-1454h-195z" />
    <glyph glyph-name="M003" unicode="m" horiz-adv-x="1935" 
d="M174 963h188v-93q33 36 107 72q90 41 176 41q207 0 340 -160q160 160 367 160q214 0 342 -162q88 -107 88 -329v-492h-195v522q0 129 -55 193q-72 84 -180 84q-95 0 -174 -43q-67 -40 -119 -94q16 -82 16 -170v-492h-194v522q0 128 -56 193q-72 84 -186 84
q-84 0 -160 -43q-63 -38 -110 -94v-662h-195v963z" />
    <glyph glyph-name="N004" unicode="n" horiz-adv-x="1249" 
d="M362 963v-93q46 46 111 76q81 37 178 37q218 0 350 -170q95 -121 95 -342v-471h-195v481q0 155 -57 224q-73 94 -199 94q-163 0 -276 -137v-662h-195v963h188z" />
    <glyph glyph-name="O005" unicode="o" horiz-adv-x="1179" 
d="M233 840q143 143 357 143q213 0 356 -143q141 -144 141 -359q0 -214 -141 -358q-143 -143 -356 -143q-214 0 -357 143q-141 144 -141 358q0 215 141 359zM371 256q89 -92 219 -92t219 92q84 93 84 225q0 133 -84 226q-89 92 -219 92t-219 -92q-84 -93 -84 -226
q0 -132 84 -225z" />
    <glyph glyph-name="P007" unicode="p" horiz-adv-x="1239" 
d="M369 84v-576h-195v1455h188v-89q127 109 302 109q131 0 235 -61q111 -63 178 -181q70 -119 70 -260q0 -140 -68 -258q-66 -117 -178 -180q-105 -63 -242 -63q-171 0 -290 104zM369 662v-361q101 -137 264 -137q138 0 229 94q90 93 90 223q0 131 -84 221q-91 97 -225 97
q-170 0 -274 -137z" />
    <glyph glyph-name="Q006" unicode="q" horiz-adv-x="1239" 
d="M870 -492v576q-119 -104 -290 -104q-137 0 -242 63q-112 63 -178 180q-68 118 -68 258q0 141 70 260q67 118 178 181q104 61 235 61q175 0 302 -109v89h188v-1455h-195zM870 301v361q-104 137 -274 137q-134 0 -225 -97q-84 -90 -84 -221q0 -130 90 -223q91 -94 229 -94
q163 0 264 137z" />
    <glyph glyph-name="R008" unicode="r" horiz-adv-x="788" 
d="M727 977l-22 -186q-27 8 -76 8q-74 0 -148 -47q-74 -49 -112 -115v-637h-195v963h188v-111q94 131 289 131q23 0 37 -2q6 -1 20 -2t19 -2z" />
    <glyph glyph-name="S009" unicode="s" horiz-adv-x="931" 
d="M82 113l100 143q135 -106 285 -106q72 0 115 32q53 35 53 88q0 70 -98 107q-40 13 -97 26l-53 15l-53 16q-221 74 -221 248q0 144 114 227q100 74 242 74q189 0 319 -106l-100 -140q-101 76 -207 76q-76 0 -123 -33q-51 -34 -51 -88q0 -44 49 -71q42 -22 123 -41
q58 -15 119 -37q58 -21 113 -56q118 -78 118 -213q0 -132 -108 -215q-101 -79 -250 -79q-224 0 -389 133z" />
    <glyph glyph-name="T010" unicode="t" horiz-adv-x="860" 
d="M729 176l39 -176q-59 -20 -152 -20q-172 0 -272 112q-78 87 -78 256v440h-246v175h246v266h195v-266h307v-175h-307v-450q0 -87 28 -123q39 -51 134 -51q17 0 53 4q36 3 53 8z" />
    <glyph glyph-name="U011" unicode="u" horiz-adv-x="1228" 
d="M242 141q-88 107 -88 330v492h194v-523q0 -128 55 -192q72 -84 187 -84q86 0 160 45q61 34 110 92v662h195v-963h-189v88q-44 -44 -106 -70q-80 -38 -176 -38q-215 0 -342 161z" />
    <glyph glyph-name="V012" unicode="v" horiz-adv-x="1011" 
d="M438 0l-418 963h201l285 -656l285 656h200l-418 -963h-135z" />
    <glyph glyph-name="W013" unicode="w" horiz-adv-x="1634" 
d="M750 963h135l264 -658l264 658h201l-391 -963h-136l-270 676l-270 -676h-135l-392 963h201l264 -658z" />
    <glyph glyph-name="X014" unicode="x" horiz-adv-x="1044" 
d="M782 0l-260 360l-260 -360h-231l364 506l-329 457h229l227 -312l228 312h229l-330 -457l365 -506h-232z" />
    <glyph glyph-name="Y015" unicode="y" horiz-adv-x="1042" 
d="M379 -492h-207l260 592l-412 863h209l301 -635l277 635h205z" />
    <glyph glyph-name="Z016" unicode="z" horiz-adv-x="962" 
d="M82 123l528 665h-497v175h768v-123l-531 -666h572v-174h-840v123z" />
    <glyph glyph-name="braceleft" unicode="{" horiz-adv-x="911" 
d="M502 301q0 -51 -10 -184l-7 -86q-4 -62 -4 -86q0 -88 35 -129q38 -41 121 -41h70v-185h-62q-171 0 -252 66q-106 81 -106 276q0 27 4 101l6 96q10 140 10 178q0 80 -39 113q-39 31 -125 31v122q89 0 125 33q39 33 39 111q0 38 -10 178l-6 96q-4 74 -4 101q0 195 106 276
q81 66 252 66h62v-185h-70q-83 0 -121 -41q-35 -41 -35 -129q0 -24 4 -86l7 -86q10 -133 10 -184q0 -155 -109 -211q109 -56 109 -211z" />
    <glyph glyph-name="bar" unicode="|" horiz-adv-x="440" 
d="M123 -410v1844h194v-1844h-194z" />
    <glyph glyph-name="braceright" unicode="}" horiz-adv-x="911" 
d="M410 723q0 51 10 184l6 86q4 62 4 86q0 88 -35 129q-38 41 -121 41h-69v185h61q171 0 252 -66q107 -82 107 -276q0 -43 -11 -197l-4 -47l-2 -45q-4 -66 -4 -86q0 -78 39 -111q36 -33 125 -33v-122q-86 0 -125 -31q-39 -33 -39 -113q0 -20 4 -86l2 -45l4 -47
q11 -154 11 -197q0 -194 -107 -276q-81 -66 -252 -66h-61v185h69q83 0 121 41q35 41 35 129q0 42 -10 172l-6 90q-4 70 -4 94q0 155 108 211q-108 56 -108 211z" />
    <glyph glyph-name="asciitilde" unicode="~" horiz-adv-x="1146" 
d="M938 692l158 -80q-48 -113 -113 -176q-86 -86 -199 -86q-104 0 -235 90l-47 33q-39 26 -45 29q-48 28 -86 28q-52 0 -97 -51q-38 -41 -65 -106l-158 80q47 112 113 178q87 84 198 84q105 0 236 -90t178 -90q51 0 96 51q39 43 66 106z" />
    <glyph glyph-name="exclamdown" unicode="&#xa1;" horiz-adv-x="696" 
d="M252 -20l31 512h133l30 -512v-472h-194v472zM246 942q44 41 102 41q59 0 103 -41q41 -44 41 -102q0 -59 -41 -103q-44 -41 -103 -41q-58 0 -102 41q-41 44 -41 103q0 58 41 102z" />
    <glyph glyph-name="cent" unicode="&#xa2;" horiz-adv-x="1085" 
d="M496 -236v228q-178 34 -291 168t-113 321t113 324q113 134 291 168v225h194v-225q196 -38 314 -199l-144 -121q-106 146 -266 146q-129 0 -219 -90q-88 -88 -88 -228q0 -139 90 -229q88 -88 229 -88q166 0 279 149l149 -108q-107 -179 -344 -217v-224h-194z" />
    <glyph glyph-name="sterling" unicode="&#xa3;" horiz-adv-x="1085" 
d="M485 819h303v-174h-245q12 -59 12 -123q0 -201 -119 -338h598v-184h-952v123q132 51 207 174q71 112 71 225q0 52 -18 123h-219v174h156q-62 151 -62 254q0 163 121 275q112 106 274 106q223 0 357 -192l-154 -111q-76 119 -203 119q-78 0 -137 -53q-63 -57 -63 -148
q0 -53 24 -123q21 -56 23 -61z" />
    <glyph glyph-name="currency" unicode="&#xa4;" horiz-adv-x="1146" 
d="M217 946l-156 156l129 129l156 -156q107 66 227 66q121 0 228 -66l155 156l129 -129l-155 -156q65 -103 65 -227t-65 -227l155 -156l-129 -129l-155 155q-103 -65 -228 -65q-124 0 -227 65l-156 -155l-129 129l156 156q-65 106 -65 227t65 227zM414 559q64 -67 159 -67
q96 0 160 67q68 65 68 160t-68 160q-64 67 -160 67q-95 0 -159 -67q-68 -65 -68 -160t68 -160z" />
    <glyph glyph-name="yen" unicode="&#xa5;" horiz-adv-x="1228" 
d="M717 645h389v-174h-389v-471h-205v471h-389v174h389l-90 143h-299v175h190l-293 471h234l360 -586l361 586h233l-295 -471h193v-175h-301z" />
    <glyph glyph-name="brokenbar" unicode="&#xa6;" horiz-adv-x="522" 
d="M164 -410v799h194v-799h-194zM164 635v799h194v-799h-194z" />
    <glyph glyph-name="section" unicode="&#xa7;" horiz-adv-x="1187" 
d="M311 1341q125 113 312 113q121 0 233 -47q84 -40 152 -96l-121 -150q-117 99 -256 99q-97 0 -164 -46q-74 -50 -74 -135q0 -94 166 -164q10 -5 76 -30l82 -31q122 -48 164 -72q215 -117 215 -327q0 -198 -183 -334q86 -89 86 -211q0 -158 -122 -268q-125 -113 -312 -113
q-122 0 -231 47q-85 39 -154 96l121 150q116 -98 256 -98q99 0 164 45q74 50 74 135q0 94 -166 164q-10 5 -76 30l-82 31q-122 48 -164 72q-215 117 -215 327q0 196 182 334q-86 83 -86 211q0 157 123 268zM444 350q48 -22 142 -59l78 -29l75 -31q59 27 103 86q49 64 49 129
q0 111 -148 185q-55 28 -143 59l-78 29l-76 33q-58 -30 -102 -86q-47 -65 -47 -129q0 -111 147 -187z" />
    <glyph glyph-name="dieresis" unicode="&#xa8;" horiz-adv-x="921" 
d="M180 1356q37 37 90 37q52 0 92 -37q37 -40 37 -92q0 -53 -37 -90q-40 -37 -92 -37q-53 0 -90 37t-37 90q0 52 37 92zM559 1356q37 37 90 37q52 0 92 -37q37 -40 37 -92q0 -53 -37 -90q-40 -37 -92 -37q-53 0 -90 37t-37 90q0 52 37 92z" />
    <glyph glyph-name="copyright" unicode="&#xa9;" horiz-adv-x="1720" 
d="M1139 1026l-80 -104q-92 71 -185 71q-107 0 -176 -75t-69 -195q0 -118 71 -195t187 -77q100 0 194 73l80 -106q-119 -107 -278 -107q-178 0 -291 119q-113 116 -113 293q0 175 113 291q113 119 282 119q149 0 265 -107zM354 1223q208 211 506 211t506 -211
q211 -208 211 -506t-211 -506q-208 -211 -506 -211t-506 211q-211 208 -211 506t211 506zM446 305q170 -170 412 -170t412 170q172 169 172 412q0 242 -172 411q-169 172 -412 172t-412 -172q-170 -170 -170 -411q0 -242 170 -412z" />
    <glyph glyph-name="ordfeminine" unicode="&#xaa;" horiz-adv-x="851" 
d="M598 1016v221q-59 80 -158 80q-81 0 -133 -55q-53 -56 -53 -136q0 -79 53 -135q52 -55 133 -55q99 0 158 80zM750 1440v-627h-148v51q-74 -65 -184 -65q-127 0 -221 94q-95 95 -95 233q0 139 95 234q94 94 221 94q110 0 184 -65v51h148z" />
    <glyph glyph-name="guillemotleft" unicode="&#xab;" horiz-adv-x="1228" 
d="M360 492l316 -390h-238l-274 338v103l274 338h238zM831 492l316 -390h-238l-274 338v103l274 338h238z" />
    <glyph glyph-name="logicalnot" unicode="&#xac;" horiz-adv-x="1085" 
d="M983 809v-553h-184v369h-717v184h901z" />
    <glyph glyph-name="registered" unicode="&#xae;" horiz-adv-x="1720" 
d="M1077 770q-44 -62 -106 -82l250 -358h-170l-244 348h-39v-348h-147v784h262q92 0 151 -47q84 -66 84 -170q0 -68 -41 -127zM768 975v-158h102q58 0 80 25q19 22 19 53q0 29 -19 51q-26 29 -80 29h-102zM354 1223q208 211 506 211t506 -211q211 -208 211 -506t-211 -506
q-208 -211 -506 -211t-506 211q-211 208 -211 506t211 506zM446 305q170 -170 412 -170t412 170q172 169 172 412q0 242 -172 411q-169 172 -412 172t-412 -172q-170 -170 -170 -411q0 -242 170 -412z" />
    <glyph glyph-name="macron" unicode="&#xaf;" horiz-adv-x="901" 
d="M143 1352h615v-174h-615v174z" />
    <glyph glyph-name="degree" unicode="&#xb0;" horiz-adv-x="819" 
d="M178 1358q96 96 232 96q135 0 231 -96t96 -232q0 -135 -96 -231t-231 -96q-136 0 -232 96t-96 231q0 136 96 232zM295 1012q46 -49 115 -49q67 0 116 49q47 47 47 114t-47 117q-50 47 -116 47q-68 0 -115 -47q-49 -49 -49 -117t49 -114z" />
    <glyph glyph-name="plusminus" unicode="&#xb1;" horiz-adv-x="1105" 
d="M102 748h359v276h184v-276h359v-185h-359v-276h-184v276h-359v185zM102 225h902v-184h-902v184z" />
    <glyph glyph-name="twosuperior" unicode="&#xb2;" horiz-adv-x="636" 
d="M207 1219l-144 43q20 84 91 139q65 53 157 53q103 0 174 -68q76 -67 76 -172q0 -96 -88 -194l-162 -180h254v-144h-504v82l279 312q6 6 13 14t9 10q18 22 23 31q23 41 23 69q0 41 -27 68q-29 29 -70 29q-77 0 -104 -92z" />
    <glyph glyph-name="threesuperior" unicode="&#xb3;" horiz-adv-x="620" 
d="M41 807l123 78q40 -70 119 -70q54 0 88 37q35 35 35 86q0 52 -33 88q-36 39 -92 39q-40 0 -101 -23v82l125 166h-235v144h456v-82l-131 -181q69 -24 117 -90q47 -65 47 -143q0 -109 -80 -186q-79 -76 -196 -76q-160 0 -242 131z" />
    <glyph glyph-name="acute" unicode="&#xb4;" horiz-adv-x="634" 
d="M276 1126h-133l107 254h215z" />
    <glyph glyph-name="mu" unicode="&#xb5;" horiz-adv-x="1249" 
d="M461 10q-56 26 -92 62v-564h-195v1455h195v-523q0 -128 55 -192q72 -84 180 -84q88 0 164 43q60 36 113 94v662h194v-963h-188v88q-43 -43 -107 -70q-80 -38 -176 -38q-72 0 -143 30z" />
    <glyph glyph-name="paragraph" unicode="&#xb6;" horiz-adv-x="1402" 
d="M901 -410v1659h-205v-1659h-194v963q-183 0 -312 129t-129 311q0 225 181 357q119 84 301 84h757v-185h-204v-1659h-195zM326 813q70 -76 176 -76v512q-107 0 -176 -75q-70 -73 -70 -181q0 -107 70 -180z" />
    <glyph glyph-name="periodcentered" unicode="&#xb7;" horiz-adv-x="696" 
d="M246 584q44 41 102 41q59 0 103 -41q41 -44 41 -103q0 -58 -41 -102q-44 -41 -103 -41q-58 0 -102 41q-41 44 -41 102q0 59 41 103z" />
    <glyph glyph-name="cedilla" unicode="&#xb8;" horiz-adv-x="563" 
d="M287 20h133l-62 -307h-215z" />
    <glyph glyph-name="onesuperior" unicode="&#xb9;" horiz-adv-x="481" 
d="M61 1165v154l226 115h92v-738h-154v545z" />
    <glyph glyph-name="ordmasculine" unicode="&#xba;" horiz-adv-x="851" 
d="M551 1262q-46 55 -125 55t-125 -55q-47 -53 -47 -138q0 -80 47 -133q46 -55 125 -55t125 55q47 53 47 133q0 85 -47 138zM193 1358q93 96 233 96t233 -96q91 -97 91 -232q0 -134 -91 -231q-93 -96 -233 -96t-233 96q-91 97 -91 231q0 135 91 232z" />
    <glyph glyph-name="guillemotright" unicode="&#xbb;" horiz-adv-x="1228" 
d="M553 102l315 390l-315 389h238l274 -338v-103l-274 -338h-238zM82 102l315 390l-315 389h237l275 -338v-103l-275 -338h-237z" />
    <glyph glyph-name="onequarter" unicode="&#xbc;" horiz-adv-x="1294" 
d="M309 0h-176l838 1434h176zM61 1165v154l226 115h92v-738h-154v545zM1047 737h92v-436h125v-143h-125v-158h-154v158h-330v82zM883 301h102v135z" />
    <glyph glyph-name="onehalf" unicode="&#xbd;" horiz-adv-x="1384" 
d="M309 0h-176l838 1434h176zM61 1165v154l226 115h92v-738h-154v545zM954 522l-143 43q20 86 90 140q65 53 158 53q103 0 174 -68q76 -67 76 -172q0 -96 -88 -194l-162 -181h254v-143h-504v82l278 311q6 5 13.5 13.5t9.5 11.5q18 22 23 31q22 39 22 69q0 41 -27 68
q-28 28 -69 28q-78 0 -105 -92z" />
    <glyph glyph-name="threequarters" unicode="&#xbe;" horiz-adv-x="1372" 
d="M387 0h-176l838 1434h176zM1124 737h93v-436h124v-143h-124v-158h-154v158h-330v82zM961 301h102v135zM41 807l123 78q40 -70 119 -70q54 0 88 37q35 35 35 86q0 52 -33 88q-36 39 -92 39q-40 0 -101 -23v82l125 166h-235v144h456v-82l-131 -181q69 -24 117 -90
q47 -65 47 -143q0 -109 -80 -186q-79 -76 -196 -76q-160 0 -242 131z" />
    <glyph glyph-name="questiondown" unicode="&#xbf;" horiz-adv-x="1024" 
d="M707 -172l184 -53q-29 -124 -146 -205q-113 -82 -262 -82q-172 0 -286 111q-115 109 -115 262q0 186 178 336l33 26l33 25q13 11 32.5 26.5t24.5 20.5q55 46 55 80q0 39 -53 86l129 135q119 -88 119 -219q0 -86 -55 -156q-36 -49 -123 -115l-33 -26l-33 -25
q-37 -32 -57 -55q-56 -65 -56 -139q0 -81 58 -133q59 -56 149 -56q84 0 146 45q63 48 78 111zM594 737q-44 -41 -102 -41q-59 0 -103 41q-41 44 -41 103q0 58 41 102q44 41 103 41q58 0 102 -41q41 -44 41 -102q0 -59 -41 -103z" />
    <glyph glyph-name="Agrave022" unicode="&#xc0;" horiz-adv-x="1351" 
d="M1128 0l-151 369h-604l-150 -369h-213l594 1434h144l593 -1434h-213zM676 1096l-221 -533h442zM782 1597h-133l-188 250h215z" />
    <glyph glyph-name="Aacute030" unicode="&#xc1;" horiz-adv-x="1351" 
d="M1128 0l-151 369h-604l-150 -369h-213l594 1434h144l593 -1434h-213zM676 1096l-221 -533h442zM702 1597h-133l107 254h215z" />
    <glyph glyph-name="Acircumflex028" unicode="&#xc2;" horiz-adv-x="1351" 
d="M1128 0l-151 369h-604l-150 -369h-213l594 1434h144l593 -1434h-213zM676 1096l-221 -533h442zM541 1542h-129l168 266h192l168 -266h-129l-135 150z" />
    <glyph glyph-name="Atilde023" unicode="&#xc3;" horiz-adv-x="1351" 
d="M1128 0l-151 369h-604l-150 -369h-213l594 1434h144l593 -1434h-213zM676 1096l-221 -533h442zM504 1550l-107 35q3 75 47 125q47 53 119 53q44 0 119 -37q71 -36 104 -36q50 0 62 73l106 -34q-3 -75 -47 -125q-48 -54 -119 -54q-43 0 -116 37l-29 15l-27 10
q-27 12 -51 12q-49 0 -61 -74z" />
    <glyph glyph-name="Adieresis" unicode="&#xc4;" horiz-adv-x="1351" 
d="M395 1765q37 37 90 37t93 -37q36 -39 36 -92q0 -54 -36 -90q-40 -37 -93 -37t-90 37t-37 90q0 52 37 92zM774 1765q37 37 90 37q52 0 92 -37q37 -40 37 -92q0 -53 -37 -90q-40 -37 -92 -37q-53 0 -90 37t-37 90q0 52 37 92zM1128 0l-151 369h-604l-150 -369h-213
l594 1434h144l593 -1434h-213zM676 1096l-221 -533h442z" />
    <glyph glyph-name="Aring" unicode="&#xc5;" horiz-adv-x="1351" 
d="M530 1845q63 60 146 60q82 0 145 -60q60 -63 60 -145q0 -83 -60 -146q-62 -59 -145 -59q-84 0 -146 59q-59 62 -59 146q0 83 59 145zM618 1642q24 -24 58 -24q36 0 57 24q25 25 25 58q0 35 -25 57q-22 25 -57 25q-33 0 -58 -25q-24 -21 -24 -57q0 -34 24 -58zM1128 0
l-151 369h-604l-150 -369h-213l594 1434h144l593 -1434h-213zM676 1096l-221 -533h442z" />
    <glyph glyph-name="AE" unicode="&#xc6;" horiz-adv-x="1863" 
d="M1782 0h-840v369h-528l-221 -369h-234l856 1434h946v-195h-614v-369h471v-194h-471v-481h635v-195zM942 1260l-414 -697h414v697z" />
    <glyph glyph-name="Ccedilla" unicode="&#xc7;" horiz-adv-x="1413" 
d="M279 1241q210 213 518 213q324 0 524 -221l-137 -135q-146 162 -387 162q-221 0 -371 -156t-150 -387q0 -240 156 -393q150 -150 383 -150q128 0 248 66q97 56 164 137l145 -131q-188 -243 -510 -264l-53 -269h-215l127 273q-285 30 -467 233q-182 206 -182 498
q0 311 207 524z" />
    <glyph glyph-name="Egrave032" unicode="&#xc8;" horiz-adv-x="1105" 
d="M389 870h471v-194h-471v-481h635v-195h-840v1434h820v-195h-615v-369zM711 1597h-133l-189 250h215z" />
    <glyph glyph-name="Eacute054" unicode="&#xc9;" horiz-adv-x="1105" 
d="M389 870h471v-194h-471v-481h635v-195h-840v1434h820v-195h-615v-369zM631 1597h-133l106 254h215z" />
    <glyph glyph-name="Ecircumflex029" unicode="&#xca;" horiz-adv-x="1105" 
d="M389 870h471v-194h-471v-481h635v-195h-840v1434h820v-195h-615v-369zM469 1542h-129l168 266h192l168 -266h-129l-135 150z" />
    <glyph glyph-name="Edieresis031" unicode="&#xcb;" horiz-adv-x="1105" 
d="M389 870h471v-194h-471v-481h635v-195h-840v1434h820v-195h-615v-369zM313 1765q37 37 90 37t93 -37q36 -39 36 -92q0 -54 -36 -90q-40 -37 -93 -37t-90 37t-37 90q0 52 37 92zM692 1765q37 37 90 37q52 0 92 -37q37 -40 37 -92q0 -53 -37 -90q-40 -37 -92 -37
q-53 0 -90 37t-37 90q0 52 37 92z" />
    <glyph glyph-name="Igrave036" unicode="&#xcc;" horiz-adv-x="573" 
d="M184 0v1434h205v-1434h-205zM393 1597h-133l-188 250h215z" />
    <glyph glyph-name="Iacute033" unicode="&#xcd;" horiz-adv-x="573" 
d="M184 0v1434h205v-1434h-205zM313 1597h-133l107 254h215z" />
    <glyph glyph-name="Icircumflex034" unicode="&#xce;" horiz-adv-x="573" 
d="M184 0v1434h205v-1434h-205zM152 1542h-129l167 266h193l168 -266h-129l-135 150z" />
    <glyph glyph-name="Idieresis035" unicode="&#xcf;" horiz-adv-x="573" 
d="M184 0v1434h205v-1434h-205zM6 1765q37 37 90 37q52 0 92 -37q37 -40 37 -92q0 -53 -37 -90q-40 -37 -92 -37q-53 0 -90 37t-37 90q0 52 37 92zM385 1765q37 37 90 37q52 0 92 -37q37 -40 37 -92q0 -53 -37 -90q-40 -37 -92 -37q-53 0 -90 37t-37 90q0 52 37 92z" />
    <glyph glyph-name="Eth" unicode="&#xd0;" horiz-adv-x="1464" 
d="M614 0h-430v676h-204v194h204v564h430q306 0 492 -136q135 -105 209 -249q78 -159 78 -332q0 -178 -76 -330t-209 -252q-184 -135 -494 -135zM1014 1118q-139 121 -410 121h-215v-369h410v-194h-410v-481h215q272 0 410 120q174 152 174 402q0 249 -174 401z" />
    <glyph glyph-name="Ntilde" unicode="&#xd1;" horiz-adv-x="1576" 
d="M1249 0l-860 1053v-1053h-205v1434h144l860 -1053v1053h205v-1434h-144zM571 1556l-133 43q3 92 60 158q60 66 147 66q59 0 148 -45l34 -19l33 -14q35 -14 64 -14q62 0 77 92l134 -43q-3 -92 -60 -158q-60 -66 -147 -66q-54 0 -148 48l-35 16l-32 14q-37 15 -64 15
q-63 0 -78 -93z" />
    <glyph glyph-name="Ograve039" unicode="&#xd2;" horiz-adv-x="1576" 
d="M279 1243q205 211 509 211q305 0 510 -211q207 -213 207 -526q0 -311 -207 -524t-510 -213q-302 0 -509 213t-207 524q0 313 207 526zM422 330q147 -156 366 -156q220 0 367 156q145 154 145 387q0 230 -145 387q-147 156 -367 156q-219 0 -366 -156q-146 -158 -146 -387
q0 -232 146 -387zM895 1597h-133l-189 250h215z" />
    <glyph glyph-name="Oacute037" unicode="&#xd3;" horiz-adv-x="1576" 
d="M279 1243q205 211 509 211q305 0 510 -211q207 -213 207 -526q0 -311 -207 -524t-510 -213q-302 0 -509 213t-207 524q0 313 207 526zM422 330q147 -156 366 -156q220 0 367 156q145 154 145 387q0 230 -145 387q-147 156 -367 156q-219 0 -366 -156q-146 -158 -146 -387
q0 -232 146 -387zM815 1597h-133l106 254h216z" />
    <glyph glyph-name="Ocircumflex038" unicode="&#xd4;" horiz-adv-x="1576" 
d="M279 1243q205 211 509 211q305 0 510 -211q207 -213 207 -526q0 -311 -207 -524t-510 -213q-302 0 -509 213t-207 524q0 313 207 526zM422 330q147 -156 366 -156q220 0 367 156q145 154 145 387q0 230 -145 387q-147 156 -367 156q-219 0 -366 -156q-146 -158 -146 -387
q0 -232 146 -387zM653 1542h-129l168 266h193l168 -266h-129l-136 150z" />
    <glyph glyph-name="Otilde024" unicode="&#xd5;" horiz-adv-x="1576" 
d="M279 1243q205 211 509 211q305 0 510 -211q207 -213 207 -526q0 -311 -207 -524t-510 -213q-302 0 -509 213t-207 524q0 313 207 526zM422 330q147 -156 366 -156q220 0 367 156q145 154 145 387q0 230 -145 387q-147 156 -367 156q-219 0 -366 -156q-146 -158 -146 -387
q0 -232 146 -387zM616 1550l-106 35q3 75 47 125q47 53 119 53q44 0 119 -37q71 -36 104 -36q50 0 62 73l106 -34q-3 -75 -47 -125q-48 -54 -119 -54q-44 0 -117 37l-28 15l-27 10q-27 12 -51 12q-50 0 -62 -74z" />
    <glyph glyph-name="Odieresis" unicode="&#xd6;" horiz-adv-x="1576" 
d="M279 1243q205 211 509 211q305 0 510 -211q207 -213 207 -526q0 -311 -207 -524t-510 -213q-302 0 -509 213t-207 524q0 313 207 526zM422 330q147 -156 366 -156q220 0 367 156q145 154 145 387q0 230 -145 387q-147 156 -367 156q-219 0 -366 -156q-146 -158 -146 -387
q0 -232 146 -387zM508 1765q37 37 90 37q52 0 92 -37q37 -40 37 -92q0 -53 -37 -90q-40 -37 -92 -37q-53 0 -90 37t-37 90q0 52 37 92zM887 1765q37 37 90 37q52 0 92 -37q37 -40 37 -92q0 -53 -37 -90q-40 -37 -92 -37q-53 0 -90 37t-37 90q0 52 37 92z" />
    <glyph glyph-name="multiply" unicode="&#xd7;" horiz-adv-x="1122" 
d="M264 961l297 -297l297 297l131 -132l-297 -297l297 -296l-131 -132l-297 297l-297 -297l-131 132l297 296l-297 297z" />
    <glyph glyph-name="Oslash" unicode="&#xd8;" horiz-adv-x="1576" 
d="M279 1243q205 211 509 211q224 0 398 -119l100 119h244l-203 -244q178 -205 178 -493q0 -311 -207 -524t-510 -213q-220 0 -397 116l-100 -116h-246l205 241q-178 205 -178 496q0 313 207 526zM381 379l678 803q-125 78 -271 78q-219 0 -366 -156q-146 -158 -146 -387
q0 -194 105 -338zM1194 1055l-676 -805q119 -76 270 -76q220 0 367 156q145 154 145 387q0 197 -106 338z" />
    <glyph glyph-name="Ugrave042" unicode="&#xd9;" horiz-adv-x="1515" 
d="M313 168q-149 162 -149 426v840h205v-850q0 -179 90 -283q115 -127 299 -127t299 127q90 104 90 283v850h205v-840q0 -262 -150 -426q-176 -188 -444 -188q-269 0 -445 188zM864 1597h-133l-188 250h215z" />
    <glyph glyph-name="Uacute040" unicode="&#xda;" horiz-adv-x="1515" 
d="M313 168q-149 162 -149 426v840h205v-850q0 -179 90 -283q115 -127 299 -127t299 127q90 104 90 283v850h205v-840q0 -262 -150 -426q-176 -188 -444 -188q-269 0 -445 188zM784 1597h-133l107 254h215z" />
    <glyph glyph-name="Ucircumflex041" unicode="&#xdb;" horiz-adv-x="1515" 
d="M313 168q-149 162 -149 426v840h205v-850q0 -179 90 -283q115 -127 299 -127t299 127q90 104 90 283v850h205v-840q0 -262 -150 -426q-176 -188 -444 -188q-269 0 -445 188zM623 1542h-129l168 266h192l168 -266h-129l-135 150z" />
    <glyph glyph-name="Udieresis" unicode="&#xdc;" horiz-adv-x="1515" 
d="M313 168q-149 162 -149 426v840h205v-850q0 -179 90 -283q115 -127 299 -127t299 127q90 104 90 283v850h205v-840q0 -262 -150 -426q-176 -188 -444 -188q-269 0 -445 188zM477 1765q37 37 90 37q52 0 92 -37q37 -40 37 -92q0 -53 -37 -90q-40 -37 -92 -37q-53 0 -90 37
t-37 90q0 52 37 92zM856 1765q37 37 90 37q52 0 92 -37q37 -40 37 -92q0 -53 -37 -90q-40 -37 -92 -37q-53 0 -90 37t-37 90q0 52 37 92z" />
    <glyph glyph-name="Yacute" unicode="&#xdd;" horiz-adv-x="1228" 
d="M1208 1434l-491 -779v-655h-205v655l-492 779h230l364 -576l365 576h229zM641 1597h-133l106 254h215z" />
    <glyph glyph-name="Thorn047" unicode="&#xde;" horiz-adv-x="1228" 
d="M389 512h328q131 0 188 63q58 61 58 142q0 80 -58 141q-58 64 -188 64h-328v-410zM389 1116h338q189 0 299 -94q141 -120 141 -305t-141 -305q-112 -95 -299 -95h-338v-317h-205v1434h205v-318z" />
    <glyph glyph-name="germandbls" unicode="&#xdf;" 
d="M469 25l74 161q55 -22 108 -22q115 0 193 78q74 77 74 188q0 104 -70 180q-80 86 -238 86h-78v185h9q119 0 178 53q67 61 67 151q0 87 -57 144q-58 61 -143 61q-105 0 -164 -71q-53 -59 -53 -175v-1044h-195v1044q0 190 100 299q120 132 304 132q163 0 284 -115
q119 -113 119 -275q0 -156 -109 -256q115 -61 177 -161q67 -107 67 -238q0 -188 -129 -317q-130 -133 -321 -133q-106 0 -197 45z" />
    <glyph glyph-name="Agrave" unicode="&#xe0;" horiz-adv-x="1239" 
d="M877 0v88q-120 -108 -297 -108q-137 0 -242 63q-112 63 -178 180q-68 118 -68 258q0 141 70 260q67 118 178 181q104 61 235 61q175 0 302 -109v89h188v-963h-188zM870 301v361q-104 137 -274 137q-134 0 -225 -97q-84 -90 -84 -221q0 -130 90 -223q91 -94 229 -94
q163 0 264 137zM686 1126h-133l-188 250h215z" />
    <glyph glyph-name="Aacute" unicode="&#xe1;" horiz-adv-x="1239" 
d="M877 0v88q-120 -108 -297 -108q-137 0 -242 63q-112 63 -178 180q-68 118 -68 258q0 141 70 260q67 118 178 181q104 61 235 61q175 0 302 -109v89h188v-963h-188zM870 301v361q-104 137 -274 137q-134 0 -225 -97q-84 -90 -84 -221q0 -130 90 -223q91 -94 229 -94
q163 0 264 137zM604 1126h-133l107 254h215z" />
    <glyph glyph-name="Acircumflex" unicode="&#xe2;" horiz-adv-x="1239" 
d="M877 0v88q-120 -108 -297 -108q-137 0 -242 63q-112 63 -178 180q-68 118 -68 258q0 141 70 260q67 118 178 181q104 61 235 61q175 0 302 -109v89h188v-963h-188zM870 301v361q-104 137 -274 137q-134 0 -225 -97q-84 -90 -84 -221q0 -130 90 -223q91 -94 229 -94
q163 0 264 137zM444 1071h-129l168 266h193l168 -266h-129l-135 150z" />
    <glyph glyph-name="Atilde" unicode="&#xe3;" horiz-adv-x="1239" 
d="M877 0v88q-120 -108 -297 -108q-137 0 -242 63q-112 63 -178 180q-68 118 -68 258q0 141 70 260q67 118 178 181q104 61 235 61q175 0 302 -109v89h188v-963h-188zM870 301v361q-104 137 -274 137q-134 0 -225 -97q-84 -90 -84 -221q0 -130 90 -223q91 -94 229 -94
q163 0 264 137zM467 1079l-107 35q3 74 48 125q47 53 118 53q44 0 119 -37q71 -36 105 -36q49 0 61 73l107 -35q-3 -73 -48 -124q-48 -54 -118 -54q-44 0 -117 37l-29 14l-26 11q-27 12 -52 12q-49 0 -61 -74z" />
    <glyph glyph-name="Adieresis017" unicode="&#xe4;" horiz-adv-x="1239" 
d="M328 1356q37 37 90 37q52 0 92 -37q37 -40 37 -92q0 -53 -37 -90q-40 -37 -92 -37q-53 0 -90 37t-37 90q0 52 37 92zM707 1356q37 37 90 37q52 0 92 -37q37 -40 37 -92q0 -53 -37 -90q-40 -37 -92 -37q-53 0 -90 37t-37 90q0 52 37 92zM877 0v88q-120 -108 -297 -108
q-137 0 -242 63q-112 63 -178 180q-68 118 -68 258q0 141 70 260q67 118 178 181q104 61 235 61q175 0 302 -109v89h188v-963h-188zM870 301v361q-104 137 -274 137q-134 0 -225 -97q-84 -90 -84 -221q0 -130 90 -223q91 -94 229 -94q163 0 264 137z" />
    <glyph glyph-name="Aring018" unicode="&#xe5;" horiz-adv-x="1239" 
d="M463 1436q62 59 145 59q84 0 146 -59q59 -62 59 -146q0 -83 -59 -145q-63 -60 -146 -60q-82 0 -145 60q-60 63 -60 145q0 83 60 146zM551 1233q25 -25 57 -25q36 0 58 25q24 24 24 57q0 37 -24 58q-21 24 -58 24q-33 0 -57 -24q-25 -22 -25 -58q0 -32 25 -57zM877 0v88
q-120 -108 -297 -108q-137 0 -242 63q-112 63 -178 180q-68 118 -68 258q0 141 70 260q67 118 178 181q104 61 235 61q175 0 302 -109v89h188v-963h-188zM870 301v361q-104 137 -274 137q-134 0 -225 -97q-84 -90 -84 -221q0 -130 90 -223q91 -94 229 -94q163 0 264 137z
" />
    <glyph glyph-name="AE050" unicode="&#xe6;" horiz-adv-x="1902" 
d="M877 0v88q-120 -108 -297 -108q-137 0 -242 63q-112 63 -178 180q-68 118 -68 258q0 141 70 260q67 118 178 181q104 61 235 61q175 0 302 -109v89h172v-89q121 109 288 109q197 0 336 -145q137 -143 137 -357v-16q0 -17 -2 -25h-751q9 -123 102 -207q95 -83 225 -83
q93 0 166 43q53 31 105 88l127 -121q-143 -180 -393 -180q-200 0 -340 131v-111h-172zM870 301v361q-104 137 -274 137q-134 0 -225 -97q-84 -90 -84 -221q0 -130 90 -223q91 -94 229 -94q163 0 264 137zM1171 756q-78 -59 -104 -152h541q-21 93 -99 152q-72 57 -163 57
q-100 0 -175 -57z" />
    <glyph glyph-name="Ccedilla048" unicode="&#xe7;" horiz-adv-x="1085" 
d="M885 313l149 -108q-115 -192 -358 -219l-53 -273h-215l124 273q-192 21 -317 161q-123 138 -123 334q0 215 144 359q143 143 358 143q260 0 410 -209l-144 -121q-106 146 -266 146q-129 0 -219 -90q-88 -88 -88 -228q0 -139 90 -229q88 -88 229 -88q166 0 279 149z" />
    <glyph glyph-name="Egrave" unicode="&#xe8;" horiz-adv-x="1116" 
d="M1022 440h-741q9 -126 96 -207q89 -83 215 -83q96 0 172 43q46 24 104 88l127 -121q-137 -180 -405 -180q-211 0 -354 143q-144 144 -144 358q0 217 133 359q131 143 336 143q201 0 332 -143t131 -359v-16q0 -17 -2 -25zM397 756q-75 -58 -100 -152h524q-22 92 -94 152
q-69 57 -160 57q-95 0 -170 -57zM666 1126h-134l-188 250h215z" />
    <glyph glyph-name="Eacute" unicode="&#xe9;" horiz-adv-x="1116" 
d="M1022 440h-741q9 -126 96 -207q89 -83 215 -83q96 0 172 43q46 24 104 88l127 -121q-137 -180 -405 -180q-211 0 -354 143q-144 144 -144 358q0 217 133 359q131 143 336 143q201 0 332 -143t131 -359v-16q0 -17 -2 -25zM397 756q-75 -58 -100 -152h524q-22 92 -94 152
q-69 57 -160 57q-95 0 -170 -57zM584 1126h-133l106 254h215z" />
    <glyph glyph-name="Ecircumflex" unicode="&#xea;" horiz-adv-x="1116" 
d="M1022 440h-741q9 -126 96 -207q89 -83 215 -83q96 0 172 43q46 24 104 88l127 -121q-137 -180 -405 -180q-211 0 -354 143q-144 144 -144 358q0 217 133 359q131 143 336 143q201 0 332 -143t131 -359v-16q0 -17 -2 -25zM397 756q-75 -58 -100 -152h524q-22 92 -94 152
q-69 57 -160 57q-95 0 -170 -57zM424 1071h-129l168 266h192l168 -266h-129l-135 150z" />
    <glyph glyph-name="Edieresis" unicode="&#xeb;" horiz-adv-x="1116" 
d="M276 1356q37 37 91 37q52 0 92 -37q37 -40 37 -92q0 -53 -37 -90q-40 -37 -92 -37q-54 0 -91 37q-36 36 -36 90q0 53 36 92zM655 1356q37 37 90 37t93 -37q36 -39 36 -92q0 -54 -36 -90q-40 -37 -93 -37t-90 37t-37 90q0 52 37 92zM1022 440h-741q9 -126 96 -207
q89 -83 215 -83q96 0 172 43q46 24 104 88l127 -121q-137 -180 -405 -180q-211 0 -354 143q-144 144 -144 358q0 217 133 359q131 143 336 143q201 0 332 -143t131 -359v-16q0 -17 -2 -25zM397 756q-75 -58 -100 -152h524q-22 92 -94 152q-69 57 -160 57q-95 0 -170 -57z
" />
    <glyph glyph-name="Igrave" unicode="&#xec;" horiz-adv-x="542" 
d="M174 0v963h195v-963h-195zM379 1126h-133l-189 250h215z" />
    <glyph glyph-name="Iacute" unicode="&#xed;" horiz-adv-x="542" 
d="M174 0v963h195v-963h-195zM297 1126h-133l106 254h215z" />
    <glyph glyph-name="Icircumflex" unicode="&#xee;" horiz-adv-x="542" 
d="M174 0v963h195v-963h-195zM137 1071h-129l168 266h193l168 -266h-129l-136 150z" />
    <glyph glyph-name="Idieresis" unicode="&#xef;" horiz-adv-x="542" 
d="M174 0v963h195v-963h-195zM-10 1356q37 37 90 37q52 0 92 -37q37 -40 37 -92q0 -53 -37 -90q-40 -37 -92 -37q-53 0 -90 37t-37 90q0 52 37 92zM369 1356q37 37 90 37q52 0 92 -37q37 -40 37 -92q0 -53 -37 -90q-40 -37 -92 -37q-53 0 -90 37t-37 90q0 52 37 92z" />
    <glyph glyph-name="Eth052" unicode="&#xf0;" horiz-adv-x="1179" 
d="M537 1130l-164 -104l-92 139l163 105l-120 184h227l53 -84l164 105l92 -140l-164 -104l246 -369q145 -222 145 -381q0 -210 -141 -354q-144 -147 -356 -147q-213 0 -357 147q-141 144 -141 354q0 211 141 355q141 147 357 147q1 0 47 -4zM371 707q-84 -93 -84 -226
q0 -132 84 -225q89 -92 219 -92t219 92q84 93 84 225q0 146 -107 271q-89 47 -196 47q-130 0 -219 -92z" />
    <glyph glyph-name="Ntilde019" unicode="&#xf1;" horiz-adv-x="1249" 
d="M362 963v-93q46 46 111 76q81 37 178 37q218 0 350 -170q95 -121 95 -342v-471h-195v481q0 155 -57 224q-73 94 -199 94q-163 0 -276 -137v-662h-195v963h188zM422 1147l-133 43q3 93 59 158q59 65 148 65q58 0 147 -45l35 -18l33 -15q35 -14 63 -14q63 0 78 92l133 -43
q-3 -93 -59 -158q-59 -65 -148 -65q-55 0 -147 47l-35 16l-33 15q-35 14 -63 14q-63 0 -78 -92z" />
    <glyph glyph-name="Ograve" unicode="&#xf2;" horiz-adv-x="1179" 
d="M233 840q143 143 357 143q213 0 356 -143q141 -144 141 -359q0 -214 -141 -358q-143 -143 -356 -143q-214 0 -357 143q-141 144 -141 358q0 215 141 359zM371 256q89 -92 219 -92t219 92q84 93 84 225q0 133 -84 226q-89 92 -219 92t-219 -92q-84 -93 -84 -226
q0 -132 84 -225zM696 1126h-133l-188 250h215z" />
    <glyph glyph-name="Oacute" unicode="&#xf3;" horiz-adv-x="1179" 
d="M233 840q143 143 357 143q213 0 356 -143q141 -144 141 -359q0 -214 -141 -358q-143 -143 -356 -143q-214 0 -357 143q-141 144 -141 358q0 215 141 359zM371 256q89 -92 219 -92t219 92q84 93 84 225q0 133 -84 226q-89 92 -219 92t-219 -92q-84 -93 -84 -226
q0 -132 84 -225zM616 1126h-133l107 254h215z" />
    <glyph glyph-name="Ocircumflex" unicode="&#xf4;" horiz-adv-x="1179" 
d="M233 840q143 143 357 143q213 0 356 -143q141 -144 141 -359q0 -214 -141 -358q-143 -143 -356 -143q-214 0 -357 143q-141 144 -141 358q0 215 141 359zM371 256q89 -92 219 -92t219 92q84 93 84 225q0 133 -84 226q-89 92 -219 92t-219 -92q-84 -93 -84 -226
q0 -132 84 -225zM455 1071h-129l168 266h192l168 -266h-129l-135 150z" />
    <glyph glyph-name="Otilde" unicode="&#xf5;" horiz-adv-x="1179" 
d="M233 840q143 143 357 143q213 0 356 -143q141 -144 141 -359q0 -214 -141 -358q-143 -143 -356 -143q-214 0 -357 143q-141 144 -141 358q0 215 141 359zM371 256q89 -92 219 -92t219 92q84 93 84 225q0 133 -84 226q-89 92 -219 92t-219 -92q-84 -93 -84 -226
q0 -132 84 -225zM418 1079l-107 35q3 75 47 125q47 53 119 53q44 0 119 -37q71 -36 104 -36q50 0 62 73l106 -35q-3 -74 -47 -124q-48 -54 -119 -54q-43 0 -116 37l-29 14l-27 11q-27 12 -51 12q-49 0 -61 -74z" />
    <glyph glyph-name="Odieresis020" unicode="&#xf6;" horiz-adv-x="1179" 
d="M233 840q143 143 357 143q213 0 356 -143q141 -144 141 -359q0 -214 -141 -358q-143 -143 -356 -143q-214 0 -357 143q-141 144 -141 358q0 215 141 359zM371 256q89 -92 219 -92t219 92q84 93 84 225q0 133 -84 226q-89 92 -219 92t-219 -92q-84 -93 -84 -226
q0 -132 84 -225zM309 1356q37 37 90 37t93 -37q36 -39 36 -92q0 -54 -36 -90q-40 -37 -93 -37t-90 37t-37 90q0 52 37 92zM688 1356q37 37 90 37q52 0 92 -37q37 -40 37 -92q0 -53 -37 -90q-40 -37 -92 -37q-53 0 -90 37t-37 90q0 52 37 92z" />
    <glyph glyph-name="divide" unicode="&#xf7;" horiz-adv-x="1105" 
d="M102 625h902v-185h-902v185zM451 307q44 41 102 41t102 -41q41 -44 41 -102q0 -59 -41 -103q-44 -41 -102 -41t-102 41q-41 44 -41 103q0 58 41 102zM451 963q44 41 102 41t102 -41q41 -44 41 -103q0 -58 -41 -102q-44 -41 -102 -41t-102 41q-41 44 -41 102q0 59 41 103z
" />
    <glyph glyph-name="Oslash049" unicode="&#xf8;" horiz-adv-x="1179" 
d="M233 840q143 143 357 143q131 0 252 -65l57 65h227l-151 -178q112 -136 112 -324q0 -214 -141 -358q-143 -143 -356 -143q-144 0 -252 63l-53 -63h-230l148 176q-111 138 -111 325q0 215 141 359zM332 309l387 461q-66 29 -129 29q-130 0 -219 -92q-84 -93 -84 -226
q0 -98 45 -172zM848 651l-387 -461q56 -26 129 -26q130 0 219 92q84 93 84 225q0 96 -45 170z" />
    <glyph glyph-name="Ugrave" unicode="&#xf9;" horiz-adv-x="1228" 
d="M242 141q-88 107 -88 330v492h194v-523q0 -128 55 -192q72 -84 187 -84q86 0 160 45q61 34 110 92v662h195v-963h-189v88q-44 -44 -106 -70q-80 -38 -176 -38q-215 0 -342 161zM711 1126h-133l-189 250h215z" />
    <glyph glyph-name="Uacute" unicode="&#xfa;" horiz-adv-x="1228" 
d="M242 141q-88 107 -88 330v492h194v-523q0 -128 55 -192q72 -84 187 -84q86 0 160 45q61 34 110 92v662h195v-963h-189v88q-44 -44 -106 -70q-80 -38 -176 -38q-215 0 -342 161zM631 1126h-133l106 254h215z" />
    <glyph glyph-name="Ucircumflex" unicode="&#xfb;" horiz-adv-x="1228" 
d="M242 141q-88 107 -88 330v492h194v-523q0 -128 55 -192q72 -84 187 -84q86 0 160 45q61 34 110 92v662h195v-963h-189v88q-44 -44 -106 -70q-80 -38 -176 -38q-215 0 -342 161zM469 1071h-129l168 266h192l168 -266h-129l-135 150z" />
    <glyph glyph-name="Udieresis021" unicode="&#xfc;" horiz-adv-x="1228" 
d="M324 1356q37 37 90 37q52 0 92 -37q37 -40 37 -92q0 -53 -37 -90q-40 -37 -92 -37q-53 0 -90 37t-37 90q0 52 37 92zM702 1356q37 37 91 37q52 0 92 -37q37 -40 37 -92q0 -53 -37 -90q-40 -37 -92 -37q-54 0 -91 37q-36 36 -36 90q0 53 36 92zM242 141q-88 107 -88 330
v492h194v-523q0 -128 55 -192q72 -84 187 -84q86 0 160 45q61 34 110 92v662h195v-963h-189v88q-44 -44 -106 -70q-80 -38 -176 -38q-215 0 -342 161z" />
    <glyph glyph-name="Yacute027" unicode="&#xfd;" horiz-adv-x="1042" 
d="M379 -492h-207l260 592l-412 863h209l301 -635l277 635h205zM543 1126h-133l106 254h215z" />
    <glyph glyph-name="Thorn" unicode="&#xfe;" horiz-adv-x="1239" 
d="M174 1454h195v-575q125 104 295 104q131 0 235 -61q111 -63 178 -181q70 -119 70 -260q0 -140 -68 -258q-66 -117 -178 -180q-105 -63 -242 -63q-171 0 -290 104v-576h-195v1946zM369 662v-361q101 -137 264 -137q138 0 229 94q90 93 90 223q0 131 -84 221
q-91 97 -225 97q-170 0 -274 -137z" />
    <glyph glyph-name="Ydieresis025" unicode="&#xff;" horiz-adv-x="1042" 
d="M379 -492h-207l260 592l-412 863h209l301 -635l277 635h205zM229 1356q37 37 90 37t93 -37q37 -40 37 -92q0 -53 -37 -90q-40 -37 -93 -37t-90 37q-36 36 -36 90q0 53 36 92zM608 1356q37 37 90 37t93 -37q36 -39 36 -92q0 -54 -36 -90q-40 -37 -93 -37t-90 37t-37 90
q0 52 37 92z" />
    <glyph glyph-name="Amacron" unicode="&#x100;" horiz-adv-x="1351" 
d="M369 1761h614v-174h-614v174zM1128 0l-151 369h-604l-150 -369h-213l594 1434h144l593 -1434h-213zM676 1096l-221 -533h442z" />
    <glyph glyph-name="Amacron057" unicode="&#x101;" horiz-adv-x="1239" 
d="M328 1352h614v-174h-614v174zM877 0v88q-120 -108 -297 -108q-137 0 -242 63q-112 63 -178 180q-68 118 -68 258q0 141 70 260q67 118 178 181q104 61 235 61q175 0 302 -109v89h188v-963h-188zM870 301v361q-104 137 -274 137q-134 0 -225 -97q-84 -90 -84 -221
q0 -130 90 -223q91 -94 229 -94q163 0 264 137z" />
    <glyph glyph-name="Abreve" unicode="&#x102;" horiz-adv-x="1351" 
d="M1128 0l-151 369h-604l-150 -369h-213l594 1434h144l593 -1434h-213zM676 1096l-221 -533h442zM774 1796h131q0 -95 -67 -162t-162 -67t-162 67q-68 68 -68 162h132q0 -42 28 -70t70 -28q41 0 69 28q29 29 29 70z" />
    <glyph glyph-name="Abreve058" unicode="&#x103;" horiz-adv-x="1239" 
d="M877 0v88q-120 -108 -297 -108q-137 0 -242 63q-112 63 -178 180q-68 118 -68 258q0 141 70 260q67 118 178 181q104 61 235 61q175 0 302 -109v89h188v-963h-188zM870 301v361q-104 137 -274 137q-134 0 -225 -97q-84 -90 -84 -221q0 -130 90 -223q91 -94 229 -94
q163 0 264 137zM782 1325h131q0 -95 -67 -162t-162 -67t-162 67t-67 162h131q0 -42 28 -70t70 -28t70 28t28 70z" />
    <glyph glyph-name="Aogonek" unicode="&#x104;" horiz-adv-x="1351" 
d="M748 1434l593 -1434q-36 -58 -45 -82q-22 -58 -22 -94q0 -90 96 -90q28 0 47 8l31 -174q-8 -4 -14 -6q-4 -1 -12.5 -3t-12.5 -3q-40 -7 -74 -7q-109 0 -184 72q-72 72 -72 174q0 48 17 111q12 38 37 82l-156 381h-604l-150 -369h-213l594 1434h144zM676 1096l-221 -533
h442z" />
    <glyph glyph-name="Aogonek059" unicode="&#x105;" horiz-adv-x="1239" 
d="M821 -63q21 52 56 92v59q-120 -108 -297 -108q-137 0 -242 63q-112 63 -178 180q-68 118 -68 258q0 141 70 260q67 118 178 181q104 61 235 61q175 0 302 -109v89h188v-963h-14q-28 -45 -43 -82q-21 -52 -21 -94q0 -90 96 -90q28 0 47 8l31 -174q-8 -4 -14 -6
q-4 -1 -12.5 -3t-12.5 -3q-40 -7 -73 -7q-110 0 -185 72q-71 71 -71 174q0 69 28 142zM870 301v361q-104 137 -274 137q-134 0 -225 -97q-84 -90 -84 -221q0 -130 90 -223q91 -94 229 -94q163 0 264 137z" />
    <glyph glyph-name="Cacute" unicode="&#x106;" horiz-adv-x="1413" 
d="M279 1241q210 213 518 213q324 0 524 -221l-137 -135q-146 162 -387 162q-221 0 -371 -156t-150 -387q0 -261 160 -406q143 -137 379 -137q128 0 248 66q97 56 164 137l145 -131q-97 -124 -242 -193q-149 -73 -315 -73q-321 0 -532 208q-211 211 -211 529q0 311 207 524z
M829 1536h-133l133 307h215z" />
    <glyph glyph-name="Cacute060" unicode="&#x107;" horiz-adv-x="1085" 
d="M885 313l149 -108q-57 -100 -178 -162q-117 -63 -250 -63q-222 0 -368 143q-146 146 -146 358q0 215 144 359q143 143 358 143q260 0 410 -209l-144 -121q-106 146 -266 146q-129 0 -219 -90q-88 -88 -88 -228q0 -139 90 -229q88 -88 229 -88q166 0 279 149zM635 1126
h-133l133 308h215z" />
    <glyph glyph-name="Ccircumflex" unicode="&#x108;" horiz-adv-x="1413" 
d="M279 1241q210 213 518 213q324 0 524 -221l-137 -135q-146 162 -387 162q-221 0 -371 -156t-150 -387q0 -261 160 -406q143 -137 379 -137q128 0 248 66q97 56 164 137l145 -131q-97 -124 -242 -193q-149 -73 -315 -73q-321 0 -532 208q-211 211 -211 529q0 311 207 524z
M612 1536h-133l195 307h225l195 -307h-133l-175 193z" />
    <glyph glyph-name="Ccircumflex061" unicode="&#x109;" horiz-adv-x="1085" 
d="M885 313l149 -108q-57 -100 -178 -162q-117 -63 -250 -63q-222 0 -368 143q-146 146 -146 358q0 215 144 359q143 143 358 143q260 0 410 -209l-144 -121q-106 146 -266 146q-129 0 -219 -90q-88 -88 -88 -228q0 -139 90 -229q88 -88 229 -88q166 0 279 149zM399 1126
h-133l195 308h225l195 -308h-133l-175 193z" />
    <glyph glyph-name="Cdotaccent" unicode="&#x10a;" horiz-adv-x="1413" 
d="M279 1241q210 213 518 213q324 0 524 -221l-137 -135q-146 162 -387 162q-221 0 -371 -156t-150 -387q0 -261 160 -406q143 -137 379 -137q128 0 248 66q97 56 164 137l145 -131q-97 -124 -242 -193q-149 -73 -315 -73q-321 0 -532 208q-211 211 -211 529q0 311 207 524z
M696 1806q37 37 90 37t93 -37q36 -39 36 -92q0 -54 -36 -90q-40 -37 -93 -37t-90 37t-37 90q0 52 37 92z" />
    <glyph glyph-name="Cdotaccent062" unicode="&#x10b;" horiz-adv-x="1085" 
d="M885 313l149 -108q-57 -100 -178 -162q-117 -63 -250 -63q-222 0 -368 143q-146 146 -146 358q0 215 144 359q143 143 358 143q260 0 410 -209l-144 -121q-106 146 -266 146q-129 0 -219 -90q-88 -88 -88 -228q0 -139 90 -229q88 -88 229 -88q166 0 279 149zM481 1397
q37 37 90 37t93 -37q36 -39 36 -92q0 -55 -36 -91q-39 -36 -93 -36t-90 36q-37 37 -37 91q0 52 37 92z" />
    <glyph glyph-name="Ccaron" unicode="&#x10c;" horiz-adv-x="1413" 
d="M279 1241q210 213 518 213q324 0 524 -221l-137 -135q-146 162 -387 162q-221 0 -371 -156t-150 -387q0 -261 160 -406q143 -137 379 -137q128 0 248 66q97 56 164 137l145 -131q-97 -124 -242 -193q-149 -73 -315 -73q-321 0 -532 208q-211 211 -211 529q0 311 207 524z
M459 1843h133l174 -192l174 192h133l-194 -307h-226z" />
    <glyph glyph-name="Ccaron063" unicode="&#x10d;" horiz-adv-x="1085" 
d="M885 313l149 -108q-57 -100 -178 -162q-117 -63 -250 -63q-222 0 -368 143q-146 146 -146 358q0 215 144 359q143 143 358 143q260 0 410 -209l-144 -121q-106 146 -266 146q-129 0 -219 -90q-88 -88 -88 -228q0 -139 90 -229q88 -88 229 -88q166 0 279 149zM276 1434
h134l174 -193l174 193h133l-195 -308h-225z" />
    <glyph glyph-name="Dcaron" unicode="&#x10e;" horiz-adv-x="1464" 
d="M1014 1118q-139 121 -410 121h-215v-1044h215q272 0 410 120q174 152 174 402q0 249 -174 401zM614 0h-430v1434h430q306 0 492 -136q135 -105 209 -249q78 -159 78 -332q0 -178 -76 -330t-209 -252q-184 -135 -494 -135zM315 1843h134l174 -192l174 192h133l-195 -307
h-225z" />
    <glyph glyph-name="Dcaron064" unicode="&#x10f;" horiz-adv-x="1361" 
d="M1260 1126h-134l134 308h215zM877 0v88q-120 -108 -297 -108q-137 0 -242 63q-112 63 -178 180q-68 118 -68 258q0 141 70 260q67 118 178 181q104 61 235 61q170 0 295 -104v575h195v-1454h-188zM870 301v361q-104 137 -274 137q-134 0 -225 -97q-84 -90 -84 -221
q0 -130 90 -223q91 -94 229 -94q163 0 264 137z" />
    <glyph glyph-name="Dcroat" unicode="&#x110;" horiz-adv-x="1464" 
d="M614 0h-430v676h-204v194h204v564h430q306 0 492 -136q135 -105 209 -249q78 -159 78 -332q0 -178 -76 -330t-209 -252q-184 -135 -494 -135zM1014 1118q-139 121 -410 121h-215v-369h410v-194h-410v-481h215q272 0 410 120q174 152 174 402q0 249 -174 401z" />
    <glyph glyph-name="Dcroat065" unicode="&#x111;" horiz-adv-x="1239" 
d="M877 0v88q-120 -108 -297 -108q-137 0 -242 63q-112 63 -178 180q-68 118 -68 258q0 141 70 260q67 118 178 181q104 61 235 61q170 0 295 -104v217h-245v174h245v184h195v-184h164v-174h-164v-1096h-188zM870 301v361q-104 137 -274 137q-134 0 -225 -97
q-84 -90 -84 -221q0 -130 90 -223q91 -94 229 -94q163 0 264 137z" />
    <glyph glyph-name="Emacron" unicode="&#x112;" horiz-adv-x="1105" 
d="M389 870h471v-194h-471v-481h635v-195h-840v1434h820v-195h-615v-369zM287 1761h614v-174h-614v174z" />
    <glyph glyph-name="Emacron066" unicode="&#x113;" horiz-adv-x="1116" 
d="M254 1352h614v-174h-614v174zM1022 440h-741q9 -126 96 -207q89 -83 215 -83q96 0 172 43q46 24 104 88l127 -121q-137 -180 -405 -180q-211 0 -354 143q-144 144 -144 358q0 217 133 359q131 143 336 143q201 0 332 -143t131 -359v-16q0 -17 -2 -25zM397 756
q-75 -58 -100 -152h524q-22 92 -94 152q-69 57 -160 57q-95 0 -170 -57z" />
    <glyph glyph-name="ebreve107" unicode="&#x114;" horiz-adv-x="1105" 
d="M389 870h471v-194h-471v-481h635v-195h-840v1434h820v-195h-615v-369zM707 1843h174q0 -119 -84 -203t-203 -84t-203 84t-84 203h174q0 -47 33 -80q32 -32 80 -32t80 32q33 33 33 80z" />
    <glyph glyph-name="ebreve" unicode="&#x115;" horiz-adv-x="1116" 
d="M684 1434h174q0 -119 -84 -203t-203 -84q-118 0 -202 84t-84 203h174q0 -47 33 -80t79 -33q47 0 80 33t33 80zM1022 440h-741q9 -126 96 -207q89 -83 215 -83q96 0 172 43q46 24 104 88l127 -121q-137 -180 -405 -180q-211 0 -354 143q-144 144 -144 358q0 217 133 359
q131 143 336 143q201 0 332 -143t131 -359v-16q0 -17 -2 -25zM397 756q-75 -58 -100 -152h524q-22 92 -94 152q-69 57 -160 57q-95 0 -170 -57z" />
    <glyph glyph-name="Edotaccent" unicode="&#x116;" horiz-adv-x="1105" 
d="M389 870h471v-194h-471v-481h635v-195h-840v1434h820v-195h-615v-369zM504 1806q37 37 90 37q52 0 92 -37q37 -40 37 -92q0 -53 -37 -90q-40 -37 -92 -37q-53 0 -90 37t-37 90q0 52 37 92z" />
    <glyph glyph-name="Edotaccent067" unicode="&#x117;" horiz-adv-x="1116" 
d="M471 1397q37 37 90 37q52 0 92 -37q37 -40 37 -92q0 -54 -37 -91q-39 -36 -92 -36q-54 0 -90 36q-37 37 -37 91q0 52 37 92zM1022 440h-741q9 -126 96 -207q89 -83 215 -83q96 0 172 43q46 24 104 88l127 -121q-137 -180 -405 -180q-211 0 -354 143q-144 144 -144 358
q0 217 133 359q131 143 336 143q201 0 332 -143t131 -359v-16q0 -17 -2 -25zM397 756q-75 -58 -100 -152h524q-22 92 -94 152q-69 57 -160 57q-95 0 -170 -57z" />
    <glyph glyph-name="Eogonek" unicode="&#x118;" horiz-adv-x="1105" 
d="M389 870h471v-194h-471v-481h635v-195h-315q-28 -45 -43 -82q-21 -52 -21 -94q0 -90 96 -90q28 0 47 8l31 -174q-8 -4 -14 -6q-4 -1 -12.5 -3t-12.5 -3q-40 -7 -73 -7q-110 0 -185 72q-71 71 -71 174q0 63 20 119q12 37 41 86h-328v1434h820v-195h-615v-369z" />
    <glyph glyph-name="Eogonek068" unicode="&#x119;" horiz-adv-x="1116" 
d="M1022 440h-741q9 -126 96 -207q89 -83 215 -83q96 0 172 43q46 24 104 88l127 -121q-77 -102 -207 -148q-28 -42 -47 -84q-24 -59 -24 -104q0 -90 96 -90q28 0 47 8l31 -174q-8 -4 -14 -6q-4 -1 -12.5 -3t-12.5 -3q-40 -7 -74 -7q-109 0 -184 72q-72 72 -72 174
q0 106 49 185q-205 9 -342 149t-137 352q0 217 133 359q131 143 336 143q201 0 332 -143t131 -359v-16q0 -17 -2 -25zM397 756q-75 -58 -100 -152h524q-22 92 -94 152q-69 57 -160 57q-95 0 -170 -57z" />
    <glyph glyph-name="Ecaron" unicode="&#x11a;" horiz-adv-x="1105" 
d="M389 870h471v-194h-471v-481h635v-195h-840v1434h820v-195h-615v-369zM287 1843h133l174 -192l174 192h133l-194 -307h-226z" />
    <glyph glyph-name="Ecaron069" unicode="&#x11b;" horiz-adv-x="1116" 
d="M260 1434h133l174 -193l174 193h133l-194 -308h-225zM1022 440h-741q9 -126 96 -207q89 -83 215 -83q96 0 172 43q46 24 104 88l127 -121q-137 -180 -405 -180q-211 0 -354 143q-144 144 -144 358q0 217 133 359q131 143 336 143q201 0 332 -143t131 -359v-16
q0 -17 -2 -25zM397 756q-75 -58 -100 -152h524q-22 92 -94 152q-69 57 -160 57q-95 0 -170 -57z" />
    <glyph glyph-name="Gcircumflex" unicode="&#x11c;" horiz-adv-x="1505" 
d="M1372 870v-624q-95 -120 -242 -191q-150 -75 -315 -75q-321 0 -532 208q-211 211 -211 529q0 311 207 524q210 213 518 213q324 0 524 -221l-137 -135q-146 162 -387 162q-221 0 -371 -156t-150 -387q0 -240 156 -393q150 -150 383 -150q219 0 352 133v369h-409v194h614z
M592 1536h-133l194 307h226l194 -307h-133l-174 193z" />
    <glyph glyph-name="Gcircumflex070" unicode="&#x11d;" horiz-adv-x="1239" 
d="M455 1126h-133l194 308h225l195 -308h-133l-174 193zM870 31v53q-119 -104 -290 -104q-137 0 -242 63q-112 63 -178 180q-68 118 -68 258q0 141 70 260q67 118 178 181q104 61 235 61q175 0 302 -109v89h188v-922q0 -204 -57 -315q-124 -238 -416 -238q-171 0 -305 76
q-109 59 -164 147l143 133q129 -172 318 -172q162 0 233 111q53 83 53 248zM870 301v361q-104 137 -274 137q-134 0 -225 -97q-84 -90 -84 -221q0 -130 90 -223q91 -94 229 -94q163 0 264 137z" />
    <glyph glyph-name="Gbreve" unicode="&#x11e;" horiz-adv-x="1505" 
d="M1372 870v-624q-95 -120 -242 -191q-150 -75 -315 -75q-321 0 -532 208q-211 211 -211 529q0 311 207 524q210 213 518 213q324 0 524 -221l-137 -135q-146 162 -387 162q-221 0 -371 -156t-150 -387q0 -240 156 -393q150 -150 383 -150q219 0 352 133v369h-409v194h614z
M889 1843h164q0 -119 -84 -203t-203 -84t-203 84t-84 203h164q0 -52 37 -86q34 -37 86 -37t86 37q37 34 37 86z" />
    <glyph glyph-name="Gbreve071" unicode="&#x11f;" horiz-adv-x="1239" 
d="M748 1434h163q0 -119 -84 -203t-202 -84q-119 0 -203 84t-84 203h164q0 -52 37 -86q34 -37 86 -37t86 37q37 34 37 86zM870 31v53q-119 -104 -290 -104q-137 0 -242 63q-112 63 -178 180q-68 118 -68 258q0 141 70 260q67 118 178 181q104 61 235 61q175 0 302 -109v89
h188v-922q0 -204 -57 -315q-124 -238 -416 -238q-171 0 -305 76q-109 59 -164 147l143 133q129 -172 318 -172q162 0 233 111q53 83 53 248zM870 301v361q-104 137 -274 137q-134 0 -225 -97q-84 -90 -84 -221q0 -130 90 -223q91 -94 229 -94q163 0 264 137z" />
    <glyph glyph-name="Gdotaccent" unicode="&#x120;" horiz-adv-x="1505" 
d="M1372 870v-624q-95 -120 -242 -191q-150 -75 -315 -75q-321 0 -532 208q-211 211 -211 529q0 311 207 524q210 213 518 213q324 0 524 -221l-137 -135q-146 162 -387 162q-221 0 -371 -156t-150 -387q0 -240 156 -393q150 -150 383 -150q219 0 352 133v369h-409v194h614z
M676 1806q37 37 90 37q52 0 92 -37q37 -40 37 -92q0 -53 -37 -90q-40 -37 -92 -37q-53 0 -90 37t-37 90q0 52 37 92z" />
    <glyph glyph-name="Gdotaccent072" unicode="&#x121;" horiz-adv-x="1239" 
d="M483 1397q37 37 90 37t93 -37q36 -39 36 -92q0 -55 -36 -91q-39 -36 -93 -36t-90 36q-37 37 -37 91q0 52 37 92zM870 31v53q-119 -104 -290 -104q-137 0 -242 63q-112 63 -178 180q-68 118 -68 258q0 141 70 260q67 118 178 181q104 61 235 61q175 0 302 -109v89h188
v-922q0 -204 -57 -315q-124 -238 -416 -238q-171 0 -305 76q-109 59 -164 147l143 133q129 -172 318 -172q162 0 233 111q53 83 53 248zM870 301v361q-104 137 -274 137q-134 0 -225 -97q-84 -90 -84 -221q0 -130 90 -223q91 -94 229 -94q163 0 264 137z" />
    <glyph glyph-name="Gcommaaccent" unicode="&#x122;" horiz-adv-x="1505" 
d="M1372 870v-624q-95 -120 -242 -191q-150 -75 -315 -75q-321 0 -532 208q-211 211 -211 529q0 311 207 524q210 213 518 213q324 0 524 -221l-137 -135q-146 162 -387 162q-221 0 -371 -156t-150 -387q0 -240 156 -393q150 -150 383 -150q219 0 352 133v369h-409v194h614z
M713 -410h-133l133 308h215z" />
    <glyph glyph-name="Gcommaaccent073" unicode="&#x123;" horiz-adv-x="1239" 
d="M684 1434h133l-133 -308h-215zM870 31v53q-119 -104 -290 -104q-137 0 -242 63q-112 63 -178 180q-68 118 -68 258q0 141 70 260q67 118 178 181q104 61 235 61q175 0 302 -109v89h188v-922q0 -204 -57 -315q-124 -238 -416 -238q-171 0 -305 76q-109 59 -164 147
l143 133q129 -172 318 -172q162 0 233 111q53 83 53 248zM870 301v361q-104 137 -274 137q-134 0 -225 -97q-84 -90 -84 -221q0 -130 90 -223q91 -94 229 -94q163 0 264 137z" />
    <glyph glyph-name="Hcircumflex" unicode="&#x124;" horiz-adv-x="1576" 
d="M1188 0v676h-799v-676h-205v1434h205v-564h799v564h205v-1434h-205zM614 1536h-133l195 307h225l195 -307h-133l-175 193z" />
    <glyph glyph-name="Hcircumflex074" unicode="&#x125;" horiz-adv-x="1249" 
d="M137 1556h-133l195 308h225l194 -308h-133l-174 193zM369 1454v-575q50 41 110 69q84 35 172 35q218 0 350 -170q95 -121 95 -342v-471h-195v481q0 155 -57 224q-73 94 -199 94q-163 0 -276 -137v-662h-195v1454h195z" />
    <glyph glyph-name="Hbar" unicode="&#x126;" horiz-adv-x="1576" 
d="M1393 1075v-1075h-205v676h-799v-676h-205v1075h-184v195h184v164h205v-164h799v164h205v-164h184v-195h-184zM389 870h799v205h-799v-205z" />
    <glyph glyph-name="Hbar075" unicode="&#x127;" horiz-adv-x="1249" 
d="M369 1454v-184h245v-174h-245v-217q50 41 110 69q84 35 172 35q218 0 350 -170q95 -121 95 -342v-471h-195v481q0 155 -57 224q-73 94 -199 94q-163 0 -276 -137v-662h-195v1096h-164v174h164v184h195z" />
    <glyph glyph-name="Itilde" unicode="&#x128;" horiz-adv-x="573" 
d="M184 0v1434h205v-1434h-205zM115 1550l-107 35q3 75 47 125q47 53 119 53q44 0 119 -37q71 -36 104 -36q50 0 62 73l106 -34q-3 -75 -47 -125q-48 -54 -119 -54q-43 0 -116 37l-29 15l-27 10q-27 12 -51 12q-49 0 -61 -74z" />
    <glyph glyph-name="Itilde108" unicode="&#x129;" horiz-adv-x="542" 
d="M174 0v963h195v-963h-195zM100 1079l-106 35q3 75 47 125q47 53 119 53q44 0 119 -37q71 -36 104 -36q49 0 61 73l107 -35q-3 -74 -47 -124q-48 -54 -119 -54q-44 0 -117 37l-28 14l-27 11q-27 12 -51 12q-50 0 -62 -74z" />
    <glyph glyph-name="Imacron" unicode="&#x12a;" horiz-adv-x="573" 
d="M195 0v1434h204v-1434h-204zM-20 1761h614v-174h-614v174z" />
    <glyph glyph-name="Imacron076" unicode="&#x12b;" horiz-adv-x="542" 
d="M174 0v963h195v-963h-195zM-37 1352h615v-174h-615v174z" />
    <glyph glyph-name="Ibreve" unicode="&#x12c;" horiz-adv-x="573" 
d="M195 0v1434h204v-1434h-204zM410 1843h174q0 -119 -84 -203t-203 -84t-203 84t-84 203h174q0 -47 33 -80q32 -32 80 -32t80 32q33 33 33 80z" />
    <glyph glyph-name="Ibreve113" unicode="&#x12d;" horiz-adv-x="542" 
d="M174 0v963h195v-963h-195zM383 1434h174q0 -119 -84 -203t-203 -84q-118 0 -202 84t-84 203h174q0 -48 32 -80q33 -33 80 -33t80 33t33 80z" />
    <glyph glyph-name="Iogonek" unicode="&#x12e;" horiz-adv-x="573" 
d="M184 20v1414h205v-1434h-24q-28 -45 -43 -82q-21 -53 -21 -94q0 -90 96 -90q28 0 47 8l31 -174q-8 -4 -14 -6q-4 -1 -12.5 -3t-12.5 -3q-40 -7 -74 -7q-109 0 -184 72q-72 72 -72 174q0 69 27 137q19 47 51 88z" />
    <glyph glyph-name="Iogonek077" unicode="&#x12f;" horiz-adv-x="542" 
d="M174 20v943h195v-963h-15q-28 -45 -43 -82q-20 -50 -20 -94q0 -90 96 -90q28 0 47 8l31 -174q-8 -4 -14 -6q-4 -1 -12.5 -3t-12.5 -3q-40 -7 -74 -7q-109 0 -184 72q-72 72 -72 174q0 69 27 137q19 47 51 88zM180 1397q37 37 90 37q52 0 92 -37q37 -40 37 -92
q0 -54 -37 -91q-39 -36 -92 -36q-54 0 -90 36q-37 37 -37 91q0 52 37 92z" />
    <glyph glyph-name="Idotaccent" unicode="&#x130;" horiz-adv-x="573" 
d="M195 0v1434h204v-1434h-204zM207 1806q37 37 90 37q52 0 92 -37q37 -40 37 -92q0 -53 -37 -90q-40 -37 -92 -37q-53 0 -90 37t-37 90q0 52 37 92z" />
    <glyph glyph-name="dotlessi" unicode="&#x131;" horiz-adv-x="542" 
d="M174 0v963h195v-963h-195z" />
    <glyph glyph-name="IJ" unicode="&#x132;" horiz-adv-x="1515" 
d="M184 0v1434h205v-1434h-205zM573 211l183 78q53 -115 190 -115q103 0 162 80q39 51 39 162v1018h205v-1004q0 -156 -49 -244q-51 -92 -148 -149q-92 -57 -209 -57q-124 0 -225 61t-148 170z" />
    <glyph glyph-name="IJ114" unicode="&#x133;" horiz-adv-x="1095" 
d="M174 0v963h195v-963h-195zM180 1397q37 37 90 37q52 0 92 -37q37 -40 37 -92q0 -54 -37 -91q-39 -36 -92 -36q-54 0 -90 36q-37 37 -37 91q0 52 37 92zM733 1397q37 37 90 37q52 0 92 -37q37 -40 37 -92q0 -54 -37 -91q-39 -36 -92 -36q-54 0 -90 36q-37 37 -37 91
q0 52 37 92zM727 -88v1051h195v-1045q0 -181 -62 -270q-112 -160 -315 -160q-72 0 -115 14l41 179q27 -9 72 -9q94 0 147 68q37 49 37 172z" />
    <glyph glyph-name="Jcircumflex" unicode="&#x134;" horiz-adv-x="942" 
d="M0 211l182 78q53 -115 191 -115q103 0 162 80q38 49 38 162v1018h205v-1004q0 -156 -49 -244q-52 -93 -147 -149q-92 -57 -209 -57q-125 0 -226 61q-100 60 -147 170zM461 1536h-133l194 307h226l194 -307h-133l-174 193z" />
    <glyph glyph-name="Jcircumflex078" unicode="&#x135;" horiz-adv-x="583" 
d="M96 1126h-133l195 308h225l195 -308h-134l-174 193zM215 -88v1051h195v-1045q0 -181 -62 -270q-112 -160 -315 -160q-72 0 -115 14l41 179q27 -9 72 -9q94 0 147 68q37 49 37 172z" />
    <glyph glyph-name="Kcommaaccent" unicode="&#x136;" horiz-adv-x="1331" 
d="M184 0v1434h205v-605l590 605h270l-647 -666l688 -768h-262l-639 717v-717h-205zM602 -410h-133l133 308h215z" />
    <glyph glyph-name="Kcommaaccent079" unicode="&#x137;" horiz-adv-x="1126" 
d="M563 528l543 -528h-260l-477 471v-471h-195v1454h195v-860l401 369h274zM479 -410h-133l133 308h215z" />
    <glyph glyph-name="kgreenlandic" unicode="&#x138;" horiz-adv-x="1126" 
d="M563 528l543 -528h-260l-477 471v-471h-195v963h195v-369l401 369h274z" />
    <glyph glyph-name="Lacute" unicode="&#x139;" horiz-adv-x="1064" 
d="M389 1434v-1239h635v-195h-840v1434h205zM338 1536h-133l133 307h215z" />
    <glyph glyph-name="Lacute080" unicode="&#x13a;" horiz-adv-x="542" 
d="M174 0v1454h195v-1454h-195zM319 1556h-133l133 308h216z" />
    <glyph glyph-name="Lcommaaccent" unicode="&#x13b;" horiz-adv-x="1064" 
d="M389 1434v-1239h635v-195h-840v1434h205zM500 -410h-133l133 308h215z" />
    <glyph glyph-name="Lcommaaccent081" unicode="&#x13c;" horiz-adv-x="542" 
d="M174 0v1454h195v-1454h-195zM164 -410h-133l133 308h215z" />
    <glyph glyph-name="Lcaron" unicode="&#x13d;" horiz-adv-x="1064" 
d="M389 1434v-1239h635v-195h-840v1434h205zM584 1126h-133l133 308h215z" />
    <glyph glyph-name="Lcaron082" unicode="&#x13e;" horiz-adv-x="686" 
d="M174 0v1454h195v-1454h-195zM584 1126h-133l133 308h215z" />
    <glyph glyph-name="Ldot" unicode="&#x13f;" horiz-adv-x="1064" 
d="M389 1434v-1239h635v-195h-840v1434h205zM590 809q37 37 90 37q52 0 92 -37q37 -40 37 -92q0 -53 -37 -90q-40 -37 -92 -37q-53 0 -90 37t-37 90q0 52 37 92z" />
    <glyph glyph-name="Ldot109" unicode="&#x140;" horiz-adv-x="624" 
d="M174 0v1454h195v-1454h-195zM487 809q37 37 91 37q52 0 92 -37q37 -40 37 -92q0 -53 -37 -90q-40 -37 -92 -37q-54 0 -91 37q-36 36 -36 90q0 53 36 92z" />
    <glyph glyph-name="Lslash" unicode="&#x141;" horiz-adv-x="1064" 
d="M389 1434v-492l307 178v-221l-307 -178v-526h635v-195h-840v602l-204 -117v222l204 116v611h205z" />
    <glyph glyph-name="Lslash051" unicode="&#x142;" horiz-adv-x="542" 
d="M174 0v610l-205 -118v213l205 118v631h195v-518l204 119v-213l-204 -119v-723h-195z" />
    <glyph glyph-name="Nacute" unicode="&#x143;" horiz-adv-x="1576" 
d="M1249 0l-860 1053v-1053h-205v1434h144l860 -1053v1053h205v-1434h-144zM829 1536h-133l133 307h215z" />
    <glyph glyph-name="Nacute083" unicode="&#x144;" horiz-adv-x="1249" 
d="M655 1126h-133l133 308h215zM362 963v-93q46 46 111 76q81 37 178 37q218 0 350 -170q95 -121 95 -342v-471h-195v481q0 155 -57 224q-73 94 -199 94q-163 0 -276 -137v-662h-195v963h188z" />
    <glyph glyph-name="Ncommaaccent" unicode="&#x145;" horiz-adv-x="1576" 
d="M1249 0l-860 1053v-1053h-205v1434h144l860 -1053v1053h205v-1434h-144zM684 -410h-133l133 308h215z" />
    <glyph glyph-name="Ncommaaccent084" unicode="&#x146;" horiz-adv-x="1249" 
d="M520 -410h-133l133 308h215zM362 963v-93q46 46 111 76q81 37 178 37q218 0 350 -170q95 -121 95 -342v-471h-195v481q0 155 -57 224q-73 94 -199 94q-163 0 -276 -137v-662h-195v963h188z" />
    <glyph glyph-name="Ncaron" unicode="&#x147;" horiz-adv-x="1576" 
d="M1249 0l-860 1053v-1053h-205v1434h144l860 -1053v1053h205v-1434h-144zM461 1843h133l174 -192l174 192h133l-194 -307h-226z" />
    <glyph glyph-name="Ncaron085" unicode="&#x148;" horiz-adv-x="1249" 
d="M338 1434h133l174 -193l174 193h133l-194 -308h-226zM362 963v-93q46 46 111 76q81 37 178 37q218 0 350 -170q95 -121 95 -342v-471h-195v481q0 155 -57 224q-73 94 -199 94q-163 0 -276 -137v-662h-195v963h188z" />
    <glyph glyph-name="napostrophe" unicode="&#x149;" horiz-adv-x="1249" 
d="M307 1126h-133l133 308h215zM362 963v-93q46 46 111 76q81 37 178 37q218 0 350 -170q95 -121 95 -342v-471h-195v481q0 155 -57 224q-73 94 -199 94q-163 0 -276 -137v-662h-195v963h188z" />
    <glyph glyph-name="Eng" unicode="&#x14a;" horiz-adv-x="1576" 
d="M614 -281l183 78q53 -114 190 -114q104 0 162 79q39 51 39 162v150l-799 979v-1053h-205v1434h144l860 -1053v1053h205v-1495q0 -155 -50 -244q-53 -95 -147 -150q-92 -57 -209 -57q-124 0 -225 61t-148 170z" />
    <glyph glyph-name="Eng115" unicode="&#x14b;" horiz-adv-x="1249" 
d="M362 963v-93q46 46 111 76q81 37 178 37q218 0 350 -170q95 -121 95 -342v-553q0 -180 -62 -272q-103 -158 -307 -158q-135 0 -215 51l82 160q50 -27 119 -27q98 0 149 66q39 51 39 174v569q0 155 -57 224q-73 94 -199 94q-163 0 -276 -137v-662h-195v963h188z" />
    <glyph glyph-name="Omacron" unicode="&#x14c;" horiz-adv-x="1576" 
d="M279 1243q205 211 509 211q305 0 510 -211q207 -213 207 -526q0 -311 -207 -524t-510 -213q-302 0 -509 213t-207 524q0 313 207 526zM422 330q147 -156 366 -156q220 0 367 156q145 154 145 387q0 230 -145 387q-147 156 -367 156q-219 0 -366 -156q-146 -158 -146 -387
q0 -232 146 -387zM481 1761h615v-174h-615v174z" />
    <glyph glyph-name="Omacron086" unicode="&#x14d;" horiz-adv-x="1179" 
d="M233 840q143 143 357 143q213 0 356 -143q141 -144 141 -359q0 -214 -141 -358q-143 -143 -356 -143q-214 0 -357 143q-141 144 -141 358q0 215 141 359zM371 256q89 -92 219 -92t219 92q84 93 84 225q0 133 -84 226q-89 92 -219 92t-219 -92q-84 -93 -84 -226
q0 -132 84 -225zM283 1352h614v-174h-614v174z" />
    <glyph glyph-name="Obreve" unicode="&#x14e;" horiz-adv-x="1576" 
d="M279 1243q205 211 509 211q305 0 510 -211q207 -213 207 -526q0 -311 -207 -524t-510 -213q-302 0 -509 213t-207 524q0 313 207 526zM422 330q147 -156 366 -156q220 0 367 156q145 154 145 387q0 230 -145 387q-147 156 -367 156q-219 0 -366 -156q-146 -158 -146 -387
q0 -232 146 -387zM911 1843h164q0 -119 -84 -203t-203 -84q-118 0 -202 84t-84 203h164q0 -53 36 -86q34 -37 86 -37t86 37q37 34 37 86z" />
    <glyph glyph-name="Obreve110" unicode="&#x14f;" horiz-adv-x="1179" 
d="M233 840q143 143 357 143q213 0 356 -143q141 -144 141 -359q0 -214 -141 -358q-143 -143 -356 -143q-214 0 -357 143q-141 144 -141 358q0 215 141 359zM371 256q89 -92 219 -92t219 92q84 93 84 225q0 133 -84 226q-89 92 -219 92t-219 -92q-84 -93 -84 -226
q0 -132 84 -225zM713 1434h164q0 -119 -84 -203t-203 -84t-203 84t-84 203h164q0 -52 37 -86q34 -37 86 -37t86 37q37 34 37 86z" />
    <glyph glyph-name="Ohungarumlaut" unicode="&#x150;" horiz-adv-x="1576" 
d="M279 1243q205 211 509 211q305 0 510 -211q207 -213 207 -526q0 -311 -207 -524t-510 -213q-302 0 -509 213t-207 524q0 313 207 526zM422 330q147 -156 366 -156q220 0 367 156q145 154 145 387q0 230 -145 387q-147 156 -367 156q-219 0 -366 -156q-146 -158 -146 -387
q0 -232 146 -387zM666 1536h-134l134 307h215zM1044 1536h-133l133 307h216z" />
    <glyph glyph-name="Ohungarumlaut087" unicode="&#x151;" horiz-adv-x="1179" 
d="M233 840q143 143 357 143q213 0 356 -143q141 -144 141 -359q0 -214 -141 -358q-143 -143 -356 -143q-214 0 -357 143q-141 144 -141 358q0 215 141 359zM371 256q89 -92 219 -92t219 92q84 93 84 225q0 133 -84 226q-89 92 -219 92t-219 -92q-84 -93 -84 -226
q0 -132 84 -225zM467 1126h-133l133 308h215zM846 1126h-133l133 308h215z" />
    <glyph glyph-name="OE" unicode="&#x152;" horiz-adv-x="2222" 
d="M279 1243q205 211 509 211q305 0 512 -219v199h820v-195h-615v-369h471v-194h-471v-481h635v-195h-840v199q-204 -219 -512 -219q-302 0 -509 213t-207 524q0 313 207 526zM1155 330q145 154 145 387q0 230 -145 387q-147 156 -367 156q-219 0 -366 -156
q-146 -158 -146 -387q0 -232 146 -387q147 -156 366 -156q220 0 367 156z" />
    <glyph glyph-name="OE046" unicode="&#x153;" horiz-adv-x="1916" 
d="M1823 440h-742q9 -125 97 -207q89 -83 215 -83q96 0 172 43q46 24 104 88l127 -121q-137 -180 -405 -180q-264 0 -402 206q-138 -206 -399 -206q-214 0 -357 143q-141 144 -141 358q0 215 141 359q143 143 357 143q250 0 395 -201q133 201 377 201q201 0 332 -143
t131 -359v-16q0 -17 -2 -25zM371 256q89 -92 219 -92t219 92q84 93 84 225q0 133 -84 226q-89 92 -219 92t-219 -92q-84 -93 -84 -226q0 -132 84 -225zM1198 756q-75 -58 -100 -152h524q-22 92 -94 152q-69 57 -160 57q-95 0 -170 -57z" />
    <glyph glyph-name="Racute" unicode="&#x154;" horiz-adv-x="1310" 
d="M553 676h-164v-676h-205v1434h502q175 0 279 -84q141 -114 141 -295t-141 -295q-74 -61 -168 -76l514 -684h-248zM389 870h287q118 0 172 54q53 53 53 131t-53 131t-172 53h-287v-369zM666 1536h-134l134 307h215z" />
    <glyph glyph-name="Racute088" unicode="&#x155;" horiz-adv-x="757" 
d="M440 1126h-133l133 308h215zM727 977l-22 -186q-27 8 -76 8q-74 0 -148 -47q-74 -49 -112 -115v-637h-195v963h188v-111q94 131 289 131q23 0 37 -2q6 -1 20 -2t19 -2z" />
    <glyph glyph-name="Rcommaaccent" unicode="&#x156;" horiz-adv-x="1310" 
d="M553 676h-164v-676h-205v1434h502q175 0 279 -84q141 -114 141 -295t-141 -295q-74 -61 -168 -76l514 -684h-248zM389 870h287q118 0 172 54q53 53 53 131t-53 131t-172 53h-287v-369zM602 -410h-133l133 308h215z" />
    <glyph glyph-name="Rcommaaccent089" unicode="&#x157;" horiz-adv-x="757" 
d="M164 -410h-133l133 308h215zM727 977l-22 -186q-27 8 -76 8q-74 0 -148 -47q-74 -49 -112 -115v-637h-195v963h188v-111q94 131 289 131q23 0 37 -2q6 -1 20 -2t19 -2z" />
    <glyph glyph-name="Rcaron" unicode="&#x158;" horiz-adv-x="1310" 
d="M553 676h-164v-676h-205v1434h502q175 0 279 -84q141 -114 141 -295t-141 -295q-74 -61 -168 -76l514 -684h-248zM389 870h287q118 0 172 54q53 53 53 131t-53 131t-172 53h-287v-369zM305 1843h133l174 -192l174 192h134l-195 -307h-225z" />
    <glyph glyph-name="Rcaron090" unicode="&#x159;" horiz-adv-x="757" 
d="M164 1434h133l174 -193l174 193h133l-194 -308h-226zM727 977l-22 -186q-27 8 -76 8q-74 0 -148 -47q-74 -49 -112 -115v-637h-195v963h188v-111q94 131 289 131q23 0 37 -2q6 -1 20 -2t19 -2z" />
    <glyph glyph-name="Sacute" unicode="&#x15a;" horiz-adv-x="1089" 
d="M61 219l142 139q150 -184 350 -184q103 0 174 59q76 61 76 156q0 133 -176 219q-43 21 -78 35l-82 35q-107 46 -158 80q-182 120 -182 315q0 157 123 268q125 113 311 113q122 0 234 -47q82 -39 151 -96l-121 -150q-117 99 -256 99q-95 0 -163 -50q-74 -56 -74 -143
q0 -112 176 -195q7 -4 78 -34l82 -35q99 -43 153 -80q187 -123 187 -328q0 -186 -129 -303q-124 -112 -316 -112q-303 0 -502 239zM584 1536h-133l133 307h215z" />
    <glyph glyph-name="Sacute091" unicode="&#x15b;" horiz-adv-x="931" 
d="M82 113l100 143q135 -106 285 -106q72 0 115 32q53 35 53 88q0 70 -98 107q-40 13 -97 26l-53 15l-53 16q-221 74 -221 248q0 144 114 227q100 74 242 74q189 0 319 -106l-100 -140q-101 76 -207 76q-76 0 -123 -33q-51 -34 -51 -88q0 -44 49 -71q42 -22 123 -41
q58 -15 119 -37q58 -21 113 -56q118 -78 118 -213q0 -132 -108 -215q-101 -79 -250 -79q-224 0 -389 133zM512 1126h-133l133 308h215z" />
    <glyph glyph-name="Scircumflex" unicode="&#x15c;" horiz-adv-x="1089" 
d="M61 219l142 139q150 -184 350 -184q103 0 174 59q76 61 76 156q0 133 -176 219q-43 21 -78 35l-82 35q-107 46 -158 80q-182 120 -182 315q0 157 123 268q125 113 311 113q122 0 234 -47q82 -39 151 -96l-121 -150q-117 99 -256 99q-95 0 -163 -50q-74 -56 -74 -143
q0 -112 176 -195q7 -4 78 -34l82 -35q99 -43 153 -80q187 -123 187 -328q0 -186 -129 -303q-124 -112 -316 -112q-303 0 -502 239zM387 1536h-133l195 307h225l194 -307h-133l-174 193z" />
    <glyph glyph-name="Scircumflex092" unicode="&#x15d;" horiz-adv-x="931" 
d="M82 113l100 143q135 -106 285 -106q72 0 115 32q53 35 53 88q0 70 -98 107q-40 13 -97 26l-53 15l-53 16q-221 74 -221 248q0 144 114 227q100 74 242 74q189 0 319 -106l-100 -140q-101 76 -207 76q-76 0 -123 -33q-51 -34 -51 -88q0 -44 49 -71q42 -22 123 -41
q58 -15 119 -37q58 -21 113 -56q118 -78 118 -213q0 -132 -108 -215q-101 -79 -250 -79q-224 0 -389 133zM301 1126h-133l194 308h226l194 -308h-133l-174 193z" />
    <glyph glyph-name="Scedilla" unicode="&#x15e;" horiz-adv-x="1089" 
d="M61 219l142 139q150 -184 350 -184q103 0 174 59q76 61 76 156q0 133 -176 219q-43 21 -78 35l-82 35q-107 46 -158 80q-182 120 -182 315q0 157 123 268q125 113 311 113q122 0 234 -47q82 -39 151 -96l-121 -150q-117 99 -256 99q-95 0 -163 -50q-74 -56 -74 -143
q0 -112 176 -195q7 -4 78 -34l82 -35q99 -43 153 -80q187 -123 187 -328q0 -161 -103 -276q-100 -109 -258 -133l-53 -273h-215l125 271q-265 21 -443 235z" />
    <glyph glyph-name="Scedilla093" unicode="&#x15f;" horiz-adv-x="931" 
d="M82 113l100 143q135 -106 285 -106q72 0 115 32q53 35 53 88q0 70 -98 107q-40 13 -97 26l-53 15l-53 16q-221 74 -221 248q0 144 114 227q100 74 242 74q189 0 319 -106l-100 -140q-101 76 -207 76q-76 0 -123 -33q-51 -34 -51 -88q0 -44 49 -71q42 -22 123 -41
q58 -15 119 -37q58 -21 113 -56q118 -78 118 -213q0 -111 -79 -190q-75 -75 -193 -96l-55 -275h-215l125 269q-190 15 -330 131z" />
    <glyph glyph-name="Scaron" unicode="&#x160;" horiz-adv-x="1089" 
d="M274 1843h134l174 -192l174 192h133l-195 -307h-225zM61 219l142 139q150 -184 350 -184q103 0 174 59q76 61 76 156q0 133 -176 219q-43 21 -78 35l-82 35q-107 46 -158 80q-182 120 -182 315q0 157 123 268q125 113 311 113q122 0 234 -47q82 -39 151 -96l-121 -150
q-117 99 -256 99q-95 0 -163 -50q-74 -56 -74 -143q0 -112 176 -195q7 -4 78 -34l82 -35q99 -43 153 -80q187 -123 187 -328q0 -186 -129 -303q-124 -112 -316 -112q-303 0 -502 239z" />
    <glyph glyph-name="Scaron026" unicode="&#x161;" horiz-adv-x="931" 
d="M82 113l100 143q135 -106 285 -106q72 0 115 32q53 35 53 88q0 70 -98 107q-40 13 -97 26l-53 15l-53 16q-221 74 -221 248q0 144 114 227q100 74 242 74q189 0 319 -106l-100 -140q-101 76 -207 76q-76 0 -123 -33q-51 -34 -51 -88q0 -44 49 -71q42 -22 123 -41
q58 -15 119 -37q58 -21 113 -56q118 -78 118 -213q0 -132 -108 -215q-101 -79 -250 -79q-224 0 -389 133zM168 1434h133l174 -193l174 193h133l-194 -308h-226z" />
    <glyph glyph-name="Tcedilla" unicode="&#x162;" horiz-adv-x="1044" 
d="M31 1239v195h983v-195h-389v-1239h-205v1239h-389zM416 -410h-133l133 308h215z" />
    <glyph glyph-name="Tcedilla094" unicode="&#x163;" horiz-adv-x="860" 
d="M467 -410h-133l133 308h215zM729 176l39 -176q-59 -20 -152 -20q-172 0 -272 112q-78 87 -78 256v440h-246v175h246v266h195v-266h307v-175h-307v-450q0 -87 28 -123q39 -51 134 -51q17 0 53 4q36 3 53 8z" />
    <glyph glyph-name="Tcaron" unicode="&#x164;" horiz-adv-x="1044" 
d="M31 1239v195h983v-195h-389v-1239h-205v1239h-389zM215 1843h133l174 -192l174 192h133l-194 -307h-225z" />
    <glyph glyph-name="Tcaron095" unicode="&#x165;" horiz-adv-x="860" 
d="M655 1126h-133l133 308h215zM729 176l39 -176q-59 -20 -152 -20q-172 0 -272 112q-78 87 -78 256v440h-246v175h246v266h195v-266h307v-175h-307v-450q0 -87 28 -123q39 -51 134 -51q17 0 53 4q36 3 53 8z" />
    <glyph glyph-name="Tbar" unicode="&#x166;" horiz-adv-x="1044" 
d="M113 870h307v369h-389v195h983v-195h-389v-369h307v-194h-307v-676h-205v676h-307v194z" />
    <glyph glyph-name="Tbar111" unicode="&#x167;" horiz-adv-x="860" 
d="M729 176l39 -176q-59 -20 -152 -20q-172 0 -272 112q-78 87 -78 256v62h-246v174h246v204h-246v175h246v266h195v-266h307v-175h-307v-204h307v-174h-307v-72q0 -87 28 -123q39 -51 134 -51q17 0 53 4q36 3 53 8z" />
    <glyph glyph-name="Utilde" unicode="&#x168;" horiz-adv-x="1515" 
d="M313 168q-149 162 -149 426v840h205v-850q0 -179 90 -283q115 -127 299 -127t299 127q90 104 90 283v850h205v-840q0 -262 -150 -426q-176 -188 -444 -188q-269 0 -445 188zM586 1550l-107 35q3 75 47 125q47 53 119 53q44 0 119 -37q71 -36 104 -36q50 0 62 73l106 -34
q-3 -75 -47 -125q-48 -54 -119 -54q-43 0 -116 37l-29 15l-27 10q-27 12 -51 12q-49 0 -61 -74z" />
    <glyph glyph-name="Utilde112" unicode="&#x169;" horiz-adv-x="1228" 
d="M242 141q-88 107 -88 330v492h194v-523q0 -128 55 -192q72 -84 187 -84q86 0 160 45q61 34 110 92v662h195v-963h-189v88q-44 -44 -106 -70q-80 -38 -176 -38q-215 0 -342 161zM432 1079l-106 35q3 75 47 125q47 53 119 53q43 0 118 -37q71 -36 105 -36q49 0 61 73
l107 -35q-3 -74 -47 -124q-48 -54 -119 -54q-44 0 -117 37l-29 14l-26 11q-27 12 -51 12q-50 0 -62 -74z" />
    <glyph glyph-name="Umacron" unicode="&#x16a;" horiz-adv-x="1515" 
d="M313 168q-149 162 -149 426v840h205v-850q0 -179 90 -283q115 -127 299 -127t299 127q90 104 90 283v850h205v-840q0 -262 -150 -426q-176 -188 -444 -188q-269 0 -445 188zM451 1761h614v-174h-614v174z" />
    <glyph glyph-name="Umacron096" unicode="&#x16b;" horiz-adv-x="1228" 
d="M299 1352h614v-174h-614v174zM242 141q-88 107 -88 330v492h194v-523q0 -128 55 -192q72 -84 187 -84q86 0 160 45q61 34 110 92v662h195v-963h-189v88q-44 -44 -106 -70q-80 -38 -176 -38q-215 0 -342 161z" />
    <glyph glyph-name="Ubreve" unicode="&#x16c;" horiz-adv-x="1515" 
d="M313 168q-149 162 -149 426v840h205v-850q0 -179 90 -283q115 -127 299 -127t299 127q90 104 90 283v850h205v-840q0 -262 -150 -426q-176 -188 -444 -188q-269 0 -445 188zM881 1843h163q0 -120 -83 -203q-84 -84 -203 -84t-203 84t-84 203h164q0 -52 37 -86
q34 -37 86 -37t86 37q37 34 37 86z" />
    <glyph glyph-name="Ubreve097" unicode="&#x16d;" horiz-adv-x="1228" 
d="M727 1434h164q0 -119 -84 -203t-203 -84t-203 84t-84 203h164q0 -52 37 -86q34 -37 86 -37t86 37q37 34 37 86zM242 141q-88 107 -88 330v492h194v-523q0 -128 55 -192q72 -84 187 -84q86 0 160 45q61 34 110 92v662h195v-963h-189v88q-44 -44 -106 -70q-80 -38 -176 -38
q-215 0 -342 161z" />
    <glyph glyph-name="Uring" unicode="&#x16e;" horiz-adv-x="1515" 
d="M313 168q-149 162 -149 426v840h205v-850q0 -179 90 -283q115 -127 299 -127t299 127q90 104 90 283v850h205v-840q0 -262 -150 -426q-176 -188 -444 -188q-269 0 -445 188zM612 1845q63 60 146 60q82 0 145 -60q60 -63 60 -145q0 -83 -60 -146q-62 -59 -145 -59
q-84 0 -146 59q-59 62 -59 146q0 83 59 145zM700 1642q24 -24 58 -24q36 0 57 24q25 25 25 58q0 35 -25 57q-22 25 -57 25q-33 0 -58 -25q-24 -21 -24 -57q0 -34 24 -58z" />
    <glyph glyph-name="Uring098" unicode="&#x16f;" horiz-adv-x="1228" 
d="M459 1436q62 59 145 59q84 0 146 -59q59 -62 59 -146q0 -83 -59 -145q-63 -60 -146 -60q-82 0 -145 60q-60 63 -60 145q0 83 60 146zM547 1233q25 -25 57 -25q36 0 58 25q24 24 24 57q0 37 -24 58q-21 24 -58 24q-33 0 -57 -24q-25 -22 -25 -58q0 -32 25 -57zM242 141
q-88 107 -88 330v492h194v-523q0 -128 55 -192q72 -84 187 -84q86 0 160 45q61 34 110 92v662h195v-963h-189v88q-44 -44 -106 -70q-80 -38 -176 -38q-215 0 -342 161z" />
    <glyph glyph-name="Uhungarumlaut" unicode="&#x170;" horiz-adv-x="1515" 
d="M313 168q-149 162 -149 426v840h205v-850q0 -179 90 -283q115 -127 299 -127t299 127q90 104 90 283v850h205v-840q0 -262 -150 -426q-176 -188 -444 -188q-269 0 -445 188zM635 1536h-133l133 307h215zM1014 1536h-133l133 307h215z" />
    <glyph glyph-name="Uhungarumlaut099" unicode="&#x171;" horiz-adv-x="1228" 
d="M481 1126h-133l133 308h215zM860 1126h-133l133 308h215zM242 141q-88 107 -88 330v492h194v-523q0 -128 55 -192q72 -84 187 -84q86 0 160 45q61 34 110 92v662h195v-963h-189v88q-44 -44 -106 -70q-80 -38 -176 -38q-215 0 -342 161z" />
    <glyph glyph-name="Uogonek" unicode="&#x172;" horiz-adv-x="1515" 
d="M889 -6q-30 -51 -41 -80q-19 -55 -19 -90q0 -90 97 -90q28 0 47 8l31 -174q-6 -3 -15 -6l-24 -6q-40 -7 -74 -7q-109 0 -184 72q-72 72 -72 174q0 109 51 189q-228 24 -373 184q-149 162 -149 426v840h205v-850q0 -179 90 -283q115 -127 299 -127t299 127q90 104 90 283
v850h205v-840q0 -262 -150 -426q-124 -136 -313 -174z" />
    <glyph glyph-name="Uogonek100" unicode="&#x173;" horiz-adv-x="1228" 
d="M242 141q-88 107 -88 330v492h194v-523q0 -128 55 -192q72 -84 187 -84q86 0 160 45q61 34 110 92v662h195v-963h-15q-28 -45 -43 -82q-20 -50 -20 -94q0 -90 96 -90q28 0 47 8l31 -174q-8 -4 -14 -6q-4 -1 -12.5 -3t-12.5 -3q-40 -7 -74 -7q-109 0 -184 72
q-72 72 -72 174q0 66 29 142q22 54 55 92v59q-44 -44 -106 -70q-80 -38 -176 -38q-215 0 -342 161z" />
    <glyph glyph-name="Wcircumflex" unicode="&#x174;" horiz-adv-x="1945" 
d="M973 1061l-359 -1061h-143l-451 1434h209l322 -1039l350 1039h143l351 -1039l321 1039h209l-450 -1434h-144zM799 1536h-133l194 307h225l195 -307h-133l-174 193z" />
    <glyph glyph-name="Wcircumflex101" unicode="&#x175;" horiz-adv-x="1634" 
d="M750 963h135l264 -658l264 658h201l-391 -963h-136l-270 676l-270 -676h-135l-392 963h201l264 -658zM643 1126h-133l195 308h225l194 -308h-133l-174 193z" />
    <glyph glyph-name="Ycircumflex" unicode="&#x176;" horiz-adv-x="1228" 
d="M1208 1434l-491 -779v-655h-205v655l-492 779h230l364 -576l365 576h229zM440 1536h-133l195 307h225l195 -307h-134l-174 193z" />
    <glyph glyph-name="Ycircumflex102" unicode="&#x177;" horiz-adv-x="1042" 
d="M379 -492h-207l260 592l-412 863h209l301 -635l277 635h205zM344 1126h-133l195 308h225l194 -308h-133l-174 193z" />
    <glyph glyph-name="Ydieresis" unicode="&#x178;" horiz-adv-x="1228" 
d="M1208 1434l-491 -779v-655h-205v655l-492 779h230l364 -576l365 576h229zM334 1765q37 37 90 37q52 0 92 -37q37 -40 37 -92q0 -53 -37 -90q-40 -37 -92 -37q-53 0 -90 37t-37 90q0 52 37 92zM713 1765q37 37 90 37q52 0 92 -37q37 -40 37 -92q0 -53 -37 -90
q-40 -37 -92 -37q-53 0 -90 37t-37 90q0 52 37 92z" />
    <glyph glyph-name="Zacute" unicode="&#x179;" 
d="M676 1536h-133l133 307h215zM143 1239v195h963v-134l-746 -1105h787v-195h-1065v133l749 1106h-688z" />
    <glyph glyph-name="Zacute103" unicode="&#x17a;" horiz-adv-x="962" 
d="M557 1126h-133l133 308h215zM82 123l528 665h-497v175h768v-123l-531 -666h572v-174h-840v123z" />
    <glyph glyph-name="Zdotaccent" unicode="&#x17b;" 
d="M535 1806q37 37 90 37q52 0 92 -37q37 -40 37 -92q0 -53 -37 -90q-40 -37 -92 -37q-53 0 -90 37t-37 90q0 52 37 92zM143 1239v195h963v-134l-746 -1105h787v-195h-1065v133l749 1106h-688z" />
    <glyph glyph-name="Zdotaccent104" unicode="&#x17c;" horiz-adv-x="962" 
d="M406 1397q37 37 90 37q52 0 92 -37q37 -40 37 -92q0 -54 -37 -91q-39 -36 -92 -36q-54 0 -90 36q-37 37 -37 91q0 52 37 92zM82 123l528 665h-497v175h768v-123l-531 -666h572v-174h-840v123z" />
    <glyph glyph-name="Zcaron" unicode="&#x17d;" 
d="M143 1239v195h963v-134l-746 -1105h787v-195h-1065v133l749 1106h-688zM307 1843h133l174 -192l174 192h134l-195 -307h-225z" />
    <glyph glyph-name="Zcaron044" unicode="&#x17e;" horiz-adv-x="962" 
d="M215 1434h133l174 -193l174 193h133l-194 -308h-225zM82 123l528 665h-497v175h768v-123l-531 -666h572v-174h-840v123z" />
    <glyph glyph-name="longs" unicode="&#x17f;" horiz-adv-x="747" 
d="M369 1051v-1051h-195v1044q0 182 62 271q112 160 315 160q107 0 197 -41l-72 -170q-59 26 -123 26q-95 0 -147 -67q-37 -49 -37 -172z" />
    <glyph glyph-name="Schwa" unicode="&#x18f;" horiz-adv-x="1478" 
d="M1188 571h-903q27 -178 153 -286q123 -111 293 -111t297 115q117 108 160 282zM256 1057l-145 131q89 107 229 182q166 84 358 84q320 0 519 -217q190 -205 190 -520q0 -308 -188 -520q-193 -217 -488 -217q-285 0 -471 198q-188 200 -188 494q0 21 2 41q2 28 6 53h1120
q-18 216 -141 348q-137 146 -361 146q-260 0 -442 -203z" />
    <glyph glyph-name="florin" unicode="&#x192;" horiz-adv-x="1077" 
d="M371 231q9 110 18 205l8 105l9 104h-312v174h328q17 145 41 244q45 174 125 260q119 131 315 131q78 0 154 -29l-53 -170q-50 15 -101 15q-104 0 -170 -72q-53 -63 -80 -166q-26 -90 -39 -213h312v-174h-330l-8 -102l-8 -105l-6 -78t-6.5 -76.5t-4.5 -52.5
q-21 -234 -51 -352q-45 -174 -125 -260q-119 -131 -315 -131q-78 0 -154 29l53 170q53 -15 101 -15q104 0 170 72q53 63 80 166q29 106 49 321z" />
    <glyph glyph-name="Ohorn" unicode="&#x1a0;" horiz-adv-x="1576" 
d="M422 330q147 -156 366 -156q220 0 367 156q145 154 145 387q0 230 -145 387q-147 156 -367 156q-219 0 -366 -156q-146 -158 -146 -387q0 -232 146 -387zM1214 1317q48 -38 84 -74q207 -213 207 -526q0 -311 -207 -524t-510 -213q-302 0 -509 213t-207 524q0 313 207 526
q205 211 509 211q134 0 252 -41q67 22 93 51q36 33 36 86h164q0 -118 -84 -202q-11 -11 -35 -31z" />
    <glyph glyph-name="Ohorn151" unicode="&#x1a1;" horiz-adv-x="1179" 
d="M371 256q89 -92 219 -92t219 92q84 93 84 225q0 133 -84 226q-89 92 -219 92t-219 -92q-84 -93 -84 -226q0 -132 84 -225zM926 860l20 -20q141 -144 141 -359q0 -214 -141 -358q-143 -143 -356 -143q-214 0 -357 143q-141 144 -141 358q0 215 141 359q143 143 357 143
q81 0 158 -22q50 0 83 36q37 34 37 86h164q0 -118 -84 -202q-18 -18 -22 -21z" />
    <glyph glyph-name="Uhorn" unicode="&#x1af;" horiz-adv-x="1515" 
d="M1352 1270v-676q0 -262 -150 -426q-176 -188 -444 -188q-269 0 -445 188q-149 162 -149 426v840h205v-850q0 -179 90 -283q115 -127 299 -127t299 127q90 104 90 283v850h184q25 8 47 30q37 34 37 86h164q0 -118 -84 -202q-64 -64 -143 -78z" />
    <glyph glyph-name="Uhorn164" unicode="&#x1b0;" horiz-adv-x="1228" 
d="M1055 801v-801h-189v88q-44 -44 -106 -70q-80 -38 -176 -38q-215 0 -342 161q-88 107 -88 330v492h194v-523q0 -128 55 -192q72 -84 187 -84q86 0 160 45q61 34 110 92v662h162q35 6 63 34q37 34 37 86h164q0 -118 -84 -202q-65 -65 -147 -80z" />
    <glyph glyph-name="Zstroke" unicode="&#x1b5;" 
d="M225 870h357l249 369h-688v195h963v-134l-291 -430h229v-194h-360l-324 -481h787v-195h-1065v133l367 543h-224v194z" />
    <glyph glyph-name="Zstroke116" unicode="&#x1b6;" horiz-adv-x="962" 
d="M174 584h272l164 204h-497v175h768v-123l-203 -256h151v-174h-290l-189 -236h572v-174h-840v123l225 287h-133v174z" />
    <glyph glyph-name="Aringacute" unicode="&#x1fa;" horiz-adv-x="1351" 
d="M530 1845q63 60 146 60q82 0 145 -60q60 -63 60 -145q0 -83 -60 -146q-62 -59 -145 -59q-84 0 -146 59q-59 62 -59 146q0 83 59 145zM618 1642q24 -24 58 -24q36 0 57 24q25 25 25 58q0 35 -25 57q-22 25 -57 25q-33 0 -58 -25q-24 -21 -24 -57q0 -34 24 -58zM748 1966
h-134l134 307h215zM1128 0l-151 369h-604l-150 -369h-213l594 1434h144l593 -1434h-213zM676 1096l-221 -533h442z" />
    <glyph glyph-name="Aringacute117" unicode="&#x1fb;" horiz-adv-x="1239" 
d="M463 1436q62 59 145 59q84 0 146 -59q59 -62 59 -146q0 -83 -59 -145q-63 -60 -146 -60q-82 0 -145 60q-60 63 -60 145q0 83 60 146zM551 1233q25 -25 57 -25q36 0 58 25q24 24 24 57q0 37 -24 58q-21 24 -58 24q-33 0 -57 -24q-25 -22 -25 -58q0 -32 25 -57zM649 1556
h-133l133 308h215zM877 0v88q-120 -108 -297 -108q-137 0 -242 63q-112 63 -178 180q-68 118 -68 258q0 141 70 260q67 118 178 181q104 61 235 61q175 0 302 -109v89h188v-963h-188zM870 301v361q-104 137 -274 137q-134 0 -225 -97q-84 -90 -84 -221q0 -130 90 -223
q91 -94 229 -94q163 0 264 137z" />
    <glyph glyph-name="AEacute" unicode="&#x1fc;" horiz-adv-x="1863" 
d="M1147 1536h-133l133 307h215zM1782 0h-840v369h-528l-221 -369h-234l856 1434h946v-195h-614v-369h471v-194h-471v-481h635v-195zM942 1260l-414 -697h414v697z" />
    <glyph glyph-name="AEacute118" unicode="&#x1fd;" horiz-adv-x="1902" 
d="M1030 1126h-133l133 308h215zM877 0v88q-120 -108 -297 -108q-137 0 -242 63q-112 63 -178 180q-68 118 -68 258q0 141 70 260q67 118 178 181q104 61 235 61q175 0 302 -109v89h172v-89q121 109 288 109q197 0 336 -145q137 -143 137 -357v-16q0 -17 -2 -25h-751
q9 -123 102 -207q95 -83 225 -83q93 0 166 43q53 31 105 88l127 -121q-143 -180 -393 -180q-200 0 -340 131v-111h-172zM870 301v361q-104 137 -274 137q-134 0 -225 -97q-84 -90 -84 -221q0 -130 90 -223q91 -94 229 -94q163 0 264 137zM1171 756q-78 -59 -104 -152h541
q-21 93 -99 152q-72 57 -163 57q-100 0 -175 -57z" />
    <glyph glyph-name="Oslashacute" unicode="&#x1fe;" horiz-adv-x="1576" 
d="M850 1536h-133l133 307h215zM279 1243q205 211 509 211q224 0 398 -119l100 119h244l-203 -244q178 -205 178 -493q0 -311 -207 -524t-510 -213q-220 0 -397 116l-100 -116h-246l205 241q-178 205 -178 496q0 313 207 526zM381 379l678 803q-125 78 -271 78
q-219 0 -366 -156q-146 -158 -146 -387q0 -194 105 -338zM1194 1055l-676 -805q119 -76 270 -76q220 0 367 156q145 154 145 387q0 197 -106 338z" />
    <glyph glyph-name="Oslashacute119" unicode="&#x1ff;" horiz-adv-x="1179" 
d="M651 1126h-133l133 308h215zM233 840q143 143 357 143q131 0 252 -65l57 65h227l-151 -178q112 -136 112 -324q0 -214 -141 -358q-143 -143 -356 -143q-144 0 -252 63l-53 -63h-230l148 176q-111 138 -111 325q0 215 141 359zM332 309l387 461q-66 29 -129 29
q-130 0 -219 -92q-84 -93 -84 -226q0 -98 45 -172zM848 651l-387 -461q56 -26 129 -26q130 0 219 92q84 93 84 225q0 96 -45 170z" />
    <glyph glyph-name="Scommaaccent" unicode="&#x218;" horiz-adv-x="1089" 
d="M61 219l142 139q150 -184 350 -184q103 0 174 59q76 61 76 156q0 133 -176 219q-43 21 -78 35l-82 35q-107 46 -158 80q-182 120 -182 315q0 157 123 268q125 113 311 113q122 0 234 -47q82 -39 151 -96l-121 -150q-117 99 -256 99q-95 0 -163 -50q-74 -56 -74 -143
q0 -112 176 -195q7 -4 78 -34l82 -35q99 -43 153 -80q187 -123 187 -328q0 -186 -129 -303q-124 -112 -316 -112q-303 0 -502 239zM477 -410h-133l133 308h215z" />
    <glyph glyph-name="Scommaaccent105" unicode="&#x219;" horiz-adv-x="931" 
d="M82 113l100 143q135 -106 285 -106q72 0 115 32q53 35 53 88q0 70 -98 107q-40 13 -97 26l-53 15l-53 16q-221 74 -221 248q0 144 114 227q100 74 242 74q189 0 319 -106l-100 -140q-101 76 -207 76q-76 0 -123 -33q-51 -34 -51 -88q0 -44 49 -71q42 -22 123 -41
q58 -15 119 -37q58 -21 113 -56q118 -78 118 -213q0 -132 -108 -215q-101 -79 -250 -79q-224 0 -389 133zM375 -410h-133l133 308h215z" />
    <glyph glyph-name="uni0237" unicode="&#x237;" horiz-adv-x="583" 
d="M215 -88v1051h195v-1045q0 -181 -62 -270q-112 -160 -315 -160q-72 0 -115 14l41 179q27 -9 72 -9q94 0 147 68q37 49 37 172z" />
    <glyph glyph-name="uni0259" unicode="&#x259;" horiz-adv-x="1116" 
d="M94 522h742q-15 128 -101 211q-89 80 -211 80q-99 0 -172 -43q-46 -24 -104 -88l-127 121q137 180 405 180q212 0 355 -143t143 -359t-133 -358q-131 -143 -336 -143q-201 0 -332 143t-131 358v17q0 16 2 24zM719 207q76 58 100 151h-524q22 -91 94 -149q71 -59 160 -59
q95 0 170 57z" />
    <glyph glyph-name="circumflex" unicode="&#x2c6;" horiz-adv-x="901" 
d="M315 1071h-129l168 266h193l168 -266h-129l-135 150z" />
    <glyph glyph-name="caron" unicode="&#x2c7;" horiz-adv-x="901" 
d="M143 1434h133l175 -193l174 193h133l-195 -308h-225z" />
    <glyph glyph-name="breve" unicode="&#x2d8;" horiz-adv-x="860" 
d="M528 1325h131q0 -95 -67 -162t-162 -67t-162 67t-67 162h131q0 -42 28 -70t70 -28t70 28t28 70z" />
    <glyph glyph-name="dotaccent" unicode="&#x2d9;" horiz-adv-x="542" 
d="M180 1397q37 37 90 37q52 0 92 -37q37 -40 37 -92q0 -54 -37 -91q-39 -36 -92 -36q-54 0 -90 36q-37 37 -37 91q0 52 37 92z" />
    <glyph glyph-name="ring" unicode="&#x2da;" horiz-adv-x="696" 
d="M203 1436q62 59 145 59q84 0 146 -59q59 -62 59 -146q0 -83 -59 -145q-63 -60 -146 -60q-82 0 -145 60q-60 63 -60 145q0 83 60 146zM291 1233q25 -25 57 -25q36 0 58 25q24 24 24 57q0 37 -24 58q-21 24 -58 24q-33 0 -57 -24q-25 -22 -25 -58q0 -32 25 -57z" />
    <glyph glyph-name="ogonek" unicode="&#x2db;" horiz-adv-x="655" 
d="M221 20h195q-30 -42 -49 -86q-29 -69 -29 -110q0 -90 96 -90q28 0 47 8l31 -174q-8 -4 -14 -6q-4 -1 -12.5 -3t-12.5 -3q-40 -7 -74 -7q-109 0 -184 72q-72 72 -72 174q0 69 27 137q19 47 51 88z" />
    <glyph glyph-name="tilde" unicode="&#x2dc;" horiz-adv-x="983" 
d="M319 1079l-106 35q3 75 47 125q47 53 119 53q44 0 119 -37q71 -36 104 -36q50 0 62 73l106 -35q-3 -74 -47 -124q-48 -54 -119 -54q-44 0 -117 37l-28 14l-27 11q-27 12 -51 12q-50 0 -62 -74z" />
    <glyph glyph-name="hungarumlaut" unicode="&#x2dd;" horiz-adv-x="1054" 
d="M317 1126h-133l133 308h215zM696 1126h-133l133 308h215z" />
    <glyph glyph-name="gravecomb" unicode="&#x300;" horiz-adv-x="0" 
d="M-379 1126h-133l-188 250h215z" />
    <glyph glyph-name="acutecomb" unicode="&#x301;" horiz-adv-x="0" 
d="M-537 1126h-133l107 254h215z" />
    <glyph glyph-name="tildecomb" unicode="&#x303;" horiz-adv-x="0" 
d="M-653 1079l-107 35q3 75 47 125q47 53 119 53q44 0 119 -37q71 -36 104 -36q50 0 62 73l106 -35q-3 -74 -47 -124q-48 -54 -119 -54q-43 0 -116 37l-29 14l-27 11q-27 12 -51 12q-49 0 -61 -74z" />
    <glyph glyph-name="hookabovecomb" unicode="&#x309;" horiz-adv-x="0" 
d="M41 1427q88 -9 137 -79q20 -39 17 -93q-12 -84 -86 -131q-54 -30 -134 -47q-4 18 -30 90q41 12 94 41q34 27 37 62q3 32 -31 47q-6 2 -22 6q-56 3 -115 -68l-66 78q18 35 62 62q67 38 137 32z" />
    <glyph glyph-name="uni031B" unicode="&#x31b;" horiz-adv-x="0" 
d="M666 1434h163q0 -119 -84 -203t-202 -84v164q52 0 86 37q37 34 37 86z" />
    <glyph glyph-name="dotbelowcomb" unicode="&#x323;" horiz-adv-x="0" 
d="M-498 -180q33 33 82 33t82 -33t33 -82t-33 -82t-82 -33t-82 33q-32 32 -32 82t32 82z" />
    <glyph glyph-name="pi" unicode="&#x3c0;" horiz-adv-x="1177" 
d="M997 139l-110 -159q-150 76 -150 327v471h-205v-778h-194v766q-32 -6 -57 -18q-60 -28 -113 -105l-158 94q68 131 209 189q87 37 219 37h699v-185h-205v-465q0 -80 8 -104q12 -47 57 -70z" />
    <glyph glyph-name="Wgrave" unicode="&#x1e80;" horiz-adv-x="1945" 
d="M1044 1536h-133l-215 307h215zM973 1061l-359 -1061h-143l-451 1434h209l322 -1039l350 1039h143l351 -1039l321 1039h209l-450 -1434h-144z" />
    <glyph glyph-name="Wgrave106" unicode="&#x1e81;" horiz-adv-x="1634" 
d="M885 1126h-133l-215 308h215zM750 963h135l264 -658l264 658h201l-391 -963h-136l-270 676l-270 -676h-135l-392 963h201l264 -658z" />
    <glyph glyph-name="Wacute" unicode="&#x1e82;" horiz-adv-x="1945" 
d="M973 1061l-359 -1061h-143l-451 1434h209l322 -1039l350 1039h143l351 -1039l321 1039h209l-450 -1434h-144zM1034 1536h-133l133 307h215z" />
    <glyph glyph-name="Wacute120" unicode="&#x1e83;" horiz-adv-x="1634" 
d="M750 963h135l264 -658l264 658h201l-391 -963h-136l-270 676l-270 -676h-135l-392 963h201l264 -658zM883 1126h-133l133 308h215z" />
    <glyph glyph-name="Wdieresis" unicode="&#x1e84;" horiz-adv-x="1945" 
d="M973 1061l-359 -1061h-143l-451 1434h209l322 -1039l350 1039h143l351 -1039l321 1039h209l-450 -1434h-144zM692 1765q37 37 90 37q52 0 92 -37q37 -40 37 -92q0 -53 -37 -90q-40 -37 -92 -37q-53 0 -90 37t-37 90q0 52 37 92zM1071 1765q37 37 90 37q52 0 92 -37
q37 -40 37 -92q0 -53 -37 -90q-40 -37 -92 -37q-53 0 -90 37t-37 90q0 52 37 92z" />
    <glyph glyph-name="Wdieresis121" unicode="&#x1e85;" horiz-adv-x="1634" 
d="M750 963h135l264 -658l264 658h201l-391 -963h-136l-270 676l-270 -676h-135l-392 963h201l264 -658zM537 1356q37 37 90 37q52 0 92 -37q37 -40 37 -92q0 -53 -37 -90q-40 -37 -92 -37q-53 0 -90 37t-37 90q0 52 37 92zM915 1356q37 37 91 37q52 0 92 -37q37 -40 37 -92
q0 -53 -37 -90q-40 -37 -92 -37q-54 0 -91 37q-36 36 -36 90q0 53 36 92z" />
    <glyph glyph-name="uni1E8A" unicode="&#x1e8a;" horiz-adv-x="1349" 
d="M584 1806q37 37 90 37q52 0 92 -37q37 -40 37 -92q0 -53 -37 -90q-40 -37 -92 -37q-53 0 -90 37t-37 90q0 52 37 92zM272 0h-241l510 784l-428 650h252l309 -478l311 478h252l-430 -650l512 -784h-242l-403 612z" />
    <glyph glyph-name="uni1E8B" unicode="&#x1e8b;" horiz-adv-x="1044" 
d="M782 0l-260 360l-260 -360h-231l364 506l-329 457h229l227 -312l228 312h229l-330 -457l365 -506h-232zM432 1397q37 37 90 37q52 0 92 -37q37 -40 37 -92q0 -54 -37 -91q-39 -36 -92 -36q-54 0 -90 36q-37 37 -37 91q0 52 37 92z" />
    <glyph glyph-name="A.dotbl" unicode="&#x1ea0;" horiz-adv-x="1351" 
d="M1128 0l-151 369h-604l-150 -369h-213l594 1434h144l593 -1434h-213zM676 1096l-221 -533h442zM594 -180q33 33 82 33t82 -33t33 -82t-33 -82t-82 -33t-82 33t-33 82t33 82z" />
    <glyph glyph-name="A.dotbl128" unicode="&#x1ea1;" horiz-adv-x="1239" 
d="M877 0v88q-120 -108 -297 -108q-137 0 -242 63q-112 63 -178 180q-68 118 -68 258q0 141 70 260q67 118 178 181q104 61 235 61q175 0 302 -109v89h188v-963h-188zM870 301v361q-104 137 -274 137q-134 0 -225 -97q-84 -90 -84 -221q0 -130 90 -223q91 -94 229 -94
q163 0 264 137zM541 -180q33 33 82 33t82 -33q32 -32 32 -82t-32 -82q-33 -33 -82 -33t-82 33t-33 82t33 82z" />
    <glyph glyph-name="A.hook" unicode="&#x1ea2;" horiz-adv-x="1351" 
d="M1128 0l-151 369h-604l-150 -369h-213l594 1434h144l593 -1434h-213zM676 1096l-221 -533h442zM698 1898q89 -9 138 -79q19 -37 16 -93q-12 -84 -86 -131q-55 -30 -133 -47q-2 12 -31 90q41 12 94 41q34 27 37 62q3 32 -31 47q-6 2 -22 6q-56 3 -115 -68l-65 78
q19 36 61 62q67 38 137 32z" />
    <glyph glyph-name="A.hook129" unicode="&#x1ea3;" horiz-adv-x="1239" 
d="M877 0v88q-120 -108 -297 -108q-137 0 -242 63q-112 63 -178 180q-68 118 -68 258q0 141 70 260q67 118 178 181q104 61 235 61q175 0 302 -109v89h188v-963h-188zM870 301v361q-104 137 -274 137q-134 0 -225 -97q-84 -90 -84 -221q0 -130 90 -223q91 -94 229 -94
q163 0 264 137zM700 1450q88 -9 138 -80q19 -37 16 -92q-12 -84 -86 -131q-55 -30 -133 -47q-2 12 -31 90q41 12 94 41q34 27 37 61q3 33 -30 47q-15 5 -23 7q-56 3 -115 -68l-65 78q18 34 61 61q68 39 137 33z" />
    <glyph glyph-name="Acir.acute" unicode="&#x1ea4;" horiz-adv-x="1351" 
d="M1128 0l-151 369h-604l-150 -369h-213l594 1434h144l593 -1434h-213zM676 1096l-221 -533h442zM541 1550h-129l168 267h192l168 -267h-129l-135 150zM1051 1673h-133l106 254h215z" />
    <glyph glyph-name="Acir.acute130" unicode="&#x1ea5;" horiz-adv-x="1239" 
d="M877 0v88q-120 -108 -297 -108q-137 0 -242 63q-112 63 -178 180q-68 118 -68 258q0 141 70 260q67 118 178 181q104 61 235 61q175 0 302 -109v89h188v-963h-188zM870 301v361q-104 137 -274 137q-134 0 -225 -97q-84 -90 -84 -221q0 -130 90 -223q91 -94 229 -94
q163 0 264 137zM500 1071h-129l168 266h192l168 -266h-129l-135 150zM999 1276h-133l107 254h215z" />
    <glyph glyph-name="Acir.grave" unicode="&#x1ea6;" horiz-adv-x="1351" 
d="M1128 0l-151 369h-604l-150 -369h-213l594 1434h144l593 -1434h-213zM676 1096l-221 -533h442zM549 1544h-129l168 266h192l168 -266h-129l-135 150zM1094 1743h-133l-189 250h215z" />
    <glyph glyph-name="Acir.grave131" unicode="&#x1ea7;" horiz-adv-x="1239" 
d="M877 0v88q-120 -108 -297 -108q-137 0 -242 63q-112 63 -178 180q-68 118 -68 258q0 141 70 260q67 118 178 181q104 61 235 61q175 0 302 -109v89h188v-963h-188zM870 301v361q-104 137 -274 137q-134 0 -225 -97q-84 -90 -84 -221q0 -130 90 -223q91 -94 229 -94
q163 0 264 137zM522 1071h-129l168 266h193l168 -266h-129l-136 150zM1071 1298h-133l-188 250h215z" />
    <glyph glyph-name="Acir.hook" unicode="&#x1ea8;" horiz-adv-x="1351" 
d="M1128 0l-151 369h-604l-150 -369h-213l594 1434h144l593 -1434h-213zM676 1096l-221 -533h442zM541 1548h-129l168 267h192l168 -267h-129l-135 150zM1001 2079q88 -9 138 -80q19 -37 16 -92q-12 -84 -86 -131q-55 -30 -133 -47q-2 12 -31 90q41 12 94 41q34 27 37 61
q3 33 -30 47q-3 1 -23 6q-57 3 -115 -67l-65 78q18 34 61 61q68 39 137 33z" />
    <glyph glyph-name="Acir.hook132" unicode="&#x1ea9;" horiz-adv-x="1239" 
d="M877 0v88q-120 -108 -297 -108q-137 0 -242 63q-112 63 -178 180q-68 118 -68 258q0 141 70 260q67 118 178 181q104 61 235 61q175 0 302 -109v89h188v-963h-188zM870 301v361q-104 137 -274 137q-134 0 -225 -97q-84 -90 -84 -221q0 -130 90 -223q91 -94 229 -94
q163 0 264 137zM512 1071h-129l168 266h192l168 -266h-129l-135 150zM973 1612q87 -9 137 -80q19 -37 16 -92q-12 -84 -86 -131q-55 -30 -133 -47q-4 18 -30 90q41 12 94 41q34 27 37 61q3 32 -31 47q-3 1 -23 6q-56 3 -114 -67l-66 78q17 33 62 61q68 39 137 33z" />
    <glyph glyph-name="Acir.tilde" unicode="&#x1eaa;" horiz-adv-x="1351" 
d="M1128 0l-151 369h-604l-150 -369h-213l594 1434h144l593 -1434h-213zM676 1096l-221 -533h442zM541 1548h-129l168 267h192l168 -267h-129l-135 150zM551 1886l-107 35q3 74 48 125q47 53 118 53q44 0 119 -37q73 -37 105 -37q49 0 61 74l106 -35q-3 -75 -47 -125
q-47 -53 -118 -53q-44 0 -117 37l-29 14l-26 11q-27 12 -52 12q-49 0 -61 -74z" />
    <glyph glyph-name="Acir.tilde133" unicode="&#x1eab;" horiz-adv-x="1239" 
d="M877 0v88q-120 -108 -297 -108q-137 0 -242 63q-112 63 -178 180q-68 118 -68 258q0 141 70 260q67 118 178 181q104 61 235 61q175 0 302 -109v89h188v-963h-188zM870 301v361q-104 137 -274 137q-134 0 -225 -97q-84 -90 -84 -221q0 -130 90 -223q91 -94 229 -94
q163 0 264 137zM514 1071h-129l168 266h192l168 -266h-129l-135 150zM502 1425l-107 35q3 75 47 125q47 53 119 53q46 0 119 -36q73 -37 104 -37q50 0 62 73l106 -34q-3 -75 -47 -125q-48 -54 -119 -54q-43 0 -116 37l-29 15l-27 10q-27 12 -51 12q-49 0 -61 -74z" />
    <glyph glyph-name="Acir.dotbl" unicode="&#x1eac;" horiz-adv-x="1351" 
d="M1128 0l-151 369h-604l-150 -369h-213l594 1434h144l593 -1434h-213zM676 1096l-221 -533h442zM541 1542h-129l168 266h192l168 -266h-129l-135 150zM594 -180q33 33 82 33t82 -33t33 -82t-33 -82t-82 -33t-82 33t-33 82t33 82z" />
    <glyph glyph-name="Acir.dotbl134" unicode="&#x1ead;" horiz-adv-x="1239" 
d="M877 0v88q-120 -108 -297 -108q-137 0 -242 63q-112 63 -178 180q-68 118 -68 258q0 141 70 260q67 118 178 181q104 61 235 61q175 0 302 -109v89h188v-963h-188zM870 301v361q-104 137 -274 137q-134 0 -225 -97q-84 -90 -84 -221q0 -130 90 -223q91 -94 229 -94
q163 0 264 137zM543 1071h-129l168 266h192l168 -266h-129l-135 150zM575 -180q33 33 82 33t82 -33t33 -82t-33 -82t-82 -33t-82 33q-32 32 -32 82t32 82z" />
    <glyph glyph-name="Abrv.acute" unicode="&#x1eae;" horiz-adv-x="1351" 
d="M1128 0l-151 369h-604l-150 -369h-213l594 1434h144l593 -1434h-213zM676 1096l-221 -533h442zM803 1776h131q0 -94 -68 -162t-161 -68q-94 0 -162 68t-68 162h131q0 -41 29 -70t70 -29q40 0 69 29t29 70zM784 1837h-133l107 254h215z" />
    <glyph glyph-name="Abrv.acute135" unicode="&#x1eaf;" horiz-adv-x="1239" 
d="M877 0v88q-120 -108 -297 -108q-137 0 -242 63q-112 63 -178 180q-68 118 -68 258q0 141 70 260q67 118 178 181q104 61 235 61q175 0 302 -109v89h188v-963h-188zM870 301v361q-104 137 -274 137q-134 0 -225 -97q-84 -90 -84 -221q0 -130 90 -223q91 -94 229 -94
q163 0 264 137zM760 1325h131q0 -94 -68 -162q-67 -67 -161 -67q-95 0 -162 67q-68 68 -68 162h131q0 -41 29 -70q28 -28 70 -28q41 0 69 28q29 29 29 70zM741 1417h-133l107 254h215z" />
    <glyph glyph-name="Abrv.grave" unicode="&#x1eb0;" horiz-adv-x="1351" 
d="M1128 0l-151 369h-604l-150 -369h-213l594 1434h144l593 -1434h-213zM676 1096l-221 -533h442zM791 1778h131q0 -94 -68 -162t-162 -68t-162 68q-67 67 -67 162h131q0 -41 29 -70t69 -29q41 0 70 29t29 70zM764 1855h-133l-189 250h215z" />
    <glyph glyph-name="Abrv.grave136" unicode="&#x1eb1;" horiz-adv-x="1239" 
d="M877 0v88q-120 -108 -297 -108q-137 0 -242 63q-112 63 -178 180q-68 118 -68 258q0 141 70 260q67 118 178 181q104 61 235 61q175 0 302 -109v89h188v-963h-188zM870 301v361q-104 137 -274 137q-134 0 -225 -97q-84 -90 -84 -221q0 -130 90 -223q91 -94 229 -94
q163 0 264 137zM758 1325h131q0 -94 -68 -162q-67 -67 -162 -67q-94 0 -161 67q-68 68 -68 162h131q0 -41 29 -70q28 -28 69 -28q42 0 70 28q29 29 29 70zM748 1407h-134l-188 250h215z" />
    <glyph glyph-name="Abrv.hook" unicode="&#x1eb2;" horiz-adv-x="1351" 
d="M1128 0l-151 369h-604l-150 -369h-213l594 1434h144l593 -1434h-213zM676 1096l-221 -533h442zM776 1778h131q0 -95 -67 -162q-68 -68 -162 -68t-162 68q-67 67 -67 162h131q0 -42 28 -70q29 -29 70 -29t70 29q28 28 28 70zM725 2064q90 -9 137 -59q20 -29 17 -70
q-12 -63 -86 -98q-56 -24 -134 -35q-3 13 -30 68q43 10 94 31q34 18 37 45q3 25 -31 34q-18 6 -22 7q-57 0 -115 -52l-66 58q20 27 62 47q70 27 137 24z" />
    <glyph glyph-name="Abrv.hook137" unicode="&#x1eb3;" horiz-adv-x="1239" 
d="M877 0v88q-120 -108 -297 -108q-137 0 -242 63q-112 63 -178 180q-68 118 -68 258q0 141 70 260q67 118 178 181q104 61 235 61q175 0 302 -109v89h188v-963h-188zM870 301v361q-104 137 -274 137q-134 0 -225 -97q-84 -90 -84 -221q0 -130 90 -223q91 -94 229 -94
q163 0 264 137zM764 1325h131q0 -94 -68 -162q-67 -67 -161 -67q-95 0 -162 67q-68 68 -68 162h131q0 -41 29 -70q28 -28 70 -28q41 0 69 28q29 29 29 70zM717 1743q87 -9 137 -80q19 -37 16 -92q-12 -84 -86 -131q-55 -30 -133 -47q-4 18 -30 90q41 12 94 41q34 27 37 61
q3 32 -31 47q-3 1 -23 6q-56 3 -114 -67l-66 78q17 33 62 61q68 39 137 33z" />
    <glyph glyph-name="Abrv.tilde" unicode="&#x1eb4;" horiz-adv-x="1351" 
d="M1128 0l-151 369h-604l-150 -369h-213l594 1434h144l593 -1434h-213zM676 1096l-221 -533h442zM764 1776h131q0 -94 -68 -162t-161 -68q-94 0 -162 68t-68 162h131q0 -41 29 -70t70 -29q40 0 69 29t29 70zM500 1862l-107 34q3 75 47 125q48 54 119 54q44 0 119 -37
q73 -37 104 -37q50 0 62 74l106 -35q-3 -75 -47 -125q-47 -53 -119 -53q-45 0 -116 36l-29 15l-27 10q-27 12 -51 12q-49 0 -61 -73z" />
    <glyph glyph-name="Abrv.tilde138" unicode="&#x1eb5;" horiz-adv-x="1239" 
d="M877 0v88q-120 -108 -297 -108q-137 0 -242 63q-112 63 -178 180q-68 118 -68 258q0 141 70 260q67 118 178 181q104 61 235 61q175 0 302 -109v89h188v-963h-188zM870 301v361q-104 137 -274 137q-134 0 -225 -97q-84 -90 -84 -221q0 -130 90 -223q91 -94 229 -94
q163 0 264 137zM745 1325h132q0 -94 -68 -162q-67 -67 -162 -67t-162 67t-67 162h131q0 -41 29 -70q28 -28 69 -28q42 0 70 28t28 70zM469 1409l-107 35q3 74 48 125q47 53 118 53q44 0 119 -37q73 -37 105 -37q49 0 61 74l107 -35q-3 -74 -48 -125q-47 -53 -118 -53
q-44 0 -117 37l-29 14l-26 10q-29 13 -52 13q-49 0 -61 -74z" />
    <glyph glyph-name="Abrv.dotbl" unicode="&#x1eb6;" horiz-adv-x="1351" 
d="M1128 0l-151 369h-604l-150 -369h-213l594 1434h144l593 -1434h-213zM676 1096l-221 -533h442zM774 1796h131q0 -95 -67 -162t-162 -67t-162 67q-68 68 -68 162h132q0 -42 28 -70t70 -28q41 0 69 28q29 29 29 70zM594 -180q33 33 82 33t82 -33t33 -82t-33 -82t-82 -33
t-82 33t-33 82t33 82z" />
    <glyph glyph-name="Abrv.dotbl139" unicode="&#x1eb7;" horiz-adv-x="1239" 
d="M877 0v88q-120 -108 -297 -108q-137 0 -242 63q-112 63 -178 180q-68 118 -68 258q0 141 70 260q67 118 178 181q104 61 235 61q175 0 302 -109v89h188v-963h-188zM870 301v361q-104 137 -274 137q-134 0 -225 -97q-84 -90 -84 -221q0 -130 90 -223q91 -94 229 -94
q163 0 264 137zM756 1325h131q0 -94 -68 -162q-67 -67 -162 -67q-94 0 -161 67q-68 68 -68 162h131q0 -41 29 -70q28 -28 69 -28q42 0 70 28q29 29 29 70zM565 -180q33 33 82 33t82 -33t33 -82t-33 -82t-82 -33t-82 33t-33 82t33 82z" />
    <glyph glyph-name="E.dotbl" unicode="&#x1eb8;" horiz-adv-x="1105" 
d="M389 870h471v-194h-471v-481h635v-195h-840v1434h820v-195h-615v-369zM522 -180q33 33 82 33t82 -33t33 -82t-33 -82t-82 -33t-82 33t-33 82t33 82z" />
    <glyph glyph-name="E.dotbl140" unicode="&#x1eb9;" horiz-adv-x="1116" 
d="M1022 440h-741q9 -126 96 -207q89 -83 215 -83q96 0 172 43q46 24 104 88l127 -121q-137 -180 -405 -180q-211 0 -354 143q-144 144 -144 358q0 217 133 359q131 143 336 143q201 0 332 -143t131 -359v-16q0 -17 -2 -25zM397 756q-75 -58 -100 -152h524q-22 92 -94 152
q-69 57 -160 57q-95 0 -170 -57zM477 -180q33 33 82 33t82 -33t33 -82t-33 -82t-82 -33t-82 33t-33 82t33 82z" />
    <glyph glyph-name="E.hook" unicode="&#x1eba;" horiz-adv-x="1105" 
d="M389 870h471v-194h-471v-481h635v-195h-840v1434h820v-195h-615v-369zM627 1898q88 -9 137 -79q19 -37 16 -93q-12 -84 -86 -131q-55 -30 -133 -47q-2 12 -31 90q43 12 95 41q34 27 37 62q3 32 -31 47q-3 1 -23 6q-55 3 -114 -68l-66 78q19 36 61 62q67 38 138 32z" />
    <glyph glyph-name="E.hook141" unicode="&#x1ebb;" horiz-adv-x="1116" 
d="M1022 440h-741q9 -126 96 -207q89 -83 215 -83q96 0 172 43q46 24 104 88l127 -121q-137 -180 -405 -180q-211 0 -354 143q-144 144 -144 358q0 217 133 359q131 143 336 143q201 0 332 -143t131 -359v-16q0 -17 -2 -25zM397 756q-75 -58 -100 -152h524q-22 92 -94 152
q-69 57 -160 57q-95 0 -170 -57zM582 1427q88 -9 137 -79q19 -37 16 -93q-12 -84 -86 -131q-55 -30 -133 -47q-2 12 -31 90q43 12 95 41q33 26 36 62q3 33 -30 47q-3 1 -23 6q-55 3 -114 -68l-66 78q19 36 61 62q67 38 138 32z" />
    <glyph glyph-name="E.tilde" unicode="&#x1ebc;" horiz-adv-x="1105" 
d="M389 870h471v-194h-471v-481h635v-195h-840v1434h820v-195h-615v-369zM432 1550l-106 35q3 75 47 125q47 53 119 53q43 0 118 -37q71 -36 105 -36q49 0 61 73l107 -34q-3 -75 -47 -125q-48 -54 -119 -54q-44 0 -117 37l-29 15l-26 10q-27 12 -51 12q-50 0 -62 -74z" />
    <glyph glyph-name="E.tilde142" unicode="&#x1ebd;" horiz-adv-x="1116" 
d="M1022 440h-741q9 -126 96 -207q89 -83 215 -83q96 0 172 43q46 24 104 88l127 -121q-137 -180 -405 -180q-211 0 -354 143q-144 144 -144 358q0 217 133 359q131 143 336 143q201 0 332 -143t131 -359v-16q0 -17 -2 -25zM397 756q-75 -58 -100 -152h524q-22 92 -94 152
q-69 57 -160 57q-95 0 -170 -57zM387 1079l-106 35q3 75 47 125q47 53 118 53q44 0 119 -37q71 -36 105 -36q49 0 61 73l107 -35q-3 -74 -47 -124q-48 -54 -119 -54q-44 0 -117 37l-29 14l-26 11q-27 12 -51 12q-50 0 -62 -74z" />
    <glyph glyph-name="Ecir.acute" unicode="&#x1ebe;" horiz-adv-x="1105" 
d="M389 870h471v-194h-471v-481h635v-195h-840v1434h820v-195h-615v-369zM492 1550h-130l168 267h193l168 -267h-129l-135 150zM1001 1673h-133l107 254h215z" />
    <glyph glyph-name="Ecir.acute143" unicode="&#x1ebf;" horiz-adv-x="1116" 
d="M1022 440h-741q9 -126 96 -207q89 -83 215 -83q96 0 172 43q46 24 104 88l127 -121q-137 -180 -405 -180q-211 0 -354 143q-144 144 -144 358q0 217 133 359q131 143 336 143q201 0 332 -143t131 -359v-16q0 -17 -2 -25zM397 756q-75 -58 -100 -152h524q-22 92 -94 152
q-69 57 -160 57q-95 0 -170 -57zM424 1071h-129l168 266h192l168 -266h-129l-135 150zM936 1284h-133l106 254h215z" />
    <glyph glyph-name="Ecir.grave" unicode="&#x1ec0;" horiz-adv-x="1105" 
d="M389 870h471v-194h-471v-481h635v-195h-840v1434h820v-195h-615v-369zM477 1544h-129l168 266h193l168 -266h-129l-136 150zM1022 1743h-133l-189 250h215z" />
    <glyph glyph-name="Ecir.grave144" unicode="&#x1ec1;" horiz-adv-x="1116" 
d="M1022 440h-741q9 -126 96 -207q89 -83 215 -83q96 0 172 43q46 24 104 88l127 -121q-137 -180 -405 -180q-211 0 -354 143q-144 144 -144 358q0 217 133 359q131 143 336 143q201 0 332 -143t131 -359v-16q0 -17 -2 -25zM397 756q-75 -58 -100 -152h524q-22 92 -94 152
q-69 57 -160 57q-95 0 -170 -57zM424 1071h-129l168 266h192l168 -266h-129l-135 150zM983 1266h-133l-188 250h215z" />
    <glyph glyph-name="Ecir.hook" unicode="&#x1ec2;" horiz-adv-x="1105" 
d="M389 870h471v-194h-471v-481h635v-195h-840v1434h820v-195h-615v-369zM479 1550h-129l168 267h193l168 -267h-129l-136 150zM940 2081q87 -9 137 -80q20 -39 17 -92q-12 -84 -86 -131q-54 -30 -134 -47q-4 18 -30 90q41 12 94 41q34 27 37 61q3 32 -31 47q-6 2 -22 6
q-57 3 -115 -67l-66 78q17 33 62 61q68 39 137 33z" />
    <glyph glyph-name="Ecir.hook145" unicode="&#x1ec3;" horiz-adv-x="1116" 
d="M1022 440h-741q9 -126 96 -207q89 -83 215 -83q96 0 172 43q46 24 104 88l127 -121q-137 -180 -405 -180q-211 0 -354 143q-144 144 -144 358q0 217 133 359q131 143 336 143q201 0 332 -143t131 -359v-16q0 -17 -2 -25zM397 756q-75 -58 -100 -152h524q-22 92 -94 152
q-69 57 -160 57q-95 0 -170 -57zM424 1071h-129l168 266h192l168 -266h-129l-135 150zM850 1554q88 -9 137 -79q20 -39 17 -93q-12 -84 -86 -131q-54 -30 -134 -47q-4 18 -30 90q41 12 94 41q34 27 37 62q3 32 -31 47q-3 1 -23 6q-55 3 -114 -68l-66 78q18 35 62 62
q67 38 137 32z" />
    <glyph glyph-name="Ecir.tilde" unicode="&#x1ec4;" horiz-adv-x="1105" 
d="M389 870h471v-194h-471v-481h635v-195h-840v1434h820v-195h-615v-369zM442 1546h-129l168 266h193l168 -266h-129l-135 150zM453 1884l-107 35q3 75 47 125q47 53 119 53q44 0 119 -37q73 -37 104 -37q50 0 62 74l106 -35q-3 -75 -47 -125q-47 -53 -119 -53
q-43 0 -116 37l-29 14l-27 11q-27 12 -51 12q-49 0 -61 -74z" />
    <glyph glyph-name="Ecir.tilde146" unicode="&#x1ec5;" horiz-adv-x="1116" 
d="M1022 440h-741q9 -126 96 -207q89 -83 215 -83q96 0 172 43q46 24 104 88l127 -121q-137 -180 -405 -180q-211 0 -354 143q-144 144 -144 358q0 217 133 359q131 143 336 143q201 0 332 -143t131 -359v-16q0 -17 -2 -25zM397 756q-75 -58 -100 -152h524q-22 92 -94 152
q-69 57 -160 57q-95 0 -170 -57zM424 1071h-129l168 266h192l168 -266h-129l-135 150zM387 1391l-106 34q3 75 47 125q48 54 118 54q44 0 119 -37q73 -37 105 -37q49 0 61 74l107 -35q-3 -75 -47 -125q-47 -53 -119 -53q-46 0 -117 36l-29 15l-26 10q-27 12 -51 12
q-50 0 -62 -73z" />
    <glyph glyph-name="Ecir.dotbl" unicode="&#x1ec6;" horiz-adv-x="1105" 
d="M389 870h471v-194h-471v-481h635v-195h-840v1434h820v-195h-615v-369zM469 1542h-129l168 266h192l168 -266h-129l-135 150zM522 -180q33 33 82 33t82 -33t33 -82t-33 -82t-82 -33t-82 33t-33 82t33 82z" />
    <glyph glyph-name="Ecir.dotbl147" unicode="&#x1ec7;" horiz-adv-x="1116" 
d="M1022 440h-741q9 -126 96 -207q89 -83 215 -83q96 0 172 43q46 24 104 88l127 -121q-137 -180 -405 -180q-211 0 -354 143q-144 144 -144 358q0 217 133 359q131 143 336 143q201 0 332 -143t131 -359v-16q0 -17 -2 -25zM397 756q-75 -58 -100 -152h524q-22 92 -94 152
q-69 57 -160 57q-95 0 -170 -57zM424 1071h-129l168 266h192l168 -266h-129l-135 150zM477 -180q33 33 82 33t82 -33t33 -82t-33 -82t-82 -33t-82 33t-33 82t33 82z" />
    <glyph glyph-name="I.hook" unicode="&#x1ec8;" horiz-adv-x="573" 
d="M184 0v1434h205v-1434h-205zM309 1898q88 -9 137 -79q20 -39 17 -93q-12 -84 -86 -131q-55 -30 -133 -47q-2 12 -31 90q41 12 94 41q34 27 37 62q3 32 -31 47q-6 2 -22 6q-56 3 -115 -68l-65 78q19 36 61 62q67 38 137 32z" />
    <glyph glyph-name="I.hook148" unicode="&#x1ec9;" horiz-adv-x="542" 
d="M174 0v963h195v-963h-195zM295 1427q88 -9 137 -79q20 -39 17 -93q-12 -83 -87 -131q-55 -30 -133 -47q-4 18 -30 90q41 12 94 41q34 27 37 62q3 32 -31 47q-3 1 -23 6q-55 3 -114 -68l-66 78q18 35 62 62q67 38 137 32z" />
    <glyph glyph-name="I.dotbl" unicode="&#x1eca;" horiz-adv-x="573" 
d="M184 0v1434h205v-1434h-205zM205 -180q33 33 82 33t82 -33q32 -32 32 -82t-32 -82q-33 -33 -82 -33t-82 33t-33 82t33 82z" />
    <glyph glyph-name="I.dotbl149" unicode="&#x1ecb;" horiz-adv-x="542" 
d="M174 0v963h195v-963h-195zM180 1397q37 37 90 37q52 0 92 -37q37 -40 37 -92q0 -54 -37 -91q-39 -36 -92 -36q-54 0 -90 36q-37 37 -37 91q0 52 37 92zM190 -180q33 33 82 33t82 -33t33 -82t-33 -82t-82 -33t-82 33q-32 32 -32 82t32 82z" />
    <glyph glyph-name="O.dotbl" unicode="&#x1ecc;" horiz-adv-x="1576" 
d="M279 1243q205 211 509 211q305 0 510 -211q207 -213 207 -526q0 -311 -207 -524t-510 -213q-302 0 -509 213t-207 524q0 313 207 526zM422 330q147 -156 366 -156q220 0 367 156q145 154 145 387q0 230 -145 387q-147 156 -367 156q-219 0 -366 -156q-146 -158 -146 -387
q0 -232 146 -387zM707 -180q33 33 81 33q49 0 82 -33t33 -82t-33 -82t-82 -33q-48 0 -81 33t-33 82t33 82z" />
    <glyph glyph-name="O.dotbl150" unicode="&#x1ecd;" horiz-adv-x="1179" 
d="M233 840q143 143 357 143q213 0 356 -143q141 -144 141 -359q0 -214 -141 -358q-143 -143 -356 -143q-214 0 -357 143q-141 144 -141 358q0 215 141 359zM371 256q89 -92 219 -92t219 92q84 93 84 225q0 133 -84 226q-89 92 -219 92t-219 -92q-84 -93 -84 -226
q0 -132 84 -225zM508 -180q33 33 82 33t82 -33t33 -82t-33 -82t-82 -33t-82 33t-33 82t33 82z" />
    <glyph glyph-name="O.hook" unicode="&#x1ece;" horiz-adv-x="1576" 
d="M279 1243q205 211 509 211q305 0 510 -211q207 -213 207 -526q0 -311 -207 -524t-510 -213q-302 0 -509 213t-207 524q0 313 207 526zM422 330q147 -156 366 -156q220 0 367 156q145 154 145 387q0 230 -145 387q-147 156 -367 156q-219 0 -366 -156q-146 -158 -146 -387
q0 -232 146 -387zM811 1898q88 -9 137 -79q20 -39 17 -93q-12 -84 -86 -131q-54 -30 -134 -47q-4 18 -30 90q41 12 94 41q34 27 37 62q3 32 -31 47q-6 2 -22 6q-56 3 -115 -68l-66 78q18 35 62 62q67 38 137 32z" />
    <glyph glyph-name="O.hook152" unicode="&#x1ecf;" horiz-adv-x="1179" 
d="M233 840q143 143 357 143q213 0 356 -143q141 -144 141 -359q0 -214 -141 -358q-143 -143 -356 -143q-214 0 -357 143q-141 144 -141 358q0 215 141 359zM371 256q89 -92 219 -92t219 92q84 93 84 225q0 133 -84 226q-89 92 -219 92t-219 -92q-84 -93 -84 -226
q0 -132 84 -225zM612 1427q89 -9 138 -79q19 -37 16 -93q-12 -84 -86 -131q-55 -30 -133 -47q-2 12 -31 90q41 12 94 41q34 27 37 62q3 32 -31 47q-6 2 -22 6q-56 3 -115 -68l-65 78q19 36 61 62q67 38 137 32z" />
    <glyph glyph-name="Ocir.acute" unicode="&#x1ed0;" horiz-adv-x="1576" 
d="M279 1243q205 211 509 211q305 0 510 -211q207 -213 207 -526q0 -311 -207 -524t-510 -213q-302 0 -509 213t-207 524q0 313 207 526zM422 330q147 -156 366 -156q220 0 367 156q145 154 145 387q0 230 -145 387q-147 156 -367 156q-219 0 -366 -156q-146 -158 -146 -387
q0 -232 146 -387zM676 1550h-129l168 267h192l168 -267h-129l-135 150zM1186 1673h-133l106 254h215z" />
    <glyph glyph-name="Ocir.acute153" unicode="&#x1ed1;" horiz-adv-x="1179" 
d="M233 840q143 143 357 143q213 0 356 -143q141 -144 141 -359q0 -214 -141 -358q-143 -143 -356 -143q-214 0 -357 143q-141 144 -141 358q0 215 141 359zM371 256q89 -92 219 -92t219 92q84 93 84 225q0 133 -84 226q-89 92 -219 92t-219 -92q-84 -93 -84 -226
q0 -132 84 -225zM455 1071h-129l168 266h192l168 -266h-129l-135 150zM973 1204h-133l106 254h215z" />
    <glyph glyph-name="Ocir.grave" unicode="&#x1ed2;" horiz-adv-x="1576" 
d="M279 1243q205 211 509 211q305 0 510 -211q207 -213 207 -526q0 -311 -207 -524t-510 -213q-302 0 -509 213t-207 524q0 313 207 526zM422 330q147 -156 366 -156q220 0 367 156q145 154 145 387q0 230 -145 387q-147 156 -367 156q-219 0 -366 -156q-146 -158 -146 -387
q0 -232 146 -387zM662 1544h-130l168 266h193l168 -266h-129l-135 150zM1206 1743h-133l-188 250h215z" />
    <glyph glyph-name="Ocir.grave154" unicode="&#x1ed3;" horiz-adv-x="1179" 
d="M233 840q143 143 357 143q213 0 356 -143q141 -144 141 -359q0 -214 -141 -358q-143 -143 -356 -143q-214 0 -357 143q-141 144 -141 358q0 215 141 359zM371 256q89 -92 219 -92t219 92q84 93 84 225q0 133 -84 226q-89 92 -219 92t-219 -92q-84 -93 -84 -226
q0 -132 84 -225zM455 1071h-129l168 266h192l168 -266h-129l-135 150zM1001 1298h-133l-188 250h215z" />
    <glyph glyph-name="Ocir.hook" unicode="&#x1ed4;" horiz-adv-x="1576" 
d="M279 1243q205 211 509 211q305 0 510 -211q207 -213 207 -526q0 -311 -207 -524t-510 -213q-302 0 -509 213t-207 524q0 313 207 526zM422 330q147 -156 366 -156q220 0 367 156q145 154 145 387q0 230 -145 387q-147 156 -367 156q-219 0 -366 -156q-146 -158 -146 -387
q0 -232 146 -387zM678 1548h-129l168 267h192l168 -267h-129l-135 150zM1139 2079q87 -9 137 -80q19 -37 16 -92q-12 -84 -86 -131q-55 -30 -133 -47q-2 12 -31 90q43 12 95 41q34 27 37 61q3 32 -31 47q-3 1 -23 6q-56 3 -114 -67l-66 78q18 34 61 61q68 39 138 33z" />
    <glyph glyph-name="Ocir.hook155" unicode="&#x1ed5;" horiz-adv-x="1179" 
d="M233 840q143 143 357 143q213 0 356 -143q141 -144 141 -359q0 -214 -141 -358q-143 -143 -356 -143q-214 0 -357 143q-141 144 -141 358q0 215 141 359zM371 256q89 -92 219 -92t219 92q84 93 84 225q0 133 -84 226q-89 92 -219 92t-219 -92q-84 -93 -84 -226
q0 -132 84 -225zM455 1071h-129l168 266h192l168 -266h-129l-135 150zM907 1612q87 -9 137 -80q20 -39 17 -92q-12 -84 -86 -131q-55 -30 -133 -47q-2 12 -31 90q41 12 94 41q34 27 37 61q3 32 -31 47q-6 2 -22 6q-57 3 -115 -67l-65 78q18 34 61 61q68 39 137 33z" />
    <glyph glyph-name="Ocir.tilde" unicode="&#x1ed6;" horiz-adv-x="1576" 
d="M279 1243q205 211 509 211q305 0 510 -211q207 -213 207 -526q0 -311 -207 -524t-510 -213q-302 0 -509 213t-207 524q0 313 207 526zM422 330q147 -156 366 -156q220 0 367 156q145 154 145 387q0 230 -145 387q-147 156 -367 156q-219 0 -366 -156q-146 -158 -146 -387
q0 -232 146 -387zM678 1548h-129l168 267h192l168 -267h-129l-135 150zM688 1886l-106 35q3 75 47 125q47 53 119 53q43 0 118 -37q73 -37 105 -37q49 0 61 74l107 -35q-3 -75 -47 -125q-47 -53 -119 -53q-44 0 -117 37l-29 14l-26 11q-27 12 -51 12q-50 0 -62 -74z" />
    <glyph glyph-name="Ocir.tilde156" unicode="&#x1ed7;" horiz-adv-x="1179" 
d="M233 840q143 143 357 143q213 0 356 -143q141 -144 141 -359q0 -214 -141 -358q-143 -143 -356 -143q-214 0 -357 143q-141 144 -141 358q0 215 141 359zM371 256q89 -92 219 -92t219 92q84 93 84 225q0 133 -84 226q-89 92 -219 92t-219 -92q-84 -93 -84 -226
q0 -132 84 -225zM455 1071h-129l168 266h192l168 -266h-129l-135 150zM418 1391l-107 34q3 75 47 125q48 54 119 54q44 0 119 -37q73 -37 104 -37q50 0 62 74l106 -35q-3 -75 -47 -125q-47 -53 -119 -53q-45 0 -116 36l-29 15l-27 10q-27 12 -51 12q-49 0 -61 -73z" />
    <glyph glyph-name="Ocir.dotbl" unicode="&#x1ed8;" horiz-adv-x="1576" 
d="M279 1243q205 211 509 211q305 0 510 -211q207 -213 207 -526q0 -311 -207 -524t-510 -213q-302 0 -509 213t-207 524q0 313 207 526zM422 330q147 -156 366 -156q220 0 367 156q145 154 145 387q0 230 -145 387q-147 156 -367 156q-219 0 -366 -156q-146 -158 -146 -387
q0 -232 146 -387zM678 1548h-129l168 267h192l168 -267h-129l-135 150zM707 -180q33 33 81 33q49 0 82 -33t33 -82t-33 -82t-82 -33q-48 0 -81 33t-33 82t33 82z" />
    <glyph glyph-name="Ocir.dotbl158" unicode="&#x1ed9;" horiz-adv-x="1179" 
d="M233 840q143 143 357 143q213 0 356 -143q141 -144 141 -359q0 -214 -141 -358q-143 -143 -356 -143q-214 0 -357 143q-141 144 -141 358q0 215 141 359zM371 256q89 -92 219 -92t219 92q84 93 84 225q0 133 -84 226q-89 92 -219 92t-219 -92q-84 -93 -84 -226
q0 -132 84 -225zM455 1071h-129l168 266h192l168 -266h-129l-135 150zM508 -180q33 33 82 33t82 -33t33 -82t-33 -82t-82 -33t-82 33t-33 82t33 82z" />
    <glyph glyph-name="Ohorn.acute" unicode="&#x1eda;" horiz-adv-x="1576" 
d="M422 330q147 -156 366 -156q220 0 367 156q145 154 145 387q0 230 -145 387q-147 156 -367 156q-219 0 -366 -156q-146 -158 -146 -387q0 -232 146 -387zM1214 1317q48 -38 84 -74q207 -213 207 -526q0 -311 -207 -524t-510 -213q-302 0 -509 213t-207 524q0 313 207 526
q205 211 509 211q134 0 252 -41q67 22 93 51q36 33 36 86h164q0 -118 -84 -202q-11 -11 -35 -31zM815 1597h-133l106 254h216z" />
    <glyph glyph-name="Ohorn.acute159" unicode="&#x1edb;" horiz-adv-x="1179" 
d="M371 256q89 -92 219 -92t219 92q84 93 84 225q0 133 -84 226q-89 92 -219 92t-219 -92q-84 -93 -84 -226q0 -132 84 -225zM926 860l20 -20q141 -144 141 -359q0 -214 -141 -358q-143 -143 -356 -143q-214 0 -357 143q-141 144 -141 358q0 215 141 359q143 143 357 143
q81 0 158 -22q50 0 83 36q37 34 37 86h164q0 -118 -84 -202q-18 -18 -22 -21zM662 1126h-134l107 254h215z" />
    <glyph glyph-name="Ohorn.grave" unicode="&#x1edc;" horiz-adv-x="1576" 
d="M422 330q147 -156 366 -156q220 0 367 156q145 154 145 387q0 230 -145 387q-147 156 -367 156q-219 0 -366 -156q-146 -158 -146 -387q0 -232 146 -387zM1214 1317q48 -38 84 -74q207 -213 207 -526q0 -311 -207 -524t-510 -213q-302 0 -509 213t-207 524q0 313 207 526
q205 211 509 211q134 0 252 -41q67 22 93 51q36 33 36 86h164q0 -118 -84 -202q-11 -11 -35 -31zM895 1597h-133l-189 250h215z" />
    <glyph glyph-name="Ohorn.grave157" unicode="&#x1edd;" horiz-adv-x="1179" 
d="M371 256q89 -92 219 -92t219 92q84 93 84 225q0 133 -84 226q-89 92 -219 92t-219 -92q-84 -93 -84 -226q0 -132 84 -225zM926 860l20 -20q141 -144 141 -359q0 -214 -141 -358q-143 -143 -356 -143q-214 0 -357 143q-141 144 -141 358q0 215 141 359q143 143 357 143
q81 0 158 -22q50 0 83 36q37 34 37 86h164q0 -118 -84 -202q-18 -18 -22 -21zM705 1126h-134l-188 250h215z" />
    <glyph glyph-name="Ohorn.hook" unicode="&#x1ede;" horiz-adv-x="1576" 
d="M422 330q147 -156 366 -156q220 0 367 156q145 154 145 387q0 230 -145 387q-147 156 -367 156q-219 0 -366 -156q-146 -158 -146 -387q0 -232 146 -387zM1214 1317q48 -38 84 -74q207 -213 207 -526q0 -311 -207 -524t-510 -213q-302 0 -509 213t-207 524q0 313 207 526
q205 211 509 211q134 0 252 -41q67 22 93 51q36 33 36 86h164q0 -118 -84 -202q-11 -11 -35 -31zM811 1898q88 -9 137 -79q20 -39 17 -93q-12 -84 -86 -131q-54 -30 -134 -47q-4 18 -30 90q41 12 94 41q34 27 37 62q3 32 -31 47q-6 2 -22 6q-56 3 -115 -68l-66 78
q18 35 62 62q67 38 137 32z" />
    <glyph glyph-name="Ohorn.hook160" unicode="&#x1edf;" horiz-adv-x="1179" 
d="M371 256q89 -92 219 -92t219 92q84 93 84 225q0 133 -84 226q-89 92 -219 92t-219 -92q-84 -93 -84 -226q0 -132 84 -225zM926 860l20 -20q141 -144 141 -359q0 -214 -141 -358q-143 -143 -356 -143q-214 0 -357 143q-141 144 -141 358q0 215 141 359q143 143 357 143
q81 0 158 -22q50 0 83 36q37 34 37 86h164q0 -118 -84 -202q-18 -18 -22 -21zM666 1450q87 -9 137 -80q19 -37 16 -92q-12 -84 -86 -131q-55 -30 -133 -47q-2 12 -31 90q43 12 95 41q33 26 36 61q3 33 -30 47q-15 5 -23 7q-56 3 -115 -68l-65 78q18 34 61 61q68 39 138 33z
" />
    <glyph glyph-name="Ohorn.tilde" unicode="&#x1ee0;" horiz-adv-x="1576" 
d="M422 330q147 -156 366 -156q220 0 367 156q145 154 145 387q0 230 -145 387q-147 156 -367 156q-219 0 -366 -156q-146 -158 -146 -387q0 -232 146 -387zM1214 1317q48 -38 84 -74q207 -213 207 -526q0 -311 -207 -524t-510 -213q-302 0 -509 213t-207 524q0 313 207 526
q205 211 509 211q134 0 252 -41q67 22 93 51q36 33 36 86h164q0 -118 -84 -202q-11 -11 -35 -31zM616 1550l-106 35q3 75 47 125q47 53 119 53q44 0 119 -37q71 -36 104 -36q50 0 62 73l106 -34q-3 -75 -47 -125q-48 -54 -119 -54q-44 0 -117 37l-28 15l-27 10
q-27 12 -51 12q-50 0 -62 -74z" />
    <glyph glyph-name="Ohorn.tilde161" unicode="&#x1ee1;" horiz-adv-x="1179" 
d="M371 256q89 -92 219 -92t219 92q84 93 84 225q0 133 -84 226q-89 92 -219 92t-219 -92q-84 -93 -84 -226q0 -132 84 -225zM926 860l20 -20q141 -144 141 -359q0 -214 -141 -358q-143 -143 -356 -143q-214 0 -357 143q-141 144 -141 358q0 215 141 359q143 143 357 143
q81 0 158 -22q50 0 83 36q37 34 37 86h164q0 -118 -84 -202q-18 -18 -22 -21zM422 1139l-107 35q3 74 47 124q48 54 119 54q44 0 119 -37q73 -37 105 -37q49 0 61 74l106 -35q-3 -75 -47 -125q-47 -53 -118 -53q-44 0 -117 37l-29 14l-26 10q-27 12 -52 12q-49 0 -61 -73z
" />
    <glyph glyph-name="Ohorn.dotbl" unicode="&#x1ee2;" horiz-adv-x="1576" 
d="M422 330q147 -156 366 -156q220 0 367 156q145 154 145 387q0 230 -145 387q-147 156 -367 156q-219 0 -366 -156q-146 -158 -146 -387q0 -232 146 -387zM1214 1317q48 -38 84 -74q207 -213 207 -526q0 -311 -207 -524t-510 -213q-302 0 -509 213t-207 524q0 313 207 526
q205 211 509 211q134 0 252 -41q67 22 93 51q36 33 36 86h164q0 -118 -84 -202q-11 -11 -35 -31zM707 -180q33 33 81 33q49 0 82 -33t33 -82t-33 -82t-82 -33q-48 0 -81 33t-33 82t33 82z" />
    <glyph glyph-name="Ohorn.dotbl162" unicode="&#x1ee3;" horiz-adv-x="1179" 
d="M371 256q89 -92 219 -92t219 92q84 93 84 225q0 133 -84 226q-89 92 -219 92t-219 -92q-84 -93 -84 -226q0 -132 84 -225zM926 860l20 -20q141 -144 141 -359q0 -214 -141 -358q-143 -143 -356 -143q-214 0 -357 143q-141 144 -141 358q0 215 141 359q143 143 357 143
q81 0 158 -22q50 0 83 36q37 34 37 86h164q0 -118 -84 -202q-18 -18 -22 -21zM520 -180q33 33 82 33t82 -33t33 -82t-33 -82t-82 -33t-82 33t-33 82t33 82z" />
    <glyph glyph-name="U.dotbl" unicode="&#x1ee4;" horiz-adv-x="1515" 
d="M313 168q-149 162 -149 426v840h205v-850q0 -179 90 -283q115 -127 299 -127t299 127q90 104 90 283v850h205v-840q0 -262 -150 -426q-176 -188 -444 -188q-269 0 -445 188zM676 -180q33 33 82 33t82 -33q32 -32 32 -82t-32 -82q-33 -33 -82 -33t-82 33t-33 82t33 82z
" />
    <glyph glyph-name="U.dotbl163" unicode="&#x1ee5;" horiz-adv-x="1228" 
d="M242 141q-88 107 -88 330v492h194v-523q0 -128 55 -192q72 -84 187 -84q86 0 160 45q61 34 110 92v662h195v-963h-189v88q-44 -44 -106 -70q-80 -38 -176 -38q-215 0 -342 161zM522 -180q33 33 82 33t82 -33t33 -82t-33 -82t-82 -33t-82 33t-33 82t33 82z" />
    <glyph glyph-name="U.hook" unicode="&#x1ee6;" horiz-adv-x="1515" 
d="M313 168q-149 162 -149 426v840h205v-850q0 -179 90 -283q115 -127 299 -127t299 127q90 104 90 283v850h205v-840q0 -262 -150 -426q-176 -188 -444 -188q-269 0 -445 188zM780 1898q89 -9 138 -79q19 -37 16 -93q-12 -84 -86 -131q-55 -30 -133 -47q-2 12 -31 90
q41 12 94 41q34 27 37 62q3 32 -31 47q-6 2 -22 6q-56 3 -115 -68l-65 78q19 36 61 62q67 38 137 32z" />
    <glyph glyph-name="U.hook165" unicode="&#x1ee7;" horiz-adv-x="1228" 
d="M242 141q-88 107 -88 330v492h194v-523q0 -128 55 -192q72 -84 187 -84q86 0 160 45q61 34 110 92v662h195v-963h-189v88q-44 -44 -106 -70q-80 -38 -176 -38q-215 0 -342 161zM627 1427q88 -9 137 -79q19 -37 16 -93q-12 -84 -86 -131q-55 -30 -133 -47q-2 12 -31 90
q43 12 95 41q34 27 37 62q3 32 -31 47q-3 1 -23 6q-55 3 -114 -68l-66 78q19 36 61 62q67 38 138 32z" />
    <glyph glyph-name="Uhorn.acute" unicode="&#x1ee8;" horiz-adv-x="1515" 
d="M1352 1270v-676q0 -262 -150 -426q-176 -188 -444 -188q-269 0 -445 188q-149 162 -149 426v840h205v-850q0 -179 90 -283q115 -127 299 -127t299 127q90 104 90 283v850h184q25 8 47 30q37 34 37 86h164q0 -118 -84 -202q-64 -64 -143 -78zM897 1597h-133l106 254h215z
" />
    <glyph glyph-name="Uhorn.acute166" unicode="&#x1ee9;" horiz-adv-x="1228" 
d="M1055 801v-801h-189v88q-44 -44 -106 -70q-80 -38 -176 -38q-215 0 -342 161q-88 107 -88 330v492h194v-523q0 -128 55 -192q72 -84 187 -84q86 0 160 45q61 34 110 92v662h162q35 6 63 34q37 34 37 86h164q0 -118 -84 -202q-65 -65 -147 -80zM676 1126h-133l106 254h215
z" />
    <glyph glyph-name="Uhorn.grave" unicode="&#x1eea;" horiz-adv-x="1515" 
d="M1352 1270v-676q0 -262 -150 -426q-176 -188 -444 -188q-269 0 -445 188q-149 162 -149 426v840h205v-850q0 -179 90 -283q115 -127 299 -127t299 127q90 104 90 283v850h184q25 8 47 30q37 34 37 86h164q0 -118 -84 -202q-64 -64 -143 -78zM864 1597h-133l-188 250h215z
" />
    <glyph glyph-name="Uhorn.grave167" unicode="&#x1eeb;" horiz-adv-x="1228" 
d="M1055 801v-801h-189v88q-44 -44 -106 -70q-80 -38 -176 -38q-215 0 -342 161q-88 107 -88 330v492h194v-523q0 -128 55 -192q72 -84 187 -84q86 0 160 45q61 34 110 92v662h162q35 6 63 34q37 34 37 86h164q0 -118 -84 -202q-65 -65 -147 -80zM700 1126h-133l-188 250
h215z" />
    <glyph glyph-name="Uhorn.hook" unicode="&#x1eec;" horiz-adv-x="1515" 
d="M1352 1270v-676q0 -262 -150 -426q-176 -188 -444 -188q-269 0 -445 188q-149 162 -149 426v840h205v-850q0 -179 90 -283q115 -127 299 -127t299 127q90 104 90 283v850h184q25 8 47 30q37 34 37 86h164q0 -118 -84 -202q-64 -64 -143 -78zM807 1898q88 -9 137 -79
q20 -39 17 -93q-12 -83 -87 -131q-55 -30 -133 -47q-4 18 -30 90q41 12 94 41q34 27 37 62q3 32 -31 47q-3 1 -23 6q-55 3 -114 -68l-66 78q18 35 62 62q67 38 137 32z" />
    <glyph glyph-name="Uhorn.hook168" unicode="&#x1eed;" horiz-adv-x="1228" 
d="M1055 801v-801h-189v88q-44 -44 -106 -70q-80 -38 -176 -38q-215 0 -342 161q-88 107 -88 330v492h194v-523q0 -128 55 -192q72 -84 187 -84q86 0 160 45q61 34 110 92v662h162q35 6 63 34q37 34 37 86h164q0 -118 -84 -202q-65 -65 -147 -80zM668 1427q88 -9 137 -79
q19 -37 16 -93q-12 -84 -86 -131q-55 -30 -133 -47q-2 12 -31 90q43 12 95 41q33 26 36 62q3 33 -30 47q-3 1 -23 6q-55 3 -114 -68l-66 78q19 36 61 62q67 38 138 32z" />
    <glyph glyph-name="Uhorn.tilde" unicode="&#x1eee;" horiz-adv-x="1515" 
d="M1352 1270v-676q0 -262 -150 -426q-176 -188 -444 -188q-269 0 -445 188q-149 162 -149 426v840h205v-850q0 -179 90 -283q115 -127 299 -127t299 127q90 104 90 283v850h184q25 8 47 30q37 34 37 86h164q0 -118 -84 -202q-64 -64 -143 -78zM571 1550l-106 35
q3 75 47 125q47 53 119 53q44 0 119 -37q71 -36 104 -36q49 0 61 73l107 -34q-3 -75 -47 -125q-48 -54 -119 -54q-44 0 -117 37l-28 15l-27 10q-27 12 -51 12q-50 0 -62 -74z" />
    <glyph glyph-name="Uhorn.tilde169" unicode="&#x1eef;" horiz-adv-x="1228" 
d="M1055 801v-801h-189v88q-44 -44 -106 -70q-80 -38 -176 -38q-215 0 -342 161q-88 107 -88 330v492h194v-523q0 -128 55 -192q72 -84 187 -84q86 0 160 45q61 34 110 92v662h162q35 6 63 34q37 34 37 86h164q0 -118 -84 -202q-65 -65 -147 -80zM449 1079l-107 35
q3 75 47 125q47 53 119 53q44 0 119 -37q71 -36 104 -36q50 0 62 73l106 -35q-3 -74 -47 -124q-48 -54 -119 -54q-44 0 -117 37l-28 14l-27 11q-27 12 -51 12q-49 0 -61 -74z" />
    <glyph glyph-name="Uhorn.dotbl" unicode="&#x1ef0;" horiz-adv-x="1515" 
d="M1352 1270v-676q0 -262 -150 -426q-176 -188 -444 -188q-269 0 -445 188q-149 162 -149 426v840h205v-850q0 -179 90 -283q115 -127 299 -127t299 127q90 104 90 283v850h184q25 8 47 30q37 34 37 86h164q0 -118 -84 -202q-64 -64 -143 -78zM698 -180q33 33 82 33t82 -33
t33 -82t-33 -82t-82 -33t-82 33q-32 32 -32 82t32 82z" />
    <glyph glyph-name="Uhorn.dotbl170" unicode="&#x1ef1;" horiz-adv-x="1228" 
d="M1055 801v-801h-189v88q-44 -44 -106 -70q-80 -38 -176 -38q-215 0 -342 161q-88 107 -88 330v492h194v-523q0 -128 55 -192q72 -84 187 -84q86 0 160 45q61 34 110 92v662h162q35 6 63 34q37 34 37 86h164q0 -118 -84 -202q-65 -65 -147 -80zM551 -180q33 33 82 33
t82 -33t33 -82t-33 -82t-82 -33t-82 33t-33 82t33 82z" />
    <glyph glyph-name="Ygrave" unicode="&#x1ef2;" horiz-adv-x="1228" 
d="M1208 1434l-491 -779v-655h-205v655l-492 779h230l364 -576l365 576h229zM721 1597h-133l-189 250h215z" />
    <glyph glyph-name="Ygrave122" unicode="&#x1ef3;" horiz-adv-x="1042" 
d="M379 -492h-207l260 592l-412 863h209l301 -635l277 635h205zM623 1126h-134l-188 250h215z" />
    <glyph glyph-name="Y.dotbl" unicode="&#x1ef4;" horiz-adv-x="1228" 
d="M1208 1434l-491 -779v-655h-205v655l-492 779h230l364 -576l365 576h229zM532 -180q33 33 82 33t82 -33t33 -82t-33 -82t-82 -33t-82 33q-32 32 -32 82t32 82z" />
    <glyph glyph-name="Y.dotbl171" unicode="&#x1ef5;" horiz-adv-x="1042" 
d="M379 -492h-207l260 592l-412 863h209l301 -635l277 635h205zM635 -180q33 33 82 33t82 -33q32 -32 32 -82t-32 -82q-33 -33 -82 -33t-82 33t-33 82t33 82z" />
    <glyph glyph-name="Y.hook" unicode="&#x1ef6;" horiz-adv-x="1228" 
d="M1208 1434l-491 -779v-655h-205v655l-492 779h230l364 -576l365 576h229zM637 1898q88 -9 137 -79q20 -39 17 -93q-12 -84 -86 -131q-54 -30 -134 -47q-4 18 -30 90q41 12 94 41q34 27 37 62q3 32 -31 47q-3 1 -23 6q-55 3 -114 -68l-66 78q18 35 62 62q67 38 137 32z
" />
    <glyph glyph-name="Y.hook172" unicode="&#x1ef7;" horiz-adv-x="1042" 
d="M379 -492h-207l260 592l-412 863h209l301 -635l277 635h205zM539 1427q88 -9 137 -79q19 -37 16 -93q-12 -84 -86 -131q-55 -30 -133 -47q-2 12 -31 90q43 12 95 41q33 26 36 62q3 33 -30 47q-3 1 -23 6q-55 3 -114 -68l-66 78q19 36 61 62q67 38 138 32z" />
    <glyph glyph-name="Ytilde" unicode="&#x1ef8;" horiz-adv-x="1228" 
d="M1208 1434l-491 -779v-655h-205v655l-492 779h230l364 -576l365 576h229zM442 1550l-106 35q3 75 47 125q47 53 119 53q44 0 119 -37q71 -36 104 -36q49 0 61 73l107 -34q-3 -75 -47 -125q-48 -54 -119 -54q-44 0 -117 37l-28 15l-27 10q-27 12 -51 12q-50 0 -62 -74z
" />
    <glyph glyph-name="Ytilde173" unicode="&#x1ef9;" horiz-adv-x="1042" 
d="M379 -492h-207l260 592l-412 863h209l301 -635l277 635h205zM344 1079l-106 35q3 75 47 125q47 53 118 53q44 0 119 -37q71 -36 105 -36q49 0 61 73l107 -35q-3 -74 -47 -124q-48 -54 -119 -54q-44 0 -117 37l-29 14l-26 11q-27 12 -51 12q-50 0 -62 -74z" />
    <glyph glyph-name="endash" unicode="&#x2013;" horiz-adv-x="1003" 
d="M41 604h922v-164h-922v164z" />
    <glyph glyph-name="emdash" unicode="&#x2014;" horiz-adv-x="1617" 
d="M41 604h1536v-164h-1536v164z" />
    <glyph glyph-name="quoteleft" unicode="&#x2018;" horiz-adv-x="583" 
d="M328 922h-226l246 532h133z" />
    <glyph glyph-name="quoteright" unicode="&#x2019;" horiz-adv-x="583" 
d="M256 1454h225l-245 -532h-134z" />
    <glyph glyph-name="quotesinglbase" unicode="&#x201a;" horiz-adv-x="583" 
d="M256 246h225l-245 -533h-134z" />
    <glyph glyph-name="quotedblleft" unicode="&#x201c;" horiz-adv-x="1013" 
d="M758 922h-226l246 532h133zM328 922h-226l246 532h133z" />
    <glyph glyph-name="quotedblright" unicode="&#x201d;" horiz-adv-x="1013" 
d="M256 1454h225l-245 -532h-134zM686 1454h225l-245 -532h-134z" />
    <glyph glyph-name="quotedblbase" unicode="&#x201e;" horiz-adv-x="1013" 
d="M256 246h225l-245 -533h-134zM686 246h225l-245 -533h-134z" />
    <glyph glyph-name="dagger" unicode="&#x2020;" horiz-adv-x="1075" 
d="M102 942h338v492h195v-492h338v-184h-338v-1168h-195v1168h-338v184z" />
    <glyph glyph-name="daggerdbl" unicode="&#x2021;" horiz-adv-x="1075" 
d="M102 942h338v492h195v-492h338v-184h-338v-307h338v-185h-338v-676h-195v676h-338v185h338v307h-338v184z" />
    <glyph glyph-name="bullet" unicode="&#x2022;" horiz-adv-x="1146" 
d="M285 770q121 121 288 121q168 0 289 -121t121 -289q0 -167 -121 -288t-289 -121q-167 0 -288 121t-121 288q0 168 121 289z" />
    <glyph glyph-name="ellipsis" unicode="&#x2026;" horiz-adv-x="1904" 
d="M266 225q44 41 103 41q58 0 102 -41q41 -44 41 -102q0 -59 -41 -103q-43 -40 -102 -40q-60 0 -103 40q-41 44 -41 103q0 58 41 102zM870 225q44 41 103 41q58 0 102 -41q41 -44 41 -102q0 -59 -41 -103q-43 -40 -102 -40q-60 0 -103 40q-41 44 -41 103q0 58 41 102z
M1475 225q44 41 102 41t102 -41q41 -44 41 -102q0 -59 -41 -103q-43 -40 -102 -40t-102 40q-41 44 -41 103q0 58 41 102z" />
    <glyph glyph-name="perthousand" unicode="&#x2030;" horiz-adv-x="2488" 
d="M2261 90q-107 -110 -264 -110q-174 0 -277 124q-106 -124 -276 -124q-157 0 -264 110q-105 111 -105 268q0 158 105 269q107 110 264 110q166 0 276 -125q107 125 277 125q157 0 264 -110q104 -110 104 -269q0 -158 -104 -268zM756 807q-108 -111 -264 -111
q-157 0 -265 111q-104 110 -104 268t104 268q108 111 265 111q156 0 264 -111q104 -110 104 -268t-104 -268zM647 0h-196l837 1434h197zM356 930q54 -60 136 -60q81 0 135 60q49 58 49 145q0 88 -49 146q-53 59 -135 59q-83 0 -136 -59q-49 -58 -49 -146q0 -87 49 -145z
M1579 213q49 58 49 145q0 88 -49 146q-53 59 -135 59t-135 -59q-49 -58 -49 -146q0 -87 49 -145q53 -59 135 -59t135 59zM2132 213q49 58 49 145q0 88 -49 146q-53 59 -135 59t-135 -59q-50 -59 -50 -146q0 -86 50 -145q53 -59 135 -59t135 59z" />
    <glyph glyph-name="guilsinglleft" unicode="&#x2039;" horiz-adv-x="757" 
d="M360 492l316 -390h-238l-274 338v103l274 338h238z" />
    <glyph glyph-name="guilsinglright" unicode="&#x203a;" horiz-adv-x="757" 
d="M82 102l315 390l-315 389h237l275 -338v-103l-275 -338h-237z" />
    <glyph glyph-name="fraction" unicode="&#x2044;" horiz-adv-x="1034" 
d="M186 0h-176l838 1434h176z" />
    <glyph glyph-name="uni2070" unicode="&#x2070;" horiz-adv-x="667" 
d="M330 1311q-115 0 -115 -246t115 -246q123 0 123 246t-123 246zM535 780q-70 -104 -203 -104q-131 0 -201 104q-70 101 -70 285t70 285q70 104 201 104q133 0 203 -104q71 -103 71 -285t-71 -285z" />
    <glyph glyph-name="uni2074" unicode="&#x2074;" horiz-adv-x="690" 
d="M442 1434h93v-437h124v-143h-124v-158h-154v158h-330v82zM279 997h102v136z" />
    <glyph glyph-name="uni2075" unicode="&#x2075;" horiz-adv-x="604" 
d="M180 1014l-96 14l57 406h389v-144h-254l-14 -102q14 2 33 2q111 0 184 -76q74 -74 74 -178q0 -109 -78 -184q-76 -76 -192 -76q-156 0 -232 119l119 82q43 -58 113 -58q51 0 84 33q32 32 32 84q0 50 -32 82q-34 37 -88 37q-52 0 -99 -41z" />
    <glyph glyph-name="uni2076" unicode="&#x2076;" horiz-adv-x="632" 
d="M487 1434l-153 -244q114 -3 188 -80q70 -73 70 -178q0 -108 -80 -182q-77 -74 -188 -74q-119 0 -195 76q-78 75 -78 180q0 83 53 166l213 336h170zM244 1028q-24 -33 -27 -41q-12 -27 -12 -55q0 -47 35 -82t84 -35q47 0 82 35q32 32 32 82q0 52 -32 84q-33 33 -84 33
q-44 0 -78 -21z" />
    <glyph glyph-name="uni2077" unicode="&#x2077;" horiz-adv-x="546" 
d="M20 1290v144h506v-82l-297 -656h-161l272 594h-320z" />
    <glyph glyph-name="uni2078" unicode="&#x2078;" horiz-adv-x="630" 
d="M406 1010q-32 32 -89 32q-58 0 -90 -32t-32 -80q0 -52 32 -80q36 -31 90 -31q53 0 89 31q30 30 30 80q0 46 -30 80zM315 1163q72 0 72 74t-72 74q-71 0 -71 -74t71 -74zM156 1393q64 61 161 61q96 0 160 -61q64 -58 64 -148q0 -73 -54 -133q103 -77 103 -190
q0 -102 -78 -174q-81 -72 -195 -72q-115 0 -196 72q-80 71 -80 174q0 114 102 190q-53 59 -53 133q0 88 66 148z" />
    <glyph glyph-name="uni2079" unicode="&#x2079;" horiz-adv-x="632" 
d="M145 696l154 244q-115 3 -186 80q-72 75 -72 178q0 108 80 182q77 74 188 74q119 0 195 -76q78 -75 78 -180q0 -81 -54 -166l-213 -336h-170zM389 1098q24 33 27 41q12 27 12 55q0 49 -35 84q-33 33 -84 33q-49 0 -82 -33q-32 -32 -32 -84q0 -50 32 -82q35 -35 84 -35
q43 0 78 21z" />
    <glyph glyph-name="zero.sinf" unicode="&#x2080;" horiz-adv-x="667" 
d="M330 614q-115 0 -115 -245q0 -246 115 -246q123 0 123 246q0 245 -123 245zM535 84q-70 -104 -203 -104q-131 0 -201 104q-70 101 -70 285q0 183 70 284q71 105 201 105q133 0 203 -105q71 -103 71 -284q0 -182 -71 -285z" />
    <glyph glyph-name="one.sinf" unicode="&#x2081;" horiz-adv-x="481" 
d="M61 469v154l226 114h92v-737h-154v545z" />
    <glyph glyph-name="two.sinf" unicode="&#x2082;" horiz-adv-x="636" 
d="M207 522l-144 43q20 85 91 140q65 53 157 53q103 0 174 -68q76 -67 76 -172q0 -96 -88 -194l-162 -181h254v-143h-504v82l279 311q6 5 13 13.5t9 11.5q18 22 23 31q23 41 23 69q0 41 -27 68q-28 28 -70 28q-77 0 -104 -92z" />
    <glyph glyph-name="three.sinf" unicode="&#x2083;" horiz-adv-x="620" 
d="M41 111l123 77q40 -69 119 -69q54 0 88 37q35 35 35 86q0 52 -33 88q-36 39 -92 39q-40 0 -101 -23v82l125 166h-235v143h456v-82l-131 -180q69 -24 117 -90q47 -65 47 -143q0 -110 -80 -187q-78 -75 -196 -75q-160 0 -242 131z" />
    <glyph glyph-name="four.sinf" unicode="&#x2084;" horiz-adv-x="690" 
d="M442 737h93v-436h124v-143h-124v-158h-154v158h-330v82zM279 301h102v135z" />
    <glyph glyph-name="five.sinf" unicode="&#x2085;" horiz-adv-x="604" 
d="M180 317l-96 15l57 405h389v-143h-254l-14 -102q14 2 33 2q111 0 184 -76q74 -74 74 -178q0 -110 -78 -185q-75 -75 -192 -75q-157 0 -232 118l119 82q42 -57 113 -57q51 0 84 33q32 32 32 84q0 50 -32 82q-33 36 -88 36q-52 0 -99 -41z" />
    <glyph glyph-name="six.sinf" unicode="&#x2086;" horiz-adv-x="632" 
d="M487 737l-153 -243q114 -3 188 -80q70 -73 70 -178q0 -109 -80 -183q-76 -73 -188 -73q-120 0 -195 75q-78 75 -78 181q0 82 53 165l213 336h170zM244 336q-24 -33 -27 -41q-12 -27 -12 -55q0 -47 35 -82t84 -35q47 0 82 35q32 32 32 82q0 52 -32 84t-84 32
q-45 0 -78 -20z" />
    <glyph glyph-name="seven.sinf" unicode="&#x2087;" horiz-adv-x="546" 
d="M20 594v143h506v-82l-297 -655h-161l272 594h-320z" />
    <glyph glyph-name="eight.sinf" unicode="&#x2088;" horiz-adv-x="630" 
d="M406 313q-33 33 -89 33q-57 0 -90 -33q-32 -32 -32 -80q0 -51 32 -79q36 -31 90 -31q53 0 89 31q30 30 30 79q0 45 -30 80zM315 467q72 0 72 74q0 73 -72 73q-71 0 -71 -73q0 -74 71 -74zM156 696q65 62 161 62q95 0 160 -62q64 -58 64 -147q0 -73 -54 -133
q103 -77 103 -191q0 -102 -78 -174q-80 -71 -195 -71q-116 0 -196 71t-80 174q0 115 102 191q-53 59 -53 133q0 87 66 147z" />
    <glyph glyph-name="nine.sinf" unicode="&#x2089;" horiz-adv-x="632" 
d="M145 0l154 244q-115 3 -186 80q-72 75 -72 178q0 108 80 182q77 74 188 74q119 0 195 -76q78 -75 78 -180q0 -81 -54 -166l-213 -336h-170zM389 401q24 33 27 41q12 27 12 56q0 49 -35 84q-32 32 -84 32q-50 0 -82 -32t-32 -84q0 -50 32 -82q35 -35 84 -35q45 0 78 20z
" />
    <glyph glyph-name="Euro" unicode="&#x20ac;" horiz-adv-x="1187" 
d="M328 645h546v-174h-512q101 -297 381 -297q192 0 306 150l159 -105q-172 -239 -465 -239q-229 0 -389 139q-148 130 -207 352h-167v174h139q-2 14 -2 72q0 55 2 71h-139v175h167q56 221 203 350q156 141 383 141q283 0 455 -240l-160 -104q-114 150 -295 150
q-272 0 -371 -297h512v-175h-546q-2 -16 -2 -71q0 -58 2 -72z" />
    <glyph glyph-name="trademark" unicode="&#x2122;" horiz-adv-x="1730" 
d="M813 1434h94l293 -443l295 443h92v-785h-147v455l-195 -289h-90l-192 289v-455h-150v785zM143 1434h557v-140h-204v-645h-148v645h-205v140z" />
    <glyph glyph-name="Omega" unicode="&#x2126;" horiz-adv-x="1556" 
d="M408 1114q-152 -155 -152 -373q0 -247 158 -458q73 -101 155 -160v-123h-508v184h189q-189 233 -189 557q0 303 211 508q205 205 506 205t506 -205q211 -205 211 -508q0 -206 -94 -401q-43 -92 -94 -156h188v-184h-508v123q82 59 158 160q155 207 155 458q0 219 -151 373
q-150 156 -371 156q-220 0 -370 -156z" />
    <glyph glyph-name="arrowleft" unicode="&#x2190;" horiz-adv-x="1472" 
d="M766 59h-231l-412 412v102l412 412h231l-385 -381h969v-164h-969z" />
    <glyph glyph-name="arrowright" unicode="&#x2192;" horiz-adv-x="1472" 
d="M938 59h-231l385 381h-969v164h969l-385 381h231l412 -412v-102z" />
    <glyph glyph-name="uni2196" unicode="&#x2196;" horiz-adv-x="1206" 
d="M287 143l-164 164v582l72 74h583l164 -164h-543l684 -682l-114 -117l-682 684v-541z" />
    <glyph glyph-name="uni2197" unicode="&#x2197;" horiz-adv-x="1206" 
d="M1083 307l-163 -164v541l-682 -684l-115 117l684 682h-543l164 164h584l71 -74v-582z" />
    <glyph glyph-name="uni2198" unicode="&#x2198;" horiz-adv-x="1206" 
d="M920 819l163 -164v-581l-71 -74h-584l-164 164h543l-684 682l115 117l682 -684v540z" />
    <glyph glyph-name="uni2199" unicode="&#x2199;" horiz-adv-x="1206" 
d="M123 655l164 164v-540l682 684l114 -117l-684 -682h543l-164 -164h-583l-72 74v581z" />
    <glyph glyph-name="partialdiff" unicode="&#x2202;" horiz-adv-x="1179" 
d="M324 1454h227l391 -592q145 -222 145 -381q0 -210 -141 -354q-144 -147 -356 -147q-213 0 -357 147q-141 144 -141 354q0 211 141 355q141 147 357 147q1 0 47 -4zM371 707q-84 -93 -84 -226q0 -132 84 -225q89 -92 219 -92t219 92q84 93 84 225q0 146 -107 271
q-89 47 -196 47q-130 0 -219 -92z" />
    <glyph glyph-name="Delta" unicode="&#x2206;" horiz-adv-x="1167" 
d="M516 1434h135l506 -1311v-123h-1147v123zM231 184h705l-352 914z" />
    <glyph glyph-name="product" unicode="&#x220f;" horiz-adv-x="1167" 
d="M420 0h-195v1249h-205v185h1127v-185h-205v-1249h-194v1249h-328v-1249z" />
    <glyph glyph-name="summation" unicode="&#x2211;" horiz-adv-x="1146" 
d="M881 1024v225h-547l432 -450v-123l-459 -492h594v226h184v-410h-1085v123l573 614l-553 574v123h1045v-410h-184z" />
    <glyph glyph-name="minus" unicode="&#x2212;" horiz-adv-x="1105" 
d="M102 625h902v-185h-902v185z" />
    <glyph glyph-name="uni2215" unicode="&#x2215;" horiz-adv-x="1034" 
d="M186 0h-176l838 1434h176z" />
    <glyph glyph-name="radical" unicode="&#x221a;" horiz-adv-x="1187" 
d="M1012 1434h196l-510 -1434h-135l-319 778h-224v185h349l256 -623z" />
    <glyph glyph-name="infinity" unicode="&#x221e;" horiz-adv-x="1576" 
d="M1411 276q-106 -112 -278 -112q-215 0 -345 219q-130 -219 -344 -219q-170 0 -276 112q-107 113 -107 291t107 291t276 113q211 0 344 -219q133 219 345 219q171 0 278 -113q105 -114 105 -291t-105 -291zM1272 723q-51 63 -139 63q-83 0 -148 -65q-43 -43 -100 -154
q58 -113 100 -155q64 -64 148 -64q87 0 139 64q49 58 49 155q0 98 -49 156zM305 723q-49 -58 -49 -156q0 -97 49 -155q52 -64 139 -64q82 0 146 64q49 53 102 155q-55 107 -102 154q-65 65 -146 65q-88 0 -139 -63z" />
    <glyph glyph-name="integral" unicode="&#x222b;" horiz-adv-x="1077" 
d="M391 471l15 164q7 108 14 160q17 168 43 268q45 174 125 260q119 131 315 131q78 0 154 -29l-53 -170q-50 15 -101 15q-104 0 -170 -72q-53 -63 -80 -166q-34 -113 -69 -561l-15 -164q-7 -108 -14 -160q-17 -168 -43 -268q-45 -174 -125 -260q-119 -131 -315 -131
q-78 0 -154 29l53 170q53 -15 101 -15q104 0 170 72q53 63 80 166q34 113 69 561z" />
    <glyph glyph-name="approxequal" unicode="&#x2248;" horiz-adv-x="1187" 
d="M958 877l158 -80q-48 -115 -112 -176q-86 -86 -199 -86q-105 0 -236 90l-47 32q-39 26 -45 29q-50 29 -86 29q-51 0 -96 -51q-39 -42 -66 -107l-157 80q48 114 112 178q87 84 199 84q104 0 235 -90t179 -90q51 0 96 51q37 40 65 107zM958 508l158 -80q-48 -115 -112 -176
q-86 -86 -199 -86q-105 0 -236 90l-47 33q-33 22 -45 28q-50 29 -86 29q-51 0 -96 -51q-39 -42 -66 -107l-157 80q48 114 112 178q87 84 199 84q104 0 235 -90t179 -90q51 0 96 51q37 40 65 107z" />
    <glyph glyph-name="notequal" unicode="&#x2260;" horiz-adv-x="1105" 
d="M102 809h502l125 215h213l-125 -215h187v-184h-291l-107 -185h398v-184h-504l-123 -215h-213l123 215h-185v184h291l107 185h-398v184z" />
    <glyph glyph-name="lessequal" unicode="&#x2264;" horiz-adv-x="1116" 
d="M102 225h902v-184h-902v184zM500 655l504 -170v-194l-902 303v123l902 303v-195z" />
    <glyph glyph-name="greaterequal" unicode="&#x2265;" horiz-adv-x="1116" 
d="M113 225h901v-184h-901v184zM113 485l503 170l-503 170v195l901 -303v-123l-901 -303v194z" />
    <glyph glyph-name="lozenge" unicode="&#x25ca;" horiz-adv-x="1126" 
d="M496 0l-424 655v123l424 656h135l424 -656v-123l-424 -655h-135zM563 1202l-311 -485l311 -486l311 486z" />
    <glyph glyph-name="cir.acute" unicode="&#xe00d;" horiz-adv-x="0" 
d="M315 1550h-129l168 267h193l168 -267h-129l-135 150zM825 1673h-133l107 254h215z" />
    <glyph glyph-name="cir.grave" unicode="&#xe00e;" horiz-adv-x="0" 
d="M315 1544h-129l168 266h193l168 -266h-129l-135 150zM860 1743h-133l-188 250h215z" />
    <glyph glyph-name="cir.tilde" unicode="&#xe00f;" horiz-adv-x="0" 
d="M315 1546h-129l168 266h193l168 -266h-129l-135 150zM326 1884l-107 35q3 75 47 125q47 53 119 53q44 0 119 -37q73 -37 104 -37q50 0 62 74l106 -35q-3 -75 -47 -125q-47 -53 -119 -53q-43 0 -116 37l-29 14l-27 11q-27 12 -51 12q-49 0 -61 -74z" />
    <glyph glyph-name="breve.tilde" unicode="&#xe010;" horiz-adv-x="0" 
d="M528 1776h131q0 -95 -67 -162q-68 -68 -162 -68t-162 68q-67 67 -67 162h131q0 -42 28 -70q29 -29 70 -29t70 29q28 28 28 70zM264 1862l-106 34q3 75 47 125q48 54 119 54q43 0 118 -37q73 -37 105 -37q49 0 61 74l107 -35q-3 -75 -47 -125q-47 -53 -119 -53
q-46 0 -117 36l-29 15l-26 10q-27 12 -51 12q-50 0 -62 -73z" />
    <glyph glyph-name="breve.acute" unicode="&#xe011;" horiz-adv-x="0" 
d="M528 1776h131q0 -95 -67 -162q-68 -68 -162 -68t-162 68q-67 67 -67 162h131q0 -42 28 -70q29 -29 70 -29t70 29q28 28 28 70zM510 1837h-133l106 254h215z" />
    <glyph glyph-name="breve.grave" unicode="&#xe012;" horiz-adv-x="0" 
d="M528 1778h131q0 -95 -67 -162q-68 -68 -162 -68t-162 68q-67 67 -67 162h131q0 -42 28 -70q29 -29 70 -29t70 29q28 28 28 70zM502 1855h-133l-189 250h215z" />
    <glyph glyph-name="breve.hook" unicode="&#xe013;" horiz-adv-x="0" 
d="M528 1778h131q0 -95 -67 -162q-68 -68 -162 -68t-162 68q-67 67 -67 162h131q0 -42 28 -70q29 -29 70 -29t70 29q28 28 28 70zM477 2064q90 -9 137 -59q20 -29 17 -70q-12 -63 -86 -98q-56 -24 -133 -35q-2 9 -31 68q43 10 94 31q34 18 37 45q3 25 -31 34q-18 6 -22 7
q-57 0 -115 -52l-65 58q21 28 61 47q70 27 137 24z" />
    <glyph glyph-name="cir.hook" unicode="&#xe014;" horiz-adv-x="0" 
d="M315 1548h-129l168 267h193l168 -267h-129l-135 150zM776 2079q87 -9 137 -80q20 -39 17 -92q-12 -84 -86 -131q-55 -30 -133 -47q-2 12 -31 90q41 12 94 41q34 27 37 61q3 32 -31 47q-6 2 -22 6q-57 3 -115 -67l-65 78q18 34 61 61q68 39 137 33z" />
    <glyph glyph-name="uniE015" unicode="&#xe015;" horiz-adv-x="634" 
d="M492 1126h-134l-188 250h215z" />
    <glyph glyph-name="uniE016" unicode="&#xe016;" horiz-adv-x="634" 
d="M276 1126h-133l107 254h215z" />
    <glyph glyph-name="uniE017" unicode="&#xe017;" horiz-adv-x="901" 
d="M315 1071h-129l168 266h193l168 -266h-129l-135 150z" />
    <glyph glyph-name="uniE018" unicode="&#xe018;" horiz-adv-x="901" 
d="M143 1434h133l175 -193l174 193h133l-195 -308h-225z" />
    <glyph glyph-name="uniE019" unicode="&#xe019;" horiz-adv-x="983" 
d="M319 1079l-106 35q3 75 47 125q47 53 119 53q44 0 119 -37q71 -36 104 -36q50 0 62 73l106 -35q-3 -74 -47 -124q-48 -54 -119 -54q-44 0 -117 37l-28 14l-27 11q-27 12 -51 12q-50 0 -62 -74z" />
    <glyph glyph-name="uniE01A" unicode="&#xe01a;" horiz-adv-x="983" 
d="M492 1126h-134l-188 250h215z" />
    <glyph glyph-name="uniE01B" unicode="&#xe01b;" horiz-adv-x="1054" 
d="M317 1126h-133l133 308h215zM696 1126h-133l133 308h215z" />
    <glyph glyph-name="uniE01C" unicode="&#xe01c;" horiz-adv-x="860" 
d="M528 1325h131q0 -95 -67 -162t-162 -67t-162 67t-67 162h131q0 -42 28 -70t70 -28t70 28t28 70z" />
    <glyph glyph-name="uniE01D" unicode="&#xe01d;" horiz-adv-x="860" 
d="M528 1325h131q0 -95 -67 -162t-162 -67t-162 67t-67 162h131q0 -42 28 -70t70 -28t70 28t28 70z" />
    <glyph glyph-name="uniE01E" unicode="&#xe01e;" horiz-adv-x="696" 
d="M203 1436q62 59 145 59q84 0 146 -59q59 -62 59 -146q0 -83 -59 -145q-63 -60 -146 -60q-82 0 -145 60q-60 63 -60 145q0 83 60 146zM291 1233q25 -25 57 -25q36 0 58 25q24 24 24 57q0 37 -24 58q-21 24 -58 24q-33 0 -57 -24q-25 -22 -25 -58q0 -32 25 -57z" />
    <glyph glyph-name="uniE01F" unicode="&#xe01f;" horiz-adv-x="0" 
d="M41 1427q88 -9 137 -79q20 -39 17 -93q-12 -84 -86 -131q-54 -30 -134 -47q-4 18 -30 90q41 12 94 41q34 27 37 62q3 32 -31 47q-6 2 -22 6q-56 3 -115 -68l-66 78q18 35 62 62q67 38 137 32z" />
    <glyph glyph-name="uniE020" unicode="&#xe020;" horiz-adv-x="1054" 
d="M180 1397q37 37 90 37q52 0 92 -37q37 -40 37 -92q0 -54 -37 -91q-39 -36 -92 -36q-54 0 -90 36q-37 37 -37 91q0 52 37 92zM692 1397q37 37 90 37q52 0 92 -37q37 -40 37 -92q0 -54 -37 -91q-39 -36 -92 -36q-54 0 -90 36q-37 37 -37 91q0 52 37 92z" />
    <glyph glyph-name="CR" horiz-adv-x="552" 
 />
    <glyph glyph-name="Delta.1" 
d="M537 1434h135l506 -1311v-123h-1147v123zM252 184h704l-352 914z" />
    <glyph glyph-name="Euro.1" 
d="M328 645h546v-174h-512q101 -297 381 -297q192 0 306 150l159 -105q-172 -239 -465 -239q-229 0 -389 139q-148 130 -207 352h-167v174h139q-2 14 -2 72q0 55 2 71h-139v175h167q56 221 203 350q156 141 383 141q283 0 455 -240l-160 -104q-114 150 -295 150
q-272 0 -371 -297h512v-175h-546q-2 -16 -2 -71q0 -58 2 -72z" />
    <glyph glyph-name="a.1" horiz-adv-x="1105" 
d="M758 291v129q-74 39 -174 39q-102 0 -172 -33q-95 -47 -95 -133q0 -59 56 -100q51 -39 127 -39q148 0 258 137zM268 719l-94 158q60 44 141 71q107 35 220 35q218 0 344 -164q73 -98 73 -287v-532h-188v88q-38 -44 -102 -72q-76 -36 -181 -36q-150 0 -254 90
q-104 88 -104 227q0 154 119 248q112 86 278 86q115 0 236 -41q0 74 -41 127q-61 82 -189 82t-258 -80z" />
    <glyph glyph-name="aacute.1" horiz-adv-x="1105" 
d="M618 1126h-133l133 308h216zM758 291v129q-74 39 -174 39q-102 0 -172 -33q-95 -47 -95 -133q0 -59 56 -100q51 -39 127 -39q148 0 258 137zM268 719l-94 158q60 44 141 71q107 35 220 35q218 0 344 -164q73 -98 73 -287v-532h-188v88q-38 -44 -102 -72q-76 -36 -181 -36
q-150 0 -254 90q-104 88 -104 227q0 154 119 248q112 86 278 86q115 0 236 -41q0 74 -41 127q-61 82 -189 82t-258 -80z" />
    <glyph glyph-name="abreve.1" horiz-adv-x="1105" 
d="M666 1434h163q0 -119 -84 -203t-202 -84q-119 0 -203 84t-84 203h164q0 -52 37 -86q34 -37 86 -37t86 37q37 34 37 86zM758 291v129q-74 39 -174 39q-102 0 -172 -33q-95 -47 -95 -133q0 -59 56 -100q51 -39 127 -39q148 0 258 137zM268 719l-94 158q60 44 141 71
q107 35 220 35q218 0 344 -164q73 -98 73 -287v-532h-188v88q-38 -44 -102 -72q-76 -36 -181 -36q-150 0 -254 90q-104 88 -104 227q0 154 119 248q112 86 278 86q115 0 236 -41q0 74 -41 127q-61 82 -189 82t-258 -80z" />
    <glyph glyph-name="acircumflex.1" horiz-adv-x="1105" 
d="M381 1126h-133l194 308h226l194 -308h-133l-174 193zM758 291v129q-74 39 -174 39q-102 0 -172 -33q-95 -47 -95 -133q0 -59 56 -100q51 -39 127 -39q148 0 258 137zM268 719l-94 158q60 44 141 71q107 35 220 35q218 0 344 -164q73 -98 73 -287v-532h-188v88
q-38 -44 -102 -72q-76 -36 -181 -36q-150 0 -254 90q-104 88 -104 227q0 154 119 248q112 86 278 86q115 0 236 -41q0 74 -41 127q-61 82 -189 82t-258 -80z" />
    <glyph glyph-name="adieresis.1" horiz-adv-x="1105" 
d="M297 1356q37 37 90 37q52 0 92 -37q37 -40 37 -92q0 -53 -37 -90q-40 -37 -92 -37q-53 0 -90 37t-37 90q0 52 37 92zM676 1356q37 37 90 37q52 0 92 -37q37 -40 37 -92q0 -53 -37 -90q-40 -37 -92 -37q-53 0 -90 37t-37 90q0 52 37 92zM758 291v129q-74 39 -174 39
q-102 0 -172 -33q-95 -47 -95 -133q0 -59 56 -100q51 -39 127 -39q148 0 258 137zM268 719l-94 158q60 44 141 71q107 35 220 35q218 0 344 -164q73 -98 73 -287v-532h-188v88q-38 -44 -102 -72q-76 -36 -181 -36q-150 0 -254 90q-104 88 -104 227q0 154 119 248
q112 86 278 86q115 0 236 -41q0 74 -41 127q-61 82 -189 82t-258 -80z" />
    <glyph glyph-name="ae.1" horiz-adv-x="1775" 
d="M1057 756q-76 -58 -101 -152h525q-21 90 -95 152q-69 57 -159 57q-95 0 -170 -57zM758 291v129q-74 39 -174 39q-102 0 -172 -33q-95 -47 -95 -133q0 -59 56 -100q51 -39 127 -39q148 0 258 137zM952 0h-188v88q-38 -44 -102 -72q-76 -36 -181 -36q-150 0 -254 90
q-104 88 -104 227q0 154 119 248q112 86 278 86q129 0 236 -37q-6 76 -41 123q-61 82 -189 82t-258 -80l-94 158q60 44 141 71q107 35 220 35q226 0 348 -168q113 168 338 168q200 0 331 -143t131 -359v-16q0 -17 -2 -25h-741q15 -130 100 -209q87 -81 211 -81q96 0 172 40
q29 16 60 41l24 21l25 22l123 -114q-137 -180 -400 -180q-179 0 -303 112v-92z" />
    <glyph glyph-name="aeacute.1" horiz-adv-x="1775" 
d="M993 1126h-133l133 308h215zM1057 756q-76 -58 -101 -152h525q-21 90 -95 152q-69 57 -159 57q-95 0 -170 -57zM758 291v129q-74 39 -174 39q-102 0 -172 -33q-95 -47 -95 -133q0 -59 56 -100q51 -39 127 -39q148 0 258 137zM952 0h-188v88q-38 -44 -102 -72
q-76 -36 -181 -36q-150 0 -254 90q-104 88 -104 227q0 154 119 248q112 86 278 86q129 0 236 -37q-6 76 -41 123q-61 82 -189 82t-258 -80l-94 158q60 44 141 71q107 35 220 35q226 0 348 -168q113 168 338 168q200 0 331 -143t131 -359v-16q0 -17 -2 -25h-741
q15 -130 100 -209q87 -81 211 -81q96 0 172 40q29 16 60 41l24 21l25 22l123 -114q-137 -180 -400 -180q-179 0 -303 112v-92z" />
    <glyph glyph-name="agrave.1" horiz-adv-x="1105" 
d="M692 1126h-133l-215 308h215zM758 291v129q-74 39 -174 39q-102 0 -172 -33q-95 -47 -95 -133q0 -59 56 -100q51 -39 127 -39q148 0 258 137zM268 719l-94 158q60 44 141 71q107 35 220 35q218 0 344 -164q73 -98 73 -287v-532h-188v88q-38 -44 -102 -72
q-76 -36 -181 -36q-150 0 -254 90q-104 88 -104 227q0 154 119 248q112 86 278 86q115 0 236 -41q0 74 -41 127q-61 82 -189 82t-258 -80z" />
    <glyph glyph-name="amacron.1" horiz-adv-x="1105" 
d="M266 1352h615v-174h-615v174zM758 291v129q-74 39 -174 39q-102 0 -172 -33q-95 -47 -95 -133q0 -59 56 -100q51 -39 127 -39q148 0 258 137zM268 719l-94 158q60 44 141 71q107 35 220 35q218 0 344 -164q73 -98 73 -287v-532h-188v88q-38 -44 -102 -72
q-76 -36 -181 -36q-150 0 -254 90q-104 88 -104 227q0 154 119 248q112 86 278 86q115 0 236 -41q0 74 -41 127q-61 82 -189 82t-258 -80z" />
    <glyph glyph-name="aogonek.1" horiz-adv-x="1105" 
d="M758 291v129q-74 39 -174 39q-102 0 -172 -33q-95 -47 -95 -133q0 -59 56 -100q51 -39 127 -39q148 0 258 137zM764 29v59q-38 -44 -102 -72q-76 -36 -181 -36q-150 0 -254 90q-104 88 -104 227q0 154 119 248q112 86 278 86q115 0 236 -41q0 74 -41 127q-61 82 -189 82
t-258 -80l-94 158q60 44 141 71q107 35 220 35q218 0 344 -164q73 -98 73 -287v-532h-14q-28 -45 -43 -82q-21 -52 -21 -94q0 -90 97 -90q28 0 47 8l31 -174q-6 -3 -15 -6l-24 -6q-40 -7 -74 -7q-109 0 -184 72q-72 72 -72 174q0 66 29 142q22 54 55 92z" />
    <glyph glyph-name="approxequal.1" 
d="M969 877l157 -80q-48 -115 -112 -176q-86 -86 -199 -86q-104 0 -235 90t-179 90q-51 0 -96 -51q-37 -40 -65 -107l-158 80q47 112 113 178q87 84 198 84q105 0 236 -90l47 -33q33 -22 45 -28q50 -29 86 -29q51 0 96 51q39 42 66 107zM969 508l157 -80q-48 -115 -112 -176
q-86 -86 -199 -86q-104 0 -235 90t-179 90q-51 0 -96 -51q-37 -40 -65 -107l-158 80q47 112 113 178q87 84 198 84q62 0 129 -28q43 -17 107 -62q131 -90 178 -90q51 0 96 51q39 42 66 107z" />
    <glyph glyph-name="aring.1" horiz-adv-x="1105" 
d="M432 1436q62 59 146 59q83 0 145 -59q59 -62 59 -146q0 -83 -59 -145q-63 -60 -145 -60q-83 0 -146 60q-59 62 -59 145q0 84 59 146zM520 1233q25 -25 58 -25q35 0 57 25q24 24 24 57q0 37 -24 58q-21 24 -57 24q-34 0 -58 -24q-24 -21 -24 -58q0 -33 24 -57zM758 291
v129q-74 39 -174 39q-102 0 -172 -33q-95 -47 -95 -133q0 -59 56 -100q51 -39 127 -39q148 0 258 137zM268 719l-94 158q60 44 141 71q107 35 220 35q218 0 344 -164q73 -98 73 -287v-532h-188v88q-38 -44 -102 -72q-76 -36 -181 -36q-150 0 -254 90q-104 88 -104 227
q0 154 119 248q112 86 278 86q115 0 236 -41q0 74 -41 127q-61 82 -189 82t-258 -80z" />
    <glyph glyph-name="aringacute.1" horiz-adv-x="1105" 
d="M618 1556h-133l133 308h216zM432 1436q62 59 146 59q83 0 145 -59q59 -62 59 -146q0 -83 -59 -145q-63 -60 -145 -60q-83 0 -146 60q-59 62 -59 145q0 84 59 146zM520 1233q25 -25 58 -25q35 0 57 25q24 24 24 57q0 37 -24 58q-21 24 -57 24q-34 0 -58 -24
q-24 -21 -24 -58q0 -33 24 -57zM758 291v129q-74 39 -174 39q-102 0 -172 -33q-95 -47 -95 -133q0 -59 56 -100q51 -39 127 -39q148 0 258 137zM268 719l-94 158q60 44 141 71q107 35 220 35q218 0 344 -164q73 -98 73 -287v-532h-188v88q-38 -44 -102 -72q-76 -36 -181 -36
q-150 0 -254 90q-104 88 -104 227q0 154 119 248q112 86 278 86q115 0 236 -41q0 74 -41 127q-61 82 -189 82t-258 -80z" />
    <glyph glyph-name="asciicircum.1" 
d="M379 717h-205l363 717h135l362 -717h-205l-225 444z" />
    <glyph glyph-name="asciitilde.1" 
d="M969 692l157 -80q-48 -115 -112 -176q-86 -86 -199 -86q-104 0 -235 90t-179 90q-51 0 -96 -51q-38 -41 -65 -106l-158 80q47 112 113 178q87 84 198 84q105 0 236 -90l47 -33q39 -26 45 -29q48 -28 86 -28q51 0 96 51q39 43 66 106z" />
    <glyph glyph-name="asterisk.ss05" horiz-adv-x="1024" 
d="M98 860l250 144l-250 143l82 143l250 -145v289h164v-289l250 145l82 -143l-248 -143l248 -144l-82 -143l-250 143v-287h-164v287l-250 -143z" />
    <glyph glyph-name="asterisk.ss06" horiz-adv-x="1024" 
d="M131 793l-49 153l299 96l-184 256l131 95l184 -256l186 256l131 -97l-186 -254l301 -98l-51 -156l-299 99v-314h-164v316z" />
    <glyph glyph-name="asterisk.ss07" horiz-adv-x="1024" 
d="M369 1417l143 -250l143 250l144 -82l-146 -250h289v-163h-289l146 -250l-144 -82l-143 248l-143 -248l-144 82l144 250h-287v163h287l-144 250z" />
    <glyph glyph-name="asterisk.ss08" horiz-adv-x="1024" 
d="M369 1417l143 -250l-143 -82v-163l143 -84l-143 -248l-144 82l144 250h-287v163h287l-144 250zM799 1335l-146 -250h289v-163h-289v163l-141 82l143 250zM653 922l146 -250l-144 -82l-143 248z" />
    <glyph glyph-name="asterisk.ss09" horiz-adv-x="1024" 
d="M893 735l-115 -114l-164 163l115 117zM410 1221l-115 -115l-164 164l115 116zM780 1384l115 -114l-164 -164l-117 115zM295 901l115 -115l-164 -163l-117 114zM942 1085v-163h-348v163h348zM430 1085v-163h-348v163h348zM430 1434h164v-349h-164v349zM430 922h164v-349
h-164v349z" />
    <glyph glyph-name="at.1" horiz-adv-x="2048" 
d="M1210 553v338q-83 92 -211 92q-99 0 -170 -65q-77 -74 -77 -201q0 -131 79 -201q71 -65 173 -65q68 0 122 32q32 18 84 70zM1460 131l96 -143q-224 -172 -518 -172q-371 0 -632 264q-263 266 -263 637t263 637q261 264 632 264q368 0 613 -227q254 -230 254 -592
q0 -220 -97 -365q-109 -158 -297 -158q-171 0 -254 121q-44 -50 -98 -78q-79 -43 -184 -43q-163 0 -279 113q-129 126 -129 328t131 327q116 113 283 113q89 0 154 -33q21 -10 51 -28q18 -12 35 -29v70h174v-498q0 -91 20 -127q37 -61 111 -61q94 0 147 96q51 92 51 256
q0 280 -196 461q-192 180 -490 180q-294 0 -501 -213q-209 -212 -209 -514t209 -514q207 -213 501 -213q232 0 422 141z" />
    <glyph glyph-name="atilde.1" horiz-adv-x="1105" 
d="M758 1413l141 -43q-3 -93 -59 -158q-59 -65 -148 -65q-38 0 -76 14q-2 1 -69 33q-89 45 -133 45q-63 0 -78 -92l-137 43q3 92 57 158q56 65 145 65q38 0 76 -14q19 -6 70 -31q92 -47 133 -47q63 0 78 92zM758 291v129q-74 39 -174 39q-102 0 -172 -33q-95 -47 -95 -133
q0 -59 56 -100q51 -39 127 -39q148 0 258 137zM268 719l-94 158q60 44 141 71q107 35 220 35q218 0 344 -164q73 -98 73 -287v-532h-188v88q-38 -44 -102 -72q-76 -36 -181 -36q-150 0 -254 90q-104 88 -104 227q0 154 119 248q112 86 278 86q115 0 236 -41q0 74 -41 127
q-61 82 -189 82t-258 -80z" />
    <glyph glyph-name="bar.case" horiz-adv-x="440" 
d="M123 -205v1843h194v-1843h-194z" />
    <glyph glyph-name="bar.ss03" horiz-adv-x="440" 
d="M123 0v1434h194v-1434h-194z" />
    <glyph glyph-name="braceleft.case" horiz-adv-x="911" 
d="M502 506q0 -51 -10 -184l-7 -86q-4 -62 -4 -86q0 -89 35 -130q37 -40 121 -40h70v-185h-62q-171 0 -252 66q-106 81 -106 276q0 27 4 101l6 96q10 140 10 178q0 80 -39 113q-38 30 -125 30v123q89 0 125 33q39 33 39 111q0 38 -10 178t-10 196q0 196 106 277
q80 65 252 65h62v-184h-70q-83 0 -121 -41q-35 -41 -35 -129q0 -24 4 -86l7 -86q10 -133 10 -184q0 -155 -109 -211q109 -56 109 -211z" />
    <glyph glyph-name="braceleft.ss03" horiz-adv-x="911" 
d="M502 518q0 -37 -2 -57q0 -29 -2 -47q-6 -62 -6 -86q0 -144 155 -144h60v-184h-93q-169 0 -247 78q-70 73 -70 229q0 39 6 113v26l2 25q2 18 2 41q0 80 -39 113q-38 30 -125 30v123q89 0 125 33q39 33 39 111q0 23 -2 41l-2 24v29q-6 74 -6 110q0 157 70 230q78 78 247 78
h93v-185h-60q-155 0 -155 -143q0 -24 6 -86q2 -18 2 -47q2 -20 2 -58q0 -142 -109 -198q109 -56 109 -199z" />
    <glyph glyph-name="braceright.case" horiz-adv-x="911" 
d="M410 928q0 51 10 184l6 86q4 62 4 86q0 88 -35 129q-38 41 -121 41h-69v184h61q172 0 252 -65q107 -82 107 -277q0 -42 -11 -196l-4 -47l-2 -45q-4 -66 -4 -86q0 -78 39 -111q36 -33 125 -33v-123q-88 0 -125 -30q-39 -33 -39 -113q0 -20 4 -86l2 -45l4 -47
q11 -154 11 -197q0 -194 -107 -276q-81 -66 -252 -66h-61v185h69q84 0 121 40q35 41 35 130q0 42 -10 172l-6 90q-4 70 -4 94q0 156 108 211q-108 55 -108 211z" />
    <glyph glyph-name="braceright.ss03" horiz-adv-x="911" 
d="M410 915q0 47 6 105l2 45l2 41q0 143 -156 143h-59v185h92q170 0 248 -78q69 -72 69 -230q0 -32 -2 -55l-2 -55q-6 -73 -6 -94q0 -78 39 -111q36 -33 125 -33v-123q-88 0 -125 -30q-39 -33 -39 -113q0 -18 6 -92l2 -58q2 -23 2 -55q0 -157 -69 -229q-78 -78 -248 -78h-92
v184h59q156 0 156 144l-2 41l-2 45q-6 58 -6 104q0 144 108 199q-108 55 -108 198z" />
    <glyph glyph-name="bracketleft.case" horiz-adv-x="911" 
d="M307 -205v1843h502v-184h-307v-1474h307v-185h-502z" />
    <glyph glyph-name="bracketleft.ss03" horiz-adv-x="911" 
d="M307 0v1434h502v-185h-307v-1065h307v-184h-502z" />
    <glyph glyph-name="bracketright.case" horiz-adv-x="911" 
d="M604 1638v-1843h-502v185h308v1474h-308v184h502z" />
    <glyph glyph-name="bracketright.ss03" horiz-adv-x="911" 
d="M604 1434v-1434h-502v184h308v1065h-308v185h502z" />
    <glyph glyph-name="bullet.1" horiz-adv-x="1146" 
d="M285 1006q120 120 288 120q169 0 289 -120q121 -121 121 -289t-121 -289t-289 -121q-167 0 -288 121t-121 289t121 289z" />
    <glyph glyph-name="cent.1" 
d="M537 -236v228q-178 34 -291 168t-113 321t113 324q113 134 291 168v225h194v-225q195 -38 313 -199l-143 -121q-106 146 -266 146q-129 0 -219 -90q-88 -88 -88 -228q0 -139 90 -229q88 -88 229 -88q166 0 279 149l149 -108q-107 -179 -344 -217v-224h-194z" />
    <glyph glyph-name="currency.1" 
d="M248 946l-156 156l129 129l156 -156q107 66 227 66t227 -66l156 156l129 -129l-155 -156q65 -103 65 -227t-65 -227l155 -156l-129 -129l-156 155q-103 -65 -227 -65t-227 65l-156 -155l-129 129l156 156q-66 107 -66 227t66 227zM444 559q64 -67 160 -67t160 67
q67 64 67 160t-67 160q-64 67 -160 67t-160 -67q-67 -64 -67 -160t67 -160z" />
    <glyph glyph-name="divide.1" 
d="M154 625h901v-185h-901v185zM502 307q44 41 102 41q59 0 103 -41q41 -44 41 -102q0 -59 -41 -103q-44 -41 -103 -41q-58 0 -102 41q-41 44 -41 103q0 58 41 102zM502 963q44 41 102 41q59 0 103 -41q41 -44 41 -103q0 -58 -41 -102q-44 -41 -103 -41q-58 0 -102 41
q-41 44 -41 102q0 59 41 103z" />
    <glyph glyph-name="dollar.1" 
d="M784 233q76 61 76 156q0 133 -176 219q-43 21 -78 35l-82 35q-105 45 -157 80q-183 121 -183 315q0 134 95 240q94 104 243 131v225h195v-223q91 -15 170 -57q57 -28 117 -78l-121 -150q-117 99 -256 99q-96 0 -164 -50q-74 -56 -74 -143q0 -112 176 -195q7 -4 78 -34
l82 -35q102 -45 154 -80q186 -122 186 -328q0 -159 -98 -272q-94 -107 -250 -135v-224h-195v224q-244 35 -403 231l141 139q150 -184 350 -184q103 0 174 59z" />
    <glyph glyph-name="eight.1" horiz-adv-x="630" 
d="M406 313q-33 33 -89 33q-57 0 -90 -33q-32 -32 -32 -80q0 -51 32 -79q36 -31 90 -31q53 0 89 31q30 30 30 79q0 45 -30 80zM315 467q72 0 72 74q0 73 -72 73q-71 0 -71 -73q0 -74 71 -74zM156 696q65 62 161 62q95 0 160 -62q64 -58 64 -147q0 -73 -54 -133
q103 -77 103 -191q0 -102 -78 -174q-80 -71 -195 -71q-116 0 -196 71t-80 174q0 115 102 191q-53 59 -53 133q0 87 66 147z" />
    <glyph glyph-name="eight.2" horiz-adv-x="630" 
d="M406 1010q-32 32 -89 32q-58 0 -90 -32t-32 -80q0 -52 32 -80q36 -31 90 -31q53 0 89 31q30 30 30 80q0 46 -30 80zM315 1163q72 0 72 74t-72 74q-71 0 -71 -74t71 -74zM156 1393q64 61 161 61q96 0 160 -61q64 -58 64 -148q0 -73 -54 -133q103 -77 103 -190
q0 -102 -78 -174q-81 -72 -195 -72q-115 0 -196 72q-80 71 -80 174q0 114 102 190q-53 59 -53 133q0 88 66 148z" />
    <glyph glyph-name="eight.tnum" 
d="M254 113q-141 132 -141 321q0 120 65 223q63 101 162 152q-56 39 -98 115q-37 73 -37 151q0 157 114 268t285 111t285 -111q115 -112 115 -268q0 -78 -37 -151q-41 -75 -99 -115q98 -50 164 -152q64 -101 64 -223q0 -188 -142 -321q-145 -133 -350 -133t-350 133z
M399 621q-82 -76 -82 -187t82 -184q82 -76 205 -76t205 76q82 73 82 184t-82 187q-81 75 -205 75t-205 -75zM465 1206q-55 -52 -55 -131t55 -131q56 -53 139 -53t139 53t56 131t-56 131q-57 54 -139 54t-139 -54z" />
    <glyph glyph-name="emdash.1" horiz-adv-x="1617" 
d="M41 860h1536v-164h-1536v164z" />
    <glyph glyph-name="emdash.2" horiz-adv-x="2846" 
d="M41 860h2765v-164h-2765v164z" />
    <glyph glyph-name="emdash.ss04" horiz-adv-x="2846" 
d="M41 604h2765v-164h-2765v164z" />
    <glyph glyph-name="endash.1" horiz-adv-x="1003" 
d="M41 860h922v-164h-922v164z" />
    <glyph glyph-name="endash.2" horiz-adv-x="2232" 
d="M41 860h2150v-164h-2150v164z" />
    <glyph glyph-name="endash.ss04" horiz-adv-x="2232" 
d="M41 604h2150v-164h-2150v164z" />
    <glyph glyph-name="equal.1" 
d="M154 809h901v-184h-901v184zM154 440h901v-184h-901v184z" />
    <glyph glyph-name="f.1" horiz-adv-x="890" 
d="M850 1434l-72 -170q-59 26 -123 26q-95 0 -147 -67q-37 -49 -37 -172v-88h358v-175h-358v-788h-195v788h-225v175h225v81q0 182 62 271q112 160 315 160q107 0 197 -41z" />
    <glyph glyph-name="f_f.1" horiz-adv-x="1607" 
d="M1567 1434l-72 -170q-59 26 -123 26q-95 0 -147 -67q-37 -49 -37 -172v-88h358v-175h-358v-788h-195v788h-522v-788h-195v788h-225v175h225v81q0 182 62 271q112 160 315 160q107 0 197 -41l-72 -170q-59 26 -123 26q-95 0 -147 -67q-37 -49 -37 -172v-88h522v81
q0 182 62 271q112 160 315 160q107 0 197 -41z" />
    <glyph glyph-name="f_f_i.1" horiz-adv-x="2078" 
d="M1905 963v-963h-195v788h-522v-788h-195v788h-522v-788h-195v788h-225v175h225v81q0 182 62 271q112 160 315 160q107 0 197 -41l-72 -170q-59 26 -123 26q-95 0 -147 -67q-37 -49 -37 -172v-88h522v81q0 182 62 271q112 160 315 160q107 0 197 -41l-72 -170
q-59 26 -123 26q-95 0 -147 -67q-37 -49 -37 -172v-88h717zM1716 1417q37 37 90 37q52 0 92 -37q37 -40 37 -92q0 -53 -37 -90q-40 -37 -92 -37q-53 0 -90 37t-37 90q0 52 37 92z" />
    <glyph glyph-name="f_f_l.1" horiz-adv-x="2078" 
d="M1710 0v788h-522v-788h-195v788h-522v-788h-195v788h-225v175h225v81q0 182 62 271q112 160 315 160q107 0 197 -41l-72 -170q-59 26 -123 26q-95 0 -147 -67q-37 -49 -37 -172v-88h522v81q0 182 62 271q112 160 315 160q107 0 197 -41l-72 -170q-59 26 -123 26
q-95 0 -147 -67q-37 -49 -37 -172v-88h522v491h195v-1454h-195z" />
    <glyph glyph-name="fi.1" horiz-adv-x="1361" 
d="M999 1417q37 37 91 37q52 0 92 -37q37 -40 37 -92q0 -53 -37 -90q-40 -37 -92 -37q-54 0 -91 37q-36 36 -36 90q0 53 36 92zM276 963v81q0 182 62 271q112 160 315 160q107 0 197 -41l-72 -170q-59 26 -123 26q-95 0 -147 -67q-37 -49 -37 -172v-88h717v-963h-195v788
h-522v-788h-195v788h-225v175h225z" />
    <glyph glyph-name="five.1" horiz-adv-x="604" 
d="M180 317l-96 15l57 405h389v-143h-254l-14 -102q14 2 33 2q111 0 184 -76q74 -74 74 -178q0 -110 -78 -185q-75 -75 -192 -75q-157 0 -232 118l119 82q42 -57 113 -57q51 0 84 33q32 32 32 84q0 50 -32 82q-33 36 -88 36q-52 0 -99 -41z" />
    <glyph glyph-name="five.2" horiz-adv-x="604" 
d="M180 1014l-96 14l57 406h389v-144h-254l-14 -102q14 2 33 2q111 0 184 -76q74 -74 74 -178q0 -109 -78 -184q-76 -76 -192 -76q-156 0 -232 119l119 82q43 -58 113 -58q51 0 84 33q32 32 32 84q0 50 -32 82q-34 37 -88 37q-52 0 -99 -41z" />
    <glyph glyph-name="five.tnum" 
d="M995 1239h-503l-41 -301q77 25 135 25q207 0 350 -146q139 -145 139 -346t-139 -346q-145 -145 -352 -145q-277 0 -420 204l155 121q101 -131 267 -131q128 0 207 88q77 83 77 209q0 127 -79 209q-82 88 -211 88q-130 0 -218 -82l-141 21l103 727h671v-195z" />
    <glyph glyph-name="fl.1" horiz-adv-x="1361" 
d="M276 963v81q0 182 62 271q112 160 315 160q107 0 197 -41l-72 -170q-59 26 -123 26q-95 0 -147 -67q-37 -49 -37 -172v-88h522v491h195v-1454h-195v788h-522v-788h-195v788h-225v175h225z" />
    <glyph glyph-name="florin.1" 
d="M412 231q9 110 18 205l8 105l8 104h-311v174h328q17 145 41 244q45 174 125 260q119 131 315 131q78 0 154 -29l-54 -170q-49 15 -100 15q-104 0 -170 -72q-53 -63 -80 -166q-26 -90 -39 -213h312v-174h-330l-8 -102l-8 -105l-6 -78t-6.5 -76.5t-4.5 -52.5
q-21 -234 -51 -352q-45 -174 -125 -260q-119 -131 -315 -131q-78 0 -154 29l53 170q53 -15 101 -15q104 0 170 72q52 61 79 166q30 112 50 321z" />
    <glyph glyph-name="four.1" horiz-adv-x="690" 
d="M442 737h93v-436h124v-143h-124v-158h-154v158h-330v82zM279 301h102v135z" />
    <glyph glyph-name="four.2" horiz-adv-x="690" 
d="M442 1434h93v-437h124v-143h-124v-158h-154v158h-330v82zM279 997h102v136z" />
    <glyph glyph-name="four.tnum" 
d="M82 348v133l737 953h144v-891h225v-195h-225v-348h-205v348h-676zM373 543h385v483z" />
    <glyph glyph-name="greater.1" 
d="M154 287l575 245l-575 246v201l901 -385v-123l-901 -385v201z" />
    <glyph glyph-name="greaterequal.1" 
d="M154 225h901v-184h-901v184zM154 485l503 170l-503 170v195l901 -303v-123l-901 -303v194z" />
    <glyph glyph-name="guillemotleft.1" horiz-adv-x="1228" 
d="M360 686l316 -389h-238l-274 338v102l274 338h238zM831 686l316 -389h-238l-274 338v102l274 338h238z" />
    <glyph glyph-name="guillemotright.1" horiz-adv-x="1228" 
d="M553 297l315 389l-315 389h238l274 -338v-102l-274 -338h-238zM82 297l315 389l-315 389h237l275 -338v-102l-275 -338h-237z" />
    <glyph glyph-name="guilsinglleft.1" horiz-adv-x="757" 
d="M360 686l316 -389h-238l-274 338v102l274 338h238z" />
    <glyph glyph-name="guilsinglright.1" horiz-adv-x="757" 
d="M82 297l315 389l-315 389h237l275 -338v-102l-275 -338h-237z" />
    <glyph glyph-name="hyphen.1" horiz-adv-x="942" 
d="M164 860h614v-164h-614v164z" />
    <glyph glyph-name="ij.1" horiz-adv-x="1095" 
d="M174 0v963h195v-963h-195zM180 1397q37 37 90 37q52 0 92 -37q37 -40 37 -92q0 -54 -37 -91q-39 -36 -92 -36q-54 0 -90 36q-37 37 -37 91q0 52 37 92zM922 963v-1045q0 -180 -62 -272q-103 -158 -307 -158q-135 0 -215 51l82 160q50 -27 119 -27q98 0 149 66
q39 51 39 174v1051h195zM733 1397q37 37 90 37q52 0 92 -37q37 -40 37 -92q0 -54 -37 -91q-39 -36 -92 -36q-54 0 -90 36q-37 37 -37 91q0 52 37 92z" />
    <glyph glyph-name="integral.1" 
d="M432 471l14 164q6 93 15 160q17 168 43 268q45 174 125 260q119 131 315 131q78 0 154 -29l-54 -170q-49 15 -100 15q-104 0 -170 -72q-53 -63 -80 -166q-34 -113 -69 -561l-15 -164q-7 -108 -14 -160q-17 -168 -43 -268q-45 -174 -125 -260q-119 -131 -315 -131
q-78 0 -154 29l53 170q53 -15 101 -15q104 0 170 72q52 61 79 166q35 117 70 561z" />
    <glyph glyph-name="j.1" horiz-adv-x="583" 
d="M410 963v-1045q0 -180 -62 -272q-103 -158 -307 -158q-135 0 -215 51l82 160q49 -27 119 -27q98 0 149 66q39 51 39 174v1051h195zM221 1397q37 37 90 37q52 0 92 -37q37 -40 37 -92q0 -54 -37 -91q-39 -36 -92 -36q-54 0 -90 36q-37 37 -37 91q0 52 37 92z" />
    <glyph glyph-name="jcircumflex.1" horiz-adv-x="604" 
d="M410 963v-1045q0 -180 -62 -272q-103 -158 -307 -158q-135 0 -215 51l82 160q49 -27 119 -27q98 0 149 66q39 51 39 174v1051h195zM96 1126h-133l195 308h225l195 -308h-134l-174 193z" />
    <glyph glyph-name="less.1" 
d="M479 532l576 -245v-201l-901 385v123l901 385v-201z" />
    <glyph glyph-name="lessequal.1" 
d="M154 225h901v-184h-901v184zM551 655l504 -170v-194l-901 303v123l901 303v-195z" />
    <glyph glyph-name="logicalnot.1" 
d="M1055 809v-553h-185v369h-716v184h901z" />
    <glyph glyph-name="lozenge.1" 
d="M537 0l-424 655v123l424 656h135l424 -656v-123l-424 -655h-135zM604 1202l-311 -485l311 -486l311 486z" />
    <glyph glyph-name="minus.1" 
d="M154 625h901v-185h-901v185z" />
    <glyph glyph-name="mu.1" 
d="M440 10q-56 26 -92 62v-564h-194v1455h194v-523q0 -128 55 -192q72 -84 181 -84q88 0 164 43q58 34 112 94v662h195v-963h-189v88q-44 -44 -106 -70q-80 -38 -176 -38q-74 0 -144 30z" />
    <glyph glyph-name="multiply.1" 
d="M307 961l297 -297l297 297l131 -132l-297 -297l297 -296l-131 -132l-297 297l-297 -297l-131 132l297 296l-297 297z" />
    <glyph glyph-name="nine.1" horiz-adv-x="632" 
d="M145 0l154 244q-115 3 -186 80q-72 75 -72 178q0 108 80 182q77 74 188 74q119 0 195 -76q78 -75 78 -180q0 -81 -54 -166l-213 -336h-170zM389 406q25 34 27 40q12 27 12 56q0 49 -35 84q-32 32 -84 32q-50 0 -82 -32t-32 -84q0 -50 32 -82q35 -35 84 -35q43 0 78 21z
" />
    <glyph glyph-name="nine.2" horiz-adv-x="632" 
d="M145 696l154 244q-115 3 -186 80q-72 75 -72 178q0 108 80 182q77 74 188 74q119 0 195 -76q78 -75 78 -180q0 -81 -54 -166l-213 -336h-170zM389 1098q24 33 27 41q12 27 12 55q0 49 -35 84q-33 33 -84 33q-49 0 -82 -33q-32 -32 -32 -84q0 -50 32 -82q35 -35 84 -35
q43 0 78 21z" />
    <glyph glyph-name="nine.tnum" 
d="M893 963q0 126 -84 213q-84 84 -209 84q-128 0 -211 -86q-82 -82 -82 -207q0 -123 82 -211q84 -90 207 -90q147 0 225 75q72 113 72 222zM342 0l313 481l-39 -4h-38q-197 0 -336 139q-140 140 -140 347q0 206 142 348q143 143 356 143q215 0 356 -141q140 -140 140 -344
q0 -110 -47 -219q-40 -88 -136 -234l-340 -516h-231z" />
    <glyph glyph-name="notequal.1" 
d="M154 809h501l125 215h213l-125 -215h187v-184h-291l-107 -185h398v-184h-504l-123 -215h-213l123 215h-184v184h290l107 185h-397v184z" />
    <glyph glyph-name="numbersign.1" 
d="M1110 399h-260l-109 -399h-190l108 399h-280l-109 -399h-190l108 399h-208v185h258l69 266h-211v184h260l109 400h190l-108 -400h280l109 400h190l-108 -400h211v-184h-260l-70 -266h211v-185zM498 850l-70 -266h281l69 266h-280z" />
    <glyph glyph-name="one.1" horiz-adv-x="481" 
d="M61 469v154l226 114h92v-737h-154v545z" />
    <glyph glyph-name="one.2" horiz-adv-x="481" 
d="M61 1165v154l226 115h92v-738h-154v545z" />
    <glyph glyph-name="one.tnum" 
d="M154 0v195h389v983l-318 -164v203l379 217h144v-1239h327v-195h-921z" />
    <glyph glyph-name="parenleft.case" horiz-adv-x="911" 
d="M768 -117l-158 -108q-303 422 -303 942t303 942l158 -109q-266 -374 -266 -833q0 -460 266 -834z" />
    <glyph glyph-name="parenleft.ss03" horiz-adv-x="911" 
d="M666 63l-177 -83q-182 361 -182 737t182 737l177 -84q-164 -323 -164 -653q0 -331 164 -654z" />
    <glyph glyph-name="parenright.case" horiz-adv-x="911" 
d="M143 1550l158 109q303 -422 303 -942t-303 -942l-158 108q267 375 267 834q0 458 -267 833z" />
    <glyph glyph-name="parenright.ss03" horiz-adv-x="911" 
d="M246 1370l176 84q182 -361 182 -737t-182 -737l-176 83q164 323 164 654q0 330 -164 653z" />
    <glyph glyph-name="partialdiff.1" 
d="M338 1454h227l391 -592q146 -224 146 -381q0 -210 -141 -354q-144 -147 -357 -147q-212 0 -356 147q-142 145 -142 354q0 210 142 355q141 147 356 147q1 0 47 -4zM385 707q-84 -93 -84 -226q0 -132 84 -225q89 -92 219 -92t219 92q84 93 84 225q0 147 -106 271
q-89 47 -197 47q-130 0 -219 -92z" />
    <glyph glyph-name="periodcentered.1" horiz-adv-x="696" 
d="M246 819q44 41 102 41q59 0 103 -41q41 -44 41 -102q0 -59 -41 -103q-44 -41 -103 -41q-58 0 -102 41q-41 44 -41 103q0 58 41 102z" />
    <glyph glyph-name="pi.1" 
d="M1028 139l-110 -159q-150 76 -150 327v471h-205v-778h-194v766q-34 -6 -58 -18q-58 -27 -112 -105l-158 94q68 131 209 189q87 37 219 37h698v-185h-204v-465q0 -80 8 -104q12 -47 57 -70z" />
    <glyph glyph-name="plus.1" 
d="M154 625h358v358h184v-358h359v-185h-359v-358h-184v358h-358v185z" />
    <glyph glyph-name="plusminus.1" 
d="M154 748h358v276h184v-276h359v-185h-359v-276h-184v276h-358v185zM154 225h901v-184h-901v184z" />
    <glyph glyph-name="product.1" 
d="M440 0h-194v1249h-205v185h1126v-185h-204v-1249h-195v1249h-328v-1249z" />
    <glyph glyph-name="quotedbl.1" 
d="M328 922l-31 512h195l-31 -512h-133zM748 922l-31 512h194l-30 -512h-133z" />
    <glyph glyph-name="quotesingle.1" 
d="M539 922l-31 512h194l-30 -512h-133z" />
    <glyph glyph-name="r.1" horiz-adv-x="819" 
d="M788 961l-45 -187l-6 4l-10 4q-4 1 -12.5 4.5t-12.5 4.5q-31 8 -73 8q-77 0 -148 -45q-72 -48 -112 -117v-637h-195v963h188v-111q94 131 289 131q69 0 137 -22z" />
    <glyph glyph-name="racute.1" horiz-adv-x="819" 
d="M440 1126h-133l133 308h215zM788 961l-45 -187l-6 4l-10 4q-4 1 -12.5 4.5t-12.5 4.5q-31 8 -73 8q-77 0 -148 -45q-72 -48 -112 -117v-637h-195v963h188v-111q94 131 289 131q69 0 137 -22z" />
    <glyph glyph-name="radical.1" 
d="M950 1434h197l-510 -1434h-135l-320 778h-223v185h348l256 -623z" />
    <glyph glyph-name="rcaron.1" horiz-adv-x="819" 
d="M164 1434h133l174 -193l174 193h133l-194 -308h-226zM788 961l-45 -187l-6 4l-10 4q-4 1 -12.5 4.5t-12.5 4.5q-31 8 -73 8q-77 0 -148 -45q-72 -48 -112 -117v-637h-195v963h188v-111q94 131 289 131q69 0 137 -22z" />
    <glyph glyph-name="rcommaaccent.1" horiz-adv-x="819" 
d="M164 -410h-133l133 308h215zM788 961l-45 -187l-6 4l-10 4q-4 1 -12.5 4.5t-12.5 4.5q-31 8 -73 8q-77 0 -148 -45q-72 -48 -112 -117v-637h-195v963h188v-111q94 131 289 131q69 0 137 -22z" />
    <glyph glyph-name="section.1" 
d="M322 1341q125 113 311 113q121 0 233 -47q84 -40 152 -96l-121 -150q-117 99 -256 99q-97 0 -164 -46q-74 -50 -74 -135q0 -94 166 -164q10 -5 76 -30l82 -31q122 -48 164 -72q215 -117 215 -327q0 -199 -182 -334q86 -89 86 -211q0 -157 -123 -268q-125 -113 -312 -113
q-122 0 -231 47q-85 39 -154 96l121 150q116 -98 256 -98q99 0 164 45q74 50 74 135q0 94 -166 164q-10 5 -76 30l-82 31q-122 48 -164 72q-215 117 -215 327q0 195 183 334q-86 83 -86 211q0 157 123 268zM455 350q56 -25 141 -59l78 -29l76 -31q58 27 102 86q49 64 49 129
q0 112 -147 185q-53 27 -144 59l-78 29l-75 33q-60 -31 -103 -86q-47 -65 -47 -129q0 -110 148 -187z" />
    <glyph glyph-name="seven.1" horiz-adv-x="546" 
d="M20 594v143h506v-82l-297 -655h-161l272 594h-320z" />
    <glyph glyph-name="seven.2" horiz-adv-x="546" 
d="M20 1290v144h506v-82l-297 -656h-161l272 594h-320z" />
    <glyph glyph-name="seven.tnum" 
d="M414 0h-219l614 1239h-655v195h901v-134z" />
    <glyph glyph-name="six.1" horiz-adv-x="632" 
d="M487 737l-153 -243q114 -3 188 -80q70 -73 70 -178q0 -109 -80 -183q-76 -73 -188 -73q-120 0 -195 75q-78 75 -78 181q0 82 53 165l213 336h170zM244 332q-24 -33 -27 -41q-12 -27 -12 -55q0 -47 35 -82t84 -35q47 0 82 35q32 32 32 82q0 51 -32 83q-33 33 -84 33
q-45 0 -78 -20z" />
    <glyph glyph-name="six.2" horiz-adv-x="632" 
d="M487 1434l-153 -244q114 -3 188 -80q70 -73 70 -178q0 -108 -80 -182q-77 -74 -188 -74q-119 0 -195 76q-78 75 -78 180q0 83 53 166l213 336h170zM244 1028q-24 -33 -27 -41q-12 -27 -12 -55q0 -47 35 -82t84 -35q47 0 82 35q32 32 32 82q0 52 -32 84q-33 33 -84 33
q-44 0 -78 -21z" />
    <glyph glyph-name="six.tnum" 
d="M315 471q0 -126 84 -213q84 -84 209 -84q128 0 211 86q82 82 82 207q0 123 -82 211q-84 90 -207 90q-146 0 -225 -76q-72 -113 -72 -221zM866 1434l-313 -482l39 4h39q197 0 336 -139t139 -346t-141 -348q-143 -143 -357 -143q-212 0 -356 141q-139 142 -139 344
q0 110 47 219q43 93 135 234l340 516h231z" />
    <glyph glyph-name="sterling.1" 
d="M547 819h303v-174h-246q12 -59 12 -123q0 -202 -118 -338h598v-184h-953v123q132 51 207 174q72 113 72 225q0 49 -19 123h-219v174h156q-61 149 -61 254q0 164 120 275q112 106 275 106q222 0 356 -192l-153 -111q-76 119 -203 119q-78 0 -137 -53q-64 -58 -64 -148
q0 -50 25 -123q2 -4 9 -25t13 -36z" />
    <glyph glyph-name="summation.1" 
d="M942 1024v225h-547l432 -450v-123l-458 -492h594v226h184v-410h-1086v123l574 614l-553 574v123h1044v-410h-184z" />
    <glyph glyph-name="t.1" horiz-adv-x="952" 
d="M774 201l76 -158q-84 -63 -229 -63q-171 0 -271 112q-84 93 -84 256v440h-246v175h246v266h195v-266h409v-175h-409v-450q0 -80 37 -123q39 -51 129 -51q83 0 147 37z" />
    <glyph glyph-name="tbar.1" horiz-adv-x="952" 
d="M266 584v204h-246v175h246v266h195v-266h409v-175h-409v-204h409v-174h-409v-72q0 -80 37 -123q39 -51 129 -51q83 0 147 37l76 -158q-84 -63 -229 -63q-171 0 -271 112q-84 93 -84 256v62h-246v174h246z" />
    <glyph glyph-name="tcaron.1" horiz-adv-x="952" 
d="M655 1126h-133l133 308h215zM774 201l76 -158q-84 -63 -229 -63q-171 0 -271 112q-84 93 -84 256v440h-246v175h246v266h195v-266h409v-175h-409v-450q0 -80 37 -123q39 -51 129 -51q83 0 147 37z" />
    <glyph glyph-name="tcedilla.1" horiz-adv-x="952" 
d="M467 -410h-133l133 308h215zM774 201l76 -158q-84 -63 -229 -63q-171 0 -271 112q-84 93 -84 256v440h-246v175h246v266h195v-266h409v-175h-409v-450q0 -80 37 -123q39 -51 129 -51q83 0 147 37z" />
    <glyph glyph-name="three.1" horiz-adv-x="620" 
d="M41 111l123 77q40 -69 119 -69q54 0 88 37q35 35 35 86q0 52 -33 88q-36 39 -92 39q-40 0 -101 -23v82l125 166h-235v143h456v-82l-131 -180q69 -24 117 -90q47 -65 47 -143q0 -110 -80 -187q-78 -75 -196 -75q-160 0 -242 131z" />
    <glyph glyph-name="three.2" horiz-adv-x="620" 
d="M41 807l123 78q40 -70 119 -70q54 0 88 37q35 35 35 86q0 52 -33 88q-36 39 -92 39q-40 0 -101 -23v82l125 166h-235v144h456v-82l-131 -181q69 -24 117 -90q47 -65 47 -143q0 -109 -80 -186q-79 -76 -196 -76q-160 0 -242 131z" />
    <glyph glyph-name="three.tnum" 
d="M92 225l170 99q76 -150 270 -150q122 0 209 84q88 85 88 213q0 130 -86 213q-90 84 -223 84q-57 0 -104 -8q-6 -1 -18.5 -4t-18.5 -4l-14 -4l-11 -3v134l305 360h-495v195h799v-134l-316 -362q164 -24 275 -156q112 -130 112 -311q0 -207 -145 -352q-142 -139 -344 -139
q-152 0 -269 63q-124 65 -184 182z" />
    <glyph glyph-name="two.1" horiz-adv-x="636" 
d="M207 522l-144 43q20 85 91 140q65 53 157 53q103 0 174 -68q76 -67 76 -172q0 -96 -88 -194l-162 -181h254v-143h-504v82l279 311q6 5 13 13.5t9 11.5q18 22 23 31q23 41 23 69q0 41 -27 68q-28 28 -70 28q-77 0 -104 -92z" />
    <glyph glyph-name="two.2" horiz-adv-x="636" 
d="M207 1219l-144 43q20 84 91 139q65 53 157 53q103 0 174 -68q76 -67 76 -172q0 -96 -88 -194l-162 -180h254v-144h-504v82l279 312q6 6 13 14t9 10q18 22 23 31q23 41 23 69q0 41 -27 68q-29 29 -70 29q-77 0 -104 -92z" />
    <glyph glyph-name="two.tnum" 
d="M338 1069l-182 59q54 185 196 267q49 31 123 47q53 12 109 12q181 0 307 -129q123 -126 123 -303q0 -200 -166 -393l-381 -434h547v-195h-860v133l489 559q166 190 166 330q0 96 -64 166q-66 72 -163 72q-179 0 -244 -191z" />
    <glyph glyph-name="uni0237.1" horiz-adv-x="563" 
d="M389 963v-1045q0 -181 -61 -272q-103 -158 -308 -158q-135 0 -215 51l82 160q50 -27 119 -27q99 0 150 66q39 51 39 174v1051h194z" />
    <glyph glyph-name="uni2070.1" horiz-adv-x="667" 
d="M535 780q-70 -104 -203 -104q-131 0 -201 104q-70 101 -70 285t70 285q70 104 201 104q133 0 203 -104q71 -103 71 -285t-71 -285zM449 1137l-175 -297q21 -21 56 -21q123 0 123 246q0 10 -4 72zM215 1065q0 -52 2 -66l170 293q-25 19 -57 19q-115 0 -115 -246z" />
    <glyph glyph-name="yen.1" 
d="M707 645h389v-174h-389v-471h-205v471h-389v174h389l-90 143h-299v175h190l-293 471h234l360 -586l361 586h233l-295 -471h193v-175h-301z" />
    <glyph glyph-name="zero.1" 
d="M604 1260q-287 0 -287 -543t287 -543t287 543t-287 543zM223 1239q126 215 381 215t381 -215q111 -191 111 -522t-111 -522q-126 -215 -381 -215t-381 215q-110 189 -110 522t110 522z" />
    <glyph glyph-name="zero.2" 
d="M223 1239q126 215 381 215t381 -215q111 -191 111 -522t-111 -522q-126 -215 -381 -215t-381 215q-110 189 -110 522t110 522zM866 983l-428 -741q65 -68 166 -68q287 0 287 543q0 153 -25 266zM317 717q0 -140 23 -262l428 737q-65 68 -164 68q-287 0 -287 -543z" />
    <glyph glyph-name="zero.3" horiz-adv-x="667" 
d="M330 614q-115 0 -115 -245q0 -246 115 -246q123 0 123 246q0 245 -123 245zM535 84q-70 -104 -203 -104q-131 0 -201 104q-70 101 -70 285q0 183 70 284q71 105 201 105q133 0 203 -105q71 -103 71 -284q0 -182 -71 -285z" />
    <glyph glyph-name="zero.4" horiz-adv-x="667" 
d="M330 1311q-115 0 -115 -246t115 -246q123 0 123 246t-123 246zM535 780q-70 -104 -203 -104q-131 0 -201 104q-70 101 -70 285t70 285q70 104 201 104q133 0 203 -104q71 -103 71 -285t-71 -285z" />
    <glyph glyph-name="zero.5" horiz-adv-x="667" 
d="M535 84q-70 -104 -203 -104q-131 0 -201 104q-70 101 -70 285q0 183 70 284q71 105 201 105q133 0 203 -105q71 -103 71 -284q0 -182 -71 -285zM449 440l-175 -297q20 -20 56 -20q123 0 123 246q0 9 -4 71zM215 369q0 -52 2 -66l170 293q-24 18 -57 18q-115 0 -115 -245z
" />
    <glyph glyph-name="zero.sinf.1" horiz-adv-x="667" 
d="M535 84q-70 -104 -203 -104q-131 0 -201 104q-70 101 -70 285q0 183 70 284q71 105 201 105q133 0 203 -105q71 -103 71 -284q0 -182 -71 -285zM449 440l-175 -297q20 -20 56 -20q123 0 123 246q0 9 -4 71zM215 369q0 -52 2 -66l170 293q-24 18 -57 18q-115 0 -115 -245z
" />
    <glyph glyph-name="zero.zero" 
d="M223 1239q126 215 381 215t381 -215q111 -191 111 -522t-111 -522q-126 -215 -381 -215t-381 215q-110 189 -110 522t110 522zM866 983l-428 -741q65 -68 166 -68q287 0 287 543q0 153 -25 266zM317 717q0 -140 23 -262l428 737q-65 68 -164 68q-287 0 -287 -543z" />
    <glyph glyph-name="zero.zero.1" horiz-adv-x="667" 
d="M535 780q-70 -104 -203 -104q-131 0 -201 104q-70 101 -70 285t70 285q70 104 201 104q133 0 203 -104q71 -103 71 -285t-71 -285zM449 1137l-175 -297q21 -21 56 -21q123 0 123 246q0 10 -4 72zM215 1065q0 -52 2 -66l170 293q-25 19 -57 19q-115 0 -115 -246z" />
    </font>
</defs>
</svg>
