<?xml version="1.0" standalone="no"?>
<!DOCTYPE svg PUBLIC "-//W3C//DTD SVG 1.1//EN" "http://www.w3.org/Graphics/SVG/1.1/DTD/svg11.dtd" >
<svg xmlns="http://www.w3.org/2000/svg" xmlns:xlink="http://www.w3.org/1999/xlink" version="1.1">
<metadata>
Created by FontForge 20170731 at Tue Jun 13 03:23:03 2017
 By Aleksey,,,
Version 2. Beaufort is a trademark of Shinn Type Foundry. Copyright 2002 by Nick Shinn. Published 2002 by Shinn Type Foundry.
</metadata>
<defs>
<font id="Beaufort-Italic" horiz-adv-x="667" >
  <font-face 
    font-family="Beaufort"
    font-weight="400"
    font-style="italic"
    font-stretch="normal"
    units-per-em="1000"
    panose-1="0 0 4 0 0 0 0 0 0 0"
    ascent="800"
    descent="-200"
    x-height="472"
    cap-height="666"
    bbox="-421 -203 1044 1066"
    underline-thickness="20"
    underline-position="-163"
    slope="-11"
    unicode-range="U+000D-F002"
  />
<missing-glyph horiz-adv-x="500" 
d="M63 0v780h375v-780h-375zM125 63h250v655h-250v-655z" />
    <glyph glyph-name=".notdef" horiz-adv-x="500" 
d="M63 0v780h375v-780h-375zM125 63h250v655h-250v-655z" />
    <glyph glyph-name="uni0000" horiz-adv-x="0" 
 />
    <glyph glyph-name="uni0000" horiz-adv-x="0" 
 />
    <glyph glyph-name="uni000D" unicode="&#xd;" horiz-adv-x="227" 
 />
    <glyph glyph-name="space" unicode=" " horiz-adv-x="227" 
 />
    <glyph glyph-name="exclam" unicode="!" horiz-adv-x="291" 
d="M308 666q-9 -2 -20 -17q-24 -31 -42 -108l-64 -267q-12 -52 -57 -120q-11 49 -11 63q0 37 4 57l48 267q8 48 8 73q0 46 -16 52h150zM139.5 5q-15.5 -16 -40.5 -16q-23 0 -37 14.5t-14 36.5t16 38t40 16q51 0 51 -50q0 -23 -15.5 -39z" />
    <glyph glyph-name="quotedbl" unicode="&#x22;" horiz-adv-x="458" 
d="M258 666l-25 -122q-18 -88 -71 -156h-2q-11 33 -11 73t9 83l25 122h75zM437 666l-26 -122q-20 -89 -70 -156h-3q-11 33 -11 73q0 41 9 83l26 122h75z" />
    <glyph glyph-name="numbersign" unicode="#" horiz-adv-x="568" 
d="M556 433h-101l-47 -186h108v-38h-119l-53 -209h-44l51 209h-181l-55 -209h-44l52 209h-91v38h101l47 186h-102v38h111l48 195h47l-50 -195h182l49 195h49l-50 -195h92v-38zM407 433h-181l-45 -186h180z" />
    <glyph glyph-name="dollar" unicode="$" horiz-adv-x="519" 
d="M445 498q-11 93 -101 108l-51 -240q70 -51 99 -86t29 -85q0 -83 -53.5 -130.5t-149.5 -51.5l-17 -81h-41l18 81q-100 6 -147 43l31 137q10 -121 125 -133l54 253q-63 46 -90.5 80t-27.5 82q0 78 53 127t137 52l16 73h40l-15 -74q73 -7 117 -37zM303 607
q-53 -2 -84.5 -32.5t-31.5 -79.5q0 -52 70 -106zM277 289l-49 -229q59 3 92 33.5t33 80.5q0 58 -76 115z" />
    <glyph glyph-name="percent" unicode="%" horiz-adv-x="682" 
d="M355.5 459q-20.5 -43 -57.5 -69.5t-85 -26.5q-56 0 -87.5 37t-31.5 94q0 48 21 91t58.5 69.5t84.5 26.5q56 0 87 -36.5t31 -94.5q0 -48 -20.5 -91zM694 666l-597 -666h-59l599 666h57zM301.5 614.5q-17.5 25.5 -51.5 25.5q-29 0 -51 -21t-34.5 -54.5t-12.5 -68.5
q0 -91 68 -91q29 0 51.5 21.5t35 54.5t12.5 68q0 40 -17.5 65.5zM614.5 81q-20.5 -43 -58 -69t-85.5 -26q-57 0 -88 36.5t-31 93.5q0 48 21 91.5t58.5 70.5t84.5 27q57 0 88 -37t31 -96q0 -48 -20.5 -91zM509 262q-29 0 -51.5 -21.5t-35.5 -55t-13 -67.5q0 -89 68 -89
q29 0 52 21t35.5 54t12.5 67q0 91 -68 91z" />
    <glyph glyph-name="ampersand" unicode="&#x26;" horiz-adv-x="720" 
d="M730 437q-35 -15 -84 -106q-65 -120 -159 -212q82 -73 127 -73q28 0 71 36q-48 -92 -114 -92q-56 0 -145 80q-109 -82 -221 -82q-78 0 -124 38.5t-46 104.5q0 69 42 118.5t132 97.5q-47 86 -47 146q0 57 26.5 100t70 66.5t93.5 23.5q59 0 100.5 -37t41.5 -96
q0 -62 -47.5 -108.5t-145.5 -99.5q60 -98 149 -190q54 54 101.5 128.5t47.5 119.5q0 27 -21 37h152zM403.5 609q-25.5 26 -62.5 26q-30 0 -56 -15t-42 -42.5t-16 -62.5q0 -46 50 -135q58 33 89 55.5t47 47.5t16 58q0 42 -25.5 68zM232 308q-64 -36 -93.5 -70.5t-29.5 -83.5
t32.5 -79.5t88.5 -30.5q80 0 158 60q-85 91 -156 204z" />
    <glyph glyph-name="quotesingle" unicode="'" horiz-adv-x="236" 
d="M238 666l-26 -122q-20 -89 -70 -156h-3q-11 33 -11 73q0 41 9 83l26 122h75z" />
    <glyph glyph-name="parenleft" unicode="(" horiz-adv-x="340" 
d="M252.5 545q-68.5 -100 -105.5 -220.5t-37 -236.5q0 -201 108 -291q-86 32 -134 125.5t-48 206.5q0 119 49 239t134.5 209.5t190.5 123.5q-89 -56 -157.5 -156z" />
    <glyph glyph-name="parenright" unicode=")" horiz-adv-x="340" 
d="M249 130q-49 -120 -135 -210t-191 -123q90 56 158 155.5t105 220t37 236.5q0 92 -27.5 170t-80.5 122q86 -32 134.5 -125t48.5 -207q0 -119 -49 -239z" />
    <glyph glyph-name="asterisk" unicode="*" horiz-adv-x="387" 
d="M402 479q-53 27 -148 35q40 -96 78 -132l-87 -30q3 20 3 37q0 47 -18 117q-72 -63 -97 -116l-56 75q59 9 139 61q-83 51 -139 60l53 77q25 -53 100 -116q17 77 17 113q0 20 -4 40l89 -29q-42 -42 -77 -131q104 9 147 33v-94z" />
    <glyph glyph-name="plus" unicode="+" horiz-adv-x="659" 
d="M604 255h-244v-255h-55v255h-245v53h245v253h55v-253h244v-53z" />
    <glyph glyph-name="comma" unicode="," horiz-adv-x="236" 
d="M111.5 -74.5q-28.5 -44.5 -75 -73t-98.5 -31.5q53 21 94.5 69.5t42.5 95.5q0 12 -3 18q-14 -8 -25 -6q-41 5 -41 47q0 25 19 41.5t45 16.5q31 0 50.5 -21t19.5 -61q0 -51 -28.5 -95.5z" />
    <glyph glyph-name="hyphen" unicode="-" horiz-adv-x="360" 
d="M304 283l-14 -62h-246l14 62h246z" />
    <glyph glyph-name="period" unicode="." horiz-adv-x="236" 
d="M115 6q-17 -17 -43 -17t-40.5 15t-14.5 39q0 25 16.5 42t43.5 17q26 0 40.5 -15t14.5 -39q0 -25 -17 -42z" />
    <glyph glyph-name="slash" unicode="/" horiz-adv-x="426" 
d="M477 675l-435 -688h-65l438 688h62z" />
    <glyph glyph-name="zero" unicode="0" horiz-adv-x="519" 
d="M470 240.5q-39 -109.5 -109.5 -183t-158.5 -73.5q-80 0 -122 66.5t-42 164.5q0 109 40.5 218t110.5 179t155 70q82 0 123.5 -65.5t41.5 -165.5q0 -101 -39 -210.5zM408.5 583.5q-26.5 47.5 -79.5 47.5q-56 0 -106.5 -68t-81.5 -169t-31 -193q0 -70 26.5 -118t79.5 -48
q59 0 109.5 72.5t80 175t29.5 182.5q0 71 -26.5 118.5z" />
    <glyph glyph-name="one" unicode="1" horiz-adv-x="519" 
d="M432 695l-123 -578q-7 -31 -7 -56q0 -41 30 -61h-121l121 567l-213 -137l16 75z" />
    <glyph glyph-name="two" unicode="2" horiz-adv-x="519" 
d="M469.5 423.5q-29.5 -53.5 -92.5 -120t-175 -167.5l-85 -76h203q83 0 128 53l-30 -113h-441l180 162q139 125 203 210q61 80 61 146q0 51 -33.5 82.5t-91.5 31.5q-54 0 -91 -27.5t-37 -71.5q0 -41 40 -54l-68 -55q-40 30 -40 84q0 49 28.5 89t78 62.5t109.5 22.5
q83 0 133 -42t50 -111q0 -52 -29.5 -105.5z" />
    <glyph glyph-name="three" unicode="3" horiz-adv-x="519" 
d="M475 440q-25 -44 -67.5 -72t-93.5 -32q63 -20 95.5 -62.5t32.5 -98.5q0 -55 -33.5 -98.5t-88.5 -67.5t-118 -24q-80 0 -132.5 35t-61.5 96l86 44q-2 -18 -2 -30q1 -44 37 -69t89 -25q62 0 105.5 36.5t43.5 94.5q0 62 -54 103t-159 49l22 47q35 -5 57 -5q51 0 95.5 19.5
t71.5 56t27 84.5q0 50 -35 80.5t-89 30.5q-48 0 -80.5 -21t-32.5 -54q0 -24 19 -37l-82 -33q-9 20 -8 41q1 47 29.5 82t75 54t101.5 19q77 0 126 -41.5t49 -108.5q0 -49 -25 -93z" />
    <glyph glyph-name="four" unicode="4" horiz-adv-x="519" 
d="M482 666l-97 -453h67l-12 -56h-66l-11 -55q-6 -30 -6 -50q0 -33 22 -52h-110l34 157h-327l438 509h68zM394 566l-304 -353h225z" />
    <glyph glyph-name="five" unicode="5" horiz-adv-x="519" 
d="M485 603h-246l-69 -185h46q74 0 128.5 -24t83 -66.5t28.5 -97.5q0 -66 -34 -122.5t-95 -89.5t-137 -33q-75 0 -121 31t-53 81l83 44v-9q0 -42 33 -69t79 -27q49 0 88 24t61.5 64t22.5 86q0 67 -55.5 108t-153.5 42l-84 1l114 305h188q76 0 121 18z" />
    <glyph glyph-name="six" unicode="6" horiz-adv-x="519" 
d="M547 660q-78 -12 -156.5 -54.5t-146 -108.5t-110.5 -146l4 -2q62 81 164 81q46 0 83.5 -21t59.5 -60.5t22 -93.5q0 -71 -33.5 -133t-91.5 -99t-129 -37q-84 0 -131.5 51.5t-47.5 143.5q0 97 54.5 202.5t146 187t196.5 112.5zM358 339q-36 37 -90 37q-44 0 -81 -25.5
t-59 -71.5t-22 -103q0 -66 33.5 -103.5t91.5 -37.5q41 0 78.5 26t61 72.5t23.5 102.5q0 66 -36 103z" />
    <glyph glyph-name="seven" unicode="7" horiz-adv-x="519" 
d="M583 666l-275 -386q-120 -170 -150 -280h-115q216 316 431 605h-228q-88 0 -135 -57l40 118h432z" />
    <glyph glyph-name="eight" unicode="8" horiz-adv-x="519" 
d="M468.5 419.5q-41.5 -51.5 -110.5 -68.5q105 -39 105 -146q0 -58 -33 -109t-91.5 -81.5t-131.5 -30.5q-88 0 -139.5 44t-51.5 114q0 48 23 91.5t65 73.5t97 40q-41 15 -64.5 50.5t-23.5 78.5q0 54 30 101.5t82.5 75.5t117.5 28q76 0 121.5 -41t45.5 -105t-41.5 -115.5z
M411 603.5q-30 30.5 -82 30.5q-41 0 -73.5 -20.5t-51 -54t-18.5 -72.5q0 -49 30 -80t81 -31q41 0 74 20.5t51.5 55t18.5 73.5q0 48 -30 78.5zM349 280.5q-34 34.5 -95 34.5q-47 0 -84.5 -21.5t-58 -58.5t-20.5 -80q0 -54 35.5 -88.5t96.5 -34.5q69 0 114.5 44.5t45.5 113.5
q0 56 -34 90.5z" />
    <glyph glyph-name="nine" unicode="9" horiz-adv-x="519" 
d="M457 285q-54 -105 -145 -186.5t-196 -112.5l-117 23q78 12 156.5 54t145.5 108t110 146l-3 2q-64 -82 -165 -82q-46 0 -84 21.5t-60 61.5t-22 93q0 71 34 133t93 99.5t130 37.5q82 0 129.5 -52t47.5 -144q0 -97 -54 -202zM406.5 595q-33.5 37 -91.5 37q-41 0 -79 -26.5
t-61.5 -73t-23.5 -102.5q0 -66 35.5 -102t89.5 -36q45 0 82.5 25.5t59.5 71.5t22 103q0 66 -33.5 103z" />
    <glyph glyph-name="colon" unicode=":" horiz-adv-x="236" 
d="M190 340q-17 -17 -43 -17t-40.5 15.5t-14.5 39.5q0 25 16.5 42t43.5 17q26 0 40.5 -15.5t14.5 -39.5q0 -25 -17 -42zM115 6q-17 -17 -43 -17t-40.5 15t-14.5 39q0 25 16.5 42t43.5 17q26 0 40.5 -15t14.5 -39q0 -25 -17 -42z" />
    <glyph glyph-name="semicolon" unicode=";" horiz-adv-x="236" 
d="M192 340q-17 -17 -43 -17t-40.5 15.5t-14.5 39.5q0 25 16.5 42t43.5 17q26 0 40.5 -15.5t14.5 -39.5q0 -25 -17 -42zM112 -75.5q-28 -45.5 -74.5 -73.5t-99.5 -30q53 21 94.5 69.5t42.5 95.5q0 10 -4 17q-11 -6 -23 -5q-42 5 -42 47q0 25 19 41.5t45 16.5q31 0 50.5 -21
t19.5 -61q0 -51 -28 -96.5z" />
    <glyph glyph-name="less" unicode="&#x3c;" horiz-adv-x="659" 
d="M571 -3l-478 260v48l478 262v-62l-413 -222v-5l413 -219v-62z" />
    <glyph glyph-name="equal" unicode="=" horiz-adv-x="659" 
d="M604 361h-544v53h544v-53zM604 156h-544v54h544v-54z" />
    <glyph glyph-name="greater" unicode="&#x3e;" horiz-adv-x="659" 
d="M571 257l-478 -260v62l413 221v5l-413 220v62l478 -262v-48z" />
    <glyph glyph-name="question" unicode="?" horiz-adv-x="502" 
d="M419 426l-39 -29q-83 -61 -126 -102t-43 -79q0 -23 18 -38q-10 -7 -24 -7q-24 0 -42 22q-13 16 -13 37q0 57 70 118l120 92q70 58 70 113q0 37 -28.5 58t-75.5 21q-53 0 -105.5 -28t-79.5 -74l22 114q74 38 179 38q79 0 126.5 -29.5t47.5 -86.5q0 -73 -77 -140zM190.5 5
q-15.5 -16 -40.5 -16q-23 0 -37 14.5t-14 36.5t16 38t40 16q51 0 51 -50q0 -23 -15.5 -39z" />
    <glyph glyph-name="at" unicode="@" horiz-adv-x="924" 
d="M820.5 164q-34.5 -80 -94.5 -128.5t-132 -48.5q-43 0 -58.5 21.5t-15.5 55.5q0 14 2 36q-29 -51 -77.5 -82t-96.5 -31q-53 0 -81.5 35.5t-28.5 98.5q0 85 40.5 167.5t106.5 134.5t136 52q25 0 42 -4q32 -7 41 -7q27 0 60 21l-78 -354q-9 -40 -9 -64q0 -41 32 -41
q55 0 101.5 42.5t73.5 112t27 148.5t-31.5 141t-93 97.5t-147.5 35.5q-109 0 -207 -57t-158 -158.5t-60 -228.5q0 -99 44.5 -171t122 -109.5t176.5 -37.5q96 0 186 37t149 102l35 -17q-63 -73 -164.5 -115t-210.5 -42q-112 0 -198.5 41t-134.5 119.5t-48 186.5
q0 138 66.5 248.5t176 172.5t231.5 62q97 0 167 -39.5t106.5 -108.5t36.5 -156q0 -88 -34.5 -168zM513 433q-52 0 -99 -46.5t-76 -116t-29 -133.5q0 -99 67 -99q35 0 75 35t65 88q17 35 35 109t18 105q0 58 -56 58z" />
    <glyph glyph-name="A" unicode="A" 
d="M433 0q9 2 15 9q17 18 17 59q0 14 -2 32l-13 103h-247l-61 -95q-31 -50 -31 -77q0 -26 21 -31h-147q9 5 20 15q31 31 70 90l389 588l80 -590q12 -91 46 -103h-157zM444 252l-33 275l-177 -275h210z" />
    <glyph glyph-name="B" unicode="B" horiz-adv-x="568" 
d="M517 444q-20 -40 -56.5 -67t-81.5 -33q124 -25 124 -149q0 -54 -27.5 -98t-81.5 -70.5t-129 -26.5h-264q11 3 22 12q24 20 35 69l105 504q3 14 3 29q0 48 -33 52h234q74 0 122 -37.5t48 -101.5q0 -43 -20 -83zM348 620h-97l-52 -251h105q40 0 74 18.5t54.5 53t20.5 78.5
q0 101 -105 101zM384 286q-34 36 -97 36h-98l-58 -275h124q78 0 120.5 41.5t42.5 104.5q0 57 -34 93z" />
    <glyph glyph-name="C" unicode="C" horiz-adv-x="549" 
d="M550 510q-11 122 -123 122q-71 0 -136.5 -55.5t-106 -146.5t-40.5 -189q0 -93 44 -147.5t117 -54.5q100 0 182 93l-16 -75q-73 -73 -198 -73q-63 0 -112.5 31t-77 88.5t-27.5 134.5q0 108 49.5 210.5t137.5 167.5t198 65q91 0 137 -39z" />
    <glyph glyph-name="D" unicode="D" horiz-adv-x="640" 
d="M575.5 199q-45.5 -90 -128.5 -144.5t-191 -54.5h-255q11 1 22 11q25 22 37 79l104 494q4 17 4 31q0 47 -30 51h227q79 0 137 -34.5t88.5 -97t30.5 -144.5q0 -101 -45.5 -191zM488 557.5q-46 60.5 -133 60.5h-103l-120 -570h124q80 0 143.5 49.5t99 130t35.5 170.5
q0 99 -46 159.5z" />
    <glyph glyph-name="E" unicode="E" horiz-adv-x="533" 
d="M558 666l-26 -132q-3 83 -89 83h-179l-52 -250h152q74 0 83 38l-25 -127q-1 40 -69 40h-151l-56 -268h180q57 0 88 21t55 75l-31 -146h-438q15 3 29 12q31 23 41 71l108 504q4 17 4 28q0 50 -36 51h412z" />
    <glyph glyph-name="F" unicode="F" horiz-adv-x="532" 
d="M557 666l-26 -132q-3 83 -88 83h-179l-51 -250h167q63 0 80 38l-25 -126q-1 39 -66 39h-167l-50 -237q-4 -17 -4 -29q0 -49 34 -52h-183q15 3 29 12q31 23 41 71l109 504q3 14 3 29q0 48 -35 50h411z" />
    <glyph glyph-name="G" unicode="G" horiz-adv-x="613" 
d="M586 507q-4 61 -41 92.5t-97 31.5q-77 0 -148 -53t-114.5 -144t-43.5 -198q0 -96 44 -150t121 -54q61 0 109 27l35 167q3 14 3 26q0 48 -35 50h172q-12 -1 -24 -10q-25 -19 -34 -60l-42 -197q-88 -51 -203 -51q-106 0 -169 67.5t-63 186.5q0 110 53.5 212.5t146.5 166.5
t207 64q101 0 153 -41z" />
    <glyph glyph-name="H" unicode="H" horiz-adv-x="678" 
d="M719 666q-13 -3 -26 -11q-28 -21 -37 -64l-110 -515q-4 -17 -4 -27q0 -46 33 -49h-172q12 3 24 11q27 20 36 61l53 245h-324l-51 -241q-3 -13 -3 -27q0 -46 32 -49h-171q14 3 25 11q26 20 35 61l110 515q3 14 3 30q0 48 -31 49h173q-14 -3 -26 -12q-28 -19 -37 -63
l-48 -224h323l47 220q4 17 4 31q0 47 -31 48h173z" />
    <glyph glyph-name="I" unicode="I" horiz-adv-x="275" 
d="M315 666q-14 -3 -26 -12q-28 -19 -37 -63l-110 -515q-3 -13 -3 -29q0 -47 32 -47h-171q14 3 25 11q26 20 35 61l110 515q3 14 3 30q0 48 -31 49h173z" />
    <glyph glyph-name="J" unicode="J" horiz-adv-x="428" 
d="M469 666q-14 -3 -26 -12q-28 -19 -37 -63l-95 -445q-35 -161 -211 -161q-33 0 -67 10.5t-47 22.5l29 134q1 -115 93 -115q99 0 121 109l95 441q3 14 3 29q0 47 -31 50h173z" />
    <glyph glyph-name="K" unicode="K" horiz-adv-x="604" 
d="M656 666q-15 -3 -31 -12q-39 -19 -90 -62l-255 -218l166 -277q46 -76 92 -97h-127l-210 357l-60 -281q-3 -13 -3 -27q0 -44 32 -49h-171q14 3 25 11q26 20 35 61l110 515q3 14 3 28q0 48 -34 51h173q-12 -3 -24 -11q-27 -19 -36 -64l-48 -223l246 215q49 43 49 67
q0 13 -15 16h173z" />
    <glyph glyph-name="L" unicode="L" horiz-adv-x="492" 
d="M407 0h-408q11 2 23 11q25 19 34 61l110 515q2 12 2 28q0 48 -34 51h173q-13 -3 -24 -12q-27 -19 -36 -63l-116 -540h162q59 0 92 21.5t54 75.5z" />
    <glyph glyph-name="M" unicode="M" horiz-adv-x="813" 
d="M851 666q-15 -3 -26 -13q-29 -23 -39 -73l-105 -492q-4 -17 -4 -34q0 -49 32 -54h-171q15 3 25 12q28 23 38 73l101 468l-353 -565l-122 564l-99 -463q-4 -17 -4 -30q0 -22 11.5 -39.5t30.5 -19.5h-167q14 3 28 12q31 23 41 75l105 491q4 17 4 32q0 53 -37 56h138
l110 -517l324 517h139z" />
    <glyph glyph-name="N" unicode="N" horiz-adv-x="655" 
d="M696 666q-10 -3 -22 -11q-24 -19 -33 -61l-137 -633l-286 556l-95 -446q-2 -12 -2 -22q0 -45 37 -49h-159q12 1 26 10q27 18 36 58l107 493q3 14 3 24q0 23 -14.5 49t-36.5 32h112l259 -500l90 424q2 12 2 24q0 46 -36 52h149z" />
    <glyph glyph-name="O" unicode="O" horiz-adv-x="664" 
d="M597 218.5q-50 -104.5 -137 -169.5t-191 -65q-100 0 -157.5 66.5t-57.5 180.5q0 115 50.5 219.5t137 168t189.5 63.5q101 0 158.5 -67.5t57.5 -179.5t-50 -216.5zM523.5 581q-38.5 53 -106.5 53q-74 0 -138 -59.5t-102 -154.5t-38 -195q0 -88 38 -139.5t104 -51.5
q75 0 140 59t103 153t38 194q0 88 -38.5 141z" />
    <glyph glyph-name="P" unicode="P" horiz-adv-x="544" 
d="M515 391q-31 -50 -89 -79.5t-136 -29.5q-54 0 -102 14l-48 -220q-3 -13 -3 -27q0 -46 32 -49h-170q14 3 25 11q26 20 35 61l111 515q3 14 3 28q0 48 -34 51h218q91 0 140 -45t49 -119q0 -61 -31 -111zM433.5 588q-32.5 33 -90.5 33h-85l-62 -279q37 -10 91 -10
q84 0 131.5 48t47.5 122q0 53 -32.5 86z" />
    <glyph glyph-name="Q" unicode="Q" horiz-adv-x="699" 
d="M618 -76q-4 72 -136 72q-34 0 -107 -5q-66 -6 -107 -6q-98 0 -156 65t-58 182q0 121 53 225t140.5 165t184.5 61q98 0 156.5 -66t58.5 -182q0 -82 -28.5 -160t-79 -139.5t-112.5 -95.5q125 16 191 16q32 0 38 -3zM523.5 583.5q-38.5 51.5 -104.5 51.5q-69 0 -134 -57.5
t-105.5 -152.5t-40.5 -200q0 -91 38.5 -141t102.5 -50q73 0 138 61.5t104.5 156.5t39.5 189q0 91 -38.5 142.5z" />
    <glyph glyph-name="R" unicode="R" horiz-adv-x="565" 
d="M523.5 406.5q-27.5 -45.5 -74.5 -72t-103 -28.5q13 -10 30 -48l82 -186q27 -62 70 -72h-128l-104 252q-21 52 -61 52h-47l-49 -228q-3 -13 -3 -26q0 -45 32 -50h-170q14 3 25 11q26 20 35 61l110 515q4 17 4 28q0 48 -35 51h235q83 0 131 -43.5t48 -113.5
q0 -57 -27.5 -102.5zM440.5 588q-28.5 31 -78.5 31h-106l-58 -271h109q76 0 119 44t43 112q0 53 -28.5 84z" />
    <glyph glyph-name="S" unicode="S" horiz-adv-x="491" 
d="M456 517q-5 56 -43 86t-97 30q-60 0 -95 -33t-35 -89q0 -54 63 -107l118 -92q63 -60 63 -129q0 -92 -61 -145t-175 -53q-118 0 -180 48l32 144q11 -143 159 -143q69 0 108 34t39 92q0 56 -62 109l-117 90q-62 59 -62 129q0 57 27.5 101t77 68.5t115.5 24.5q97 0 152 -43z
" />
    <glyph glyph-name="T" unicode="T" horiz-adv-x="554" 
d="M617 666l-31 -138q-2 50 -20.5 70.5t-65.5 20.5h-106l-117 -543q-3 -13 -3 -27q0 -44 32 -49h-170q14 3 25 11q26 20 35 61l117 547h-108q-45 0 -72.5 -21t-51.5 -70l33 138h503z" />
    <glyph glyph-name="U" unicode="U" horiz-adv-x="634" 
d="M677 666q-12 -3 -24 -11q-26 -18 -33 -55l-80 -377q-27 -128 -95 -183t-191 -55q-181 0 -181 152q0 44 12 99l80 367q2 12 2 19q0 40 -33 44h172q-15 -2 -25 -9q-28 -17 -35 -54l-79 -365q-12 -55 -12 -89q0 -111 124 -111q157 0 194 178l79 381q3 14 3 24q0 41 -30 45
h152z" />
    <glyph glyph-name="V" unicode="V" horiz-adv-x="628" 
d="M702 666q-9 -4 -21 -15q-28 -27 -69 -90l-390 -598l-79 600q-12 91 -46 103h157q-9 -2 -15 -9q-17 -18 -17 -59q0 -14 2 -32l54 -424l267 416q31 50 31 77t-21 31h147z" />
    <glyph glyph-name="W" unicode="W" horiz-adv-x="937" 
d="M995 666q-30 -1 -90 -102l-355 -601l-52 489l-285 -489l-66 602q-11 91 -43 101h156q-8 -1 -16 -8q-19 -18 -19 -64q0 -12 2 -28l44 -403l217 370l-3 32q-8 90 -41 101h152q-8 -1 -16 -8q-18 -18 -18 -57q0 -11 2 -35l42 -408l234 401q28 46 28 80q0 26 -22 27h149z" />
    <glyph glyph-name="X" unicode="X" horiz-adv-x="590" 
d="M660 666q-7 -2 -23 -11q-30 -19 -67 -61l-218 -249l105 -261q30 -73 59 -84h-155q22 6 22 36q0 18 -12 48l-78 193l-169 -193q-38 -44 -38 -66q0 -15 14 -18h-143q9 3 21 12q31 24 74 72l218 249l-106 261q-26 63 -55 72h157q-24 -6 -24 -35q0 -14 9 -37l78 -193l169 193
q30 35 30 54q0 15 -16 18h148z" />
    <glyph glyph-name="Y" unicode="Y" horiz-adv-x="574" 
d="M654 666q-10 -4 -25 -12q-30 -21 -64 -64l-242 -308l-44 -206q-4 -17 -4 -27q0 -46 33 -49h-169q16 4 25 10q26 20 35 62l44 210l-94 311q-19 64 -55 73h152q-21 -4 -21 -37q0 -15 7 -36l77 -245l189 242q31 40 31 58q0 15 -14 18h139z" />
    <glyph glyph-name="Z" unicode="Z" horiz-adv-x="551" 
d="M587 666l-471 -617h237q52 0 81.5 19.5t58.5 66.5l-31 -135h-475q53 76 472 617h-237q-55 0 -88 -35q-16 -17 -22 -37l27 121h448z" />
    <glyph glyph-name="bracketleft" unicode="[" horiz-adv-x="338" 
d="M400 678l-9 -42h-157l-159 -750h157l-9 -44h-218l177 836h218z" />
    <glyph glyph-name="backslash" unicode="\" horiz-adv-x="424" 
d="M325 -13h-63l-161 688h62z" />
    <glyph glyph-name="bracketright" unicode="]" horiz-adv-x="338" 
d="M332 678l-177 -836h-217l9 44h156l159 750h-156l9 42h217z" />
    <glyph glyph-name="asciicircum" unicode="^" horiz-adv-x="659" 
d="M573 226h-62l-177 451h-7l-173 -451h-62l213 524h54z" />
    <glyph glyph-name="underscore" unicode="_" horiz-adv-x="719" 
d="M624 -90l-8 -38h-699l9 38h698z" />
    <glyph glyph-name="a" unicode="a" horiz-adv-x="493" 
d="M387 133q-11 -52 -11 -68q0 -33 35 -44l7 -2l-130 -34l22 113q-30 -50 -80.5 -81.5t-97.5 -31.5q-51 0 -79 36t-28 99q0 88 42 170.5t109.5 134t139.5 51.5q12 0 44 -5q34 -6 43 -6q27 0 62 21zM310 433q-53 0 -101.5 -46.5t-77.5 -116t-29 -133.5q0 -97 66 -97
q36 0 77 34.5t65 87.5q16 34 35.5 111t19.5 107q0 53 -55 53z" />
    <glyph glyph-name="b" unicode="b" horiz-adv-x="505" 
d="M433 173q-38 -82 -105 -134.5t-149 -52.5q-34 0 -64 9q-40 12 -45 12q-23 0 -49 -20l132 608q2 12 2 21q0 38 -36 44l-6 1l136 35l-72 -327q77 116 183 116q53 0 82 -39t29 -106q0 -85 -38 -167zM324 431q-46 0 -92 -44t-71 -106q-15 -36 -28.5 -99.5t-13.5 -97.5
q0 -52 74 -52q54 0 99.5 44t72 112t26.5 136q0 107 -67 107z" />
    <glyph glyph-name="c" unicode="c" horiz-adv-x="412" 
d="M391 371q-19 -30 -46 -48q4 12 4 34q0 75 -66 75q-48 0 -89.5 -40t-66.5 -102.5t-25 -124.5q0 -60 28.5 -93.5t77.5 -33.5q86 0 153 87q-17 -61 -73 -101.5t-120 -40.5q-66 0 -104.5 42.5t-38.5 116.5q0 86 40 165.5t109 128.5t150 49q86 0 86 -57q0 -27 -19 -57z" />
    <glyph glyph-name="d" unicode="d" horiz-adv-x="505" 
d="M524 696l-125 -577q-7 -29 -7 -53q0 -40 38 -46l6 -1l-135 -34l24 113q-76 -112 -185 -112q-55 0 -84.5 40t-29.5 107q0 82 39 164t104 135t140 53q63 0 85 -48q10 41 34 159q2 12 2 18q0 39 -40 46l-6 1zM305 438q-52 0 -98.5 -45t-74 -113.5t-27.5 -132.5
q0 -109 68 -109q44 0 88 38.5t72 101.5q15 32 28 89.5t13 87.5q0 83 -69 83z" />
    <glyph glyph-name="e" unicode="e" horiz-adv-x="433" 
d="M377.5 294q-48.5 -49 -124 -78.5t-151.5 -31.5q-1 -7 -1 -24q0 -53 27 -87t76 -34q41 0 87 24t77 62q-10 -40 -41 -72.5t-73.5 -51t-85.5 -18.5q-65 0 -104.5 43t-39.5 118q0 83 44.5 162t114.5 129t143 50q43 0 71.5 -24t28.5 -63q0 -55 -48.5 -104zM305 438
q-37 0 -78.5 -28.5t-75 -77t-46.5 -106.5q58 2 117.5 24.5t98.5 58.5t39 78q0 51 -55 51z" />
    <glyph glyph-name="f" unicode="f" horiz-adv-x="314" 
d="M342 590q7 10 7 25q0 35 -36 35q-32 0 -52 -38q-18 -36 -41 -142h122l-10 -44h-121l-90 -428q-19 -87 -63 -137.5t-108 -50.5q-56 0 -81 37q22 -6 40 -6q103 0 136 157l91 428h-90l9 44h90q20 84 43.5 132t55.5 70t79 22q32 0 50.5 -14t18.5 -36q0 -43 -50 -54z" />
    <glyph glyph-name="g" unicode="g" horiz-adv-x="480" 
d="M480 426h-99q33 -35 33 -89q0 -50 -26.5 -90t-74 -63.5t-106.5 -23.5q-13 0 -31 2q-72 -28 -72 -54q0 -15 42 -29l96 -24q77 -19 114.5 -45t37.5 -69q0 -42 -35 -73t-89.5 -47t-113.5 -16q-94 0 -148.5 27t-54.5 75q0 37 41 70t112 51q-77 21 -77 63q0 48 96 87
q-70 33 -70 114q0 54 28.5 98.5t76.5 69.5t104 25q36 0 72 -13q13 -3 63 -3q62 0 96 18zM316.5 413q-24.5 27 -66.5 27q-54 0 -87.5 -39.5t-33.5 -99.5q0 -97 90 -97q53 0 87.5 39t34.5 97q0 46 -24.5 73zM281 -24.5q-37 20.5 -121 36.5q-135 -34 -135 -92q0 -31 39 -50.5
t106 -19.5t109 21q39 19 39 50q0 34 -37 54.5z" />
    <glyph glyph-name="h" unicode="h" horiz-adv-x="498" 
d="M442 339l-48 -230q-6 -28 -6 -57q0 -47 18 -52h-110l71 321q5 25 5 48q0 64 -54 64q-32 0 -68 -23.5t-63.5 -62t-36.5 -81.5l-57 -266h-73l129 595q3 14 3 25q0 34 -35 40l-6 1l133 35l-68 -311q30 43 82.5 71.5t100.5 28.5q90 0 90 -89q0 -25 -7 -57z" />
    <glyph glyph-name="i" unicode="i" horiz-adv-x="228" 
d="M217.5 595q-15.5 -16 -40.5 -16q-50 0 -50 49q0 24 16.5 40t40.5 16q49 0 49 -50q0 -23 -15.5 -39zM200 486l-81 -377q-7 -31 -7 -60q0 -47 18 -49h-110l84 385q3 14 3 25q0 35 -35 40l-5 1z" />
    <glyph glyph-name="j" unicode="j" horiz-adv-x="228" 
d="M217.5 595q-15.5 -16 -40.5 -16q-50 0 -50 49q0 24 16.5 40t40.5 16q49 0 49 -50q0 -23 -15.5 -39zM202 486l-105 -486q-18 -85 -63 -136t-107 -51q-63 0 -89 35q21 -6 41 -6q109 0 144 158l83 385q3 14 3 21q0 40 -36 44l-4 1z" />
    <glyph glyph-name="k" unicode="k" horiz-adv-x="477" 
d="M500 470q-12 -1 -31 -11q-40 -19 -97 -67l-149 -127l118 -187q45 -70 95 -72q-29 -17 -70 -17q-52 0 -100 77l-117 189l-55 -255h-74l129 596q3 14 3 24q0 34 -35 40l-6 1l134 35l-94 -430l152 129q52 43 52 61q0 11 -13 14h158z" />
    <glyph glyph-name="l" unicode="l" horiz-adv-x="228" 
d="M245 696l-127 -587q-8 -40 -8 -60q0 -46 19 -49h-109l130 595q2 12 2 23q0 36 -34 42l-6 1z" />
    <glyph glyph-name="m" unicode="m" horiz-adv-x="761" 
d="M704 339l-48 -230q-7 -32 -7 -56q0 -44 18 -53h-108l69 321q6 29 6 49q0 64 -52 64q-34 0 -67.5 -23.5t-59 -62.5t-35.5 -84l-57 -264h-74l70 321q6 29 6 49q0 64 -52 64q-32 0 -66 -23.5t-60.5 -62.5t-36.5 -84l-56 -264h-74l83 384q3 14 3 24q0 36 -35 42l-6 1l130 35
l-22 -102q31 45 80.5 73t98.5 28q86 0 87 -103q27 41 80 72t102 31q90 0 90 -89q0 -25 -7 -57z" />
    <glyph glyph-name="n" unicode="n" horiz-adv-x="497" 
d="M443 339l-48 -230q-7 -32 -7 -56q0 -48 18 -53h-109l70 321q6 29 6 49q0 63 -55 63q-32 0 -67.5 -23t-62.5 -62t-37 -85l-57 -263h-74l83 384q3 14 3 23q0 37 -35 43l-6 1l130 35l-22 -102q30 42 82.5 71.5t102.5 29.5q91 0 91 -89q0 -28 -6 -57z" />
    <glyph glyph-name="o" unicode="o" horiz-adv-x="478" 
d="M407 148.5q-36 -73.5 -97 -118.5t-131 -45q-74 0 -113.5 51t-39.5 131q0 79 36 152.5t97 119.5t130 46q74 0 114 -51t40 -131q0 -81 -36 -154.5zM345 403q-22 35 -65 35q-49 0 -90 -45t-65 -111t-24 -126q0 -53 22 -88.5t65 -35.5q49 0 90 45t65 111.5t24 125.5
q0 54 -22 89z" />
    <glyph glyph-name="p" unicode="p" horiz-adv-x="505" 
d="M432.5 170.5q-38.5 -81.5 -105 -133.5t-143.5 -52q-60 0 -81 45l-47 -218h-74l119 554q6 29 6 40q0 38 -37 44l-6 1l132 35l-24 -114q75 113 186 113q54 0 83.5 -41t29.5 -109q0 -83 -38.5 -164.5zM322 431q-44 0 -89 -41t-72 -104q-13 -31 -26 -88.5t-13 -87.5
q0 -78 67 -78q55 0 101.5 44.5t73.5 113t27 135.5q0 106 -69 106z" />
    <glyph glyph-name="q" unicode="q" horiz-adv-x="498" 
d="M352 -86q-7 -31 -7 -55q0 -44 19 -47h-110l64 290q-79 -117 -183 -117q-53 0 -82 39t-29 106q0 85 37.5 167t104.5 134.5t150 52.5q31 0 63 -9q41 -12 47 -12q20 0 48 21zM303 438q-54 0 -99.5 -43.5t-72.5 -111.5t-27 -136q0 -108 67 -108q45 0 91.5 44.5t71.5 106.5
q14 35 27.5 100.5t13.5 96.5q0 51 -72 51z" />
    <glyph glyph-name="r" unicode="r" horiz-adv-x="378" 
d="M378.5 390q-19.5 -22 -49.5 -30q4 8 4 26q0 43 -29 43q-40 0 -90 -62q-56 -74 -81 -187l-39 -180h-74l84 384q2 12 2 23q0 36 -36 43l-5 1l133 35l-29 -135q31 55 79.5 94.5t94.5 39.5q55 0 55 -48q0 -25 -19.5 -47z" />
    <glyph glyph-name="s" unicode="s" horiz-adv-x="383" 
d="M319 339q3 12 3 27q0 35 -23.5 55t-59.5 20q-41 0 -71.5 -23t-30.5 -60q0 -35 48 -73q60 -44 90 -67q49 -43 49 -95q0 -64 -50.5 -102t-128.5 -38q-84 0 -139 35l32 123q7 -112 109 -112q50 0 79 21.5t29 55.5q0 27 -27 52.5t-82 66.5l-26 19q-47 44 -47 95q0 46 25 79.5
t65.5 51t88.5 17.5q50 0 84.5 -19.5t34.5 -53.5q0 -38 -52 -75z" />
    <glyph glyph-name="t" unicode="t" horiz-adv-x="298" 
d="M322 470l-8 -44h-125l-55 -256q-13 -59 -13 -80q0 -57 55 -57q42 0 88 27q-42 -75 -130 -75q-93 0 -93 84q0 25 8 62l67 295h-59l165 151l-24 -107h124z" />
    <glyph glyph-name="u" unicode="u" horiz-adv-x="500" 
d="M474 486l-87 -399q-4 -19 -4 -27q0 -34 31 -38l7 -1l-125 -36l20 102q-29 -43 -82 -72t-102 -29q-91 0 -91 89q0 29 6 57l50 240q5 28 5 34q0 37 -33 44l-5 1l132 35q-2 -12 -37 -172l-36 -164q-6 -28 -6 -52q0 -62 53 -62q33 0 69 24t63.5 64t37.5 84l35 164q5 25 5 38
q0 33 -34 40l-5 1z" />
    <glyph glyph-name="v" unicode="v" horiz-adv-x="451" 
d="M484 470l-334 -509l-66 407q-7 46 -18 64.5t-34 18.5h-7l119 33l59 -365l162 264q20 34 20 51q0 29 -34 36h133z" />
    <glyph glyph-name="w" unicode="w" horiz-adv-x="709" 
d="M740 470l-311 -506l-65 375l-220 -375l-53 407q-11 80 -51 80h-8l123 34l42 -351l212 360l67 -370l147 251q21 36 21 60q0 29 -33 35h129z" />
    <glyph glyph-name="x" unicode="x" horiz-adv-x="439" 
d="M455 470l-199 -221q8 -14 71 -168q15 -35 29 -48t42 -13h8l-122 -36l-86 204l-106 -122q-26 -31 -26 -47q0 -14 20 -19h-119l211 235l-63 152q-15 37 -30 49.5t-43 13.5l-8 1l122 35q29 -72 80 -191l78 89q38 44 38 67q0 14 -17 19h120z" />
    <glyph glyph-name="y" unicode="y" horiz-adv-x="476" 
d="M500 470q-15 -46 -73 -164q-59 -122 -137 -237.5t-153.5 -188.5t-125.5 -73q-62 0 -62 53q0 4 5 21q16 -16 50 -16q72 0 178 135l-75 381q-13 70 -62 70h-6l124 35l78 -410q85 119 140 251q26 63 26 96q0 40 -30 47h123z" />
    <glyph glyph-name="z" unicode="z" horiz-adv-x="412" 
d="M409 472l-314 -428h157q49 0 71 12.5t43 49.5l-26 -106h-359l316 429h-161q-30 0 -57 -16.5t-35 -31.5l44 91h321z" />
    <glyph glyph-name="braceleft" unicode="{" horiz-adv-x="389" 
d="M353 663q-35 -26 -47 -81l-28 -136q-38 -186 -167 -191q97 -4 97 -104q0 -33 -11 -88l-29 -136q-5 -25 -5 -38q0 -34 25.5 -51.5t85.5 -26.5q-69 2 -107 9.5t-56 25.5t-18 51q0 18 5 45l33 156q10 44 10 73q0 43 -22.5 60.5t-77.5 23.5q50 6 78 19.5t46.5 45t31.5 91.5
l34 156q12 52 36.5 79.5t69.5 38.5t125 14q-74 -10 -109 -36z" />
    <glyph glyph-name="bar" unicode="|" horiz-adv-x="248" 
d="M166 -186h-59v888h59v-888z" />
    <glyph glyph-name="braceright" unicode="}" horiz-adv-x="389" 
d="M268.5 235.5q-28.5 -13.5 -47 -45t-30.5 -92.5l-33 -156q-12 -52 -36.5 -79t-69.5 -38t-126 -14q75 12 109.5 36.5t46.5 79.5l28 136q37 187 167 192q-97 4 -97 104q0 32 11 87l29 136q5 25 5 38q0 34 -26 52t-85 27q68 -2 106.5 -10t56.5 -26t18 -51q0 -18 -5 -45
l-33 -156q-10 -44 -10 -72q0 -43 22.5 -60.5t77.5 -23.5q-50 -6 -78.5 -19.5z" />
    <glyph glyph-name="asciitilde" unicode="~" horiz-adv-x="659" 
d="M577 373q5 -143 -110 -143q-55 0 -143 45q-89 45 -125 45q-55 0 -57 -84h-54q-2 66 30.5 103.5t87.5 37.5q51 0 138 -45t126 -45q57 0 55 86h52z" />
    <glyph glyph-name="uni00A0" unicode="&#xa0;" horiz-adv-x="384" 
 />
    <glyph glyph-name="exclamdown" unicode="&#xa1;" horiz-adv-x="291" 
d="M231.5 407q-15.5 -16 -40.5 -16q-23 0 -37 15t-14 37t16 38t40 16q51 0 51 -51q0 -23 -15.5 -39zM178 211l-49 -267q-8 -46 -8 -74q0 -47 18 -51h-151q9 2 20 17q24 31 42 108l64 267q12 53 57 120l6 -20q6 -21 6 -44q0 -26 -5 -56z" />
    <glyph glyph-name="cent" unicode="&#xa2;" horiz-adv-x="479" 
d="M429.5 461.5q-19.5 -31.5 -45.5 -45.5q4 12 4 33q0 34 -19.5 56t-54.5 22q-47 0 -87.5 -39.5t-64.5 -102t-24 -125.5q0 -58 32 -92t84 -34q80 0 146 86q-14 -51 -53.5 -88.5t-90.5 -48.5l-21 -98h-52l21 95q-64 5 -103.5 47t-39.5 110q0 81 33 154t89.5 122.5t124.5 61.5
l21 100h52l-21 -96q38 -2 63.5 -18.5t25.5 -39.5q0 -28 -19.5 -59.5z" />
    <glyph glyph-name="sterling" unicode="&#xa3;" horiz-adv-x="519" 
d="M458 580q-3 24 -23.5 39.5t-48.5 15.5q-43 0 -69.5 -28t-45 -84.5t-41.5 -162.5h116l-10 -48h-117q-47 -209 -136 -250q35 6 52 6q27 0 70 -9q40 -10 70 -10q83 0 130 53l16 -77q-46 -40 -132 -40q-48 0 -111 17q-60 16 -95 16q-49 0 -107 -34l-15 68q71 5 111 66t69 194
h-79l10 48h80q27 120 57 188.5t75.5 101t118.5 32.5q68 0 105 -32z" />
    <glyph glyph-name="currency" unicode="&#xa4;" horiz-adv-x="519" 
d="M430 217l-33 -34l-51 51q-29 -22 -73 -22q-40 0 -70 21l-53 -50l-35 35l54 52q-18 32 -18 69q0 40 19 71l-55 49l34 34l55 -48q31 20 69 20q42 0 72 -21l51 50l34 -34l-53 -52q18 -31 18 -69t-17 -69zM331 400.5q-21 24.5 -58 24.5q-36 0 -57.5 -25t-21.5 -61
q0 -37 21.5 -62.5t57.5 -25.5q37 0 58 25t21 63q0 37 -21 61.5z" />
    <glyph glyph-name="yen" unicode="&#xa5;" horiz-adv-x="543" 
d="M570 666q-15 -5 -28 -14q-35 -28 -75 -85l-93 -136h120l-9 -43h-140l-71 -99h191l-9 -43h-191l-30 -144q-5 -27 -5 -44q0 -52 33 -58h-173q14 3 27 14q29 25 43 88l30 144h-200l8 43h196l-30 99h-146l9 43h125l-41 138q-25 85 -61 97h166q-33 -9 -33 -56q0 -19 7 -41
l67 -226l150 216q39 56 39 82q0 21 -22 25h146z" />
    <glyph glyph-name="brokenbar" unicode="&#xa6;" horiz-adv-x="248" 
d="M172 325h-59v350h59v-350zM172 -175h-59v350h59v-350z" />
    <glyph glyph-name="section" unicode="&#xa7;" horiz-adv-x="593" 
d="M493 550q-34 72 -128 72q-54 0 -93.5 -29t-39.5 -70q0 -26 11 -43t32.5 -30.5t70.5 -39.5q10 -5 35 -18q64 -33 93.5 -63t29.5 -70q0 -94 -130 -146q53 -39 53 -103q0 -48 -30 -87t-81 -62t-112 -23q-65 0 -118 24t-79 68l59 59q18 -46 61.5 -71.5t95.5 -25.5t90 28.5
t38 69.5q0 38 -35 66t-96 59l-28 15q-54 31 -82 60t-28 65q0 94 138 143q-62 42 -62 104q0 49 32 88.5t85.5 62t115.5 22.5q120 0 159 -63zM370 318l-103 56q-113 -36 -113 -99q0 -29 38 -56.5t113 -68.5l23 -12q104 36 104 105q0 34 -62 75z" />
    <glyph glyph-name="dieresis" unicode="&#xa8;" horiz-adv-x="463" 
d="M270.5 588q-13.5 -14 -34.5 -14q-20 0 -33 13t-13 32q0 20 14 34t35 14q20 0 32.5 -13t12.5 -32q0 -20 -13.5 -34zM444.5 588q-13.5 -14 -34.5 -14q-20 0 -32.5 13t-12.5 32q0 20 14 34t35 14q44 0 44 -45q0 -20 -13.5 -34z" />
    <glyph glyph-name="copyright" unicode="&#xa9;" horiz-adv-x="762" 
d="M692.5 150q-45.5 -78 -123 -119.5t-170.5 -41.5t-171 41.5t-124 119.5t-46 183t46 183t124 119.5t171 41.5t170.5 -41.5t123 -119.5t45.5 -183t-45.5 -183zM658 498.5q-40 70.5 -108.5 108t-150.5 37.5t-151 -37.5t-110 -108t-41 -164.5q0 -95 41 -165.5t110 -108
t151 -37.5t150.5 37t108.5 107.5t40 165.5t-40 165.5zM537 167q-19 -27 -56.5 -45t-76.5 -18q-59 0 -102 29.5t-66 80t-23 111.5q0 64 24.5 118t70 86t105.5 32q63 0 116 -35v-119q-38 113 -118 113q-61 0 -97.5 -50t-36.5 -133q0 -53 17.5 -95.5t48.5 -66t71 -23.5
q69 0 123 68v-53z" />
    <glyph glyph-name="ordfeminine" unicode="&#xaa;" horiz-adv-x="381" 
d="M333 444q-7 -29 -7 -47q0 -26 25 -30l5 -1l-93 -24l16 78q-21 -35 -56 -56.5t-69 -21.5q-76 0 -76 95q0 61 29.5 118t77 93t98.5 36q15 0 31 -3l31 -5q18 0 43 15zM279 653q-37 0 -71 -31.5t-55 -80t-21 -93.5q0 -68 47 -68q25 0 53.5 24.5t46.5 61.5q11 24 24.5 76.5
t13.5 73.5q0 37 -38 37z" />
    <glyph glyph-name="guillemotleft" unicode="&#xab;" horiz-adv-x="442" 
d="M272 429l-182 -179l107 -175h-64l-111 177l177 177h73zM445 429l-183 -179l104 -175h-63l-109 177l178 177h73z" />
    <glyph glyph-name="logicalnot" unicode="&#xac;" horiz-adv-x="659" 
d="M604 139h-55v214h-489v53h544v-267z" />
    <glyph glyph-name="minus" unicode="&#xad;" horiz-adv-x="659" 
d="M604 255h-544v53h544v-53z" />
    <glyph glyph-name="registered" unicode="&#xae;" horiz-adv-x="761" 
d="M689.5 150q-45.5 -78 -123 -119.5t-170.5 -41.5t-171.5 41.5t-124.5 119.5t-46 183t46 183t124.5 119.5t171.5 41.5t170.5 -41.5t123 -119.5t45.5 -183t-45.5 -183zM654 498.5q-40 70.5 -108.5 108t-150.5 37.5t-151 -37.5t-109.5 -107.5t-40.5 -165t40.5 -165.5
t109.5 -108t151 -37.5t150.5 37t108.5 107.5t40 165.5t-40 165.5zM487 119l-63 121q-32 62 -68 62h-21v-114q0 -38 22 -69h-95q21 30 21 69v302q0 36 -23 67h143q60 0 93.5 -35t33.5 -88q0 -49 -29 -83.5t-77 -36.5q21 -7 53 -63l44 -78q23 -40 44 -54h-78zM457 491
q-22 24 -60 24h-62v-172h63q36 0 58.5 25t22.5 62t-22 61z" />
    <glyph glyph-name="macron" unicode="&#xaf;" horiz-adv-x="463" 
d="M467 632l-7 -42h-304l8 42h303z" />
    <glyph glyph-name="degree" unicode="&#xb0;" horiz-adv-x="328" 
d="M311.5 462.5q-36.5 -36.5 -93.5 -36.5t-93 36.5t-36 91.5t36 91.5t93 36.5t93.5 -36.5t36.5 -91.5t-36.5 -91.5zM278.5 616.5q-23.5 24.5 -60.5 24.5t-60 -24.5t-23 -62.5t23 -63t60 -25t60.5 25t23.5 63t-23.5 62.5z" />
    <glyph glyph-name="plusminus" unicode="&#xb1;" horiz-adv-x="659" 
d="M601 341h-241v-214h-55v214h-241v54h241v208h55v-208h241v-54zM601 0h-537v53h537v-53z" />
    <glyph glyph-name="uni00B2" unicode="&#xb2;" horiz-adv-x="366" 
d="M324.5 472q-44.5 -58 -151.5 -151l-56 -49h134q55 0 85 35l-21 -75h-290l118 107q92 83 135 139q40 52 40 96q0 34 -22.5 54.5t-60.5 20.5q-36 0 -60 -18t-24 -47q0 -27 26 -36l-45 -36q-26 20 -26 55q0 50 41 82.5t102 32.5q54 0 87 -28t33 -73q0 -51 -44.5 -109z" />
    <glyph glyph-name="uni00B3" unicode="&#xb3;" horiz-adv-x="366" 
d="M336.5 495.5q-35.5 -37.5 -86.5 -42.5q85 -25 85 -106q0 -36 -22.5 -64.5t-59 -44.5t-78.5 -16q-53 0 -87.5 23t-40.5 63l58 29q-1 -5 -1 -20q1 -30 24 -46t58 -16q41 0 70 24t29 62q0 41 -36 68.5t-105 32.5l15 31q18 -3 37 -3q53 0 90.5 29t37.5 76q0 33 -23 53.5
t-58 20.5q-31 0 -53 -14.5t-22 -35.5q0 -15 12 -24l-54 -22q-6 14 -5 28q2 46 41 73t95 27q51 0 83 -27t32 -71q0 -50 -35.5 -87.5z" />
    <glyph glyph-name="uni00B5" unicode="&#xb5;" horiz-adv-x="503" 
d="M480 486l-87 -399q-3 -16 -3 -27q0 -32 31 -38l5 -1l-123 -36l20 102q-28 -43 -78 -71.5t-97 -28.5q-30 0 -49 16l-39 -188h-74l118 557q4 17 4 34q0 37 -33 44l-5 1l133 35q-7 -38 -72 -328q-8 -38 -8 -60q0 -63 53 -63q33 0 69 24t63.5 64t37.5 85l35 164q5 25 5 38
q0 36 -33 40l-6 1z" />
    <glyph glyph-name="paragraph" unicode="&#xb6;" horiz-adv-x="659" 
d="M595 667q-12 -35 -45 -157l-144 -690h-51l168 802h-90l-167 -802h-51l72 346h-9q-69 0 -120 28t-78 76t-27 107q0 76 41.5 143t118 107t176.5 40h206z" />
    <glyph glyph-name="periodcentered" unicode="&#xb7;" horiz-adv-x="236" 
d="M159.5 200q-16.5 -17 -42.5 -17t-41 15.5t-15 39.5q0 25 17.5 42t43.5 17q24 0 39 -15.5t15 -39.5q0 -25 -16.5 -42z" />
    <glyph glyph-name="cedilla" unicode="&#xb8;" horiz-adv-x="463" 
d="M203 -157q-34 -26 -79 -26q-38 0 -67 21q15 -3 32 -3q32 0 58.5 18t28.5 42q1 18 -16.5 30t-46.5 13l52 67h44l-37 -45q65 -11 65 -56q0 -35 -34 -61z" />
    <glyph glyph-name="uni00B9" unicode="&#xb9;" horiz-adv-x="294" 
d="M275 682l-78 -372q-5 -27 -5 -38q0 -26 20 -40h-81l81 379l-139 -90l10 49l173 112h19z" />
    <glyph glyph-name="ordmasculine" unicode="&#xba;" horiz-adv-x="397" 
d="M363 456.5q-27 -52.5 -71.5 -84.5t-94.5 -32q-48 0 -76.5 33t-28.5 88q0 59 27 111.5t71 84t94 31.5t78 -33t28 -88q0 -58 -27 -110.5zM320 631.5q-16 21.5 -43 21.5q-33 0 -63.5 -31.5t-49.5 -78.5t-19 -90q0 -79 59 -79q33 0 63.5 31t49.5 78t19 91q0 36 -16 57.5z" />
    <glyph glyph-name="guillemotright" unicode="&#xbb;" horiz-adv-x="442" 
d="M248 252l-177 -177h-74l185 179l-106 175h63zM420 252l-176 -177h-73l182 179l-107 175h63z" />
    <glyph glyph-name="onequarter" unicode="&#xbc;" horiz-adv-x="808" 
d="M299 682l-78 -372q-5 -27 -5 -38q0 -26 20 -40h-80l81 379l-141 -90l11 49l174 112h18zM718 681l-568 -681h-44l571 681h41zM715 454l-66 -312h44l-8 -39h-44l-7 -35q-4 -17 -4 -34q0 -20 14 -34h-72l22 103h-211l4 18l291 333h37zM652 376l-206 -234h156z" />
    <glyph glyph-name="onehalf" unicode="&#xbd;" horiz-adv-x="808" 
d="M277 682l-78 -372q-5 -27 -5 -38q0 -26 20 -40h-80l81 379l-141 -90l11 49l174 112h18zM687 681l-569 -681h-44l571 681h42zM709.5 240q-44.5 -58 -151.5 -151l-56 -49h133q56 0 86 35l-21 -75h-290l118 107q92 83 135 139q40 52 40 96q0 34 -22.5 54.5t-60.5 20.5
q-36 0 -60.5 -18t-24.5 -47q0 -27 27 -36l-45 -36q-26 20 -26 55q0 50 41 82.5t101 32.5q54 0 87.5 -28t33.5 -73q0 -51 -44.5 -109z" />
    <glyph glyph-name="threequarters" unicode="&#xbe;" horiz-adv-x="808" 
d="M351 496q-36 -38 -87 -43q85 -25 85 -106q0 -36 -22 -64.5t-58.5 -44.5t-78.5 -16q-53 0 -87.5 23t-40.5 63l57 29q-1 -5 -1 -20q1 -29 24.5 -45.5t58.5 -16.5q41 0 69.5 24.5t28.5 62.5q0 41 -36 68.5t-105 32.5l15 30q18 -3 37 -3q53 0 90.5 29t37.5 76q0 33 -23 53.5
t-58 20.5q-31 0 -53 -14t-22 -35q0 -15 13 -24l-54 -22q-7 15 -6 27q2 46 41.5 73.5t94.5 27.5q51 0 83.5 -27t32.5 -71q0 -50 -36 -88zM773 681l-568 -681h-44l571 681h41zM748 454l-66 -312h43l-8 -39h-43l-8 -35q-3 -13 -3 -34q0 -22 13 -34h-72l23 103h-212l4 18
l291 333h38zM685 376l-206 -234h156z" />
    <glyph glyph-name="questiondown" unicode="&#xbf;" horiz-adv-x="502" 
d="M395 406.5q-15 -15.5 -40 -15.5q-51 0 -51 50q0 24 15.5 39.5t39.5 15.5q51 0 51 -51q0 -23 -15 -38.5zM366 -158q-75 -39 -177 -39q-79 0 -127 30t-48 87q0 73 77 140l45 33q80 60 121 99.5t41 76.5q0 24 -17 38q11 7 24 7q23 0 42 -20q13 -17 13 -39q0 -57 -70 -118
l-32 -24q-76 -57 -116.5 -98t-40.5 -82q0 -37 28.5 -58t75.5 -21q52 0 103.5 28t80.5 74z" />
    <glyph glyph-name="Agrave" unicode="&#xc0;" 
d="M433 0q9 2 15 9q17 18 17 59q0 14 -2 32l-13 103h-247l-61 -95q-31 -50 -31 -77q0 -26 21 -31h-147q9 5 20 15q31 31 70 90l389 588l80 -590q12 -91 46 -103h-157zM444 252l-33 275l-177 -275h210zM464 741l-159 147h115z" />
    <glyph glyph-name="Aacute" unicode="&#xc1;" 
d="M433 0q9 2 15 9q17 18 17 59q0 14 -2 32l-13 103h-247l-61 -95q-31 -50 -31 -77q0 -26 21 -31h-147q9 5 20 15q31 31 70 90l389 588l80 -590q12 -91 46 -103h-157zM444 252l-33 275l-177 -275h210zM694 888l-226 -147l107 147h119z" />
    <glyph glyph-name="Acircumflex" unicode="&#xc2;" 
d="M433 0q9 2 15 9q17 18 17 59q0 14 -2 32l-13 103h-247l-61 -95q-31 -50 -31 -77q0 -26 21 -31h-147q9 5 20 15q31 31 70 90l389 588l80 -590q12 -91 46 -103h-157zM444 252l-33 275l-177 -275h210zM593 711l-116 84l-147 -84l166 181z" />
    <glyph glyph-name="Atilde" unicode="&#xc3;" 
d="M433 0q9 2 15 9q17 18 17 59q0 14 -2 32l-13 103h-247l-61 -95q-31 -50 -31 -77q0 -26 21 -31h-147q9 5 20 15q31 31 70 90l389 588l80 -590q12 -91 46 -103h-157zM444 252l-33 275l-177 -275h210zM604.5 781q-26.5 -29 -65.5 -29q-26 0 -66 25q-41 25 -61 25
q-47 0 -66 -69q-6 14 -6 30q0 39 27 67.5t65 28.5q28 0 69 -25t60 -25q47 0 65 70q5 -17 5 -30q0 -39 -26.5 -68z" />
    <glyph glyph-name="Adieresis" unicode="&#xc4;" 
d="M418.5 743q-13.5 -14 -34.5 -14q-20 0 -33 13t-13 32q0 20 14 34t35 14q20 0 32.5 -13t12.5 -32q0 -20 -13.5 -34zM592.5 743q-13.5 -14 -34.5 -14q-20 0 -32.5 13t-12.5 32q0 20 14 34t35 14q44 0 44 -45q0 -20 -13.5 -34zM433 0q9 2 15 9q17 18 17 59q0 14 -2 32
l-13 103h-247l-61 -95q-31 -50 -31 -77q0 -26 21 -31h-147q9 5 20 15q31 31 70 90l389 588l80 -590q12 -91 46 -103h-157zM444 252l-33 275l-177 -275h210z" />
    <glyph glyph-name="Aring" unicode="&#xc5;" 
d="M528 720.5q-25 -25.5 -64 -25.5q-41 0 -65.5 25.5t-24.5 64.5t24.5 64.5t65.5 25.5q39 0 64 -25.5t25 -64.5t-25 -64.5zM503 825q-15 16 -39 16q-25 0 -40.5 -16t-15.5 -40t16 -40.5t40 -16.5t39 16.5t15 40.5t-15 40zM433 0q9 2 15 9q17 18 17 59q0 14 -2 32l-13 103
h-247l-61 -95q-31 -50 -31 -77q0 -26 21 -31h-147q9 5 20 15q31 31 70 90l389 588l80 -590q12 -91 46 -103h-157zM444 252l-33 275l-177 -275h210z" />
    <glyph glyph-name="AE" unicode="&#xc6;" horiz-adv-x="861" 
d="M880 666l-26 -132q-3 83 -88 83h-182l-41 -250h148q73 0 84 38l-26 -127q-1 40 -69 40h-145l-44 -268h157q57 0 88 21t55 75l-31 -146h-414q18 3 32 14q33 25 44 85l17 104h-231l-66 -87q-49 -64 -49 -92q0 -22 20 -24h-172q14 3 31 14q43 28 96 98l355 462q43 55 43 75
q0 16 -12 17h426zM504 591l-260 -339h203z" />
    <glyph glyph-name="Ccedilla" unicode="&#xc7;" horiz-adv-x="549" 
d="M550 510q-11 122 -123 122q-71 0 -136.5 -56t-106 -147t-40.5 -189q0 -92 44 -146.5t117 -54.5q100 0 182 93l-16 -75q-64 -64 -176 -72l-20 -25q34 -4 49.5 -19t15.5 -36q0 -18 -9.5 -35.5t-25.5 -28.5q-33 -24 -78 -24q-40 0 -68 21q15 -3 33 -3q35 0 60.5 19t25.5 44
q0 38 -63 40l37 47q-89 8 -142.5 75.5t-53.5 176.5q0 108 49.5 211t137.5 168t198 65q91 0 137 -39z" />
    <glyph glyph-name="Egrave" unicode="&#xc8;" horiz-adv-x="533" 
d="M558 666l-26 -132q-3 83 -89 83h-179l-52 -250h152q74 0 83 38l-25 -127q-1 40 -69 40h-151l-56 -268h180q57 0 88 21t55 75l-31 -146h-438q15 3 29 12q31 23 41 71l108 504q4 17 4 28q0 50 -36 51h412zM373 748l-159 147h115z" />
    <glyph glyph-name="Eacute" unicode="&#xc9;" horiz-adv-x="533" 
d="M558 666l-26 -132q-3 83 -89 83h-179l-52 -250h152q74 0 83 38l-25 -127q-1 40 -69 40h-151l-56 -268h180q57 0 88 21t55 75l-31 -146h-438q15 3 29 12q31 23 41 71l108 504q4 17 4 28q0 50 -36 51h412zM603 895l-226 -147l107 147h119z" />
    <glyph glyph-name="Ecircumflex" unicode="&#xca;" horiz-adv-x="533" 
d="M558 666l-26 -132q-3 83 -89 83h-179l-52 -250h152q74 0 83 38l-25 -127q-1 40 -69 40h-151l-56 -268h180q57 0 88 21t55 75l-31 -146h-438q15 3 29 12q31 23 41 71l108 504q4 17 4 28q0 50 -36 51h412zM502 718l-116 84l-147 -84l166 181z" />
    <glyph glyph-name="Edieresis" unicode="&#xcb;" horiz-adv-x="533" 
d="M331.5 743q-13.5 -14 -34.5 -14q-20 0 -33 13t-13 32q0 20 14 34t35 14q20 0 32.5 -13t12.5 -32q0 -20 -13.5 -34zM505.5 743q-13.5 -14 -34.5 -14q-20 0 -32.5 13t-12.5 32q0 20 14 34t35 14q44 0 44 -45q0 -20 -13.5 -34zM558 666l-26 -132q-3 83 -89 83h-179l-52 -250
h152q74 0 83 38l-25 -127q-1 40 -69 40h-151l-56 -268h180q57 0 88 21t55 75l-31 -146h-438q15 3 29 12q31 23 41 71l108 504q4 17 4 28q0 50 -36 51h412z" />
    <glyph glyph-name="Igrave" unicode="&#xcc;" horiz-adv-x="275" 
d="M315 666q-14 -3 -26 -12q-28 -19 -37 -63l-110 -515q-3 -13 -3 -29q0 -47 32 -47h-171q14 3 25 11q26 20 35 61l110 515q3 14 3 30q0 48 -31 49h173zM225 748l-159 147h115z" />
    <glyph glyph-name="Iacute" unicode="&#xcd;" horiz-adv-x="275" 
d="M315 666q-14 -3 -26 -12q-28 -19 -37 -63l-110 -515q-3 -13 -3 -29q0 -47 32 -47h-171q14 3 25 11q26 20 35 61l110 515q3 14 3 30q0 48 -31 49h173zM455 895l-226 -147l107 147h119z" />
    <glyph glyph-name="Icircumflex" unicode="&#xce;" horiz-adv-x="273" 
d="M363 694l-116 84l-147 -84l166 181zM315 666q-14 -3 -26 -12q-28 -19 -37 -63l-110 -515q-3 -13 -3 -29q0 -47 32 -47h-171q14 3 25 11q26 20 35 61l110 515q3 14 3 30q0 48 -31 49h173z" />
    <glyph glyph-name="Idieresis" unicode="&#xcf;" horiz-adv-x="273" 
d="M191.5 744q-13.5 -14 -34.5 -14q-20 0 -33 13t-13 32q0 20 14 34t35 14q20 0 32.5 -13t12.5 -32q0 -20 -13.5 -34zM365.5 744q-13.5 -14 -34.5 -14q-20 0 -32.5 13t-12.5 32q0 20 14 34t35 14q44 0 44 -45q0 -20 -13.5 -34zM315 666q-14 -3 -26 -12q-28 -19 -37 -63
l-110 -515q-3 -13 -3 -29q0 -47 32 -47h-171q14 3 25 11q26 20 35 61l110 515q3 14 3 30q0 48 -31 49h173z" />
    <glyph glyph-name="Eth" unicode="&#xd0;" horiz-adv-x="640" 
d="M575.5 199q-45.5 -90 -129 -144.5t-191.5 -54.5h-254q12 1 23 11q24 22 36 79l46 221h-83l9 43h83l49 230q4 17 4 31q0 47 -30 51h227q79 0 137 -34.5t88.5 -97t30.5 -144.5q0 -101 -45.5 -191zM488 557.5q-46 60.5 -133 60.5h-103l-56 -264h129l-9 -43h-129l-55 -263
h124q80 0 143.5 50t99 131t35.5 169q0 99 -46 159.5z" />
    <glyph glyph-name="Ntilde" unicode="&#xd1;" horiz-adv-x="655" 
d="M563.5 761q-26.5 -29 -65.5 -29q-26 0 -66 25q-41 25 -61 25q-46 0 -66 -69q-6 14 -6 30q0 39 27 67.5t65 28.5q28 0 69 -25t60 -25q47 0 65 70q5 -17 5 -30q0 -39 -26.5 -68zM696 666q-10 -3 -22 -11q-24 -19 -33 -61l-137 -633l-286 556l-95 -446q-2 -12 -2 -22
q0 -45 37 -49h-159q12 1 26 10q27 18 36 58l107 493q3 14 3 24q0 23 -14.5 49t-36.5 32h112l259 -500l90 424q2 12 2 24q0 46 -36 52h149z" />
    <glyph glyph-name="Ograve" unicode="&#xd2;" horiz-adv-x="664" 
d="M597 218.5q-50 -104.5 -137 -169.5t-191 -65q-100 0 -157.5 66.5t-57.5 180.5q0 115 50.5 219.5t137 168t189.5 63.5q101 0 158.5 -67.5t57.5 -179.5t-50 -216.5zM523.5 581q-38.5 53 -106.5 53q-74 0 -138 -59.5t-102 -154.5t-38 -195q0 -88 38 -139.5t104 -51.5
q75 0 140 59t103 153t38 194q0 88 -38.5 141zM455 748l-159 147h115z" />
    <glyph glyph-name="Oacute" unicode="&#xd3;" horiz-adv-x="664" 
d="M597 218.5q-50 -104.5 -137 -169.5t-191 -65q-100 0 -157.5 66.5t-57.5 180.5q0 115 50.5 219.5t137 168t189.5 63.5q101 0 158.5 -67.5t57.5 -179.5t-50 -216.5zM523.5 581q-38.5 53 -106.5 53q-74 0 -138 -59.5t-102 -154.5t-38 -195q0 -88 38 -139.5t104 -51.5
q75 0 140 59t103 153t38 194q0 88 -38.5 141zM685 895l-226 -147l107 147h119z" />
    <glyph glyph-name="Ocircumflex" unicode="&#xd4;" horiz-adv-x="664" 
d="M597 218.5q-50 -104.5 -137 -169.5t-191 -65q-100 0 -157.5 66.5t-57.5 180.5q0 115 50.5 219.5t137 168t189.5 63.5q101 0 158.5 -67.5t57.5 -179.5t-50 -216.5zM523.5 581q-38.5 53 -106.5 53q-74 0 -138 -59.5t-102 -154.5t-38 -195q0 -88 38 -139.5t104 -51.5
q75 0 140 59t103 153t38 194q0 88 -38.5 141zM584 718l-116 84l-147 -84l166 181z" />
    <glyph glyph-name="Otilde" unicode="&#xd5;" horiz-adv-x="664" 
d="M597 218.5q-50 -104.5 -137 -169.5t-191 -65q-100 0 -157.5 66.5t-57.5 180.5q0 115 50.5 219.5t137 168t189.5 63.5q101 0 158.5 -67.5t57.5 -179.5t-50 -216.5zM523.5 581q-38.5 53 -106.5 53q-74 0 -138 -59.5t-102 -154.5t-38 -195q0 -88 38 -139.5t104 -51.5
q75 0 140 59t103 153t38 194q0 88 -38.5 141zM595.5 788q-26.5 -29 -65.5 -29q-26 0 -66 25q-41 25 -61 25q-47 0 -66 -69q-6 14 -6 30q0 39 27 67.5t65 28.5q28 0 69 -25t60 -25q47 0 65 70q5 -17 5 -30q0 -39 -26.5 -68z" />
    <glyph glyph-name="Odieresis" unicode="&#xd6;" horiz-adv-x="664" 
d="M385.5 743q-13.5 -14 -34.5 -14q-20 0 -33 13t-13 32q0 20 14 34t35 14q20 0 32.5 -13t12.5 -32q0 -20 -13.5 -34zM559.5 743q-13.5 -14 -34.5 -14q-20 0 -32.5 13t-12.5 32q0 20 14 34t35 14q44 0 44 -45q0 -20 -13.5 -34zM597 218.5q-50 -104.5 -137 -169.5t-191 -65
q-100 0 -157.5 66.5t-57.5 180.5q0 115 50.5 219.5t137 168t189.5 63.5q101 0 158.5 -67.5t57.5 -179.5t-50 -216.5zM523.5 581q-38.5 53 -106.5 53q-74 0 -138 -59.5t-102 -154.5t-38 -195q0 -88 38 -139.5t104 -51.5q75 0 140 59t103 153t38 194q0 88 -38.5 141z" />
    <glyph glyph-name="multiply" unicode="&#xd7;" horiz-adv-x="659" 
d="M606 41l-37 -38l-236 239l-237 -239l-37 38l236 237l-237 240l36 38l238 -240l237 238l37 -38l-236 -238z" />
    <glyph glyph-name="Oslash" unicode="&#xd8;" horiz-adv-x="663" 
d="M678 670l-75 -80q41 -65 41 -155q0 -112 -50 -216.5t-137 -169.5t-191 -65q-93 0 -150 61l-65 -67l-41 14l80 84q-39 62 -39 155q0 116 50.5 220t137 167.5t189.5 63.5q95 0 150 -60l61 63zM530 567q-39 67 -116 67q-74 0 -138 -58t-102 -151.5t-38 -193.5q0 -51 13 -87z
M545 523l-381 -424q38 -65 114 -65q75 0 139 57.5t102.5 150t39.5 192.5q0 47 -14 89z" />
    <glyph glyph-name="Ugrave" unicode="&#xd9;" horiz-adv-x="634" 
d="M677 666q-12 -3 -24 -11q-26 -18 -33 -55l-80 -377q-27 -128 -95 -183t-191 -55q-181 0 -181 152q0 44 12 99l80 367q2 12 2 19q0 40 -33 44h172q-15 -2 -25 -9q-28 -17 -35 -54l-79 -365q-12 -55 -12 -89q0 -111 124 -111q157 0 194 178l79 381q3 14 3 24q0 41 -30 45
h152zM421 748l-159 147h115z" />
    <glyph glyph-name="Uacute" unicode="&#xda;" horiz-adv-x="634" 
d="M677 666q-12 -3 -24 -11q-26 -18 -33 -55l-80 -377q-27 -128 -95 -183t-191 -55q-181 0 -181 152q0 44 12 99l80 367q2 12 2 19q0 40 -33 44h172q-15 -2 -25 -9q-28 -17 -35 -54l-79 -365q-12 -55 -12 -89q0 -111 124 -111q157 0 194 178l79 381q3 14 3 24q0 41 -30 45
h152zM651 895l-226 -147l107 147h119z" />
    <glyph glyph-name="Ucircumflex" unicode="&#xdb;" horiz-adv-x="634" 
d="M552 699l-116 84l-147 -84l166 181zM677 666q-12 -3 -24 -11q-26 -18 -33 -55l-80 -377q-27 -128 -95 -183t-191 -55q-181 0 -181 152q0 44 12 99l80 367q2 12 2 19q0 40 -33 44h172q-15 -2 -25 -9q-28 -17 -35 -54l-79 -365q-12 -55 -12 -89q0 -111 124 -111
q157 0 194 178l79 381q3 14 3 24q0 41 -30 45h152z" />
    <glyph glyph-name="Udieresis" unicode="&#xdc;" horiz-adv-x="634" 
d="M377.5 743q-13.5 -14 -34.5 -14q-20 0 -33 13t-13 32q0 20 14 34t35 14q20 0 32.5 -13t12.5 -32q0 -20 -13.5 -34zM551.5 743q-13.5 -14 -34.5 -14q-20 0 -32.5 13t-12.5 32q0 20 14 34t35 14q44 0 44 -45q0 -20 -13.5 -34zM677 666q-12 -3 -24 -11q-26 -18 -33 -55
l-80 -377q-27 -128 -95 -183t-191 -55q-181 0 -181 152q0 44 12 99l80 367q2 12 2 19q0 40 -33 44h172q-15 -2 -25 -9q-28 -17 -35 -54l-79 -365q-12 -55 -12 -89q0 -111 124 -111q157 0 194 178l79 381q3 14 3 24q0 41 -30 45h152z" />
    <glyph glyph-name="Yacute" unicode="&#xdd;" horiz-adv-x="574" 
d="M654 666q-10 -4 -25 -12q-30 -21 -64 -64l-242 -308l-44 -206q-4 -17 -4 -27q0 -46 33 -49h-169q16 4 25 10q26 20 35 62l44 210l-94 311q-19 64 -55 73h152q-21 -4 -21 -37q0 -15 7 -36l77 -245l189 242q31 40 31 58q0 15 -14 18h139zM604 895l-226 -147l107 147h119z
" />
    <glyph glyph-name="Thorn" unicode="&#xde;" horiz-adv-x="544" 
d="M487.5 263.5q-31.5 -50.5 -89.5 -80t-136 -29.5q-56 0 -102 12l-19 -90q-3 -13 -3 -29q0 -47 32 -47h-171q14 3 25 11q26 20 35 61l110 515q3 14 3 30q0 48 -31 49h174q-16 -3 -26 -12q-27 -19 -38 -63l-12 -54h90q89 0 139.5 -43t50.5 -120q0 -60 -31.5 -110.5z
M405.5 460.5q-32.5 31.5 -89.5 31.5h-86l-60 -279q39 -10 89 -10q84 0 131.5 48t47.5 122q0 56 -32.5 87.5z" />
    <glyph glyph-name="germandbls" unicode="&#xdf;" horiz-adv-x="595" 
d="M537 509.5q-15 -25.5 -44.5 -45.5t-98.5 -56q-55 -30 -55 -58q0 -18 30.5 -45t66.5 -51.5t41 -26.5q48 -42 48 -94q0 -46 -28.5 -79.5t-75 -51.5t-99.5 -18q-58 0 -94.5 18.5t-36.5 48.5q0 32 41 56l-1 -10q1 -31 28.5 -48t69.5 -17q52 0 90 22.5t38 62.5t-48 76l-88 59
q-48 36 -48 78q0 52 53 90l37 22l60 36q53 35 53 86q0 36 -28.5 60t-69.5 24q-54 0 -97 -44t-61 -129l-99 -470q-19 -90 -63.5 -141.5t-109.5 -51.5q-55 0 -80 37q22 -5 38 -5q105 0 140 161l98 467q23 109 93 165.5t160 56.5q67 0 111 -33t44 -84q0 -42 -15 -67.5z" />
    <glyph glyph-name="agrave" unicode="&#xe0;" horiz-adv-x="493" 
d="M387 133q-11 -52 -11 -68q0 -33 35 -44l7 -2l-130 -34l22 113q-30 -50 -80.5 -81.5t-97.5 -31.5q-51 0 -79 36t-28 99q0 88 42 170.5t109.5 134t139.5 51.5q12 0 44 -5q34 -6 43 -6q27 0 62 21zM310 433q-53 0 -101.5 -46.5t-77.5 -116t-29 -133.5q0 -97 66 -97
q36 0 77 34.5t65 87.5q16 34 35.5 111t19.5 107q0 53 -55 53zM347 548l-159 147h115z" />
    <glyph glyph-name="aacute" unicode="&#xe1;" horiz-adv-x="493" 
d="M387 133q-11 -52 -11 -68q0 -33 35 -44l7 -2l-130 -34l22 113q-30 -50 -80.5 -81.5t-97.5 -31.5q-51 0 -79 36t-28 99q0 88 42 170.5t109.5 134t139.5 51.5q12 0 44 -5q34 -6 43 -6q27 0 62 21zM310 433q-53 0 -101.5 -46.5t-77.5 -116t-29 -133.5q0 -97 66 -97
q36 0 77 34.5t65 87.5q16 34 35.5 111t19.5 107q0 53 -55 53zM577 695l-226 -147l107 147h119z" />
    <glyph glyph-name="acircumflex" unicode="&#xe2;" horiz-adv-x="493" 
d="M387 133q-11 -52 -11 -68q0 -33 35 -44l7 -2l-130 -34l22 113q-30 -50 -80.5 -81.5t-97.5 -31.5q-51 0 -79 36t-28 99q0 88 42 170.5t109.5 134t139.5 51.5q12 0 44 -5q34 -6 43 -6q27 0 62 21zM310 433q-53 0 -101.5 -46.5t-77.5 -116t-29 -133.5q0 -97 66 -97
q36 0 77 34.5t65 87.5q16 34 35.5 111t19.5 107q0 53 -55 53zM476 518l-116 84l-147 -84l166 181z" />
    <glyph glyph-name="atilde" unicode="&#xe3;" horiz-adv-x="493" 
d="M387 133q-11 -52 -11 -68q0 -33 35 -44l7 -2l-130 -34l22 113q-30 -50 -80.5 -81.5t-97.5 -31.5q-51 0 -79 36t-28 99q0 88 42 170.5t109.5 134t139.5 51.5q12 0 44 -5q34 -6 43 -6q27 0 62 21zM310 433q-53 0 -101.5 -46.5t-77.5 -116t-29 -133.5q0 -97 66 -97
q36 0 77 34.5t65 87.5q16 34 35.5 111t19.5 107q0 53 -55 53zM487.5 588q-26.5 -29 -65.5 -29q-26 0 -66 25q-41 25 -61 25q-47 0 -66 -69q-6 14 -6 30q0 39 27 67.5t65 28.5q28 0 69 -25t60 -25q47 0 65 70q5 -17 5 -30q0 -39 -26.5 -68z" />
    <glyph glyph-name="adieresis" unicode="&#xe4;" horiz-adv-x="493" 
d="M270.5 588q-13.5 -14 -34.5 -14q-20 0 -33 13t-13 32q0 20 14 34t35 14q20 0 32.5 -13t12.5 -32q0 -20 -13.5 -34zM444.5 588q-13.5 -14 -34.5 -14q-20 0 -32.5 13t-12.5 32q0 20 14 34t35 14q44 0 44 -45q0 -20 -13.5 -34zM387 133q-11 -52 -11 -68q0 -33 35 -44l7 -2
l-130 -34l22 113q-30 -50 -80.5 -81.5t-97.5 -31.5q-51 0 -79 36t-28 99q0 88 42 170.5t109.5 134t139.5 51.5q12 0 44 -5q34 -6 43 -6q27 0 62 21zM310 433q-53 0 -101.5 -46.5t-77.5 -116t-29 -133.5q0 -97 66 -97q36 0 77 34.5t65 87.5q16 34 35.5 111t19.5 107
q0 53 -55 53z" />
    <glyph glyph-name="aring" unicode="&#xe5;" horiz-adv-x="493" 
d="M389 549.5q-25 -25.5 -64 -25.5q-41 0 -65.5 25.5t-24.5 64.5t24.5 64.5t65.5 25.5q39 0 64 -25.5t25 -64.5t-25 -64.5zM364 654q-15 16 -39 16q-25 0 -40.5 -16t-15.5 -40t16 -40.5t40 -16.5t39 16.5t15 40.5t-15 40zM387 133q-11 -52 -11 -68q0 -33 35 -44l7 -2
l-130 -34l22 113q-30 -50 -80.5 -81.5t-97.5 -31.5q-51 0 -79 36t-28 99q0 88 42 170.5t109.5 134t139.5 51.5q12 0 44 -5q34 -6 43 -6q27 0 62 21zM310 433q-53 0 -101.5 -46.5t-77.5 -116t-29 -133.5q0 -97 66 -97q36 0 77 34.5t65 87.5q16 34 35.5 111t19.5 107
q0 53 -55 53z" />
    <glyph glyph-name="ae" unicode="&#xe6;" horiz-adv-x="695" 
d="M655 305q-36 -35 -105 -55t-180 -33q-7 -31 -7 -59q0 -53 30 -87q29 -32 75 -32q41 0 87 24t77 62q-10 -40 -40.5 -72.5t-73 -51t-85.5 -18.5q-98 0 -130 93q-55 -91 -186 -91q-52 0 -84 27t-32 69q0 76 74.5 113.5t230.5 56.5l16 79q4 17 4 36q0 76 -80 76
q-46 0 -81 -22.5t-35 -58.5q0 -25 18 -33l-89 -28q-4 9 -4 30q0 48 30 83t79.5 53.5t104.5 18.5q116 0 123 -103q93 103 199 103q44 0 72 -24.5t28 -64.5q0 -56 -36 -91zM569 438q-36 0 -74 -23.5t-69 -64.5t-47 -91q87 11 139 25.5t79 39.5t27 64q0 50 -55 50zM296 210
q-117 -16 -169.5 -41t-52.5 -76q0 -25 20 -42t53 -17q45 0 84.5 27t48.5 70z" />
    <glyph glyph-name="ccedilla" unicode="&#xe7;" horiz-adv-x="412" 
d="M391 371q-19 -30 -46 -48q4 11 4 34q0 75 -66 75q-48 0 -89.5 -40t-66.5 -102.5t-25 -124.5q0 -60 28.5 -93.5t77.5 -33.5q86 0 153 87q-15 -54 -62.5 -93t-106.5 -47l-20 -25q34 -5 50 -20t16 -35q0 -18 -10 -35.5t-27 -28.5q-34 -24 -77 -24q-38 0 -67 21q15 -3 32 -3
q32 0 58.5 18t28.5 42q1 18 -16.5 30t-46.5 13l36 47q-58 6 -91 47t-33 110q0 87 40.5 166t109.5 128t149 49q86 0 86 -57q0 -27 -19 -57z" />
    <glyph glyph-name="egrave" unicode="&#xe8;" horiz-adv-x="433" 
d="M377.5 294q-48.5 -49 -124 -78.5t-151.5 -31.5q-1 -7 -1 -24q0 -53 27 -87t76 -34q41 0 87 24t77 62q-10 -40 -41 -72.5t-73.5 -51t-85.5 -18.5q-65 0 -104.5 43t-39.5 118q0 83 44.5 162t114.5 129t143 50q43 0 71.5 -24t28.5 -63q0 -55 -48.5 -104zM305 438
q-37 0 -78.5 -28.5t-75 -77t-46.5 -106.5q58 2 117.5 24.5t98.5 58.5t39 78q0 51 -55 51zM320 548l-159 147h115z" />
    <glyph glyph-name="eacute" unicode="&#xe9;" horiz-adv-x="433" 
d="M377.5 294q-48.5 -49 -124 -78.5t-151.5 -31.5q-1 -7 -1 -24q0 -53 27 -87t76 -34q41 0 87 24t77 62q-10 -40 -41 -72.5t-73.5 -51t-85.5 -18.5q-65 0 -104.5 43t-39.5 118q0 83 44.5 162t114.5 129t143 50q43 0 71.5 -24t28.5 -63q0 -55 -48.5 -104zM305 438
q-37 0 -78.5 -28.5t-75 -77t-46.5 -106.5q58 2 117.5 24.5t98.5 58.5t39 78q0 51 -55 51zM550 695l-226 -147l107 147h119z" />
    <glyph glyph-name="ecircumflex" unicode="&#xea;" horiz-adv-x="433" 
d="M377.5 294q-48.5 -49 -124 -78.5t-151.5 -31.5q-1 -7 -1 -24q0 -53 27 -87t76 -34q41 0 87 24t77 62q-10 -40 -41 -72.5t-73.5 -51t-85.5 -18.5q-65 0 -104.5 43t-39.5 118q0 83 44.5 162t114.5 129t143 50q43 0 71.5 -24t28.5 -63q0 -55 -48.5 -104zM305 438
q-37 0 -78.5 -28.5t-75 -77t-46.5 -106.5q58 2 117.5 24.5t98.5 58.5t39 78q0 51 -55 51zM449 518l-116 84l-147 -84l166 181z" />
    <glyph glyph-name="edieresis" unicode="&#xeb;" horiz-adv-x="438" 
d="M266.5 588q-13.5 -14 -34.5 -14q-20 0 -33 13t-13 32q0 20 14 34t35 14q20 0 32.5 -13t12.5 -32q0 -20 -13.5 -34zM440.5 588q-13.5 -14 -34.5 -14q-20 0 -32.5 13t-12.5 32q0 20 14 34t35 14q44 0 44 -45q0 -20 -13.5 -34zM377.5 294q-48.5 -49 -124 -78.5t-151.5 -31.5
q-1 -7 -1 -24q0 -53 27 -87t76 -34q41 0 87 24t77 62q-10 -40 -41 -72.5t-73.5 -51t-85.5 -18.5q-65 0 -104.5 43t-39.5 118q0 83 44.5 162t114.5 129t143 50q43 0 71.5 -24t28.5 -63q0 -55 -48.5 -104zM305 438q-37 0 -78.5 -28.5t-75 -77t-46.5 -106.5q58 2 117.5 24.5
t98.5 58.5t39 78q0 51 -55 51z" />
    <glyph glyph-name="igrave" unicode="&#xec;" horiz-adv-x="229" 
d="M201 486l-82 -377q-7 -29 -7 -60q0 -48 19 -49h-111l84 385q4 16 4 25q0 35 -35 40l-5 1zM175 548l-159 147h115z" />
    <glyph glyph-name="iacute" unicode="&#xed;" horiz-adv-x="229" 
d="M201 486l-82 -377q-7 -29 -7 -60q0 -48 19 -49h-111l84 385q4 16 4 25q0 35 -35 40l-5 1zM405 695l-226 -147l107 147h119z" />
    <glyph glyph-name="icircumflex" unicode="&#xee;" horiz-adv-x="229" 
d="M301 518l-116 84l-147 -84l166 181zM201 486l-82 -377q-7 -29 -7 -60q0 -48 19 -49h-111l84 385q4 16 4 25q0 35 -35 40l-5 1z" />
    <glyph glyph-name="idieresis" unicode="&#xef;" horiz-adv-x="229" 
d="M134.5 588q-13.5 -14 -34.5 -14q-20 0 -33 13t-13 32q0 20 14 34t35 14q20 0 32.5 -13t12.5 -32q0 -20 -13.5 -34zM308.5 588q-13.5 -14 -34.5 -14q-20 0 -32.5 13t-12.5 32q0 20 14 34t35 14q44 0 44 -45q0 -20 -13.5 -34zM201 486l-82 -377q-7 -29 -7 -60q0 -48 19 -49
h-111l84 385q4 16 4 25q0 35 -35 40l-5 1z" />
    <glyph glyph-name="eth" unicode="&#xf0;" horiz-adv-x="514" 
d="M507 649l-110 -48q70 -95 70 -229q0 -100 -36.5 -188.5t-101 -142.5t-144.5 -54q-69 0 -109 47t-40 126q0 84 38 159t99.5 120t128.5 45q71 0 100 -74q-23 93 -79 161l-126 -54v37l99 43q-35 32 -77 46l93 48q36 -29 63 -61l130 57zM361 405.5q-22 31.5 -61 31.5
q-46 0 -90 -45.5t-71.5 -113.5t-27.5 -130q0 -51 22.5 -82.5t61.5 -31.5q46 0 90 45.5t71 113.5t27 130q0 51 -22 82.5z" />
    <glyph glyph-name="ntilde" unicode="&#xf1;" horiz-adv-x="497" 
d="M440.5 588q-26.5 -29 -65.5 -29q-26 0 -66 25q-41 25 -61 25q-46 0 -66 -69q-6 14 -6 30q0 39 27 67.5t65 28.5q28 0 69 -25t60 -25q47 0 65 70q5 -17 5 -30q0 -39 -26.5 -68zM443 339l-48 -230q-7 -32 -7 -56q0 -48 18 -53h-109l70 321q6 29 6 49q0 63 -55 63
q-32 0 -67.5 -23t-62.5 -62t-37 -85l-57 -263h-74l83 384q3 14 3 23q0 37 -35 43l-6 1l130 35l-22 -102q30 42 82.5 71.5t102.5 29.5q91 0 91 -89q0 -28 -6 -57z" />
    <glyph glyph-name="ograve" unicode="&#xf2;" horiz-adv-x="478" 
d="M407 148.5q-36 -73.5 -97 -118.5t-131 -45q-74 0 -113.5 51t-39.5 131q0 79 36 152.5t97 119.5t130 46q74 0 114 -51t40 -131q0 -81 -36 -154.5zM345 403q-22 35 -65 35q-49 0 -90 -45t-65 -111t-24 -126q0 -53 22 -88.5t65 -35.5q49 0 90 45t65 111.5t24 125.5
q0 54 -22 89zM303 548l-159 147h115z" />
    <glyph glyph-name="oacute" unicode="&#xf3;" horiz-adv-x="478" 
d="M407 148.5q-36 -73.5 -97 -118.5t-131 -45q-74 0 -113.5 51t-39.5 131q0 79 36 152.5t97 119.5t130 46q74 0 114 -51t40 -131q0 -81 -36 -154.5zM345 403q-22 35 -65 35q-49 0 -90 -45t-65 -111t-24 -126q0 -53 22 -88.5t65 -35.5q49 0 90 45t65 111.5t24 125.5
q0 54 -22 89zM533 695l-226 -147l107 147h119z" />
    <glyph glyph-name="ocircumflex" unicode="&#xf4;" horiz-adv-x="478" 
d="M407 148.5q-36 -73.5 -97 -118.5t-131 -45q-74 0 -113.5 51t-39.5 131q0 79 36 152.5t97 119.5t130 46q74 0 114 -51t40 -131q0 -81 -36 -154.5zM345 403q-22 35 -65 35q-49 0 -90 -45t-65 -111t-24 -126q0 -53 22 -88.5t65 -35.5q49 0 90 45t65 111.5t24 125.5
q0 54 -22 89zM432 518l-116 84l-147 -84l166 181z" />
    <glyph glyph-name="otilde" unicode="&#xf5;" horiz-adv-x="478" 
d="M407 148.5q-36 -73.5 -97 -118.5t-131 -45q-74 0 -113.5 51t-39.5 131q0 79 36 152.5t97 119.5t130 46q74 0 114 -51t40 -131q0 -81 -36 -154.5zM345 403q-22 35 -65 35q-49 0 -90 -45t-65 -111t-24 -126q0 -53 22 -88.5t65 -35.5q49 0 90 45t65 111.5t24 125.5
q0 54 -22 89zM443.5 588q-26.5 -29 -65.5 -29q-26 0 -66 25q-41 25 -61 25q-47 0 -66 -69q-6 14 -6 30q0 39 27 67.5t65 28.5q28 0 69 -25t60 -25q47 0 65 70q5 -17 5 -30q0 -39 -26.5 -68z" />
    <glyph glyph-name="odieresis" unicode="&#xf6;" horiz-adv-x="480" 
d="M268.5 588q-13.5 -14 -34.5 -14q-20 0 -33 13t-13 32q0 20 14 34t35 14q20 0 32.5 -13t12.5 -32q0 -20 -13.5 -34zM442.5 588q-13.5 -14 -34.5 -14q-20 0 -32.5 13t-12.5 32q0 20 14 34t35 14q44 0 44 -45q0 -20 -13.5 -34zM407 148.5q-36 -73.5 -97 -118.5t-131 -45
q-74 0 -113.5 51t-39.5 131q0 79 36 152.5t97 119.5t130 46q74 0 114 -51t40 -131q0 -81 -36 -154.5zM345 403q-22 35 -65 35q-49 0 -90 -45t-65 -111t-24 -126q0 -53 22 -88.5t65 -35.5q49 0 90 45t65 111.5t24 125.5q0 54 -22 89z" />
    <glyph glyph-name="divide" unicode="&#xf7;" horiz-adv-x="659" 
d="M368.5 440.5q-14.5 -14.5 -36.5 -14.5q-23 0 -37 14.5t-14 35.5q0 22 14 36.5t37 14.5t37 -14.5t14 -36.5q0 -21 -14.5 -35.5zM603 256h-544v53h544v-53zM368 51.5q-14 -14.5 -36 -14.5q-23 0 -37.5 14.5t-14.5 35.5t14.5 35.5t37.5 14.5t36.5 -14t13.5 -36
q0 -21 -14 -35.5z" />
    <glyph glyph-name="oslash" unicode="&#xf8;" horiz-adv-x="475" 
d="M482 490l-63 -68q28 -41 28 -110q0 -83 -38 -158t-101.5 -121t-134.5 -46q-64 0 -99 38l-46 -48l-36 12l59 63q-27 44 -27 108q0 84 38 159t101 120t134 45q62 0 98 -36l52 55zM354 400q-22 37 -66 37q-46 0 -89 -43t-70.5 -109t-28.5 -128q-2 -26 3 -42zM366 358
l-251 -284q21 -40 68 -40q46 0 89 43.5t70.5 109.5t28.5 128q0 18 -5 43z" />
    <glyph glyph-name="ugrave" unicode="&#xf9;" horiz-adv-x="500" 
d="M474 486l-87 -399q-4 -19 -4 -27q0 -34 31 -38l7 -1l-125 -36l20 102q-29 -43 -82 -72t-102 -29q-91 0 -91 89q0 29 6 57l50 240q5 28 5 34q0 37 -33 44l-5 1l132 35q-2 -12 -37 -172l-36 -164q-6 -28 -6 -52q0 -62 53 -62q33 0 69 24t63.5 64t37.5 84l35 164q5 25 5 38
q0 33 -34 40l-5 1zM299 548l-159 147h115z" />
    <glyph glyph-name="uacute" unicode="&#xfa;" horiz-adv-x="500" 
d="M474 486l-87 -399q-4 -19 -4 -27q0 -34 31 -38l7 -1l-125 -36l20 102q-29 -43 -82 -72t-102 -29q-91 0 -91 89q0 29 6 57l50 240q5 28 5 34q0 37 -33 44l-5 1l132 35q-2 -12 -37 -172l-36 -164q-6 -28 -6 -52q0 -62 53 -62q33 0 69 24t63.5 64t37.5 84l35 164q5 25 5 38
q0 33 -34 40l-5 1zM529 695l-226 -147l107 147h119z" />
    <glyph glyph-name="ucircumflex" unicode="&#xfb;" horiz-adv-x="500" 
d="M433 518l-116 84l-147 -84l166 181zM474 486l-87 -399q-4 -19 -4 -27q0 -34 31 -38l7 -1l-125 -36l20 102q-29 -43 -82 -72t-102 -29q-91 0 -91 89q0 29 6 57l50 240q5 28 5 34q0 37 -33 44l-5 1l132 35q-2 -12 -37 -172l-36 -164q-6 -28 -6 -52q0 -62 53 -62q33 0 69 24
t63.5 64t37.5 84l35 164q5 25 5 38q0 33 -34 40l-5 1z" />
    <glyph glyph-name="udieresis" unicode="&#xfc;" horiz-adv-x="500" 
d="M269.5 588q-13.5 -14 -34.5 -14q-20 0 -33 13t-13 32q0 20 14 34t35 14q20 0 32.5 -13t12.5 -32q0 -20 -13.5 -34zM443.5 588q-13.5 -14 -34.5 -14q-20 0 -32.5 13t-12.5 32q0 20 14 34t35 14q44 0 44 -45q0 -20 -13.5 -34zM474 486l-87 -399q-4 -19 -4 -27q0 -34 31 -38
l7 -1l-125 -36l20 102q-29 -43 -82 -72t-102 -29q-91 0 -91 89q0 29 6 57l50 240q5 28 5 34q0 37 -33 44l-5 1l132 35q-2 -12 -37 -172l-36 -164q-6 -28 -6 -52q0 -62 53 -62q33 0 69 24t63.5 64t37.5 84l35 164q5 25 5 38q0 33 -34 40l-5 1z" />
    <glyph glyph-name="yacute" unicode="&#xfd;" horiz-adv-x="476" 
d="M500 470q-15 -46 -73 -164q-59 -122 -137 -237.5t-153.5 -188.5t-125.5 -73q-62 0 -62 53q0 4 5 21q16 -16 50 -16q72 0 178 135l-75 381q-13 70 -62 70h-6l124 35l78 -410q85 119 140 251q26 63 26 96q0 40 -30 47h123zM517 695l-226 -147l107 147h119z" />
    <glyph glyph-name="thorn" unicode="&#xfe;" horiz-adv-x="499" 
d="M426.5 170.5q-38.5 -81.5 -105 -133.5t-143.5 -52q-61 0 -82 45l-47 -218h-74l169 783q3 14 3 23q0 36 -34 42l-6 1l133 35l-70 -322q76 111 182 111q54 0 83.5 -41t29.5 -109q0 -83 -38.5 -164.5zM316 431q-44 0 -89.5 -41t-72.5 -104q-13 -31 -26 -88.5t-13 -87.5
q0 -78 67 -78q55 0 101.5 44.5t74 113t27.5 135.5q0 106 -69 106z" />
    <glyph glyph-name="ydieresis" unicode="&#xff;" horiz-adv-x="468" 
d="M270.5 588q-13.5 -14 -34.5 -14q-20 0 -33 13t-13 32q0 20 14 34t35 14q20 0 32.5 -13t12.5 -32q0 -20 -13.5 -34zM444.5 588q-13.5 -14 -34.5 -14q-20 0 -32.5 13t-12.5 32q0 20 14 34t35 14q44 0 44 -45q0 -20 -13.5 -34zM500 470q-15 -46 -73 -164
q-59 -122 -137 -237.5t-153.5 -188.5t-125.5 -73q-62 0 -62 53q0 4 5 21q16 -16 50 -16q72 0 178 135l-75 381q-13 70 -62 70h-6l124 35l78 -410q85 119 140 251q26 63 26 96q0 40 -30 47h123z" />
    <glyph glyph-name="Abreve" unicode="&#x102;" 
d="M433 0q9 2 15 9q17 18 17 59q0 14 -2 32l-13 103h-247l-61 -95q-31 -50 -31 -77q0 -26 21 -31h-147q9 5 20 15q31 31 70 90l389 588l80 -590q12 -91 46 -103h-157zM444 252l-33 275l-177 -275h210zM560 783q-38 -36 -83 -36q-37 0 -60 25.5t-23 68.5q0 17 5 40
q6 -34 31 -53.5t60 -19.5q77 0 120 73q-12 -62 -50 -98z" />
    <glyph glyph-name="abreve" unicode="&#x103;" horiz-adv-x="493" 
d="M387 133q-11 -52 -11 -68q0 -33 35 -44l7 -2l-130 -34l22 113q-30 -50 -80.5 -81.5t-97.5 -31.5q-51 0 -79 36t-28 99q0 88 42 170.5t109.5 134t139.5 51.5q12 0 44 -5q34 -6 43 -6q27 0 62 21zM310 433q-53 0 -101.5 -46.5t-77.5 -116t-29 -133.5q0 -97 66 -97
q36 0 77 34.5t65 87.5q16 34 35.5 111t19.5 107q0 53 -55 53zM443 590q-38 -36 -83 -36q-37 0 -60 25.5t-23 68.5q0 17 5 40q6 -34 31 -53.5t60 -19.5q77 0 120 73q-12 -62 -50 -98z" />
    <glyph glyph-name="Dcroat" unicode="&#x110;" horiz-adv-x="640" 
d="M575.5 199q-45.5 -90 -129 -144.5t-191.5 -54.5h-254q12 1 23 11q24 22 36 79l46 221h-83l9 43h83l49 230q4 17 4 31q0 47 -30 51h227q79 0 137 -34.5t88.5 -97t30.5 -144.5q0 -101 -45.5 -191zM488 557.5q-46 60.5 -133 60.5h-103l-56 -264h129l-9 -43h-129l-55 -263
h124q80 0 143.5 50t99 131t35.5 169q0 99 -46 159.5z" />
    <glyph glyph-name="dcroat" unicode="&#x111;" horiz-adv-x="505" 
d="M399 119q-7 -29 -7 -53q0 -40 38 -46l6 -1l-135 -34l24 113q-76 -112 -185 -112q-55 0 -84.5 40t-29.5 107q0 82 39 164t104 135t140 53q63 0 85 -48q17 77 22 102h-156l8 40h156q2 7 4 17q2 12 2 18q0 39 -40 46l-6 1l140 35l-25 -117h45l-8 -40h-46zM361 267.5
q13 57.5 13 87.5q0 83 -69 83q-52 0 -98.5 -45t-74 -113.5t-27.5 -132.5q0 -109 68 -109q44 0 88 38.5t72 101.5q15 32 28 89.5z" />
    <glyph glyph-name="Itilde" unicode="&#x128;" horiz-adv-x="275" 
d="M315 666q-14 -3 -26 -12q-28 -19 -37 -63l-110 -515q-3 -13 -3 -29q0 -47 32 -47h-171q14 3 25 11q26 20 35 61l110 515q3 14 3 30q0 48 -31 49h173zM365.5 788q-26.5 -29 -65.5 -29q-26 0 -66 25q-41 25 -61 25q-47 0 -66 -69q-6 14 -6 30q0 39 27 67.5t65 28.5
q28 0 69 -25t60 -25q47 0 65 70q5 -17 5 -30q0 -39 -26.5 -68z" />
    <glyph glyph-name="itilde" unicode="&#x129;" horiz-adv-x="229" 
d="M201 486l-82 -377q-7 -29 -7 -60q0 -48 19 -49h-111l84 385q4 16 4 25q0 35 -35 40l-5 1zM315.5 588q-26.5 -29 -65.5 -29q-26 0 -66 25q-41 25 -61 25q-47 0 -66 -69q-6 14 -6 30q0 39 27 67.5t65 28.5q28 0 69 -25t60 -25q47 0 65 70q5 -17 5 -30q0 -39 -26.5 -68z" />
    <glyph glyph-name="dotlessi" unicode="&#x131;" horiz-adv-x="229" 
d="M201 486l-82 -377q-7 -29 -7 -60q0 -48 19 -49h-111l84 385q4 16 4 25q0 35 -35 40l-5 1z" />
    <glyph glyph-name="Lslash" unicode="&#x141;" horiz-adv-x="491" 
d="M407 0h-408q13 3 23 10q25 19 34 62l41 197l-91 -62l12 60l92 61l56 259q2 12 2 28q0 48 -34 51h173q-12 -3 -24 -11q-27 -21 -36 -64l-43 -201l120 82l-13 -60l-120 -81l-60 -280h162q59 0 92 21.5t54 75.5z" />
    <glyph glyph-name="lslash" unicode="&#x142;" horiz-adv-x="229" 
d="M264 471l-13 -58l-78 -53l-54 -251q-9 -42 -9 -60q0 -46 20 -49h-110l66 303l-78 -52l12 59l79 51l51 234q3 14 3 23q0 38 -34 42l-7 1l134 35l-61 -278z" />
    <glyph glyph-name="OE" unicode="&#x152;" horiz-adv-x="864" 
d="M889 666l-26 -132q-3 83 -89 83h-179l-52 -250h152q74 0 83 38l-25 -127q-1 40 -69 40h-151l-56 -268h180q57 0 88 21t55 75l-31 -146h-403q-47 -16 -98 -16q-101 0 -158.5 66.5t-57.5 180.5q0 115 50.5 219.5t137 168t189.5 63.5q47 0 85 -16h375zM508 577
q-31 57 -92 57q-74 0 -138.5 -59.5t-102.5 -154.5t-38 -195q0 -88 38.5 -139.5t104.5 -51.5q64 0 122 54z" />
    <glyph glyph-name="oe" unicode="&#x153;" horiz-adv-x="749" 
d="M695 298q-47 -49 -122 -81t-155 -33q-2 -29 -1 -36q3 -48 30.5 -78.5t72.5 -30.5q41 0 87 24t77 62q-10 -40 -41 -72.5t-73.5 -51t-85.5 -18.5q-105 0 -130 100q-68 -98 -176 -98q-74 0 -114 51t-40 131q0 79 36.5 152.5t97.5 119.5t130 46q113 0 136 -125q45 57 103 91
t115 34q44 0 72 -24.5t28 -64.5q0 -49 -47 -98zM343.5 403q-21.5 35 -64.5 35q-49 0 -90 -45t-65 -111t-24 -126q0 -53 22 -88.5t65 -35.5q49 0 90 45t64.5 111.5t23.5 125.5q0 54 -21.5 89zM620 438q-37 0 -78.5 -28.5t-75 -77t-46.5 -106.5q59 1 118.5 24t98 60t38.5 77
q0 51 -55 51z" />
    <glyph glyph-name="Scaron" unicode="&#x160;" horiz-adv-x="491" 
d="M515 884l-166 -182l-96 182l115 -85zM456 517q-5 56 -43 86t-97 30q-60 0 -95 -33t-35 -89q0 -54 63 -107l118 -92q63 -60 63 -129q0 -92 -61 -145t-175 -53q-118 0 -180 48l32 144q11 -143 159 -143q69 0 108 34t39 92q0 56 -62 109l-117 90q-62 59 -62 129
q0 57 27.5 101t77 68.5t115.5 24.5q97 0 152 -43z" />
    <glyph glyph-name="scaron" unicode="&#x161;" horiz-adv-x="383" 
d="M423 705l-166 -182l-96 182l115 -85zM319 339q3 12 3 27q0 35 -23.5 55t-59.5 20q-41 0 -71.5 -23t-30.5 -60q0 -35 48 -73q60 -44 90 -67q49 -43 49 -95q0 -64 -50.5 -102t-128.5 -38q-84 0 -139 35l32 123q7 -112 109 -112q50 0 79 21.5t29 55.5q0 27 -27 52.5
t-82 66.5l-26 19q-47 44 -47 95q0 46 25 79.5t65.5 51t88.5 17.5q50 0 84.5 -19.5t34.5 -53.5q0 -38 -52 -75z" />
    <glyph glyph-name="Utilde" unicode="&#x168;" horiz-adv-x="634" 
d="M677 666q-12 -3 -24 -11q-26 -18 -33 -55l-80 -377q-27 -128 -95 -183t-191 -55q-181 0 -181 152q0 44 12 99l80 367q2 12 2 19q0 40 -33 44h172q-15 -2 -25 -9q-28 -17 -35 -54l-79 -365q-12 -55 -12 -89q0 -111 124 -111q157 0 194 178l79 381q3 14 3 24q0 41 -30 45
h152zM561.5 788q-26.5 -29 -65.5 -29q-26 0 -66 25q-41 25 -61 25q-47 0 -66 -69q-6 14 -6 30q0 39 27 67.5t65 28.5q28 0 69 -25t60 -25q47 0 65 70q5 -17 5 -30q0 -39 -26.5 -68z" />
    <glyph glyph-name="utilde" unicode="&#x169;" horiz-adv-x="500" 
d="M474 486l-87 -399q-4 -19 -4 -27q0 -34 31 -38l7 -1l-125 -36l20 102q-29 -43 -82 -72t-102 -29q-91 0 -91 89q0 29 6 57l50 240q5 28 5 34q0 37 -33 44l-5 1l132 35q-2 -12 -37 -172l-36 -164q-6 -28 -6 -52q0 -62 53 -62q33 0 69 24t63.5 64t37.5 84l35 164q5 25 5 38
q0 33 -34 40l-5 1zM439.5 588q-26.5 -29 -65.5 -29q-26 0 -66 25q-41 25 -61 25q-47 0 -66 -69q-6 14 -6 30q0 39 27 67.5t65 28.5q28 0 69 -25t60 -25q47 0 65 70q5 -17 5 -30q0 -39 -26.5 -68z" />
    <glyph glyph-name="Ydieresis" unicode="&#x178;" horiz-adv-x="574" 
d="M338.5 743q-13.5 -14 -34.5 -14q-20 0 -33 13t-13 32q0 20 14 34t35 14q20 0 32.5 -13t12.5 -32q0 -20 -13.5 -34zM512.5 743q-13.5 -14 -34.5 -14q-20 0 -32.5 13t-12.5 32q0 20 14 34t35 14q44 0 44 -45q0 -20 -13.5 -34zM654 666q-10 -4 -25 -12q-30 -21 -64 -64
l-242 -308l-44 -206q-4 -17 -4 -27q0 -46 33 -49h-169q16 4 25 10q26 20 35 62l44 210l-94 311q-19 64 -55 73h152q-21 -4 -21 -37q0 -15 7 -36l77 -245l189 242q31 40 31 58q0 15 -14 18h139z" />
    <glyph glyph-name="Zcaron" unicode="&#x17d;" horiz-adv-x="551" 
d="M533 876l-166 -182l-96 182l115 -85zM587 666l-471 -617h237q52 0 81.5 19.5t58.5 66.5l-31 -135h-475q53 76 472 617h-237q-55 0 -88 -35q-16 -17 -22 -37l27 121h448z" />
    <glyph glyph-name="zcaron" unicode="&#x17e;" horiz-adv-x="412" 
d="M413 705l-166 -182l-96 182l115 -85zM409 472l-314 -428h157q49 0 71 12.5t43 49.5l-26 -106h-359l316 429h-161q-30 0 -57 -16.5t-35 -31.5l44 91h321z" />
    <glyph glyph-name="florin" unicode="&#x192;" horiz-adv-x="519" 
d="M499 601q-19 27 -71 27q-42 0 -71 -63q-13 -31 -52 -169h77l-9 -46l-79 -1l-62 -236q-25 -95 -52 -150t-63.5 -80t-90.5 -25q-30 0 -76 17l29 67q7 -12 26.5 -22t37.5 -10q34 0 58 42q19 35 46 130l71 267h-72l9 47h74q25 100 53.5 162t68 93t95.5 31q45 0 84 -17z" />
    <glyph glyph-name="Ohorn" unicode="&#x1a0;" horiz-adv-x="664" 
d="M589 615q58 -67 58 -180q0 -112 -50 -216.5t-137 -169.5t-191 -65q-100 0 -157.5 66.5t-57.5 180.5q0 115 50.5 219.5t137 168t189.5 63.5q51 0 94 -19q40 1 66 18t47 54h35q-25 -93 -84 -120zM421 93q65 59 103 153t38 194q0 88 -38.5 141t-106.5 53q-74 0 -138 -59.5
t-102 -154.5t-38 -195q0 -88 38 -139.5t104 -51.5q75 0 140 59z" />
    <glyph glyph-name="ohorn" unicode="&#x1a1;" horiz-adv-x="478" 
d="M423 402q20 -43 20 -99q0 -81 -36 -154.5t-97 -118.5t-131 -45q-74 0 -113.5 51t-39.5 131q0 79 36 152.5t97 119.5t130 46q52 0 89 -27q40 1 66.5 18.5t47.5 53.5h35q-30 -107 -104 -128zM278 77q41 45 65 111.5t24 125.5q0 54 -22 89t-65 35q-49 0 -90 -45t-65 -111
t-24 -126q0 -53 22 -88.5t65 -35.5q49 0 90 45z" />
    <glyph glyph-name="Uhorn" unicode="&#x1af;" horiz-adv-x="634" 
d="M697 637.5q-33 -28.5 -76 -34.5q-1 -1 -1 -3l-80 -377q-27 -128 -95 -183t-191 -55q-181 0 -181 152q0 44 12 99l80 367q2 12 2 19q0 40 -33 44h172q-15 -2 -25 -9q-28 -17 -35 -54l-79 -365q-12 -55 -12 -89q0 -111 124 -111q157 0 194 178l79 381q3 14 3 24
q0 41 -30 45h98q31 5 52 22t39 48h35q-19 -70 -52 -98.5z" />
    <glyph glyph-name="uhorn" unicode="&#x1b0;" horiz-adv-x="500" 
d="M387 87q-4 -19 -4 -27q0 -34 31 -38l7 -1l-125 -36l20 102q-29 -43 -82 -72t-102 -29q-91 0 -91 89q0 29 6 57l50 240q5 28 5 34q0 37 -33 44l-5 1l132 35q-2 -12 -37 -172l-36 -164q-6 -28 -6 -52q0 -62 53 -62q33 0 69 24t63.5 64t37.5 84l35 164q5 25 5 38
q0 33 -34 40l-5 1l133 35l-6 -26q27 6 46 22.5t36 45.5h35q-20 -72 -54 -100t-77 -33z" />
    <glyph glyph-name="caron" unicode="&#x2c7;" horiz-adv-x="463" 
d="M428 705l-166 -182l-96 182l115 -85z" />
    <glyph glyph-name="dotaccent" unicode="&#x2d9;" horiz-adv-x="463" 
d="M362.5 584.5q-14.5 -14.5 -37.5 -14.5q-49 0 -49 48q0 22 15 37t38 15q48 0 48 -49q0 -22 -14.5 -36.5z" />
    <glyph glyph-name="ring" unicode="&#x2da;" horiz-adv-x="463" 
d="M389 549.5q-25 -25.5 -64 -25.5q-41 0 -65.5 25.5t-24.5 64.5t24.5 64.5t65.5 25.5q39 0 64 -25.5t25 -64.5t-25 -64.5zM364 654q-15 16 -39 16q-25 0 -40.5 -16t-15.5 -40t16 -40.5t40 -16.5t39 16.5t15 40.5t-15 40z" />
    <glyph glyph-name="ogonek" unicode="&#x2db;" horiz-adv-x="463" 
d="M189 -182q-66 0 -66 61q0 64 74 126h42q-53 -61 -53 -101q0 -18 13.5 -28.5t41.5 -10.5q24 0 59 13q-42 -60 -111 -60z" />
    <glyph glyph-name="hungarumlaut" unicode="&#x2dd;" horiz-adv-x="463" 
d="M326 681l-216 -165l103 165h113zM486 681l-215 -165l103 165h112z" />
    <glyph glyph-name="gravecomb" unicode="&#x300;" horiz-adv-x="0" 
d="M-74 516l-159 147h115z" />
    <glyph glyph-name="acutecomb" unicode="&#x301;" horiz-adv-x="0" 
d="M5 663l-226 -147l107 147h119z" />
    <glyph glyph-name="uni0302" unicode="&#x302;" horiz-adv-x="0" 
d="M-21 518l-116 84l-147 -84l166 181z" />
    <glyph glyph-name="tildecomb" unicode="&#x303;" horiz-adv-x="0" 
d="M-22.5 588q-26.5 -29 -65.5 -29q-26 0 -66 25q-41 25 -61 25q-47 0 -66 -69q-6 14 -6 30q0 39 27 67.5t65 28.5q28 0 69 -25t60 -25q47 0 65 70q5 -17 5 -30q0 -39 -26.5 -68z" />
    <glyph glyph-name="uni0306" unicode="&#x306;" horiz-adv-x="0" 
d="M-79 590q-38 -36 -83 -36q-37 0 -60 25.5t-23 68.5q0 17 5 40q6 -34 31 -53.5t60 -19.5q77 0 120 73q-12 -62 -50 -98z" />
    <glyph glyph-name="hookabovecomb" unicode="&#x309;" horiz-adv-x="0" 
d="M-157.5 676.5q-17.5 -16.5 -47.5 -30.5q-9 -4 -16 -8t-8 -9v-4q0 -15 10 -22q-6 -9 -18 -9q-19 0 -28.5 11t-6.5 28q2 13 12.5 21.5t30.5 19.5q17 9 27 16.5t11 17.5q1 3 1 10q0 14 -9.5 22.5t-26.5 8.5q-19 0 -38 -11q-20 -13 -33 -37l-10 2l10 58q17 10 39.5 16t44.5 6
q33 0 56 -17q17 -13 17 -39q0 -34 -17.5 -50.5z" />
    <glyph glyph-name="uni031B" unicode="&#x31b;" horiz-adv-x="0" 
d="M-131 572q-17 -61 -44.5 -90.5t-55.5 -36.5t-63 -7l10 62q42 0 69 17.5t49 54.5h35z" />
    <glyph glyph-name="dotbelowcomb" unicode="&#x323;" horiz-adv-x="0" 
d="M-273.5 -173.5q-14.5 -14.5 -37.5 -14.5q-49 0 -49 48q0 22 15 37t38 15q48 0 48 -49q0 -22 -14.5 -36.5z" />
    <glyph glyph-name="uni1EA0" unicode="&#x1ea0;" 
d="M433 0q9 2 15 9q17 18 17 59q0 14 -2 32l-13 103h-247l-61 -95q-31 -50 -31 -77q0 -26 21 -31h-147q9 5 20 15q31 31 70 90l389 588l80 -590q12 -91 46 -103h-157zM444 252l-33 275l-177 -275h210zM294.5 -173.5q-14.5 -14.5 -37.5 -14.5q-49 0 -49 48q0 22 15 37t38 15
q48 0 48 -49q0 -22 -14.5 -36.5z" />
    <glyph glyph-name="uni1EA1" unicode="&#x1ea1;" horiz-adv-x="493" 
d="M387 133q-11 -52 -11 -68q0 -33 35 -44l7 -2l-130 -34l22 113q-30 -50 -80.5 -81.5t-97.5 -31.5q-51 0 -79 36t-28 99q0 88 42 170.5t109.5 134t139.5 51.5q12 0 44 -5q34 -6 43 -6q27 0 62 21zM310 433q-53 0 -101.5 -46.5t-77.5 -116t-29 -133.5q0 -97 66 -97
q36 0 77 34.5t65 87.5q16 34 35.5 111t19.5 107q0 53 -55 53zM180.5 -173.5q-14.5 -14.5 -37.5 -14.5q-49 0 -49 48q0 22 15 37t38 15q48 0 48 -49q0 -22 -14.5 -36.5z" />
    <glyph glyph-name="uni1EA2" unicode="&#x1ea2;" 
d="M433 0q9 2 15 9q17 18 17 59q0 14 -2 32l-13 103h-247l-61 -95q-31 -50 -31 -77q0 -26 21 -31h-147q9 5 20 15q31 31 70 90l389 588l80 -590q12 -91 46 -103h-157zM444 252l-33 275l-177 -275h210zM575.5 829.5q-17.5 -16.5 -47.5 -30.5q-9 -4 -16 -8t-8 -9v-4
q0 -15 10 -22q-6 -9 -18 -9q-19 0 -28.5 11t-6.5 28q2 13 12.5 21.5t30.5 19.5q17 9 27 16.5t11 17.5q1 3 1 10q0 14 -9.5 22.5t-26.5 8.5q-19 0 -38 -11q-20 -13 -33 -37l-10 2l10 58q17 10 39.5 16t44.5 6q33 0 56 -17q17 -13 17 -39q0 -34 -17.5 -50.5z" />
    <glyph glyph-name="uni1EA3" unicode="&#x1ea3;" horiz-adv-x="493" 
d="M387 133q-11 -52 -11 -68q0 -33 35 -44l7 -2l-130 -34l22 113q-30 -50 -80.5 -81.5t-97.5 -31.5q-51 0 -79 36t-28 99q0 88 42 170.5t109.5 134t139.5 51.5q12 0 44 -5q34 -6 43 -6q27 0 62 21zM310 433q-53 0 -101.5 -46.5t-77.5 -116t-29 -133.5q0 -97 66 -97
q36 0 77 34.5t65 87.5q16 34 35.5 111t19.5 107q0 53 -55 53zM458.5 636.5q-17.5 -16.5 -47.5 -30.5q-9 -4 -16 -8t-8 -9v-4q0 -15 10 -22q-6 -9 -18 -9q-19 0 -28.5 11t-6.5 28q2 13 12.5 21.5t30.5 19.5q17 9 27 16.5t11 17.5q1 3 1 10q0 14 -9.5 22.5t-26.5 8.5
q-19 0 -38 -11q-20 -13 -33 -37l-10 2l10 58q17 10 39.5 16t44.5 6q33 0 56 -17q17 -13 17 -39q0 -34 -17.5 -50.5z" />
    <glyph glyph-name="uni1EA4" unicode="&#x1ea4;" 
d="M433 0q9 2 15 9q17 18 17 59q0 14 -2 32l-13 103h-247l-61 -95q-31 -50 -31 -77q0 -26 21 -31h-147q9 5 20 15q31 31 70 90l389 588l80 -590q12 -91 46 -103h-157zM444 252l-33 275l-177 -275h210zM593 711l-116 84l-147 -84l166 181zM841 905l-226 -147l107 147h119z
" />
    <glyph glyph-name="uni1EA5" unicode="&#x1ea5;" horiz-adv-x="493" 
d="M387 133q-11 -52 -11 -68q0 -33 35 -44l7 -2l-130 -34l22 113q-30 -50 -80.5 -81.5t-97.5 -31.5q-51 0 -79 36t-28 99q0 88 42 170.5t109.5 134t139.5 51.5q12 0 44 -5q34 -6 43 -6q27 0 62 21zM310 433q-53 0 -101.5 -46.5t-77.5 -116t-29 -133.5q0 -97 66 -97
q36 0 77 34.5t65 87.5q16 34 35.5 111t19.5 107q0 53 -55 53zM476 518l-116 84l-147 -84l166 181zM724 712l-226 -147l107 147h119z" />
    <glyph glyph-name="uni1EA6" unicode="&#x1ea6;" 
d="M433 0q9 2 15 9q17 18 17 59q0 14 -2 32l-13 103h-247l-61 -95q-31 -50 -31 -77q0 -26 21 -31h-147q9 5 20 15q31 31 70 90l389 588l80 -590q12 -91 46 -103h-157zM444 252l-33 275l-177 -275h210zM593 711l-116 84l-147 -84l166 181zM613 841l-159 147h115z" />
    <glyph glyph-name="uni1EA7" unicode="&#x1ea7;" horiz-adv-x="493" 
d="M387 133q-11 -52 -11 -68q0 -33 35 -44l7 -2l-130 -34l22 113q-30 -50 -80.5 -81.5t-97.5 -31.5q-51 0 -79 36t-28 99q0 88 42 170.5t109.5 134t139.5 51.5q12 0 44 -5q34 -6 43 -6q27 0 62 21zM310 433q-53 0 -101.5 -46.5t-77.5 -116t-29 -133.5q0 -97 66 -97
q36 0 77 34.5t65 87.5q16 34 35.5 111t19.5 107q0 53 -55 53zM476 518l-116 84l-147 -84l166 181zM496 648l-159 147h115z" />
    <glyph glyph-name="uni1EA8" unicode="&#x1ea8;" 
d="M433 0q9 2 15 9q17 18 17 59q0 14 -2 32l-13 103h-247l-61 -95q-31 -50 -31 -77q0 -26 21 -31h-147q9 5 20 15q31 31 70 90l389 588l80 -590q12 -91 46 -103h-157zM444 252l-33 275l-177 -275h210zM593 711l-116 84l-147 -84l166 181zM703.5 899.5
q-17.5 -16.5 -47.5 -30.5q-9 -4 -16 -8t-8 -9v-4q0 -15 10 -22q-6 -9 -18 -9q-19 0 -28.5 11t-6.5 28q2 13 12.5 21.5t30.5 19.5q17 9 27 16.5t11 17.5q1 3 1 10q0 14 -9.5 22.5t-26.5 8.5q-19 0 -38 -11q-20 -13 -33 -37l-10 2l10 58q17 10 39.5 16t44.5 6q33 0 56 -17
q17 -13 17 -39q0 -34 -17.5 -50.5z" />
    <glyph glyph-name="uni1EA9" unicode="&#x1ea9;" horiz-adv-x="493" 
d="M387 133q-11 -52 -11 -68q0 -33 35 -44l7 -2l-130 -34l22 113q-30 -50 -80.5 -81.5t-97.5 -31.5q-51 0 -79 36t-28 99q0 88 42 170.5t109.5 134t139.5 51.5q12 0 44 -5q34 -6 43 -6q27 0 62 21zM310 433q-53 0 -101.5 -46.5t-77.5 -116t-29 -133.5q0 -97 66 -97
q36 0 77 34.5t65 87.5q16 34 35.5 111t19.5 107q0 53 -55 53zM476 518l-116 84l-147 -84l166 181zM586.5 706.5q-17.5 -16.5 -47.5 -30.5q-9 -4 -16 -8t-8 -9v-4q0 -15 10 -22q-6 -9 -18 -9q-19 0 -28.5 11t-6.5 28q2 13 12.5 21.5t30.5 19.5q17 9 27 16.5t11 17.5q1 3 1 10
q0 14 -9.5 22.5t-26.5 8.5q-19 0 -38 -11q-20 -13 -33 -37l-10 2l10 58q17 10 39.5 16t44.5 6q33 0 56 -17q17 -13 17 -39q0 -34 -17.5 -50.5z" />
    <glyph glyph-name="uni1EAA" unicode="&#x1eaa;" 
d="M433 0q9 2 15 9q17 18 17 59q0 14 -2 32l-13 103h-247l-61 -95q-31 -50 -31 -77q0 -26 21 -31h-147q9 5 20 15q31 31 70 90l389 588l80 -590q12 -91 46 -103h-157zM444 252l-33 275l-177 -275h210zM593 711l-116 84l-147 -84l166 181zM658.5 923q-26.5 -29 -65.5 -29
q-26 0 -66 25q-41 25 -61 25q-47 0 -66 -69q-6 14 -6 30q0 39 27 67.5t65 28.5q28 0 69 -25t60 -25q47 0 65 70q5 -17 5 -30q0 -39 -26.5 -68z" />
    <glyph glyph-name="uni1EAB" unicode="&#x1eab;" horiz-adv-x="493" 
d="M387 133q-11 -52 -11 -68q0 -33 35 -44l7 -2l-130 -34l22 113q-30 -50 -80.5 -81.5t-97.5 -31.5q-51 0 -79 36t-28 99q0 88 42 170.5t109.5 134t139.5 51.5q12 0 44 -5q34 -6 43 -6q27 0 62 21zM310 433q-53 0 -101.5 -46.5t-77.5 -116t-29 -133.5q0 -97 66 -97
q36 0 77 34.5t65 87.5q16 34 35.5 111t19.5 107q0 53 -55 53zM476 518l-116 84l-147 -84l166 181zM541.5 730q-26.5 -29 -65.5 -29q-26 0 -66 25q-41 25 -61 25q-47 0 -66 -69q-6 14 -6 30q0 39 27 67.5t65 28.5q28 0 69 -25t60 -25q47 0 65 70q5 -17 5 -30q0 -39 -26.5 -68
z" />
    <glyph glyph-name="uni1EAC" unicode="&#x1eac;" 
d="M433 0q9 2 15 9q17 18 17 59q0 14 -2 32l-13 103h-247l-61 -95q-31 -50 -31 -77q0 -26 21 -31h-147q9 5 20 15q31 31 70 90l389 588l80 -590q12 -91 46 -103h-157zM444 252l-33 275l-177 -275h210zM294.5 -173.5q-14.5 -14.5 -37.5 -14.5q-49 0 -49 48q0 22 15 37t38 15
q48 0 48 -49q0 -22 -14.5 -36.5zM593 711l-116 84l-147 -84l166 181z" />
    <glyph glyph-name="uni1EAD" unicode="&#x1ead;" horiz-adv-x="493" 
d="M387 133q-11 -52 -11 -68q0 -33 35 -44l7 -2l-130 -34l22 113q-30 -50 -80.5 -81.5t-97.5 -31.5q-51 0 -79 36t-28 99q0 88 42 170.5t109.5 134t139.5 51.5q12 0 44 -5q34 -6 43 -6q27 0 62 21zM310 433q-53 0 -101.5 -46.5t-77.5 -116t-29 -133.5q0 -97 66 -97
q36 0 77 34.5t65 87.5q16 34 35.5 111t19.5 107q0 53 -55 53zM180.5 -173.5q-14.5 -14.5 -37.5 -14.5q-49 0 -49 48q0 22 15 37t38 15q48 0 48 -49q0 -22 -14.5 -36.5zM476 518l-116 84l-147 -84l166 181z" />
    <glyph glyph-name="uni1EAE" unicode="&#x1eae;" 
d="M433 0q9 2 15 9q17 18 17 59q0 14 -2 32l-13 103h-247l-61 -95q-31 -50 -31 -77q0 -26 21 -31h-147q9 5 20 15q31 31 70 90l389 588l80 -590q12 -91 46 -103h-157zM444 252l-33 275l-177 -275h210zM560 783q-38 -36 -83 -36q-37 0 -60 25.5t-23 68.5q0 17 5 40
q6 -34 31 -53.5t60 -19.5q77 0 120 73q-12 -62 -50 -98zM717 1027l-226 -147l107 147h119z" />
    <glyph glyph-name="uni1EAF" unicode="&#x1eaf;" horiz-adv-x="493" 
d="M387 133q-11 -52 -11 -68q0 -33 35 -44l7 -2l-130 -34l22 113q-30 -50 -80.5 -81.5t-97.5 -31.5q-51 0 -79 36t-28 99q0 88 42 170.5t109.5 134t139.5 51.5q12 0 44 -5q34 -6 43 -6q27 0 62 21zM310 433q-53 0 -101.5 -46.5t-77.5 -116t-29 -133.5q0 -97 66 -97
q36 0 77 34.5t65 87.5q16 34 35.5 111t19.5 107q0 53 -55 53zM443 590q-38 -36 -83 -36q-37 0 -60 25.5t-23 68.5q0 17 5 40q6 -34 31 -53.5t60 -19.5q77 0 120 73q-12 -62 -50 -98zM600 834l-226 -147l107 147h119z" />
    <glyph glyph-name="uni1EB0" unicode="&#x1eb0;" 
d="M433 0q9 2 15 9q17 18 17 59q0 14 -2 32l-13 103h-247l-61 -95q-31 -50 -31 -77q0 -26 21 -31h-147q9 5 20 15q31 31 70 90l389 588l80 -590q12 -91 46 -103h-157zM444 252l-33 275l-177 -275h210zM560 783q-38 -36 -83 -36q-37 0 -60 25.5t-23 68.5q0 17 5 40
q6 -34 31 -53.5t60 -19.5q77 0 120 73q-12 -62 -50 -98zM516 869l-159 147h115z" />
    <glyph glyph-name="uni1EB1" unicode="&#x1eb1;" horiz-adv-x="493" 
d="M387 133q-11 -52 -11 -68q0 -33 35 -44l7 -2l-130 -34l22 113q-30 -50 -80.5 -81.5t-97.5 -31.5q-51 0 -79 36t-28 99q0 88 42 170.5t109.5 134t139.5 51.5q12 0 44 -5q34 -6 43 -6q27 0 62 21zM310 433q-53 0 -101.5 -46.5t-77.5 -116t-29 -133.5q0 -97 66 -97
q36 0 77 34.5t65 87.5q16 34 35.5 111t19.5 107q0 53 -55 53zM443 590q-38 -36 -83 -36q-37 0 -60 25.5t-23 68.5q0 17 5 40q6 -34 31 -53.5t60 -19.5q77 0 120 73q-12 -62 -50 -98zM399 676l-159 147h115z" />
    <glyph glyph-name="uni1EB2" unicode="&#x1eb2;" 
d="M433 0q9 2 15 9q17 18 17 59q0 14 -2 32l-13 103h-247l-61 -95q-31 -50 -31 -77q0 -26 21 -31h-147q9 5 20 15q31 31 70 90l389 588l80 -590q12 -91 46 -103h-157zM444 252l-33 275l-177 -275h210zM560 783q-38 -36 -83 -36q-37 0 -60 25.5t-23 68.5q0 17 5 40
q6 -34 31 -53.5t60 -19.5q77 0 120 73q-12 -62 -50 -98zM580.5 959.5q-17.5 -16.5 -47.5 -30.5q-9 -4 -16 -8t-8 -9v-4q0 -15 10 -22q-6 -9 -18 -9q-19 0 -28.5 11t-6.5 28q2 13 12.5 21.5t30.5 19.5q17 9 27 16.5t11 17.5q1 3 1 10q0 14 -9.5 22.5t-26.5 8.5q-19 0 -38 -11
q-20 -13 -33 -37l-10 2l10 58q17 10 39.5 16t44.5 6q33 0 56 -17q17 -13 17 -39q0 -34 -17.5 -50.5z" />
    <glyph glyph-name="uni1EB3" unicode="&#x1eb3;" horiz-adv-x="493" 
d="M387 133q-11 -52 -11 -68q0 -33 35 -44l7 -2l-130 -34l22 113q-30 -50 -80.5 -81.5t-97.5 -31.5q-51 0 -79 36t-28 99q0 88 42 170.5t109.5 134t139.5 51.5q12 0 44 -5q34 -6 43 -6q27 0 62 21zM310 433q-53 0 -101.5 -46.5t-77.5 -116t-29 -133.5q0 -97 66 -97
q36 0 77 34.5t65 87.5q16 34 35.5 111t19.5 107q0 53 -55 53zM443 590q-38 -36 -83 -36q-37 0 -60 25.5t-23 68.5q0 17 5 40q6 -34 31 -53.5t60 -19.5q77 0 120 73q-12 -62 -50 -98zM463.5 766.5q-17.5 -16.5 -47.5 -30.5q-9 -4 -16 -8t-8 -9v-4q0 -15 10 -22q-6 -9 -18 -9
q-19 0 -28.5 11t-6.5 28q2 13 12.5 21.5t30.5 19.5q17 9 27 16.5t11 17.5q1 3 1 10q0 14 -9.5 22.5t-26.5 8.5q-19 0 -38 -11q-20 -13 -33 -37l-10 2l10 58q17 10 39.5 16t44.5 6q33 0 56 -17q17 -13 17 -39q0 -34 -17.5 -50.5z" />
    <glyph glyph-name="uni1EB4" unicode="&#x1eb4;" 
d="M433 0q9 2 15 9q17 18 17 59q0 14 -2 32l-13 103h-247l-61 -95q-31 -50 -31 -77q0 -26 21 -31h-147q9 5 20 15q31 31 70 90l389 588l80 -590q12 -91 46 -103h-157zM444 252l-33 275l-177 -275h210zM560 783q-38 -36 -83 -36q-37 0 -60 25.5t-23 68.5q0 17 5 40
q6 -34 31 -53.5t60 -19.5q77 0 120 73q-12 -62 -50 -98zM631.5 937q-26.5 -29 -65.5 -29q-26 0 -66 25q-41 25 -61 25q-47 0 -66 -69q-6 14 -6 30q0 39 27 67.5t65 28.5q28 0 69 -25t60 -25q47 0 65 70q5 -17 5 -30q0 -39 -26.5 -68z" />
    <glyph glyph-name="uni1EB5" unicode="&#x1eb5;" horiz-adv-x="493" 
d="M387 133q-11 -52 -11 -68q0 -33 35 -44l7 -2l-130 -34l22 113q-30 -50 -80.5 -81.5t-97.5 -31.5q-51 0 -79 36t-28 99q0 88 42 170.5t109.5 134t139.5 51.5q12 0 44 -5q34 -6 43 -6q27 0 62 21zM310 433q-53 0 -101.5 -46.5t-77.5 -116t-29 -133.5q0 -97 66 -97
q36 0 77 34.5t65 87.5q16 34 35.5 111t19.5 107q0 53 -55 53zM443 590q-38 -36 -83 -36q-37 0 -60 25.5t-23 68.5q0 17 5 40q6 -34 31 -53.5t60 -19.5q77 0 120 73q-12 -62 -50 -98zM514.5 744q-26.5 -29 -65.5 -29q-26 0 -66 25q-41 25 -61 25q-47 0 -66 -69q-6 14 -6 30
q0 39 27 67.5t65 28.5q28 0 69 -25t60 -25q47 0 65 70q5 -17 5 -30q0 -39 -26.5 -68z" />
    <glyph glyph-name="uni1EB6" unicode="&#x1eb6;" 
d="M433 0q9 2 15 9q17 18 17 59q0 14 -2 32l-13 103h-247l-61 -95q-31 -50 -31 -77q0 -26 21 -31h-147q9 5 20 15q31 31 70 90l389 588l80 -590q12 -91 46 -103h-157zM444 252l-33 275l-177 -275h210zM294.5 -173.5q-14.5 -14.5 -37.5 -14.5q-49 0 -49 48q0 22 15 37t38 15
q48 0 48 -49q0 -22 -14.5 -36.5zM560 783q-38 -36 -83 -36q-37 0 -60 25.5t-23 68.5q0 17 5 40q6 -34 31 -53.5t60 -19.5q77 0 120 73q-12 -62 -50 -98z" />
    <glyph glyph-name="uni1EB7" unicode="&#x1eb7;" horiz-adv-x="493" 
d="M387 133q-11 -52 -11 -68q0 -33 35 -44l7 -2l-130 -34l22 113q-30 -50 -80.5 -81.5t-97.5 -31.5q-51 0 -79 36t-28 99q0 88 42 170.5t109.5 134t139.5 51.5q12 0 44 -5q34 -6 43 -6q27 0 62 21zM310 433q-53 0 -101.5 -46.5t-77.5 -116t-29 -133.5q0 -97 66 -97
q36 0 77 34.5t65 87.5q16 34 35.5 111t19.5 107q0 53 -55 53zM180.5 -173.5q-14.5 -14.5 -37.5 -14.5q-49 0 -49 48q0 22 15 37t38 15q48 0 48 -49q0 -22 -14.5 -36.5zM443 590q-38 -36 -83 -36q-37 0 -60 25.5t-23 68.5q0 17 5 40q6 -34 31 -53.5t60 -19.5q77 0 120 73
q-12 -62 -50 -98z" />
    <glyph glyph-name="uni1EB8" unicode="&#x1eb8;" horiz-adv-x="533" 
d="M558 666l-26 -132q-3 83 -89 83h-179l-52 -250h152q74 0 83 38l-25 -127q-1 40 -69 40h-151l-56 -268h180q57 0 88 21t55 75l-31 -146h-438q15 3 29 12q31 23 41 71l108 504q4 17 4 28q0 50 -36 51h412zM246.5 -173.5q-14.5 -14.5 -37.5 -14.5q-49 0 -49 48q0 22 15 37
t38 15q48 0 48 -49q0 -22 -14.5 -36.5z" />
    <glyph glyph-name="uni1EB9" unicode="&#x1eb9;" horiz-adv-x="433" 
d="M377.5 294q-48.5 -49 -124 -78.5t-151.5 -31.5q-1 -7 -1 -24q0 -53 27 -87t76 -34q41 0 87 24t77 62q-10 -40 -41 -72.5t-73.5 -51t-85.5 -18.5q-65 0 -104.5 43t-39.5 118q0 83 44.5 162t114.5 129t143 50q43 0 71.5 -24t28.5 -63q0 -55 -48.5 -104zM305 438
q-37 0 -78.5 -28.5t-75 -77t-46.5 -106.5q58 2 117.5 24.5t98.5 58.5t39 78q0 51 -55 51zM177.5 -173.5q-14.5 -14.5 -37.5 -14.5q-49 0 -49 48q0 22 15 37t38 15q48 0 48 -49q0 -22 -14.5 -36.5z" />
    <glyph glyph-name="uni1EBA" unicode="&#x1eba;" horiz-adv-x="533" 
d="M558 666l-26 -132q-3 83 -89 83h-179l-52 -250h152q74 0 83 38l-25 -127q-1 40 -69 40h-151l-56 -268h180q57 0 88 21t55 75l-31 -146h-438q15 3 29 12q31 23 41 71l108 504q4 17 4 28q0 50 -36 51h412zM484.5 836.5q-17.5 -16.5 -47.5 -30.5q-9 -4 -16 -8t-8 -9v-4
q0 -15 10 -22q-6 -9 -18 -9q-19 0 -28.5 11t-6.5 28q2 13 12.5 21.5t30.5 19.5q17 9 27 16.5t11 17.5q1 3 1 10q0 14 -9.5 22.5t-26.5 8.5q-19 0 -38 -11q-20 -13 -33 -37l-10 2l10 58q17 10 39.5 16t44.5 6q33 0 56 -17q17 -13 17 -39q0 -34 -17.5 -50.5z" />
    <glyph glyph-name="uni1EBB" unicode="&#x1ebb;" horiz-adv-x="433" 
d="M377.5 294q-48.5 -49 -124 -78.5t-151.5 -31.5q-1 -7 -1 -24q0 -53 27 -87t76 -34q41 0 87 24t77 62q-10 -40 -41 -72.5t-73.5 -51t-85.5 -18.5q-65 0 -104.5 43t-39.5 118q0 83 44.5 162t114.5 129t143 50q43 0 71.5 -24t28.5 -63q0 -55 -48.5 -104zM305 438
q-37 0 -78.5 -28.5t-75 -77t-46.5 -106.5q58 2 117.5 24.5t98.5 58.5t39 78q0 51 -55 51zM431.5 636.5q-17.5 -16.5 -47.5 -30.5q-9 -4 -16 -8t-8 -9v-4q0 -15 10 -22q-6 -9 -18 -9q-19 0 -28.5 11t-6.5 28q2 13 12.5 21.5t30.5 19.5q17 9 27 16.5t11 17.5q1 3 1 10
q0 14 -9.5 22.5t-26.5 8.5q-19 0 -38 -11q-20 -13 -33 -37l-10 2l10 58q17 10 39.5 16t44.5 6q33 0 56 -17q17 -13 17 -39q0 -34 -17.5 -50.5z" />
    <glyph glyph-name="uni1EBC" unicode="&#x1ebc;" horiz-adv-x="533" 
d="M558 666l-26 -132q-3 83 -89 83h-179l-52 -250h152q74 0 83 38l-25 -127q-1 40 -69 40h-151l-56 -268h180q57 0 88 21t55 75l-31 -146h-438q15 3 29 12q31 23 41 71l108 504q4 17 4 28q0 50 -36 51h412zM513.5 788q-26.5 -29 -65.5 -29q-26 0 -66 25q-41 25 -61 25
q-47 0 -66 -69q-6 14 -6 30q0 39 27 67.5t65 28.5q28 0 69 -25t60 -25q47 0 65 70q5 -17 5 -30q0 -39 -26.5 -68z" />
    <glyph glyph-name="uni1EBD" unicode="&#x1ebd;" horiz-adv-x="433" 
d="M377.5 294q-48.5 -49 -124 -78.5t-151.5 -31.5q-1 -7 -1 -24q0 -53 27 -87t76 -34q41 0 87 24t77 62q-10 -40 -41 -72.5t-73.5 -51t-85.5 -18.5q-65 0 -104.5 43t-39.5 118q0 83 44.5 162t114.5 129t143 50q43 0 71.5 -24t28.5 -63q0 -55 -48.5 -104zM305 438
q-37 0 -78.5 -28.5t-75 -77t-46.5 -106.5q58 2 117.5 24.5t98.5 58.5t39 78q0 51 -55 51zM460.5 588q-26.5 -29 -65.5 -29q-26 0 -66 25q-41 25 -61 25q-47 0 -66 -69q-6 14 -6 30q0 39 27 67.5t65 28.5q28 0 69 -25t60 -25q47 0 65 70q5 -17 5 -30q0 -39 -26.5 -68z" />
    <glyph glyph-name="uni1EBE" unicode="&#x1ebe;" horiz-adv-x="533" 
d="M558 666l-26 -132q-3 83 -89 83h-179l-52 -250h152q74 0 83 38l-25 -127q-1 40 -69 40h-151l-56 -268h180q57 0 88 21t55 75l-31 -146h-438q15 3 29 12q31 23 41 71l108 504q4 17 4 28q0 50 -36 51h412zM502 718l-116 84l-147 -84l166 181zM750 912l-226 -147l107 147
h119z" />
    <glyph glyph-name="uni1EBF" unicode="&#x1ebf;" horiz-adv-x="433" 
d="M377.5 294q-48.5 -49 -124 -78.5t-151.5 -31.5q-1 -7 -1 -24q0 -53 27 -87t76 -34q41 0 87 24t77 62q-10 -40 -41 -72.5t-73.5 -51t-85.5 -18.5q-65 0 -104.5 43t-39.5 118q0 83 44.5 162t114.5 129t143 50q43 0 71.5 -24t28.5 -63q0 -55 -48.5 -104zM305 438
q-37 0 -78.5 -28.5t-75 -77t-46.5 -106.5q58 2 117.5 24.5t98.5 58.5t39 78q0 51 -55 51zM449 518l-116 84l-147 -84l166 181zM697 712l-226 -147l107 147h119z" />
    <glyph glyph-name="uni1EC0" unicode="&#x1ec0;" horiz-adv-x="533" 
d="M558 666l-26 -132q-3 83 -89 83h-179l-52 -250h152q74 0 83 38l-25 -127q-1 40 -69 40h-151l-56 -268h180q57 0 88 21t55 75l-31 -146h-438q15 3 29 12q31 23 41 71l108 504q4 17 4 28q0 50 -36 51h412zM502 718l-116 84l-147 -84l166 181zM522 848l-159 147h115z" />
    <glyph glyph-name="uni1EC1" unicode="&#x1ec1;" horiz-adv-x="433" 
d="M377.5 294q-48.5 -49 -124 -78.5t-151.5 -31.5q-1 -7 -1 -24q0 -53 27 -87t76 -34q41 0 87 24t77 62q-10 -40 -41 -72.5t-73.5 -51t-85.5 -18.5q-65 0 -104.5 43t-39.5 118q0 83 44.5 162t114.5 129t143 50q43 0 71.5 -24t28.5 -63q0 -55 -48.5 -104zM305 438
q-37 0 -78.5 -28.5t-75 -77t-46.5 -106.5q58 2 117.5 24.5t98.5 58.5t39 78q0 51 -55 51zM449 518l-116 84l-147 -84l166 181zM469 648l-159 147h115z" />
    <glyph glyph-name="uni1EC2" unicode="&#x1ec2;" horiz-adv-x="533" 
d="M558 666l-26 -132q-3 83 -89 83h-179l-52 -250h152q74 0 83 38l-25 -127q-1 40 -69 40h-151l-56 -268h180q57 0 88 21t55 75l-31 -146h-438q15 3 29 12q31 23 41 71l108 504q4 17 4 28q0 50 -36 51h412zM502 718l-116 84l-147 -84l166 181zM612.5 906.5
q-17.5 -16.5 -47.5 -30.5q-9 -4 -16 -8t-8 -9v-4q0 -15 10 -22q-6 -9 -18 -9q-19 0 -28.5 11t-6.5 28q2 13 12.5 21.5t30.5 19.5q17 9 27 16.5t11 17.5q1 3 1 10q0 14 -9.5 22.5t-26.5 8.5q-19 0 -38 -11q-20 -13 -33 -37l-10 2l10 58q17 10 39.5 16t44.5 6q33 0 56 -17
q17 -13 17 -39q0 -34 -17.5 -50.5z" />
    <glyph glyph-name="uni1EC3" unicode="&#x1ec3;" horiz-adv-x="433" 
d="M377.5 294q-48.5 -49 -124 -78.5t-151.5 -31.5q-1 -7 -1 -24q0 -53 27 -87t76 -34q41 0 87 24t77 62q-10 -40 -41 -72.5t-73.5 -51t-85.5 -18.5q-65 0 -104.5 43t-39.5 118q0 83 44.5 162t114.5 129t143 50q43 0 71.5 -24t28.5 -63q0 -55 -48.5 -104zM305 438
q-37 0 -78.5 -28.5t-75 -77t-46.5 -106.5q58 2 117.5 24.5t98.5 58.5t39 78q0 51 -55 51zM449 518l-116 84l-147 -84l166 181zM559.5 706.5q-17.5 -16.5 -47.5 -30.5q-9 -4 -16 -8t-8 -9v-4q0 -15 10 -22q-6 -9 -18 -9q-19 0 -28.5 11t-6.5 28q2 13 12.5 21.5t30.5 19.5
q17 9 27 16.5t11 17.5q1 3 1 10q0 14 -9.5 22.5t-26.5 8.5q-19 0 -38 -11q-20 -13 -33 -37l-10 2l10 58q17 10 39.5 16t44.5 6q33 0 56 -17q17 -13 17 -39q0 -34 -17.5 -50.5z" />
    <glyph glyph-name="uni1EC4" unicode="&#x1ec4;" horiz-adv-x="533" 
d="M558 666l-26 -132q-3 83 -89 83h-179l-52 -250h152q74 0 83 38l-25 -127q-1 40 -69 40h-151l-56 -268h180q57 0 88 21t55 75l-31 -146h-438q15 3 29 12q31 23 41 71l108 504q4 17 4 28q0 50 -36 51h412zM502 718l-116 84l-147 -84l166 181zM567.5 930
q-26.5 -29 -65.5 -29q-26 0 -66 25q-41 25 -61 25q-47 0 -66 -69q-6 14 -6 30q0 39 27 67.5t65 28.5q28 0 69 -25t60 -25q47 0 65 70q5 -17 5 -30q0 -39 -26.5 -68z" />
    <glyph glyph-name="uni1EC5" unicode="&#x1ec5;" horiz-adv-x="433" 
d="M377.5 294q-48.5 -49 -124 -78.5t-151.5 -31.5q-1 -7 -1 -24q0 -53 27 -87t76 -34q41 0 87 24t77 62q-10 -40 -41 -72.5t-73.5 -51t-85.5 -18.5q-65 0 -104.5 43t-39.5 118q0 83 44.5 162t114.5 129t143 50q43 0 71.5 -24t28.5 -63q0 -55 -48.5 -104zM305 438
q-37 0 -78.5 -28.5t-75 -77t-46.5 -106.5q58 2 117.5 24.5t98.5 58.5t39 78q0 51 -55 51zM449 518l-116 84l-147 -84l166 181zM514.5 730q-26.5 -29 -65.5 -29q-26 0 -66 25q-41 25 -61 25q-47 0 -66 -69q-6 14 -6 30q0 39 27 67.5t65 28.5q28 0 69 -25t60 -25q47 0 65 70
q5 -17 5 -30q0 -39 -26.5 -68z" />
    <glyph glyph-name="uni1EC6" unicode="&#x1ec6;" horiz-adv-x="533" 
d="M558 666l-26 -132q-3 83 -89 83h-179l-52 -250h152q74 0 83 38l-25 -127q-1 40 -69 40h-151l-56 -268h180q57 0 88 21t55 75l-31 -146h-438q15 3 29 12q31 23 41 71l108 504q4 17 4 28q0 50 -36 51h412zM246.5 -173.5q-14.5 -14.5 -37.5 -14.5q-49 0 -49 48q0 22 15 37
t38 15q48 0 48 -49q0 -22 -14.5 -36.5zM502 718l-116 84l-147 -84l166 181z" />
    <glyph glyph-name="uni1EC7" unicode="&#x1ec7;" horiz-adv-x="433" 
d="M377.5 294q-48.5 -49 -124 -78.5t-151.5 -31.5q-1 -7 -1 -24q0 -53 27 -87t76 -34q41 0 87 24t77 62q-10 -40 -41 -72.5t-73.5 -51t-85.5 -18.5q-65 0 -104.5 43t-39.5 118q0 83 44.5 162t114.5 129t143 50q43 0 71.5 -24t28.5 -63q0 -55 -48.5 -104zM305 438
q-37 0 -78.5 -28.5t-75 -77t-46.5 -106.5q58 2 117.5 24.5t98.5 58.5t39 78q0 51 -55 51zM177.5 -173.5q-14.5 -14.5 -37.5 -14.5q-49 0 -49 48q0 22 15 37t38 15q48 0 48 -49q0 -22 -14.5 -36.5zM449 518l-116 84l-147 -84l166 181z" />
    <glyph glyph-name="uni1EC8" unicode="&#x1ec8;" horiz-adv-x="275" 
d="M315 666q-14 -3 -26 -12q-28 -19 -37 -63l-110 -515q-3 -13 -3 -29q0 -47 32 -47h-171q14 3 25 11q26 20 35 61l110 515q3 14 3 30q0 48 -31 49h173zM336.5 836.5q-17.5 -16.5 -47.5 -30.5q-9 -4 -16 -8t-8 -9v-4q0 -15 10 -22q-6 -9 -18 -9q-19 0 -28.5 11t-6.5 28
q2 13 12.5 21.5t30.5 19.5q17 9 27 16.5t11 17.5q1 3 1 10q0 14 -9.5 22.5t-26.5 8.5q-19 0 -38 -11q-20 -13 -33 -37l-10 2l10 58q17 10 39.5 16t44.5 6q33 0 56 -17q17 -13 17 -39q0 -34 -17.5 -50.5z" />
    <glyph glyph-name="uni1EC9" unicode="&#x1ec9;" horiz-adv-x="229" 
d="M201 486l-82 -377q-7 -29 -7 -60q0 -48 19 -49h-111l84 385q4 16 4 25q0 35 -35 40l-5 1zM286.5 636.5q-17.5 -16.5 -47.5 -30.5q-9 -4 -16 -8t-8 -9v-4q0 -15 10 -22q-6 -9 -18 -9q-19 0 -28.5 11t-6.5 28q2 13 12.5 21.5t30.5 19.5q17 9 27 16.5t11 17.5q1 3 1 10
q0 14 -9.5 22.5t-26.5 8.5q-19 0 -38 -11q-20 -13 -33 -37l-10 2l10 58q17 10 39.5 16t44.5 6q33 0 56 -17q17 -13 17 -39q0 -34 -17.5 -50.5z" />
    <glyph glyph-name="uni1ECA" unicode="&#x1eca;" horiz-adv-x="275" 
d="M315 666q-14 -3 -26 -12q-28 -19 -37 -63l-110 -515q-3 -13 -3 -29q0 -47 32 -47h-171q14 3 25 11q26 20 35 61l110 515q3 14 3 30q0 48 -31 49h173zM98.5 -173.5q-14.5 -14.5 -37.5 -14.5q-49 0 -49 48q0 22 15 37t38 15q48 0 48 -49q0 -22 -14.5 -36.5z" />
    <glyph glyph-name="uni1ECB" unicode="&#x1ecb;" horiz-adv-x="228" 
d="M217.5 595q-15.5 -16 -40.5 -16q-50 0 -50 49q0 24 16.5 40t40.5 16q49 0 49 -50q0 -23 -15.5 -39zM200 486l-81 -377q-7 -31 -7 -60q0 -47 18 -49h-110l84 385q3 14 3 25q0 35 -35 40l-5 1zM74.5 -173.5q-14.5 -14.5 -37.5 -14.5q-49 0 -49 48q0 22 15 37t38 15
q48 0 48 -49q0 -22 -14.5 -36.5z" />
    <glyph glyph-name="uni1ECC" unicode="&#x1ecc;" horiz-adv-x="664" 
d="M597 218.5q-50 -104.5 -137 -169.5t-191 -65q-100 0 -157.5 66.5t-57.5 180.5q0 115 50.5 219.5t137 168t189.5 63.5q101 0 158.5 -67.5t57.5 -179.5t-50 -216.5zM523.5 581q-38.5 53 -106.5 53q-74 0 -138 -59.5t-102 -154.5t-38 -195q0 -88 38 -139.5t104 -51.5
q75 0 140 59t103 153t38 194q0 88 -38.5 141zM292.5 -173.5q-14.5 -14.5 -37.5 -14.5q-49 0 -49 48q0 22 15 37t38 15q48 0 48 -49q0 -22 -14.5 -36.5z" />
    <glyph glyph-name="uni1ECD" unicode="&#x1ecd;" horiz-adv-x="478" 
d="M407 148.5q-36 -73.5 -97 -118.5t-131 -45q-74 0 -113.5 51t-39.5 131q0 79 36 152.5t97 119.5t130 46q74 0 114 -51t40 -131q0 -81 -36 -154.5zM345 403q-22 35 -65 35q-49 0 -90 -45t-65 -111t-24 -126q0 -53 22 -88.5t65 -35.5q49 0 90 45t65 111.5t24 125.5
q0 54 -22 89zM199.5 -173.5q-14.5 -14.5 -37.5 -14.5q-49 0 -49 48q0 22 15 37t38 15q48 0 48 -49q0 -22 -14.5 -36.5z" />
    <glyph glyph-name="uni1ECE" unicode="&#x1ece;" horiz-adv-x="664" 
d="M597 218.5q-50 -104.5 -137 -169.5t-191 -65q-100 0 -157.5 66.5t-57.5 180.5q0 115 50.5 219.5t137 168t189.5 63.5q101 0 158.5 -67.5t57.5 -179.5t-50 -216.5zM523.5 581q-38.5 53 -106.5 53q-74 0 -138 -59.5t-102 -154.5t-38 -195q0 -88 38 -139.5t104 -51.5
q75 0 140 59t103 153t38 194q0 88 -38.5 141zM566.5 836.5q-17.5 -16.5 -47.5 -30.5q-9 -4 -16 -8t-8 -9v-4q0 -15 10 -22q-6 -9 -18 -9q-19 0 -28.5 11t-6.5 28q2 13 12.5 21.5t30.5 19.5q17 9 27 16.5t11 17.5q1 3 1 10q0 14 -9.5 22.5t-26.5 8.5q-19 0 -38 -11
q-20 -13 -33 -37l-10 2l10 58q17 10 39.5 16t44.5 6q33 0 56 -17q17 -13 17 -39q0 -34 -17.5 -50.5z" />
    <glyph glyph-name="uni1ECF" unicode="&#x1ecf;" horiz-adv-x="478" 
d="M407 148.5q-36 -73.5 -97 -118.5t-131 -45q-74 0 -113.5 51t-39.5 131q0 79 36 152.5t97 119.5t130 46q74 0 114 -51t40 -131q0 -81 -36 -154.5zM345 403q-22 35 -65 35q-49 0 -90 -45t-65 -111t-24 -126q0 -53 22 -88.5t65 -35.5q49 0 90 45t65 111.5t24 125.5
q0 54 -22 89zM414.5 636.5q-17.5 -16.5 -47.5 -30.5q-9 -4 -16 -8t-8 -9v-4q0 -15 10 -22q-6 -9 -18 -9q-19 0 -28.5 11t-6.5 28q2 13 12.5 21.5t30.5 19.5q17 9 27 16.5t11 17.5q1 3 1 10q0 14 -9.5 22.5t-26.5 8.5q-19 0 -38 -11q-20 -13 -33 -37l-10 2l10 58
q17 10 39.5 16t44.5 6q33 0 56 -17q17 -13 17 -39q0 -34 -17.5 -50.5z" />
    <glyph glyph-name="uni1ED0" unicode="&#x1ed0;" horiz-adv-x="664" 
d="M597 218.5q-50 -104.5 -137 -169.5t-191 -65q-100 0 -157.5 66.5t-57.5 180.5q0 115 50.5 219.5t137 168t189.5 63.5q101 0 158.5 -67.5t57.5 -179.5t-50 -216.5zM523.5 581q-38.5 53 -106.5 53q-74 0 -138 -59.5t-102 -154.5t-38 -195q0 -88 38 -139.5t104 -51.5
q75 0 140 59t103 153t38 194q0 88 -38.5 141zM584 718l-116 84l-147 -84l166 181zM832 912l-226 -147l107 147h119z" />
    <glyph glyph-name="uni1ED1" unicode="&#x1ed1;" horiz-adv-x="478" 
d="M407 148.5q-36 -73.5 -97 -118.5t-131 -45q-74 0 -113.5 51t-39.5 131q0 79 36 152.5t97 119.5t130 46q74 0 114 -51t40 -131q0 -81 -36 -154.5zM345 403q-22 35 -65 35q-49 0 -90 -45t-65 -111t-24 -126q0 -53 22 -88.5t65 -35.5q49 0 90 45t65 111.5t24 125.5
q0 54 -22 89zM432 518l-116 84l-147 -84l166 181zM680 712l-226 -147l107 147h119z" />
    <glyph glyph-name="uni1ED2" unicode="&#x1ed2;" horiz-adv-x="664" 
d="M597 218.5q-50 -104.5 -137 -169.5t-191 -65q-100 0 -157.5 66.5t-57.5 180.5q0 115 50.5 219.5t137 168t189.5 63.5q101 0 158.5 -67.5t57.5 -179.5t-50 -216.5zM523.5 581q-38.5 53 -106.5 53q-74 0 -138 -59.5t-102 -154.5t-38 -195q0 -88 38 -139.5t104 -51.5
q75 0 140 59t103 153t38 194q0 88 -38.5 141zM584 718l-116 84l-147 -84l166 181zM604 848l-159 147h115z" />
    <glyph glyph-name="uni1ED3" unicode="&#x1ed3;" horiz-adv-x="478" 
d="M407 148.5q-36 -73.5 -97 -118.5t-131 -45q-74 0 -113.5 51t-39.5 131q0 79 36 152.5t97 119.5t130 46q74 0 114 -51t40 -131q0 -81 -36 -154.5zM345 403q-22 35 -65 35q-49 0 -90 -45t-65 -111t-24 -126q0 -53 22 -88.5t65 -35.5q49 0 90 45t65 111.5t24 125.5
q0 54 -22 89zM432 518l-116 84l-147 -84l166 181zM452 648l-159 147h115z" />
    <glyph glyph-name="uni1ED4" unicode="&#x1ed4;" horiz-adv-x="664" 
d="M597 218.5q-50 -104.5 -137 -169.5t-191 -65q-100 0 -157.5 66.5t-57.5 180.5q0 115 50.5 219.5t137 168t189.5 63.5q101 0 158.5 -67.5t57.5 -179.5t-50 -216.5zM523.5 581q-38.5 53 -106.5 53q-74 0 -138 -59.5t-102 -154.5t-38 -195q0 -88 38 -139.5t104 -51.5
q75 0 140 59t103 153t38 194q0 88 -38.5 141zM584 718l-116 84l-147 -84l166 181zM694.5 906.5q-17.5 -16.5 -47.5 -30.5q-9 -4 -16 -8t-8 -9v-4q0 -15 10 -22q-6 -9 -18 -9q-19 0 -28.5 11t-6.5 28q2 13 12.5 21.5t30.5 19.5q17 9 27 16.5t11 17.5q1 3 1 10q0 14 -9.5 22.5
t-26.5 8.5q-19 0 -38 -11q-20 -13 -33 -37l-10 2l10 58q17 10 39.5 16t44.5 6q33 0 56 -17q17 -13 17 -39q0 -34 -17.5 -50.5z" />
    <glyph glyph-name="uni1ED5" unicode="&#x1ed5;" horiz-adv-x="478" 
d="M407 148.5q-36 -73.5 -97 -118.5t-131 -45q-74 0 -113.5 51t-39.5 131q0 79 36 152.5t97 119.5t130 46q74 0 114 -51t40 -131q0 -81 -36 -154.5zM345 403q-22 35 -65 35q-49 0 -90 -45t-65 -111t-24 -126q0 -53 22 -88.5t65 -35.5q49 0 90 45t65 111.5t24 125.5
q0 54 -22 89zM432 518l-116 84l-147 -84l166 181zM542.5 706.5q-17.5 -16.5 -47.5 -30.5q-9 -4 -16 -8t-8 -9v-4q0 -15 10 -22q-6 -9 -18 -9q-19 0 -28.5 11t-6.5 28q2 13 12.5 21.5t30.5 19.5q17 9 27 16.5t11 17.5q1 3 1 10q0 14 -9.5 22.5t-26.5 8.5q-19 0 -38 -11
q-20 -13 -33 -37l-10 2l10 58q17 10 39.5 16t44.5 6q33 0 56 -17q17 -13 17 -39q0 -34 -17.5 -50.5z" />
    <glyph glyph-name="uni1ED6" unicode="&#x1ed6;" horiz-adv-x="664" 
d="M597 218.5q-50 -104.5 -137 -169.5t-191 -65q-100 0 -157.5 66.5t-57.5 180.5q0 115 50.5 219.5t137 168t189.5 63.5q101 0 158.5 -67.5t57.5 -179.5t-50 -216.5zM523.5 581q-38.5 53 -106.5 53q-74 0 -138 -59.5t-102 -154.5t-38 -195q0 -88 38 -139.5t104 -51.5
q75 0 140 59t103 153t38 194q0 88 -38.5 141zM584 718l-116 84l-147 -84l166 181zM649.5 930q-26.5 -29 -65.5 -29q-26 0 -66 25q-41 25 -61 25q-47 0 -66 -69q-6 14 -6 30q0 39 27 67.5t65 28.5q28 0 69 -25t60 -25q47 0 65 70q5 -17 5 -30q0 -39 -26.5 -68z" />
    <glyph glyph-name="uni1ED7" unicode="&#x1ed7;" horiz-adv-x="478" 
d="M407 148.5q-36 -73.5 -97 -118.5t-131 -45q-74 0 -113.5 51t-39.5 131q0 79 36 152.5t97 119.5t130 46q74 0 114 -51t40 -131q0 -81 -36 -154.5zM345 403q-22 35 -65 35q-49 0 -90 -45t-65 -111t-24 -126q0 -53 22 -88.5t65 -35.5q49 0 90 45t65 111.5t24 125.5
q0 54 -22 89zM432 518l-116 84l-147 -84l166 181zM497.5 730q-26.5 -29 -65.5 -29q-26 0 -66 25q-41 25 -61 25q-47 0 -66 -69q-6 14 -6 30q0 39 27 67.5t65 28.5q28 0 69 -25t60 -25q47 0 65 70q5 -17 5 -30q0 -39 -26.5 -68z" />
    <glyph glyph-name="uni1ED8" unicode="&#x1ed8;" horiz-adv-x="664" 
d="M597 218.5q-50 -104.5 -137 -169.5t-191 -65q-100 0 -157.5 66.5t-57.5 180.5q0 115 50.5 219.5t137 168t189.5 63.5q101 0 158.5 -67.5t57.5 -179.5t-50 -216.5zM523.5 581q-38.5 53 -106.5 53q-74 0 -138 -59.5t-102 -154.5t-38 -195q0 -88 38 -139.5t104 -51.5
q75 0 140 59t103 153t38 194q0 88 -38.5 141zM292.5 -173.5q-14.5 -14.5 -37.5 -14.5q-49 0 -49 48q0 22 15 37t38 15q48 0 48 -49q0 -22 -14.5 -36.5zM584 718l-116 84l-147 -84l166 181z" />
    <glyph glyph-name="uni1ED9" unicode="&#x1ed9;" horiz-adv-x="478" 
d="M407 148.5q-36 -73.5 -97 -118.5t-131 -45q-74 0 -113.5 51t-39.5 131q0 79 36 152.5t97 119.5t130 46q74 0 114 -51t40 -131q0 -81 -36 -154.5zM345 403q-22 35 -65 35q-49 0 -90 -45t-65 -111t-24 -126q0 -53 22 -88.5t65 -35.5q49 0 90 45t65 111.5t24 125.5
q0 54 -22 89zM199.5 -173.5q-14.5 -14.5 -37.5 -14.5q-49 0 -49 48q0 22 15 37t38 15q48 0 48 -49q0 -22 -14.5 -36.5zM432 518l-116 84l-147 -84l166 181z" />
    <glyph glyph-name="uni1EDA" unicode="&#x1eda;" horiz-adv-x="664" 
d="M589 615q58 -67 58 -180q0 -112 -50 -216.5t-137 -169.5t-191 -65q-100 0 -157.5 66.5t-57.5 180.5q0 115 50.5 219.5t137 168t189.5 63.5q51 0 94 -19q40 1 66 18t47 54h35q-25 -93 -84 -120zM421 93q65 59 103 153t38 194q0 88 -38.5 141t-106.5 53q-74 0 -138 -59.5
t-102 -154.5t-38 -195q0 -88 38 -139.5t104 -51.5q75 0 140 59zM685 895l-226 -147l107 147h119z" />
    <glyph glyph-name="uni1EDB" unicode="&#x1edb;" horiz-adv-x="478" 
d="M423 402q20 -43 20 -99q0 -81 -36 -154.5t-97 -118.5t-131 -45q-74 0 -113.5 51t-39.5 131q0 79 36 152.5t97 119.5t130 46q52 0 89 -27q40 1 66.5 18.5t47.5 53.5h35q-30 -107 -104 -128zM278 77q41 45 65 111.5t24 125.5q0 54 -22 89t-65 35q-49 0 -90 -45t-65 -111
t-24 -126q0 -53 22 -88.5t65 -35.5q49 0 90 45zM533 695l-226 -147l107 147h119z" />
    <glyph glyph-name="uni1EDC" unicode="&#x1edc;" horiz-adv-x="664" 
d="M589 615q58 -67 58 -180q0 -112 -50 -216.5t-137 -169.5t-191 -65q-100 0 -157.5 66.5t-57.5 180.5q0 115 50.5 219.5t137 168t189.5 63.5q51 0 94 -19q40 1 66 18t47 54h35q-25 -93 -84 -120zM421 93q65 59 103 153t38 194q0 88 -38.5 141t-106.5 53q-74 0 -138 -59.5
t-102 -154.5t-38 -195q0 -88 38 -139.5t104 -51.5q75 0 140 59zM455 748l-159 147h115z" />
    <glyph glyph-name="uni1EDD" unicode="&#x1edd;" horiz-adv-x="478" 
d="M423 402q20 -43 20 -99q0 -81 -36 -154.5t-97 -118.5t-131 -45q-74 0 -113.5 51t-39.5 131q0 79 36 152.5t97 119.5t130 46q52 0 89 -27q40 1 66.5 18.5t47.5 53.5h35q-30 -107 -104 -128zM278 77q41 45 65 111.5t24 125.5q0 54 -22 89t-65 35q-49 0 -90 -45t-65 -111
t-24 -126q0 -53 22 -88.5t65 -35.5q49 0 90 45zM303 548l-159 147h115z" />
    <glyph glyph-name="uni1EDE" unicode="&#x1ede;" horiz-adv-x="664" 
d="M589 615q58 -67 58 -180q0 -112 -50 -216.5t-137 -169.5t-191 -65q-100 0 -157.5 66.5t-57.5 180.5q0 115 50.5 219.5t137 168t189.5 63.5q51 0 94 -19q40 1 66 18t47 54h35q-25 -93 -84 -120zM421 93q65 59 103 153t38 194q0 88 -38.5 141t-106.5 53q-74 0 -138 -59.5
t-102 -154.5t-38 -195q0 -88 38 -139.5t104 -51.5q75 0 140 59zM566.5 836.5q-17.5 -16.5 -47.5 -30.5q-9 -4 -16 -8t-8 -9v-4q0 -15 10 -22q-6 -9 -18 -9q-19 0 -28.5 11t-6.5 28q2 13 12.5 21.5t30.5 19.5q17 9 27 16.5t11 17.5q1 3 1 10q0 14 -9.5 22.5t-26.5 8.5
q-19 0 -38 -11q-20 -13 -33 -37l-10 2l10 58q17 10 39.5 16t44.5 6q33 0 56 -17q17 -13 17 -39q0 -34 -17.5 -50.5z" />
    <glyph glyph-name="uni1EDF" unicode="&#x1edf;" horiz-adv-x="478" 
d="M423 402q20 -43 20 -99q0 -81 -36 -154.5t-97 -118.5t-131 -45q-74 0 -113.5 51t-39.5 131q0 79 36 152.5t97 119.5t130 46q52 0 89 -27q40 1 66.5 18.5t47.5 53.5h35q-30 -107 -104 -128zM278 77q41 45 65 111.5t24 125.5q0 54 -22 89t-65 35q-49 0 -90 -45t-65 -111
t-24 -126q0 -53 22 -88.5t65 -35.5q49 0 90 45zM414.5 636.5q-17.5 -16.5 -47.5 -30.5q-9 -4 -16 -8t-8 -9v-4q0 -15 10 -22q-6 -9 -18 -9q-19 0 -28.5 11t-6.5 28q2 13 12.5 21.5t30.5 19.5q17 9 27 16.5t11 17.5q1 3 1 10q0 14 -9.5 22.5t-26.5 8.5q-19 0 -38 -11
q-20 -13 -33 -37l-10 2l10 58q17 10 39.5 16t44.5 6q33 0 56 -17q17 -13 17 -39q0 -34 -17.5 -50.5z" />
    <glyph glyph-name="uni1EE0" unicode="&#x1ee0;" horiz-adv-x="664" 
d="M589 615q58 -67 58 -180q0 -112 -50 -216.5t-137 -169.5t-191 -65q-100 0 -157.5 66.5t-57.5 180.5q0 115 50.5 219.5t137 168t189.5 63.5q51 0 94 -19q40 1 66 18t47 54h35q-25 -93 -84 -120zM421 93q65 59 103 153t38 194q0 88 -38.5 141t-106.5 53q-74 0 -138 -59.5
t-102 -154.5t-38 -195q0 -88 38 -139.5t104 -51.5q75 0 140 59zM595.5 788q-26.5 -29 -65.5 -29q-26 0 -66 25q-41 25 -61 25q-47 0 -66 -69q-6 14 -6 30q0 39 27 67.5t65 28.5q28 0 69 -25t60 -25q47 0 65 70q5 -17 5 -30q0 -39 -26.5 -68z" />
    <glyph glyph-name="uni1EE1" unicode="&#x1ee1;" horiz-adv-x="478" 
d="M423 402q20 -43 20 -99q0 -81 -36 -154.5t-97 -118.5t-131 -45q-74 0 -113.5 51t-39.5 131q0 79 36 152.5t97 119.5t130 46q52 0 89 -27q40 1 66.5 18.5t47.5 53.5h35q-30 -107 -104 -128zM278 77q41 45 65 111.5t24 125.5q0 54 -22 89t-65 35q-49 0 -90 -45t-65 -111
t-24 -126q0 -53 22 -88.5t65 -35.5q49 0 90 45zM443.5 588q-26.5 -29 -65.5 -29q-26 0 -66 25q-41 25 -61 25q-47 0 -66 -69q-6 14 -6 30q0 39 27 67.5t65 28.5q28 0 69 -25t60 -25q47 0 65 70q5 -17 5 -30q0 -39 -26.5 -68z" />
    <glyph glyph-name="uni1EE2" unicode="&#x1ee2;" horiz-adv-x="664" 
d="M589 615q58 -67 58 -180q0 -112 -50 -216.5t-137 -169.5t-191 -65q-100 0 -157.5 66.5t-57.5 180.5q0 115 50.5 219.5t137 168t189.5 63.5q51 0 94 -19q40 1 66 18t47 54h35q-25 -93 -84 -120zM421 93q65 59 103 153t38 194q0 88 -38.5 141t-106.5 53q-74 0 -138 -59.5
t-102 -154.5t-38 -195q0 -88 38 -139.5t104 -51.5q75 0 140 59zM292.5 -173.5q-14.5 -14.5 -37.5 -14.5q-49 0 -49 48q0 22 15 37t38 15q48 0 48 -49q0 -22 -14.5 -36.5z" />
    <glyph glyph-name="uni1EE3" unicode="&#x1ee3;" horiz-adv-x="478" 
d="M423 402q20 -43 20 -99q0 -81 -36 -154.5t-97 -118.5t-131 -45q-74 0 -113.5 51t-39.5 131q0 79 36 152.5t97 119.5t130 46q52 0 89 -27q40 1 66.5 18.5t47.5 53.5h35q-30 -107 -104 -128zM278 77q41 45 65 111.5t24 125.5q0 54 -22 89t-65 35q-49 0 -90 -45t-65 -111
t-24 -126q0 -53 22 -88.5t65 -35.5q49 0 90 45zM199.5 -173.5q-14.5 -14.5 -37.5 -14.5q-49 0 -49 48q0 22 15 37t38 15q48 0 48 -49q0 -22 -14.5 -36.5z" />
    <glyph glyph-name="uni1EE4" unicode="&#x1ee4;" horiz-adv-x="634" 
d="M677 666q-12 -3 -24 -11q-26 -18 -33 -55l-80 -377q-27 -128 -95 -183t-191 -55q-181 0 -181 152q0 44 12 99l80 367q2 12 2 19q0 40 -33 44h172q-15 -2 -25 -9q-28 -17 -35 -54l-79 -365q-12 -55 -12 -89q0 -111 124 -111q157 0 194 178l79 381q3 14 3 24q0 41 -30 45
h152zM277.5 -173.5q-14.5 -14.5 -37.5 -14.5q-49 0 -49 48q0 22 15 37t38 15q48 0 48 -49q0 -22 -14.5 -36.5z" />
    <glyph glyph-name="uni1EE5" unicode="&#x1ee5;" horiz-adv-x="500" 
d="M474 486l-87 -399q-4 -19 -4 -27q0 -34 31 -38l7 -1l-125 -36l20 102q-29 -43 -82 -72t-102 -29q-91 0 -91 89q0 29 6 57l50 240q5 28 5 34q0 37 -33 44l-5 1l132 35q-2 -12 -37 -172l-36 -164q-6 -28 -6 -52q0 -62 53 -62q33 0 69 24t63.5 64t37.5 84l35 164q5 25 5 38
q0 33 -34 40l-5 1zM210.5 -173.5q-14.5 -14.5 -37.5 -14.5q-49 0 -49 48q0 22 15 37t38 15q48 0 48 -49q0 -22 -14.5 -36.5z" />
    <glyph glyph-name="uni1EE6" unicode="&#x1ee6;" horiz-adv-x="634" 
d="M677 666q-12 -3 -24 -11q-26 -18 -33 -55l-80 -377q-27 -128 -95 -183t-191 -55q-181 0 -181 152q0 44 12 99l80 367q2 12 2 19q0 40 -33 44h172q-15 -2 -25 -9q-28 -17 -35 -54l-79 -365q-12 -55 -12 -89q0 -111 124 -111q157 0 194 178l79 381q3 14 3 24q0 41 -30 45
h152zM532.5 836.5q-17.5 -16.5 -47.5 -30.5q-9 -4 -16 -8t-8 -9v-4q0 -15 10 -22q-6 -9 -18 -9q-19 0 -28.5 11t-6.5 28q2 13 12.5 21.5t30.5 19.5q17 9 27 16.5t11 17.5q1 3 1 10q0 14 -9.5 22.5t-26.5 8.5q-19 0 -38 -11q-20 -13 -33 -37l-10 2l10 58q17 10 39.5 16
t44.5 6q33 0 56 -17q17 -13 17 -39q0 -34 -17.5 -50.5z" />
    <glyph glyph-name="uni1EE7" unicode="&#x1ee7;" horiz-adv-x="500" 
d="M474 486l-87 -399q-4 -19 -4 -27q0 -34 31 -38l7 -1l-125 -36l20 102q-29 -43 -82 -72t-102 -29q-91 0 -91 89q0 29 6 57l50 240q5 28 5 34q0 37 -33 44l-5 1l132 35q-2 -12 -37 -172l-36 -164q-6 -28 -6 -52q0 -62 53 -62q33 0 69 24t63.5 64t37.5 84l35 164q5 25 5 38
q0 33 -34 40l-5 1zM410.5 636.5q-17.5 -16.5 -47.5 -30.5q-9 -4 -16 -8t-8 -9v-4q0 -15 10 -22q-6 -9 -18 -9q-19 0 -28.5 11t-6.5 28q2 13 12.5 21.5t30.5 19.5q17 9 27 16.5t11 17.5q1 3 1 10q0 14 -9.5 22.5t-26.5 8.5q-19 0 -38 -11q-20 -13 -33 -37l-10 2l10 58
q17 10 39.5 16t44.5 6q33 0 56 -17q17 -13 17 -39q0 -34 -17.5 -50.5z" />
    <glyph glyph-name="uni1EE8" unicode="&#x1ee8;" horiz-adv-x="634" 
d="M697 637.5q-33 -28.5 -76 -34.5q-1 -1 -1 -3l-80 -377q-27 -128 -95 -183t-191 -55q-181 0 -181 152q0 44 12 99l80 367q2 12 2 19q0 40 -33 44h172q-15 -2 -25 -9q-28 -17 -35 -54l-79 -365q-12 -55 -12 -89q0 -111 124 -111q157 0 194 178l79 381q3 14 3 24
q0 41 -30 45h98q31 5 52 22t39 48h35q-19 -70 -52 -98.5zM651 895l-226 -147l107 147h119z" />
    <glyph glyph-name="uni1EE9" unicode="&#x1ee9;" horiz-adv-x="500" 
d="M387 87q-4 -19 -4 -27q0 -34 31 -38l7 -1l-125 -36l20 102q-29 -43 -82 -72t-102 -29q-91 0 -91 89q0 29 6 57l50 240q5 28 5 34q0 37 -33 44l-5 1l132 35q-2 -12 -37 -172l-36 -164q-6 -28 -6 -52q0 -62 53 -62q33 0 69 24t63.5 64t37.5 84l35 164q5 25 5 38
q0 33 -34 40l-5 1l133 35l-6 -26q27 6 46 22.5t36 45.5h35q-20 -72 -54 -100t-77 -33zM529 695l-226 -147l107 147h119z" />
    <glyph glyph-name="uni1EEA" unicode="&#x1eea;" horiz-adv-x="634" 
d="M697 637.5q-33 -28.5 -76 -34.5q-1 -1 -1 -3l-80 -377q-27 -128 -95 -183t-191 -55q-181 0 -181 152q0 44 12 99l80 367q2 12 2 19q0 40 -33 44h172q-15 -2 -25 -9q-28 -17 -35 -54l-79 -365q-12 -55 -12 -89q0 -111 124 -111q157 0 194 178l79 381q3 14 3 24
q0 41 -30 45h98q31 5 52 22t39 48h35q-19 -70 -52 -98.5zM421 748l-159 147h115z" />
    <glyph glyph-name="uni1EEB" unicode="&#x1eeb;" horiz-adv-x="500" 
d="M387 87q-4 -19 -4 -27q0 -34 31 -38l7 -1l-125 -36l20 102q-29 -43 -82 -72t-102 -29q-91 0 -91 89q0 29 6 57l50 240q5 28 5 34q0 37 -33 44l-5 1l132 35q-2 -12 -37 -172l-36 -164q-6 -28 -6 -52q0 -62 53 -62q33 0 69 24t63.5 64t37.5 84l35 164q5 25 5 38
q0 33 -34 40l-5 1l133 35l-6 -26q27 6 46 22.5t36 45.5h35q-20 -72 -54 -100t-77 -33zM299 548l-159 147h115z" />
    <glyph glyph-name="uni1EEC" unicode="&#x1eec;" horiz-adv-x="634" 
d="M697 637.5q-33 -28.5 -76 -34.5q-1 -1 -1 -3l-80 -377q-27 -128 -95 -183t-191 -55q-181 0 -181 152q0 44 12 99l80 367q2 12 2 19q0 40 -33 44h172q-15 -2 -25 -9q-28 -17 -35 -54l-79 -365q-12 -55 -12 -89q0 -111 124 -111q157 0 194 178l79 381q3 14 3 24
q0 41 -30 45h98q31 5 52 22t39 48h35q-19 -70 -52 -98.5zM532.5 836.5q-17.5 -16.5 -47.5 -30.5q-9 -4 -16 -8t-8 -9v-4q0 -15 10 -22q-6 -9 -18 -9q-19 0 -28.5 11t-6.5 28q2 13 12.5 21.5t30.5 19.5q17 9 27 16.5t11 17.5q1 3 1 10q0 14 -9.5 22.5t-26.5 8.5
q-19 0 -38 -11q-20 -13 -33 -37l-10 2l10 58q17 10 39.5 16t44.5 6q33 0 56 -17q17 -13 17 -39q0 -34 -17.5 -50.5z" />
    <glyph glyph-name="uni1EED" unicode="&#x1eed;" horiz-adv-x="500" 
d="M387 87q-4 -19 -4 -27q0 -34 31 -38l7 -1l-125 -36l20 102q-29 -43 -82 -72t-102 -29q-91 0 -91 89q0 29 6 57l50 240q5 28 5 34q0 37 -33 44l-5 1l132 35q-2 -12 -37 -172l-36 -164q-6 -28 -6 -52q0 -62 53 -62q33 0 69 24t63.5 64t37.5 84l35 164q5 25 5 38
q0 33 -34 40l-5 1l133 35l-6 -26q27 6 46 22.5t36 45.5h35q-20 -72 -54 -100t-77 -33zM410.5 636.5q-17.5 -16.5 -47.5 -30.5q-9 -4 -16 -8t-8 -9v-4q0 -15 10 -22q-6 -9 -18 -9q-19 0 -28.5 11t-6.5 28q2 13 12.5 21.5t30.5 19.5q17 9 27 16.5t11 17.5q1 3 1 10
q0 14 -9.5 22.5t-26.5 8.5q-19 0 -38 -11q-20 -13 -33 -37l-10 2l10 58q17 10 39.5 16t44.5 6q33 0 56 -17q17 -13 17 -39q0 -34 -17.5 -50.5z" />
    <glyph glyph-name="uni1EEE" unicode="&#x1eee;" horiz-adv-x="634" 
d="M697 637.5q-33 -28.5 -76 -34.5q-1 -1 -1 -3l-80 -377q-27 -128 -95 -183t-191 -55q-181 0 -181 152q0 44 12 99l80 367q2 12 2 19q0 40 -33 44h172q-15 -2 -25 -9q-28 -17 -35 -54l-79 -365q-12 -55 -12 -89q0 -111 124 -111q157 0 194 178l79 381q3 14 3 24
q0 41 -30 45h98q31 5 52 22t39 48h35q-19 -70 -52 -98.5zM561.5 788q-26.5 -29 -65.5 -29q-26 0 -66 25q-41 25 -61 25q-47 0 -66 -69q-6 14 -6 30q0 39 27 67.5t65 28.5q28 0 69 -25t60 -25q47 0 65 70q5 -17 5 -30q0 -39 -26.5 -68z" />
    <glyph glyph-name="uni1EEF" unicode="&#x1eef;" horiz-adv-x="500" 
d="M387 87q-4 -19 -4 -27q0 -34 31 -38l7 -1l-125 -36l20 102q-29 -43 -82 -72t-102 -29q-91 0 -91 89q0 29 6 57l50 240q5 28 5 34q0 37 -33 44l-5 1l132 35q-2 -12 -37 -172l-36 -164q-6 -28 -6 -52q0 -62 53 -62q33 0 69 24t63.5 64t37.5 84l35 164q5 25 5 38
q0 33 -34 40l-5 1l133 35l-6 -26q27 6 46 22.5t36 45.5h35q-20 -72 -54 -100t-77 -33zM439.5 588q-26.5 -29 -65.5 -29q-26 0 -66 25q-41 25 -61 25q-47 0 -66 -69q-6 14 -6 30q0 39 27 67.5t65 28.5q28 0 69 -25t60 -25q47 0 65 70q5 -17 5 -30q0 -39 -26.5 -68z" />
    <glyph glyph-name="uni1EF0" unicode="&#x1ef0;" horiz-adv-x="634" 
d="M697 637.5q-33 -28.5 -76 -34.5q-1 -1 -1 -3l-80 -377q-27 -128 -95 -183t-191 -55q-181 0 -181 152q0 44 12 99l80 367q2 12 2 19q0 40 -33 44h172q-15 -2 -25 -9q-28 -17 -35 -54l-79 -365q-12 -55 -12 -89q0 -111 124 -111q157 0 194 178l79 381q3 14 3 24
q0 41 -30 45h98q31 5 52 22t39 48h35q-19 -70 -52 -98.5zM277.5 -173.5q-14.5 -14.5 -37.5 -14.5q-49 0 -49 48q0 22 15 37t38 15q48 0 48 -49q0 -22 -14.5 -36.5z" />
    <glyph glyph-name="uni1EF1" unicode="&#x1ef1;" horiz-adv-x="500" 
d="M387 87q-4 -19 -4 -27q0 -34 31 -38l7 -1l-125 -36l20 102q-29 -43 -82 -72t-102 -29q-91 0 -91 89q0 29 6 57l50 240q5 28 5 34q0 37 -33 44l-5 1l132 35q-2 -12 -37 -172l-36 -164q-6 -28 -6 -52q0 -62 53 -62q33 0 69 24t63.5 64t37.5 84l35 164q5 25 5 38
q0 33 -34 40l-5 1l133 35l-6 -26q27 6 46 22.5t36 45.5h35q-20 -72 -54 -100t-77 -33zM210.5 -173.5q-14.5 -14.5 -37.5 -14.5q-49 0 -49 48q0 22 15 37t38 15q48 0 48 -49q0 -22 -14.5 -36.5z" />
    <glyph glyph-name="Ygrave" unicode="&#x1ef2;" horiz-adv-x="574" 
d="M654 666q-10 -4 -25 -12q-30 -21 -64 -64l-242 -308l-44 -206q-4 -17 -4 -27q0 -46 33 -49h-169q16 4 25 10q26 20 35 62l44 210l-94 311q-19 64 -55 73h152q-21 -4 -21 -37q0 -15 7 -36l77 -245l189 242q31 40 31 58q0 15 -14 18h139zM374 748l-159 147h115z" />
    <glyph glyph-name="ygrave" unicode="&#x1ef3;" horiz-adv-x="476" 
d="M500 470q-15 -46 -73 -164q-59 -122 -137 -237.5t-153.5 -188.5t-125.5 -73q-62 0 -62 53q0 4 5 21q16 -16 50 -16q72 0 178 135l-75 381q-13 70 -62 70h-6l124 35l78 -410q85 119 140 251q26 63 26 96q0 40 -30 47h123zM287 548l-159 147h115z" />
    <glyph glyph-name="uni1EF4" unicode="&#x1ef4;" horiz-adv-x="574" 
d="M654 666q-10 -4 -25 -12q-30 -21 -64 -64l-242 -308l-44 -206q-4 -17 -4 -27q0 -46 33 -49h-169q16 4 25 10q26 20 35 62l44 210l-94 311q-19 64 -55 73h152q-21 -4 -21 -37q0 -15 7 -36l77 -245l189 242q31 40 31 58q0 15 -14 18h139zM247.5 -173.5
q-14.5 -14.5 -37.5 -14.5q-49 0 -49 48q0 22 15 37t38 15q48 0 48 -49q0 -22 -14.5 -36.5z" />
    <glyph glyph-name="uni1EF5" unicode="&#x1ef5;" horiz-adv-x="476" 
d="M500 470q-15 -46 -73 -164q-59 -122 -137 -237.5t-153.5 -188.5t-125.5 -73q-62 0 -62 53q0 4 5 21q16 -16 50 -16q72 0 178 135l-75 381q-13 70 -62 70h-6l124 35l78 -410q85 119 140 251q26 63 26 96q0 40 -30 47h123zM318.5 -173.5q-14.5 -14.5 -37.5 -14.5
q-49 0 -49 48q0 22 15 37t38 15q48 0 48 -49q0 -22 -14.5 -36.5z" />
    <glyph glyph-name="uni1EF6" unicode="&#x1ef6;" horiz-adv-x="574" 
d="M654 666q-10 -4 -25 -12q-30 -21 -64 -64l-242 -308l-44 -206q-4 -17 -4 -27q0 -46 33 -49h-169q16 4 25 10q26 20 35 62l44 210l-94 311q-19 64 -55 73h152q-21 -4 -21 -37q0 -15 7 -36l77 -245l189 242q31 40 31 58q0 15 -14 18h139zM485.5 836.5
q-17.5 -16.5 -47.5 -30.5q-9 -4 -16 -8t-8 -9v-4q0 -15 10 -22q-6 -9 -18 -9q-19 0 -28.5 11t-6.5 28q2 13 12.5 21.5t30.5 19.5q17 9 27 16.5t11 17.5q1 3 1 10q0 14 -9.5 22.5t-26.5 8.5q-19 0 -38 -11q-20 -13 -33 -37l-10 2l10 58q17 10 39.5 16t44.5 6q33 0 56 -17
q17 -13 17 -39q0 -34 -17.5 -50.5z" />
    <glyph glyph-name="uni1EF7" unicode="&#x1ef7;" horiz-adv-x="476" 
d="M500 470q-15 -46 -73 -164q-59 -122 -137 -237.5t-153.5 -188.5t-125.5 -73q-62 0 -62 53q0 4 5 21q16 -16 50 -16q72 0 178 135l-75 381q-13 70 -62 70h-6l124 35l78 -410q85 119 140 251q26 63 26 96q0 40 -30 47h123zM398.5 636.5q-17.5 -16.5 -47.5 -30.5
q-9 -4 -16 -8t-8 -9v-4q0 -15 10 -22q-6 -9 -18 -9q-19 0 -28.5 11t-6.5 28q2 13 12.5 21.5t30.5 19.5q17 9 27 16.5t11 17.5q1 3 1 10q0 14 -9.5 22.5t-26.5 8.5q-19 0 -38 -11q-20 -13 -33 -37l-10 2l10 58q17 10 39.5 16t44.5 6q33 0 56 -17q17 -13 17 -39
q0 -34 -17.5 -50.5z" />
    <glyph glyph-name="uni1EF8" unicode="&#x1ef8;" horiz-adv-x="574" 
d="M654 666q-10 -4 -25 -12q-30 -21 -64 -64l-242 -308l-44 -206q-4 -17 -4 -27q0 -46 33 -49h-169q16 4 25 10q26 20 35 62l44 210l-94 311q-19 64 -55 73h152q-21 -4 -21 -37q0 -15 7 -36l77 -245l189 242q31 40 31 58q0 15 -14 18h139zM514.5 788q-26.5 -29 -65.5 -29
q-26 0 -66 25q-41 25 -61 25q-47 0 -66 -69q-6 14 -6 30q0 39 27 67.5t65 28.5q28 0 69 -25t60 -25q47 0 65 70q5 -17 5 -30q0 -39 -26.5 -68z" />
    <glyph glyph-name="uni1EF9" unicode="&#x1ef9;" horiz-adv-x="476" 
d="M500 470q-15 -46 -73 -164q-59 -122 -137 -237.5t-153.5 -188.5t-125.5 -73q-62 0 -62 53q0 4 5 21q16 -16 50 -16q72 0 178 135l-75 381q-13 70 -62 70h-6l124 35l78 -410q85 119 140 251q26 63 26 96q0 40 -30 47h123zM427.5 588q-26.5 -29 -65.5 -29q-26 0 -66 25
q-41 25 -61 25q-47 0 -66 -69q-6 14 -6 30q0 39 27 67.5t65 28.5q28 0 69 -25t60 -25q47 0 65 70q5 -17 5 -30q0 -39 -26.5 -68z" />
    <glyph glyph-name="endash" unicode="&#x2013;" horiz-adv-x="686" 
d="M644 265l-11 -52h-600l11 52h600z" />
    <glyph glyph-name="emdash" unicode="&#x2014;" horiz-adv-x="1086" 
d="M1044 265l-11 -52h-1000l11 52h1000z" />
    <glyph glyph-name="quoteleft" unicode="&#x2018;" horiz-adv-x="236" 
d="M196 612.5q-42 -48.5 -43 -96.5q0 -11 3 -17q12 8 23 6q44 -5 44 -48q0 -24 -18.5 -40.5t-45.5 -16.5q-31 0 -50.5 21t-19.5 61q0 41 21 82.5t59.5 71.5t88.5 40q11 3 33 6q-53 -21 -95 -69.5z" />
    <glyph glyph-name="quoteright" unicode="&#x2019;" horiz-adv-x="236" 
d="M227 503.5q-28 -44.5 -74.5 -72t-99.5 -31.5q53 21 94.5 69t42.5 96q0 13 -3 17q-10 -5 -19 -5q-24 0 -36 12t-12 34q0 25 19 42t45 17q31 0 51 -21.5t20 -61.5q0 -51 -28 -95.5z" />
    <glyph glyph-name="quotesinglbase" unicode="&#x201a;" horiz-adv-x="236" 
d="M112.5 -75.5q-28.5 -45.5 -75 -73.5t-98.5 -30q53 21 94.5 69.5t42.5 95.5q0 12 -3 18q-12 -8 -23 -6q-43 4 -43 47q0 25 19 41.5t45 16.5q31 0 50.5 -21t19.5 -61q0 -51 -28.5 -96.5z" />
    <glyph glyph-name="quotedblleft" unicode="&#x201c;" horiz-adv-x="458" 
d="M213 611.5q-42 -48.5 -43 -95.5q0 -10 4 -17q12 7 22 6q44 -5 44 -48q0 -25 -19 -41.5t-45 -16.5q-31 0 -50.5 21.5t-19.5 61.5q0 51 27.5 95.5t74 72t100.5 31.5q-53 -21 -95 -69.5zM404.5 612q-41.5 -48 -42.5 -96q0 -11 3 -17q12 8 23 6q43 -4 43 -48q0 -25 -19 -41.5
t-45 -16.5q-31 0 -50.5 21.5t-19.5 61.5q0 51 28 95.5t74.5 72t99.5 31.5q-53 -21 -94.5 -69z" />
    <glyph glyph-name="quotedblright" unicode="&#x201d;" horiz-adv-x="458" 
d="M247.5 503.5q-27.5 -44.5 -74 -72t-100.5 -31.5q53 21 94.5 69t42.5 96q0 13 -3 17q-12 -5 -20 -5q-23 0 -34.5 12t-11.5 34q0 25 19 42t45 17q31 0 50.5 -21.5t19.5 -61.5q0 -51 -27.5 -95.5zM438 503.5q-28 -44.5 -74.5 -72.5t-99.5 -31q54 21 95.5 69t42.5 96
q0 10 -4 17q-11 -6 -23 -5q-43 4 -43 46q0 26 18 42.5t45 16.5q31 0 51 -21.5t20 -61.5q0 -51 -28 -95.5z" />
    <glyph glyph-name="quotedblbase" unicode="&#x201e;" horiz-adv-x="458" 
d="M129 -75.5q-28 -45.5 -74.5 -73.5t-99.5 -30q53 21 94.5 69.5t42.5 95.5q0 12 -3 18q-11 -8 -22 -6q-44 3 -44 47q0 25 19 41.5t45 16.5q31 0 50.5 -21t19.5 -61q0 -51 -28 -96.5zM320 -75q-28 -45 -75 -73t-100 -31q53 21 95 69.5t43 95.5q0 12 -3 18q-11 -8 -22 -6
q-44 3 -44 47q0 25 18.5 41.5t44.5 16.5q31 0 51 -22t20 -60q0 -51 -28 -96z" />
    <glyph glyph-name="dagger" unicode="&#x2020;" horiz-adv-x="555" 
d="M504 387q-10 22 -71 22h-93l-79 -375q-31 -149 -82 -231q-8 37 -8 50q0 56 26 181l79 375h-94q-67 0 -79 -22l20 96q9 -21 69 -21h95l21 98q7 31 7 60q0 42 -19 46h131q-9 -3 -19 -14q-22 -27 -36 -92l-21 -98h95q70 0 79 22z" />
    <glyph glyph-name="daggerdbl" unicode="&#x2021;" horiz-adv-x="555" 
d="M503 389q-7 21 -70 21h-93l-72 -335h95q67 0 79 22l-21 -97q-10 22 -68 22h-96l-20 -96q-8 -40 -8 -61q0 -42 19 -46h-129q11 3 18 15q22 27 36 92l21 96h-96q-65 0 -78 -22l21 97q9 -22 71 -22h93l70 335h-93q-67 0 -79 -21l21 97q22 -22 68 -22h95l20 96q8 40 8 60
q0 42 -19 46h129q-9 -3 -19 -14q-22 -28 -35 -92l-20 -96h95q65 0 78 22z" />
    <glyph glyph-name="bullet" unicode="&#x2022;" horiz-adv-x="456" 
d="M315.5 215.5q-32.5 -32.5 -82.5 -32.5q-51 0 -83.5 32.5t-32.5 83.5t32.5 83.5t83.5 32.5q50 0 82.5 -32.5t32.5 -83.5t-32.5 -83.5z" />
    <glyph glyph-name="ellipsis" unicode="&#x2026;" horiz-adv-x="917" 
d="M136 6q-17 -17 -43 -17t-40.5 15t-14.5 39q0 25 16.5 42t43.5 17q26 0 40.5 -15t14.5 -39q0 -25 -17 -42zM437 6q-17 -17 -43 -17t-40.5 15t-14.5 39q0 25 16.5 42t43.5 17q26 0 40.5 -15t14.5 -39q0 -25 -17 -42zM736.5 6q-16.5 -17 -42.5 -17t-41 15t-15 39
q0 25 17.5 42t43.5 17q54 0 54 -54q0 -25 -16.5 -42z" />
    <glyph glyph-name="perthousand" unicode="&#x2030;" horiz-adv-x="987" 
d="M342 463.5q-22 -45.5 -61.5 -73.5t-87.5 -28q-53 0 -81 33.5t-28 87.5q0 50 22 96t60.5 74.5t86.5 28.5q53 0 82 -34t29 -89q0 -50 -22 -95.5zM682 666l-597 -666h-59l600 666h56zM243 640q-30 0 -53.5 -23t-36.5 -59t-13 -71q0 -84 62 -84q30 0 54 23t37.5 59t13.5 71
q0 84 -64 84zM598 87.5q-22 -45.5 -61.5 -73.5t-87.5 -28q-53 0 -82 33.5t-29 88.5q0 50 22.5 96t61.5 74t87 28q53 0 82 -34t29 -89q0 -50 -22 -95.5zM925 87.5q-22 -45.5 -61.5 -73.5t-87.5 -28q-53 0 -82 33.5t-29 88.5q0 50 22.5 96t61.5 74t87 28q53 0 82 -34t29 -89
q0 -50 -22 -95.5zM499 263q-30 0 -54 -23t-37 -58.5t-13 -70.5q0 -82 63 -82q30 0 54 22.5t37.5 58t13.5 70.5q0 83 -64 83zM826 263q-30 0 -54 -23t-37 -58.5t-13 -70.5q0 -82 63 -82q30 0 54 22.5t37.5 58t13.5 70.5q0 83 -64 83z" />
    <glyph glyph-name="guilsinglleft" unicode="&#x2039;" horiz-adv-x="236" 
d="M260 429l-182 -179l107 -175h-64l-111 177l177 177h73z" />
    <glyph glyph-name="guilsinglright" unicode="&#x203a;" horiz-adv-x="236" 
d="M228 252l-178 -177h-73l184 179l-105 175h63z" />
    <glyph glyph-name="fraction" unicode="&#x2044;" horiz-adv-x="177" 
d="M386 681l-549 -681h-44l551 681h42z" />
    <glyph glyph-name="trademark" unicode="&#x2122;" horiz-adv-x="644" 
d="M343 666l-14 -77q-1 48 -34 48h-51l-39 -183q-2 -12 -2 -18q0 -20 14 -25h-87q7 2 11 6q14 12 18 37l39 183h-53q-29 0 -52 -47l18 76h232zM690 666q-5 -1 -13 -7q-15 -13 -19 -36l-35 -169q-2 -14 -2 -17q0 -21 15 -26h-88q5 1 11 7q13 10 18 37l37 174l-141 -224
l-47 224l-36 -171q-2 -12 -2 -20q0 -23 16 -27h-80q3 1 14 7q14 14 20 41l34 165l2 16q0 22 -16 26h88l36 -161l103 161h85z" />
    <glyph glyph-name="notequal" unicode="&#x2260;" horiz-adv-x="931" 
 />
    <glyph glyph-name="fi" unicode="&#xf001;" horiz-adv-x="542" 
d="M342 590q7 10 7 25q0 35 -36 35q-32 0 -52 -38q-18 -36 -41 -142h122l-10 -44h-121l-90 -428q-19 -87 -63 -137.5t-108 -50.5q-56 0 -81 37q22 -6 40 -6q103 0 136 157l91 428h-91l9 44h91q20 84 43.5 132t55.5 70t79 22q32 0 50.5 -14t18.5 -36q0 -43 -50 -54z
M532.5 595q-15.5 -16 -40.5 -16q-50 0 -50 49q0 24 16.5 40t40.5 16q49 0 49 -50q0 -23 -15.5 -39zM514 486l-81 -377q-7 -31 -7 -60q0 -47 18 -49h-110l84 385q3 14 3 25q0 39 -34 40l-6 1z" />
    <glyph glyph-name="fl" unicode="&#xf002;" horiz-adv-x="541" 
d="M559 696l-127 -587q-8 -40 -8 -60q0 -46 19 -49h-109l130 595q2 12 2 23q0 36 -34 42l-6 1zM342 590q7 10 7 25q0 35 -36 35q-32 0 -52 -38q-18 -36 -41 -142h122l-10 -44h-121l-90 -428q-19 -87 -63 -137.5t-108 -50.5q-56 0 -81 37q22 -6 40 -6q103 0 136 157l91 428
h-91l9 44h91q20 84 43.5 132t55.5 70t79 22q32 0 50.5 -14t18.5 -36q0 -43 -50 -54z" />
    <glyph glyph-name="g233" horiz-adv-x="519" 
d="M491 562q-22 69 -105 69q-67 0 -125.5 -57.5t-91.5 -150.5h247l-20 -43h-241q-12 -43 -17 -99h205l-21 -42h-186q0 -91 34 -145.5t97 -54.5q90 0 170 104l-17 -83q-72 -75 -184 -75q-88 0 -135.5 70t-46.5 184h-67l12 42h57q4 44 19 99h-59l12 43h61q45 118 128 188
t186 70q83 0 129 -38z" />
    <glyph glyph-name="uni03060301" horiz-adv-x="0" 
d="M-216 590q-38 -36 -83 -36q-37 0 -60 25.5t-23 68.5q0 17 5 40q6 -34 31 -53.5t60 -19.5q77 0 120 73q-12 -62 -50 -98zM-59 834l-226 -147l107 147h119z" />
    <glyph glyph-name="uni03060300" horiz-adv-x="0" 
d="M-216 590q-38 -36 -83 -36q-37 0 -60 25.5t-23 68.5q0 17 5 40q6 -34 31 -53.5t60 -19.5q77 0 120 73q-12 -62 -50 -98zM-260 676l-159 147h115z" />
    <glyph glyph-name="uni03060309" horiz-adv-x="0" 
d="M-216 590q-38 -36 -83 -36q-37 0 -60 25.5t-23 68.5q0 17 5 40q6 -34 31 -53.5t60 -19.5q77 0 120 73q-12 -62 -50 -98zM-195.5 766.5q-17.5 -16.5 -47.5 -30.5q-9 -4 -16 -8t-8 -9v-4q0 -15 10 -22q-6 -9 -18 -9q-19 0 -28.5 11t-6.5 28q2 13 12.5 21.5t30.5 19.5
q17 9 27 16.5t11 17.5q1 3 1 10q0 14 -9.5 22.5t-26.5 8.5q-19 0 -38 -11q-20 -13 -33 -37l-10 2l10 58q17 10 39.5 16t44.5 6q33 0 56 -17q17 -13 17 -39q0 -34 -17.5 -50.5z" />
    <glyph glyph-name="uni03060303" horiz-adv-x="0" 
d="M-216 590q-38 -36 -83 -36q-37 0 -60 25.5t-23 68.5q0 17 5 40q6 -34 31 -53.5t60 -19.5q77 0 120 73q-12 -62 -50 -98zM-144.5 744q-26.5 -29 -65.5 -29q-26 0 -66 25q-41 25 -61 25q-47 0 -66 -69q-6 14 -6 30q0 39 27 67.5t65 28.5q28 0 69 -25t60 -25q47 0 65 70
q5 -17 5 -30q0 -39 -26.5 -68z" />
    <glyph glyph-name="uni03020301" horiz-adv-x="0" 
d="M-158 518l-116 84l-147 -84l166 181zM90 712l-226 -147l107 147h119z" />
    <glyph glyph-name="uni03020300" horiz-adv-x="0" 
d="M-158 518l-116 84l-147 -84l166 181zM-138 648l-159 147h115z" />
    <glyph glyph-name="uni03020309" horiz-adv-x="0" 
d="M-158 518l-116 84l-147 -84l166 181zM-47.5 706.5q-17.5 -16.5 -47.5 -30.5q-9 -4 -16 -8t-8 -9v-4q0 -15 10 -22q-6 -9 -18 -9q-19 0 -28.5 11t-6.5 28q2 13 12.5 21.5t30.5 19.5q17 9 27 16.5t11 17.5q1 3 1 10q0 14 -9.5 22.5t-26.5 8.5q-19 0 -38 -11
q-20 -13 -33 -37l-10 2l10 58q17 10 39.5 16t44.5 6q33 0 56 -17q17 -13 17 -39q0 -34 -17.5 -50.5z" />
    <glyph glyph-name="uni03020303" horiz-adv-x="0" 
d="M-158 518l-116 84l-147 -84l166 181zM-92.5 730q-26.5 -29 -65.5 -29q-26 0 -66 25q-41 25 -61 25q-47 0 -66 -69q-6 14 -6 30q0 39 27 67.5t65 28.5q28 0 69 -25t60 -25q47 0 65 70q5 -17 5 -30q0 -39 -26.5 -68z" />
    </font>
</defs>
</svg>
