<?xml version="1.0" standalone="no"?>
<!DOCTYPE svg PUBLIC "-//W3C//DTD SVG 1.1//EN" "http://www.w3.org/Graphics/SVG/1.1/DTD/svg11.dtd" >
<svg xmlns="http://www.w3.org/2000/svg" xmlns:xlink="http://www.w3.org/1999/xlink" version="1.1">
<metadata>
Created by FontForge 20170731 at Fri May  5 06:25:07 2017
 By Aleksey,,,
Version 2. Beaufort is a trademark of Shinn Type Foundry. Copyright 2002 by Nick Shinn. Published 2002 by Shinn Type Foundry.
</metadata>
<defs>
<font id="Beaufort-Regular" horiz-adv-x="692" >
  <font-face 
    font-family="Beaufort"
    font-weight="400"
    font-stretch="normal"
    units-per-em="1000"
    panose-1="2 0 5 3 5 0 0 2 0 4"
    ascent="800"
    descent="-200"
    x-height="469"
    cap-height="666"
    bbox="-542 -220 1039 991"
    underline-thickness="20"
    underline-position="-153"
    unicode-range="U+000D-FB02"
  />
<missing-glyph horiz-adv-x="1000" 
 />
    <glyph glyph-name="fi" unicode="fi" horiz-adv-x="540" 
d="M173 420v-329q0 -35 7 -52q12 -38 35 -39h-159q24 1 37 38q7 17 7 53v329h-83v49h83v21q0 93 38.5 146.5t107.5 53.5q33 0 45 -5v-89q-11 21 -29 31t-36 10q-25 0 -39 -23q-14 -25 -14 -81v-64h118v-49h-118zM460.5 582.5q-15.5 -15.5 -40.5 -15.5q-26 0 -41.5 15.5
t-15.5 38.5t15.5 39t41.5 16t41 -16t15 -39t-15.5 -38.5zM346 0q23 1 38 37q7 17 7 50v265q0 50 -12 65t-34 15h-11l131 56v-401q0 -54 22 -76q10 -9 23 -11h-164z" />
    <glyph glyph-name="fl" unicode="fl" horiz-adv-x="540" 
d="M351 0q23 2 36 37q7 17 7 50v460q0 55 -13 76q-12 17 -38 17h-8l132 53v-606q0 -55 21 -76q9 -9 22 -11h-159zM173 420v-329q0 -35 7 -52q12 -38 35 -39h-159q24 1 37 38q7 17 7 53v329h-83v49h83v21q0 93 39 146.5t108 53.5q32 0 44 -5v-89q-11 21 -29 31t-36 10
q-25 0 -39 -23q-14 -25 -14 -81v-64h118v-49h-118z" />
    <glyph glyph-name=".notdef" horiz-adv-x="1000" 
 />
    <glyph glyph-name=".null" horiz-adv-x="0" 
 />
    <glyph glyph-name="uni000D" unicode="&#xd;" horiz-adv-x="225" 
 />
    <glyph glyph-name="space" unicode=" " horiz-adv-x="225" 
 />
    <glyph glyph-name="exclam" unicode="!" horiz-adv-x="282" 
d="M216 666q-17 -6 -27 -54q-7 -28 -8 -71l-8 -268q-1 -41 -15 -80q-2 -7 -10 -26l-6 -14l-6 14q-13 31 -20 62q-4 19 -6 44l-8 268q-1 39 -7 71q-6 26 -12.5 38.5t-15.5 15.5h149zM182.5 3.5q-15.5 -15.5 -40.5 -15.5q-26 0 -41 15.5t-15 38.5t15 38.5t41 15.5
q25 0 40.5 -15.5t15.5 -38.5t-15.5 -38.5z" />
    <glyph glyph-name="quotedbl" unicode="&#x22;" horiz-adv-x="461" 
d="M179 544q0 -57 -19 -114q-8 -24 -18 -42h-2q-20 38 -30 91q-5 32 -5 65v122h74v-122zM356 544q0 -60 -18 -114q-7 -24 -18 -42h-3q-20 38 -30 91q-5 32 -5 65v122h74v-122z" />
    <glyph glyph-name="numbersign" unicode="#" horiz-adv-x="526" 
d="M401 432l-45 -185h108v-38h-119l-52 -209h-44l49 209h-139l-53 -209h-44l50 209h-91v38h101l45 185h-101v39h110l48 195h46l-48 -195h140l48 195h48l-48 -195h92v-39h-101zM214 432l-44 -185h139l44 185h-139z" />
    <glyph glyph-name="dollar" unicode="$" horiz-adv-x="523" 
d="M422 61q-48 -46 -138 -54v-77h-52v76q-49 2 -96.5 15.5t-80.5 34.5v148q22 -68 68.5 -104t108.5 -42v254q-82 36 -122 72q-52 46 -52 106q0 75 50 120q47 42 124 50v70h52v-70q47 -5 82 -16q41 -13 62 -28v-128q-32 101 -144 121v-236q47 -23 78.5 -41t53.5 -38
q54 -49 54 -115q0 -72 -48 -118zM232 610q-48 -5 -78 -32t-30 -67q0 -39 33 -70q23 -22 75 -46v215zM364 239q-24 23 -80 50v-231q46 5 78 29q36 27 36 69q0 49 -34 83z" />
    <glyph glyph-name="percent" unicode="%" horiz-adv-x="694" 
d="M289 421q-18 -22 -44.5 -35t-59.5 -13q-65 0 -103 48q-35 44 -35 106t37 107q39 47 101 47q33 0 59.5 -13t44.5 -35q35 -44 35 -106t-35 -106zM141 0h-56l471 666h54zM245 607q-23 33 -62 33q-38 0 -58 -30.5t-20 -80.5q0 -48 21 -80q21 -34 60 -34q38 0 59 31t21 80
q0 50 -21 81zM608 34q-18 -22 -44.5 -35t-59.5 -13q-65 0 -103 48q-35 44 -35 106q0 63 36 106q40 48 102 48q33 0 59.5 -13t44.5 -35q35 -44 35 -106t-35 -106zM563 221q-22 32 -60 32t-58.5 -31t-20.5 -81q0 -49 21.5 -80.5t59.5 -31.5t59 31t21 80t-22 81z" />
    <glyph glyph-name="ampersand" unicode="&#x26;" horiz-adv-x="754" 
d="M640 -14q-33 0 -86 31q-51 30 -89 60q-100 -93 -217 -93q-45 0 -83 11.5t-65 33.5q-27 21 -42 53t-15 71q0 61 44 112q34 39 102 81q-38 49 -60 92t-22 87q0 67 49 113q48 43 119 43q70 0 116 -34q51 -39 51 -101t-48 -115q-20 -22 -45 -40t-62 -41q81 -95 190 -186
q46 59 71 117q29 66 29 114q0 23 -8 35.5t-21 20.5h152q-36 -19 -64 -105q-17 -53 -47 -110t-69 -105q43 -32 78 -52q49 -28 79 -28q17 0 31 8t30 26q-33 -99 -98 -99zM344 602q-30 30 -76 30q-42 0 -68 -25.5t-26 -67.5q0 -32 27 -78q22 -38 54 -76q63 41 91 72.5t28 72.5
q0 42 -30 72zM221 309q-48 -32 -74 -63.5t-26 -71.5q0 -27 11 -51.5t32 -42.5q44 -39 102 -39q79 0 155 69q-112 93 -200 199z" />
    <glyph glyph-name="quotesingle" unicode="'" horiz-adv-x="257" 
d="M166 544q0 -57 -19 -114q-7 -24 -18 -42h-2q-20 38 -30 91q-5 32 -5 65v122h74v-122z" />
    <glyph glyph-name="parenleft" unicode="(" horiz-adv-x="312" 
d="M195.5 -135.5q-45.5 43.5 -78.5 105.5q-33 61 -51 132.5t-18 148.5q0 75 17.5 147t49.5 132q33 62 78.5 105.5t100.5 64.5q-78 -61 -122 -189q-41 -120 -41 -256q0 -140 42 -260q22 -62 53 -112t70 -82q-55 20 -100.5 63.5z" />
    <glyph glyph-name="parenright" unicode=")" horiz-adv-x="312" 
d="M246.5 103q-17.5 -72 -49.5 -132q-34 -62 -80 -106t-101 -64q79 65 123 192q42 119 42 258q0 137 -41 258q-45 126 -123 191q55 -20 100.5 -64t79.5 -106q32 -61 49.5 -133t17.5 -147t-17.5 -147z" />
    <glyph glyph-name="asterisk" unicode="*" horiz-adv-x="399" 
d="M365 584q-33 -6 -69.5 -22t-68.5 -37q39 -26 71.5 -41.5t64.5 -20.5l-53 -77q-9 18 -30 48q-21 29 -68 71q-18 -67 -18 -109q0 -29 4 -46l-87 28q16 16 34 45q18 28 43 90q-91 -8 -145 -35v95q13 -8 50 -20q33 -10 95 -15q-22 56 -42 88q-18 29 -34 45l88 29
q-4 -17 -4 -48q0 -49 16 -106q78 69 99 116z" />
    <glyph glyph-name="plus" unicode="+" horiz-adv-x="663" 
d="M360 255v-255h-55v255h-245v53h245v253h55v-253h244v-53h-244z" />
    <glyph glyph-name="comma" unicode="," horiz-adv-x="236" 
d="M193 -66.5q-9 -29.5 -28 -53.5q-44 -56 -121 -62q41 16 72 57q14 18 22 40t8 44q0 26 -9 40q-10 -7 -24 -7q-25 0 -38.5 15t-13.5 37q0 24 16 41t44 17q37 0 60 -33q21 -30 21 -77q0 -29 -9 -58.5z" />
    <glyph glyph-name="hyphen" unicode="-" horiz-adv-x="353" 
d="M54 221v61h246v-61h-246z" />
    <glyph glyph-name="period" unicode="." horiz-adv-x="236" 
d="M161.5 5q-15.5 -17 -42.5 -17t-43.5 17t-16.5 41t16 40.5t44 16.5q27 0 42.5 -16.5t15.5 -40.5t-15.5 -41z" />
    <glyph glyph-name="slash" unicode="/" horiz-adv-x="431" 
d="M107 -13h-63l293 688h61z" />
    <glyph glyph-name="zero" unicode="0" horiz-adv-x="523" 
d="M467 196.5q-17 -67.5 -48 -115.5q-30 -47 -71 -71.5t-88 -24.5q-46 0 -85.5 21t-69.5 62q-31 43 -48 105t-17 141q0 85 17 154t48 117q30 46 70.5 70.5t87.5 24.5q46 0 86 -21.5t70 -63.5q31 -43 48 -105.5t17 -141.5q0 -84 -17 -151.5zM359 550q-21 39 -48.5 58.5
t-57.5 19.5q-27 0 -52.5 -16.5t-43.5 -48.5q-41 -72 -41 -198q0 -161 48 -249q21 -39 48 -59t58 -20q28 0 52.5 16t42.5 48q41 71 41 199q0 159 -47 250z" />
    <glyph glyph-name="one" unicode="1" horiz-adv-x="523" 
d="M216 0l10 6q20 11 32 51q6 23 6 60v452l-170 -113v67l245 161v-567q0 -64 23 -95q6 -10 16 -16l10 -6h-172z" />
    <glyph glyph-name="two" unicode="2" horiz-adv-x="523" 
d="M470 0h-446l151 163q97 105 143.5 179t46.5 142q0 70 -38 108.5t-98 38.5q-48 0 -82 -27q-16 -13 -24.5 -30t-8.5 -36q0 -24 12 -41.5t35 -22.5l-65 -56q-21 9 -36 34t-15 56q0 73 51 120q58 53 156 53q38 0 73 -11.5t62 -34.5q60 -53 60 -139q0 -40 -16.5 -81t-48.5 -88
q-27 -41 -64.5 -85t-95.5 -106l-67 -73h211q57 0 95 23q13 7 21 17q7 7 9 11z" />
    <glyph glyph-name="three" unicode="3" horiz-adv-x="523" 
d="M460 95q-17 -34 -47 -58q-30 -25 -72 -38.5t-90 -13.5q-82 0 -135 31t-72 89l79 52q2 -54 38.5 -88t100.5 -34q62 0 99.5 32t37.5 83q0 36 -18 66t-52 51q-68 42 -174 42l15 50q33 -3 45 -3q73 0 120 45q43 41 43 102q0 25 -9 48.5t-26 41.5q-37 39 -99 39
q-52 0 -85 -22.5t-33 -56.5q0 -14 7 -25.5t18 -17.5l-76 -39q-20 31 -20 61q0 32 16.5 60t45.5 48q60 41 146 41q87 0 141 -46q52 -44 52 -116q0 -59 -38 -110q-41 -53 -105 -70q79 -18 124 -68q40 -44 40 -103q0 -39 -17 -73z" />
    <glyph glyph-name="four" unicode="4" horiz-adv-x="523" 
d="M412 163v-60q0 -57 15 -83q4 -9 10 -15l4.5 -3t2.5 -2h-134l6 5q6 6 10 15q13 26 13 84v59h-324l397 533v-475h80v-58h-80zM339 517l-220 -296h220v296z" />
    <glyph glyph-name="five" unicode="5" horiz-adv-x="523" 
d="M412 46q-30 -30 -74 -45.5t-98 -15.5q-75 0 -126 29t-70 76l80 49q6 -48 42 -77q35 -27 85 -27q65 0 102 33q44 37 44 111q0 79 -62 124t-175 45h-84l72 318h200q37 0 60 3q40 4 50 16l-19 -83h-245l-47 -193h48q125 0 201 -54q37 -27 56.5 -66t19.5 -86q0 -97 -60 -157z
" />
    <glyph glyph-name="six" unicode="6" horiz-adv-x="523" 
d="M467 132q-14 -42 -40 -74q-29 -34 -71 -53.5t-95 -19.5q-49 0 -89.5 18t-68.5 52q-28 33 -42.5 78.5t-14.5 99.5q0 68 22.5 136.5t63.5 130.5q40 60 94 105.5t116 69.5l121 -18q-112 -27 -200 -103q-97 -83 -144 -213l3 -2q27 45 68.5 71t91.5 26q47 0 85 -18t64 -49
q24 -30 37 -69.5t13 -81.5q0 -44 -14 -86zM400.5 264q-9.5 32 -28.5 57q-44 57 -118 57q-57 0 -96 -48q-17 -21 -26 -49.5t-9 -56.5q0 -36 10.5 -69t31.5 -59q45 -60 118 -60q30 0 54.5 13.5t40.5 37.5q32 46 32 111q0 34 -9.5 66z" />
    <glyph glyph-name="seven" unicode="7" horiz-adv-x="523" 
d="M314 279q-79 -162 -85 -279h-109q36 81 102 215l111 226q46 92 78 164h-255q-55 0 -91 -26q-15 -12 -20 -19q-8 -11 -9 -14l22 120h446z" />
    <glyph glyph-name="eight" unicode="8" horiz-adv-x="523" 
d="M415 39q-31 -26 -72.5 -40t-86.5 -14q-44 0 -83.5 12t-68.5 34q-65 49 -65 131q0 59 37 108q39 52 108 71q-58 19 -90 64q-30 42 -30 94q0 39 16 72.5t45 58.5q28 24 64.5 37.5t77.5 13.5q79 0 134 -44q56 -45 56 -120q0 -53 -28 -96q-34 -50 -89 -66q71 -22 107 -69.5
t36 -106.5q0 -84 -68 -140zM348 593q-40 40 -99 40q-51 0 -82.5 -31.5t-31.5 -84.5q0 -58 39 -100t98 -42q48 0 80 32q34 32 34 87q0 59 -38 99zM362 271q-47 44 -116 44q-60 0 -96 -35.5t-36 -92.5q0 -64 46 -107q44 -44 114 -44q61 0 97.5 33.5t36.5 92.5q0 65 -46 109z
" />
    <glyph glyph-name="nine" unicode="9" horiz-adv-x="523" 
d="M458.5 295.5q-22.5 -68.5 -62.5 -129.5q-40 -60 -94.5 -105.5t-116.5 -69.5l-121 18q114 28 202 103q98 85 143 213l-4 2q-27 -45 -68.5 -71t-91.5 -26q-48 0 -85.5 18.5t-62.5 50.5q-24 30 -37 69t-13 82q0 44 14 85.5t40 73.5q28 34 69.5 53t94.5 19q103 0 163 -75
q26 -33 39.5 -78.5t13.5 -95.5q0 -68 -22.5 -136.5zM363 571q-47 59 -119 59q-30 0 -54 -13.5t-40 -37.5q-16 -23 -24.5 -52.5t-8.5 -60.5q0 -34 10 -65.5t29 -56.5q44 -57 118 -57q30 0 54.5 13t41.5 36q34 45 34 106q0 74 -41 129z" />
    <glyph glyph-name="colon" unicode=":" horiz-adv-x="236" 
d="M161 321q-16 -17 -43 -17t-43 17t-16 41t15.5 40.5t43.5 16.5q27 0 43 -16.5t16 -40.5t-16 -41zM161 5q-16 -17 -43 -17t-43 17t-16 41t15.5 40.5t43.5 16.5q27 0 43 -16.5t16 -40.5t-16 -41z" />
    <glyph glyph-name="semicolon" unicode=";" horiz-adv-x="236" 
d="M164 321q-16 -17 -43 -17t-43 17t-16 41q0 25 15.5 41.5t43.5 16.5q27 0 43 -17t16 -41t-16 -41zM194 -66.5q-9 -29.5 -28 -53.5q-44 -56 -121 -62q41 16 72 57q14 18 22 40t8 44q0 26 -9 40q-10 -7 -24 -7q-25 0 -38.5 15t-13.5 37q0 24 16 41t44 17q37 0 60 -33
q21 -30 21 -77q0 -29 -9 -58.5z" />
    <glyph glyph-name="less" unicode="&#x3c;" horiz-adv-x="663" 
d="M92 257v48l479 262v-62l-413 -222v-5l413 -219v-62z" />
    <glyph glyph-name="equal" unicode="=" horiz-adv-x="663" 
d="M60 361v53h544v-53h-544zM60 156v53h544v-53h-544z" />
    <glyph glyph-name="greater" unicode="&#x3e;" horiz-adv-x="663" 
d="M92 -3v62l414 221v5l-414 220v62l479 -262v-48z" />
    <glyph glyph-name="question" unicode="?" horiz-adv-x="456" 
d="M407.5 478.5q-13.5 -28.5 -38.5 -57.5q-26 -30 -48 -49q-60 -52 -86 -93q-15 -25 -15 -53q0 -32 27 -52q-7 -7 -21 -7q-27 0 -48 21.5t-21 52.5q0 53 47 105q13 15 43 43q55 50 77 90q13 23 13 53q0 46 -29 72t-72 26q-45 0 -83 -26q-43 -30 -64 -82v117q31 19 74.5 31
t87.5 12q74 0 120 -34q50 -37 50 -108q0 -33 -13.5 -61.5zM248.5 3q-14.5 -15 -39.5 -15t-39.5 15t-14.5 37t14.5 37.5t39.5 15.5t39.5 -15.5t14.5 -37.5t-14.5 -37z" />
    <glyph glyph-name="at" unicode="@" horiz-adv-x="936" 
d="M857 198q-17 -54 -48 -98q-33 -47 -77.5 -73.5t-96.5 -26.5q-50 0 -72.5 23t-24.5 81q-53 -104 -155 -104q-55 0 -87 42t-32 119q0 50 15.5 103.5t44.5 97.5q31 47 72.5 74t92.5 27q32 0 58 -9l28 -9q15 -6 29 -6q23 0 54 16l-56 -329q-2 -10 -2 -13v-13
q0 -28 13.5 -45.5t39.5 -17.5q31 0 63.5 19.5t57.5 55.5q27 38 42 87.5t15 107.5q0 62 -21 116t-62 94q-43 42 -105 64.5t-140 22.5q-85 0 -158.5 -30t-127.5 -84t-83 -126t-29 -154q0 -78 25.5 -144.5t75.5 -114.5q108 -105 301 -105q100 0 181.5 35.5t139.5 99.5l36 -17
q-65 -73 -155 -112.5t-204 -39.5q-108 0 -191 28.5t-140 81.5q-55 51 -83.5 123t-28.5 159q0 88 31 167.5t88 137.5q59 60 142.5 93.5t186.5 33.5q79 0 146 -23.5t116 -66.5t75.5 -104.5t26.5 -134.5q0 -55 -17 -109zM545.5 404q-18.5 20 -64.5 20q-30 0 -56.5 -24
t-46.5 -64q-19 -39 -30 -85t-11 -87q0 -60 19 -89.5t50 -29.5q32 0 59.5 23t47.5 61q21 44 36 113q15 70 15 104q0 38 -18.5 58z" />
    <glyph glyph-name="A" unicode="A" 
d="M485 0q18 5 27 18q5 8 5 23q0 17 -17 59l-41 106h-257l-40 -102q-15 -40 -15 -56q0 -28 20 -41q12 -6 20 -7h-166q24 4 54 49q14 21 33 67l237 578l235 -579q29 -71 62 -100q15 -13 29 -15h-186zM330 530l-109 -274h218z" />
    <glyph glyph-name="B" unicode="B" horiz-adv-x="564" 
d="M509 109q-12 -31 -35 -55q-54 -54 -142 -54h-279q25 2 40 41q7 18 7 55v476q0 56 -25 81q-12 12 -24 13h253q91 0 140 -49q43 -43 43 -110q0 -28 -9 -54.5t-25 -47.5q-34 -45 -90 -56q70 -7 116 -60q42 -50 42 -116q0 -33 -12 -64zM365 586q-36 31 -87 31h-97v-248h104
q52 0 84.5 35.5t32.5 96.5q0 53 -37 85zM396 280.5q-39 39.5 -104 39.5h-111v-270h121q73 0 107 41q26 31 26 86q0 64 -39 103.5z" />
    <glyph glyph-name="C" unicode="C" horiz-adv-x="629" 
d="M597 81q-40 -46 -95.5 -71.5t-124.5 -25.5q-80 0 -142.5 27.5t-104.5 76.5q-40 46 -60.5 106t-20.5 125q0 69 22.5 133.5t66.5 115.5q46 53 113 83.5t151 30.5q51 0 97.5 -12t81.5 -31v-145q-24 67 -73 100.5t-125 33.5q-59 0 -105.5 -24t-78.5 -66q-30 -40 -46 -92
t-16 -107q0 -57 16 -110t48 -94q34 -44 82 -68.5t110 -24.5q55 0 108.5 27.5t95.5 76.5v-65z" />
    <glyph glyph-name="D" unicode="D" horiz-adv-x="703" 
d="M633 208q-21 -61 -63 -107q-91 -101 -255 -101h-262q25 4 41 43q8 21 8 58v470q0 59 -26 83q-10 10 -25 12h267q78 0 141 -23.5t106 -67.5t66 -104.5t23 -131.5q0 -70 -21 -131zM498.5 543.5q-67.5 73.5 -200.5 73.5h-115v-567h141q120 0 186 91q28 39 42 89t14 103
q0 137 -67.5 210.5z" />
    <glyph glyph-name="E" unicode="E" horiz-adv-x="521" 
d="M470 0h-418q24 1 41 41q8 21 8 54v477q0 57 -26 81q-12 12 -26 13h401v-138l-4 19q-9 36 -45 58q-21 12 -56 12h-163v-252h136q43 0 64 23q10 11 11 24v-143q-2 24 -33 40q-14 7 -41 7h-137v-266h168q60 0 90 22q31 23 53 81z" />
    <glyph glyph-name="F" unicode="F" horiz-adv-x="485" 
d="M452 530q-8 35 -25 54q-31 33 -88 33h-158v-252h141q43 0 64 23q10 11 11 24v-143q-5 25 -33 40q-14 7 -41 7h-142v-224q0 -56 24 -80q8 -8 17 -10l7 -2h-177q24 1 41 40q8 19 8 53v479q0 57 -26 81q-11 12 -25 13h402v-136z" />
    <glyph glyph-name="G" unicode="G" horiz-adv-x="679" 
d="M645 302q-25 -1 -40 -36q-8 -19 -8 -49v-187q-44 -21 -104 -33.5t-118 -12.5q-79 0 -140.5 27t-104.5 76q-41 46 -61.5 106.5t-20.5 126.5q0 68 22.5 133t65.5 115q46 53 114 83.5t155 30.5q54 0 103 -12t84 -31v-139q-21 61 -75 95t-131 34q-58 0 -105.5 -23t-80.5 -65
q-32 -40 -49 -92.5t-17 -109.5t17 -110t50 -95q34 -44 84 -68.5t114 -24.5q27 0 60.5 6.5t57.5 15.5v153q0 51 -25 74q-10 11 -24 12h177z" />
    <glyph glyph-name="H" unicode="H" horiz-adv-x="720" 
d="M495 0q25 2 40 40q7 17 7 53v222h-364v-222q0 -57 24 -81q11 -10 24 -12h-177q26 2 41 40q7 17 7 53v480q0 57 -24 81q-11 11 -24 12h177q-25 -1 -40 -40q-8 -21 -8 -53v-208h364v208q0 57 -24 81q-10 10 -23 12h176q-26 -2 -40 -39q-7 -18 -7 -54v-480q0 -58 23 -81
q11 -10 24 -12h-176z" />
    <glyph glyph-name="I" unicode="I" horiz-adv-x="276" 
d="M51 0q26 5 40 38q7 17 7 52v485q0 54 -24 78q-12 12 -24 13h176q-25 -4 -40 -40q-8 -19 -8 -51v-485q0 -56 24 -78q11 -10 24 -12h-175z" />
    <glyph glyph-name="J" unicode="J" horiz-adv-x="501" 
d="M458 666q-26 -2 -40 -39q-7 -18 -7 -52v-381q0 -116 -47 -165q-44 -45 -132 -45q-50 0 -105 19q-38 13 -63 32v101q25 -46 66.5 -72.5t88.5 -26.5q31 0 52 7.5t34 24.5q13 18 19 49t6 82v376q0 55 -25 78q-10 11 -24 12h177z" />
    <glyph glyph-name="K" unicode="K" horiz-adv-x="646" 
d="M468 0l-290 331v-239q0 -59 24 -81q11 -11 24 -11h-176q24 2 40 39q7 17 7 53v481q0 57 -24 81q-10 10 -23 12h176q-25 -1 -40 -40q-8 -21 -8 -53v-222l213 217q28 29 39 48q10 17 10 29t-8.5 16.5t-13.5 4.5h192q-35 -6 -88 -44q-30 -20 -65 -57l-198 -201l228 -262
q49 -58 90 -83q13 -8 24.5 -12.5t20.5 -6.5h-154z" />
    <glyph glyph-name="L" unicode="L" horiz-adv-x="527" 
d="M472 0h-421q24 5 39 43q7 18 7 57v473q0 57 -24 81q-10 10 -23 12h175q-24 -1 -40 -39q-8 -21 -8 -54v-523h163q34 0 57 6t41 20q33 27 58 93z" />
    <glyph glyph-name="M" unicode="M" horiz-adv-x="840" 
d="M617 0q24 1 39 40q7 17 7 53v470l-252 -575l-252 572v-461q0 -63 27 -86q13 -12 28 -13h-165q29 4 47 43q8 21 8 56v478q0 54 -27 77q-12 10 -27 12h151l226 -518l225 518h138q-24 -1 -40 -39q-8 -21 -8 -52v-482q0 -57 24 -81q11 -11 24 -12h-173z" />
    <glyph glyph-name="N" unicode="N" horiz-adv-x="703" 
d="M664 666q-15 -2 -25.5 -12t-18.5 -29q-8 -21 -8 -52v-602l-454 561v-440q0 -57 27 -79q13 -12 28 -13h-164q26 1 43 40q8 19 8 52v471q0 44 -29 73q-18 18 -47 30h130l401 -497v404q0 56 -26 80q-12 12 -26 13h161z" />
    <glyph glyph-name="O" unicode="O" horiz-adv-x="742" 
d="M670 201q-23 -65 -67 -113q-45 -49 -106 -76t-134 -27q-70 0 -128 25t-100 72q-42 46 -64 108t-22 136q0 75 24.5 140t68.5 114t105 75.5t134 26.5q69 0 127.5 -25.5t99.5 -71.5t63 -109t22 -135q0 -75 -23 -140zM595.5 441.5q-17.5 56.5 -50.5 97.5q-34 42 -80.5 65
t-103.5 23q-51 0 -93.5 -19.5t-72.5 -55.5q-31 -37 -47.5 -87t-16.5 -110q0 -68 18 -126t51 -100q34 -43 80.5 -66t102.5 -23q51 0 93.5 20t72.5 57q31 38 47.5 89t16.5 112q0 67 -17.5 123.5z" />
    <glyph glyph-name="P" unicode="P" horiz-adv-x="549" 
d="M497.5 396.5q-14.5 -36.5 -43.5 -64.5q-66 -63 -173 -63q-29 0 -58 4t-44 9v-190q0 -57 25 -80q10 -10 25 -12h-176q25 1 41 39q7 17 7 53v480q0 56 -25 81q-11 12 -25 13h248q101 0 160 -59q26 -27 39.5 -62t13.5 -72q0 -40 -14.5 -76.5zM419 524.5q-10 27.5 -29 47.5
q-19 21 -48.5 32.5t-65.5 11.5h-97v-284q14 -5 41.5 -8t58.5 -3q70 0 111 43q39 41 39 103q0 30 -10 57.5z" />
    <glyph glyph-name="Q" unicode="Q" horiz-adv-x="768" 
d="M755 -79q-5 23 -16.5 37.5t-31.5 22.5q-19 8 -48 11t-73 3q-41 0 -111 -4q-72 -4 -113 -4q-70 0 -127.5 25t-99.5 72q-42 45 -64 107t-22 136q0 75 24.5 140t68.5 114q44 48 105 74.5t134 26.5q69 0 127.5 -25t99.5 -71t63 -109t22 -135q0 -96 -40.5 -175t-111.5 -123
l95 9q53 5 88 5q36 0 51 -5zM594 439.5q-18 57.5 -51 99.5q-34 42 -80.5 65t-102.5 23q-50 0 -92.5 -19t-72.5 -55q-31 -36 -47.5 -86.5t-16.5 -110.5q0 -68 18 -126t51 -100q33 -43 80 -65.5t103 -22.5q50 0 92.5 19.5t73.5 55.5q63 76 63 199q0 66 -18 123.5z" />
    <glyph glyph-name="R" unicode="R" horiz-adv-x="592" 
d="M433 0l-140 234q-19 34 -38.5 46t-47.5 12h-25v-200q0 -59 24 -81q11 -11 24 -11h-175q26 0 41 38q7 18 7 54v479q0 57 -25 82q-12 12 -25 13h235q48 0 88.5 -14t69.5 -39q59 -51 59 -130q0 -31 -11 -61.5t-32 -56.5q-48 -58 -139 -65q13 -5 27 -19.5t25 -33.5l116 -190
q18 -28 37.5 -40t42.5 -17h-138zM412 530q-10 25 -28 44q-19 20 -48 31.5t-65 11.5h-91v-278h91q77 0 117 42q34 35 34 97q0 27 -10 52z" />
    <glyph glyph-name="S" unicode="S" horiz-adv-x="476" 
d="M399 56q-57 -71 -183 -71q-49 0 -93 14t-79 38v152q48 -153 184 -153q25 0 49 7.5t43 20.5q41 31 41 84q0 41 -21 70.5t-59 54.5q-37 24 -74 42q-92 46 -132 105q-23 35 -23 85q0 33 12 63.5t35 54.5q56 58 157 58q41 0 80.5 -13t63.5 -32v-132q-19 65 -60 96t-96 31
q-56 0 -89 -33t-33 -76q0 -37 21.5 -63.5t60.5 -50.5q38 -23 75 -41q91 -45 134 -110q23 -38 23 -92q0 -63 -37 -109z" />
    <glyph glyph-name="T" unicode="T" horiz-adv-x="606" 
d="M577 524q-9 27 -17.5 43.5t-20.5 26.5q-25 22 -80 22h-115v-523q0 -57 24 -81q11 -11 24 -12h-177q26 2 41 40q7 17 7 53v523h-116q-29 0 -48 -5t-32 -16q-24 -21 -38 -70l10 141h528z" />
    <glyph glyph-name="U" unicode="U" horiz-adv-x="674" 
d="M641 666q-15 -1 -25.5 -10.5t-19.5 -29.5q-8 -21 -8 -54v-345q0 -122 -59 -182t-190 -60t-189.5 58.5t-58.5 179.5v351q0 56 -24 80q-11 11 -24 12h177q-24 -1 -40 -39q-8 -21 -8 -52v-350q0 -97 42.5 -141.5t136.5 -44.5q97 0 138 52q35 43 35 132v349q0 57 -27 82
q-10 10 -26 12h170z" />
    <glyph glyph-name="V" unicode="V" horiz-adv-x="688" 
d="M671 666q-26 -5 -57 -46q-15 -21 -32 -62l-240 -586l-238 589q-25 60 -59 90q-15 12 -28 15h189q-19 -5 -26 -18q-5 -8 -5 -22q0 -22 16 -58l169 -414l168 420q13 33 13 47q0 26 -21 39q-9 4 -20 6h171z" />
    <glyph glyph-name="W" unicode="W" horiz-adv-x="962" 
d="M945 666q-28 -4 -58 -46q-17 -23 -30 -61l-206 -587l-170 484l-176 -484l-203 590q-25 66 -56 90q-16 11 -29 14h189q-16 -4 -23 -20q-4 -8 -4 -25q0 -25 12 -58l133 -387l132 360l-9 30q-18 59 -50 87q-15 12 -27 13h178q-9 -2 -14 -7t-10 -14q-5 -10 -5 -25
q0 -22 13 -57l135 -385l136 390q10 27 10 48q0 28 -19 43q-8 5 -19 7h170z" />
    <glyph glyph-name="X" unicode="X" horiz-adv-x="673" 
d="M443 0q8 0 13 3.5t11 10.5q5 7 5 17q0 25 -34 73l-117 168l-118 -163q-21 -28 -31 -48q-9 -18 -9 -30q0 -19 14 -27q5 -4 15 -4h-175q25 5 67 48q20 20 53 64l151 209l-164 242q-45 66 -79 89q-18 12 -28 14h196q-15 -1 -23 -13q-4 -5 -4 -17q0 -21 29 -64l123 -179
l122 170q20 30 29 47t9 28q0 17 -12 24q-4 4 -11 4h171q-12 -1 -27 -10.5t-37 -28.5q-23 -23 -44 -52l-167 -232l153 -225q50 -74 90 -102q17 -13 32 -16h-203z" />
    <glyph glyph-name="Y" unicode="Y" horiz-adv-x="644" 
d="M622 666q-24 -6 -56 -44q-17 -19 -39 -56l-167 -286v-187q0 -57 24 -81q11 -11 24 -12h-178q26 2 41 40q7 17 7 53v186l-168 289q-33 57 -68 85q-17 12 -26 13h187q-10 -2 -13 -5q-13 -7 -13 -26q0 -21 27 -66l132 -227l125 216q17 29 24.5 46.5t7.5 29.5q0 20 -13 27
q-3 3 -12 5h154z" />
    <glyph glyph-name="Z" unicode="Z" horiz-adv-x="585" 
d="M534 0h-500l374 616h-225q-72 0 -105 -40q-12 -14 -16.5 -27.5t-9.5 -32.5v150h479l-373 -616h232q37 0 61.5 6.5t42.5 20.5q16 13 28.5 35t26.5 58z" />
    <glyph glyph-name="bracketleft" unicode="[" horiz-adv-x="285" 
d="M52 -158v835h189v-42h-128v-749h128v-44h-189z" />
    <glyph glyph-name="backslash" unicode="\" horiz-adv-x="431" 
d="M330 -13l-292 688h61l293 -688h-62z" />
    <glyph glyph-name="bracketright" unicode="]" horiz-adv-x="285" 
d="M44 -158v44h128v749h-128v42h189v-835h-189z" />
    <glyph glyph-name="asciicircum" unicode="^" horiz-adv-x="663" 
d="M510 227l-177 451h-5l-174 -451h-62l213 523h55l212 -523h-62z" />
    <glyph glyph-name="underscore" unicode="_" horiz-adv-x="531" 
d="M7 -127v37h517v-37h-517z" />
    <glyph glyph-name="a" unicode="a" horiz-adv-x="468" 
d="M406 -19q-29 5 -51 27t-28 48q-18 -34 -59 -52.5t-90 -18.5q-58 0 -93 28q-40 30 -40 82q0 56 61 100q67 50 212 83v52q0 56 -25 84t-70 28q-48 0 -74 -20t-26 -49q0 -17 7 -29t18 -16l-81 -33q-13 22 -13 55q0 25 12 49.5t35 42.5q53 43 140 43q74 0 112 -38.5
t38 -102.5v-216q0 -40 18.5 -66.5t55.5 -26.5l16 2zM318 237q-105 -24 -151 -55q-47 -32 -47 -73q0 -35 23.5 -55.5t59.5 -20.5q22 0 42.5 7.5t36.5 21.5q36 31 36 70v105z" />
    <glyph glyph-name="b" unicode="b" horiz-adv-x="516" 
d="M462 155q-15 -48 -43 -86q-29 -39 -70 -61t-91 -22q-58 0 -96 14q-9 3 -23 10q-8 4 -20 4q-13 0 -22.5 -7t-20.5 -21v563q0 55 -14 79q-6 10 -15.5 13.5t-22.5 3.5h-9l136 53v-299q24 38 66.5 62t87.5 24q37 0 69.5 -15.5t54.5 -44.5q48 -64 48 -170q0 -52 -15 -100z
M391.5 306q-7.5 35 -22.5 61q-16 28 -39.5 44t-53.5 16q-25 0 -48.5 -11.5t-41.5 -31.5q-17 -19 -27 -44t-10 -50v-170q0 -42 27.5 -64t81.5 -22q64 0 104 62q18 28 27.5 63.5t9.5 74.5q0 37 -7.5 72z" />
    <glyph glyph-name="c" unicode="c" horiz-adv-x="441" 
d="M348 24q-46 -39 -106 -39q-96 0 -152 69q-25 31 -38 72.5t-13 87.5q0 59 17 109t48 87q30 36 71 55.5t88 19.5q60 0 99.5 -36t42.5 -100l-79 -35q4 12 4 32q0 41 -25 64.5t-62 23.5q-59 0 -97 -52q-37 -51 -37 -134q0 -82 39 -141q43 -64 116 -64q40 0 77.5 23.5
t70.5 70.5q-18 -74 -64 -113z" />
    <glyph glyph-name="d" unicode="d" horiz-adv-x="517" 
d="M379 -21l-1 87q-24 -35 -67 -58t-86 -23q-90 0 -140 68q-47 64 -47 166q0 55 16 103t46 84q30 37 71 57.5t91 20.5q36 0 66 -12.5t46 -33.5v120q0 52 -14 72q-12 16 -37 16h-9l133 52v-572q0 -56 13 -77q10 -17 32 -17h10zM375 315q0 57 -29 89t-82 32q-68 0 -110 -60
q-19 -27 -28.5 -62.5t-9.5 -72.5q0 -93 34.5 -146.5t95.5 -53.5q22 0 45 9t42 25q42 37 42 79v161z" />
    <glyph glyph-name="e" unicode="e" horiz-adv-x="456" 
d="M360 23q-46 -38 -113 -38q-98 0 -156 74q-26 33 -39 76.5t-13 91.5q0 54 14.5 101t41.5 82q56 75 148 75q86 0 134 -75q40 -64 45 -167h-310q0 -90 48 -145q22 -25 51 -38t61 -13q41 0 81.5 22t73.5 66q-21 -74 -67 -112zM339 284q0 60 -23 105q-27 53 -80 53
q-55 0 -89 -51q-15 -22 -24 -50.5t-10 -56.5h226z" />
    <glyph glyph-name="f" unicode="f" horiz-adv-x="315" 
d="M173 420v-329q0 -35 7 -52q12 -38 35 -39h-159q24 1 37 38q7 17 7 53v329h-83v49h83v22q0 93 39 146t108 53q33 0 45 -5v-89q-11 21 -29.5 31t-36.5 10q-25 0 -39 -23q-14 -25 -14 -81v-64h119v-49h-119z" />
    <glyph glyph-name="g" unicode="g" horiz-adv-x="499" 
d="M446.5 -97.5q-16.5 -27.5 -47.5 -47.5q-74 -49 -197 -49q-69 0 -116 23q-26 12 -41 30t-15 41q0 30 32 66q26 28 62 42q-30 8 -46.5 25t-16.5 40q0 25 27 54q24 24 60 41q-45 17 -70.5 55.5t-25.5 86.5q0 34 12 65.5t35 55.5q52 54 140 54q35 0 76 -13q35 -11 67 -11
q49 0 81 23v-63q-11 -3 -35 -5t-46 -2q17 -20 26 -47t9 -56q0 -32 -12 -61t-34 -51q-23 -22 -57 -34.5t-76 -12.5q-25 0 -43 3q-31 -12 -48 -28t-17 -32q0 -15 20 -24q17 -9 55 -11l120 -3q71 -1 107 -31q31 -25 31 -67q0 -29 -16.5 -56.5zM313 399q-15 19 -37 30.5
t-48 11.5q-47 0 -76 -34q-25 -31 -25 -77q0 -55 31 -94q31 -41 84 -41q45 0 74 36q25 33 25 79q0 52 -28 89zM372 -20.5q-25 12.5 -82 14.5q-43 0 -60 1l-42 2h-20q-69 -37 -69 -76q0 -28 33 -46q32 -18 100 -18q72 0 118 20q47 20 47 61q0 29 -25 41.5z" />
    <glyph glyph-name="h" unicode="h" horiz-adv-x="522" 
d="M337 0q19 1 31 36q6 17 6 49v226q0 59 -27 91q-22 26 -62 26q-48 0 -90 -37q-44 -41 -44 -92v-214q0 -54 20 -74q8 -9 21 -11h-157q23 2 36 37q7 17 7 50v459q0 57 -13 78q-12 17 -39 17h-9l134 57v-302q23 37 73 63q49 26 94 26q61 0 95 -39t34 -115v-244q0 -55 21 -76
q9 -9 22 -11h-153z" />
    <glyph glyph-name="i" unicode="i" horiz-adv-x="225" 
d="M145.5 582q-15.5 -16 -40.5 -16q-26 0 -41 16t-15 39t15 38.5t41 15.5t41 -15.5t15 -38.5t-15.5 -39zM31 0q23 1 38 37q7 17 7 50v265q0 50 -12 65q-14 15 -35 15h-11l132 56v-401q0 -54 22 -76q10 -10 23 -11h-164z" />
    <glyph glyph-name="j" unicode="j" horiz-adv-x="225" 
d="M144 582q-15 -16 -40 -16q-26 0 -41.5 16t-15.5 39t15.5 38.5t41.5 15.5t40.5 -15.5t14.5 -38.5t-15 -39zM151 -13q0 -94 -31 -136q-28 -38 -84 -38q-51 0 -89 30q11 -3 23 -3q28 0 48 6.5t33 22.5q27 33 27 117v372q0 42 -12 58t-35 16h-11l131 56v-501z" />
    <glyph glyph-name="k" unicode="k" horiz-adv-x="517" 
d="M418 -10q-35 0 -64.5 19.5t-65.5 64.5l-67 82q-13 14 -25 31l-22 27l-16 20l-8 9v-156q0 -55 21 -76q8 -9 21 -11h-158q23 2 36 37q7 17 7 50v460q0 56 -13 77q-12 16 -39 16h-8l133 53v-434l141 132q23 23 28 32q7 13 7 21q0 15 -16 21q-6 2 -16 4h196l-11 -4
q-25 -8 -66 -34q-28 -21 -52 -42l-136 -122l150 -176q40 -48 69 -63t48 -15l15 2q-34 -25 -89 -25z" />
    <glyph glyph-name="l" unicode="l" horiz-adv-x="225" 
d="M34 0q23 2 36 37q6 18 6 50v460q0 55 -13 76q-12 17 -38 17h-8l133 53v-606q0 -55 21 -76q8 -9 21 -11h-158z" />
    <glyph glyph-name="m" unicode="m" horiz-adv-x="786" 
d="M599 0q21 2 33 37q6 18 6 50v216q0 125 -80 125q-24 0 -47 -10t-41 -28q-39 -39 -39 -90v-213q0 -33 6 -50q12 -36 35 -37h-153q21 2 33 37q6 18 6 50v216q0 65 -24 97q-21 28 -56 28q-24 0 -46.5 -10t-40.5 -28q-40 -40 -40 -90v-213q0 -56 20 -76q8 -9 20 -11h-157
q23 2 36 37q7 15 7 49v256q0 55 -12 74q-6 9 -15 12.5t-22 3.5h-11l132 56l1 -94q24 40 74 68q44 23 89 23q42 0 71 -24t37 -67q26 39 69 64q49 27 99 27q59 0 92 -48q30 -44 30 -115v-235q0 -55 21 -76q8 -9 21 -11h-154z" />
    <glyph glyph-name="n" unicode="n" horiz-adv-x="521" 
d="M334 0q21 2 33 37q6 17 6 49v225q0 60 -24 88.5t-64 28.5q-23 0 -47 -10t-44 -28q-20 -19 -32 -42.5t-12 -48.5v-214q0 -53 21 -74q8 -9 21 -11h-158q23 2 36 37q7 15 7 49v256q0 56 -12 75q-11 15 -37 15h-11l132 56v-94q24 37 75 65q50 26 94 26q55 0 89 -34
q40 -40 40 -120v-244q0 -55 21 -76q8 -9 21 -11h-155z" />
    <glyph glyph-name="o" unicode="o" horiz-adv-x="539" 
d="M482.5 150.5q-14.5 -45.5 -42.5 -81.5q-67 -84 -177 -84q-55 0 -97 20.5t-71 56.5q-26 33 -39.5 75.5t-13.5 88.5t14.5 92.5t42.5 82.5q30 39 74 61.5t101 22.5q108 0 170 -77q26 -33 39.5 -77t13.5 -88q0 -47 -14.5 -92.5zM408 298q-10 38 -30 68q-47 71 -121 71
q-35 0 -61.5 -17t-44.5 -47q-16 -27 -24 -59.5t-8 -64.5q0 -38 10 -76.5t30 -68.5q47 -71 122 -71q35 0 61.5 17.5t44.5 47.5q16 26 23.5 59t7.5 65q0 38 -10 76z" />
    <glyph glyph-name="p" unicode="p" horiz-adv-x="516" 
d="M462 150q-15 -48 -43 -84q-29 -38 -70.5 -59t-93.5 -21q-72 0 -107 41v-121q0 -55 21 -76q8 -9 21 -11h-155q22 1 35 37q6 18 6 50v443q0 49 -13 68q-10 15 -32 15h-9l124 56l1 -90q27 42 66 64.5t82 22.5q35 0 68 -15t58 -43q56 -64 56 -177q0 -52 -15 -100zM363 374
q-34 54 -95 54q-47 0 -82 -37q-17 -18 -27.5 -42t-10.5 -50v-160q0 -51 26 -78.5t79 -27.5q68 0 108 62q18 26 27 62t9 75q0 88 -34 142z" />
    <glyph glyph-name="q" unicode="q" horiz-adv-x="516" 
d="M329 -181q20 2 32 37q6 18 6 50v166q-26 -42 -66 -64t-86 -22q-37 0 -69 15.5t-55 45.5q-51 62 -51 169q0 52 15.5 101t43.5 86q30 39 70.5 60.5t90.5 21.5q55 0 91 -14l22 -10q10 -5 23 -5t22.5 7t21.5 22v-580q0 -55 20 -75q8 -9 20 -11h-151zM368 351q0 42 -27.5 64
t-80.5 22q-67 0 -106 -62q-36 -57 -36 -139q0 -83 32 -136q33 -57 92 -57q23 0 45.5 11.5t41.5 31.5q39 42 39 94v171z" />
    <glyph glyph-name="r" unicode="r" horiz-adv-x="364" 
d="M339 370q-14 20 -33 32t-41 12q-46 0 -81 -52q-37 -55 -37 -135v-139q0 -56 21 -77q8 -9 21 -11h-157q23 2 36 37q7 17 7 51v267q0 48 -12 64q-10 14 -32 14h-10l124 55v-126q7 21 22 43.5t35 40.5q44 39 93 39q19 0 44 -11v-104z" />
    <glyph glyph-name="s" unicode="s" horiz-adv-x="370" 
d="M295.5 22q-44.5 -37 -122.5 -37q-39 0 -75 10.5t-58 28.5v137q15 -73 55 -103q32 -27 84 -27q35 0 61 15q33 19 33 55q0 35 -33 62q-18 13 -37 24q-62 32 -92 52q-42 27 -58 64q-8 21 -8 45q0 60 44 99q43 38 112 38q64 0 113 -32v-122q-11 54 -44 81.5t-75 27.5
q-36 0 -61.5 -19.5t-25.5 -50.5q0 -16 4.5 -27.5t15.5 -22.5q22 -22 81 -52q40 -21 59 -32.5t35 -26.5q37 -35 37 -87q0 -63 -44.5 -100z" />
    <glyph glyph-name="t" unicode="t" horiz-adv-x="324" 
d="M263.5 12.5q-31.5 -27.5 -75.5 -27.5q-47 0 -75.5 34t-28.5 94v307h-62l134 159v-110h137v-49h-137v-286q0 -47 16.5 -69t44.5 -22q23 0 48 15t44 40q-14 -58 -45.5 -85.5z" />
    <glyph glyph-name="u" unicode="u" horiz-adv-x="515" 
d="M367 -18v99q-29 -45 -75 -70.5t-95 -25.5q-127 0 -127 162v228q0 56 -22 78q-9 9 -18 12q-2 0 -13 4h127v-310q0 -58 24 -87.5t63 -29.5q24 0 49 12.5t44 32.5t30.5 44.5t11.5 47.5v204q0 49 -18 71q-9 9 -14 11q-3 1 -10 4h115v-349q0 -50 13 -67q10 -15 37 -15h10z" />
    <glyph glyph-name="v" unicode="v" horiz-adv-x="499" 
d="M497 469q-25 -4 -49 -36q-12 -14 -25 -46l-176 -415l-178 423q-17 41 -45 64q-10 8 -22 10h178q-22 -5 -30 -17q-6 -7 -6 -22q0 -17 10 -38l108 -262l101 250q11 28 11 42q0 26 -22 40q-14 6 -21 7h166z" />
    <glyph glyph-name="w" unicode="w" horiz-adv-x="729" 
d="M727 469q-24 -1 -50 -36q-13 -16 -24 -46l-158 -415l-129 337l-134 -337l-162 423q-17 40 -45 64q-14 9 -23 10h174l-5 -1q-13 -2 -23 -17q-5 -8 -5 -21q0 -14 9 -38l99 -257l91 238l-4 12l-4 11q-17 40 -42 63q-12 9 -21 10h167l-6 -1q-14 -2 -24 -17q-5 -8 -5 -22
t9 -37l97 -254l86 242q10 27 10 43t-5 24.5t-15 14.5q-12 6 -20 7h162z" />
    <glyph glyph-name="x" unicode="x" horiz-adv-x="485" 
d="M316 0q4 0 8 3q8 6 8 19q0 20 -25 57l-72 105l-70 -97q-18 -26 -23 -39q-7 -14 -7 -25q0 -15 9 -20q5 -3 10 -3h-142q18 1 55 38q19 19 42 52l97 136l-105 152q-42 58 -67 78q-15 12 -22 13h163q-12 -1 -17 -11q-3 -4 -3 -13q0 -19 24 -54l71 -103l73 101q15 21 22 36
q5 15 5 22q0 12 -10 18q-3 2 -9 4h142q-20 -4 -54 -35q-19 -17 -39 -46l-101 -142l116 -167q33 -45 59 -67q10 -10 20 -12h-158z" />
    <glyph glyph-name="y" unicode="y" horiz-adv-x="485" 
d="M483 469q-1 -1 -9 -4q-16 -9 -36 -37q-12 -18 -21 -41l-130 -331q-84 -213 -181 -250l-90 81q19 -9 48 -9q44 0 76 28q35 29 76 113l-145 372q-14 36 -41 63q-13 10 -17 11l-11 4h172q-28 -10 -28 -41q0 -18 12 -47l99 -262l97 249q14 36 14 57q0 23 -17 38q-7 4 -17 6
h149z" />
    <glyph glyph-name="z" unicode="z" horiz-adv-x="452" 
d="M33 0l262 428h-160q-43 0 -67 -33q-9 -13 -14.5 -27t-6.5 -24v125h355l-258 -423h175q45 0 69 31q13 17 21 50v-127h-376z" />
    <glyph glyph-name="braceleft" unicode="{" horiz-adv-x="370" 
d="M189 -163q-24 14 -35 39t-11 66v156q0 93 -28 125q-14 15 -34 22t-52 10q31 4 51.5 11t34.5 22q14 16 21 45.5t7 77.5v156q0 41 11 66t35 40q21 13 54 18t89 8q-34 -6 -55.5 -13.5t-35.5 -20.5q-27 -26 -27 -83v-136q0 -110 -38 -155q-28 -34 -80 -36q52 -2 80 -36
q38 -46 38 -156v-136q0 -57 26.5 -82t91.5 -34q-101 2 -143 26z" />
    <glyph glyph-name="bar" unicode="|" horiz-adv-x="224" 
d="M83 -220v1000h58v-1000h-58z" />
    <glyph glyph-name="braceright" unicode="}" horiz-adv-x="370" 
d="M271.5 245q-19.5 -7 -32.5 -22q-15 -17 -22 -46.5t-7 -78.5v-156q0 -41 -11 -66t-35 -39q-42 -24 -143 -26q65 9 91.5 34t26.5 82v136q0 109 39 156q28 34 80 36q-52 2 -80 36q-39 46 -39 155v136q0 57 -27 83q-14 13 -35.5 20.5t-55.5 13.5q56 -3 89 -8t54 -18
q24 -15 35 -40t11 -66v-156q0 -49 7 -78t22 -45q13 -15 33 -22t52 -11q-33 -3 -52.5 -10z" />
    <glyph glyph-name="asciitilde" unicode="~" horiz-adv-x="663" 
d="M577 373q3 -70 -26 -106.5t-84 -36.5q-35 0 -68.5 12t-74.5 33q-44 23 -71 34t-54 11t-42 -21.5t-15 -63.5h-54q-1 68 32 106q32 36 86 36q33 0 64.5 -11.5t73.5 -33.5q44 -23 71.5 -34t54.5 -11q28 0 41 24t13 62h53z" />
    <glyph glyph-name="uni00A0" unicode="&#xa0;" horiz-adv-x="291" 
 />
    <glyph glyph-name="exclamdown" unicode="&#xa1;" horiz-adv-x="282" 
d="M181 410q-15 -15 -40 -15t-39 15t-14 37t14 37t39 15t40 -15t15 -37t-15 -37zM67 -178q9 3 15.5 16t12.5 38q6 33 7 71l8 267q1 44 15 80q3 10 10 27l6 13l6 -13q13 -25 21 -63q3 -13 5 -44l8 -267q1 -43 8 -71q10 -48 27 -54h-149z" />
    <glyph glyph-name="cent" unicode="&#xa2;" horiz-adv-x="523" 
d="M377.5 132q-36.5 -38 -86.5 -47v-92h-51v89q-44 4 -79 23.5t-58 51.5q-22 31 -34 70.5t-12 82.5q0 105 51 180q50 74 132 87v98h51v-96q55 -5 91 -39q40 -38 41 -95l-79 -34q4 11 4 31q0 40 -26.5 64t-64.5 24q-59 0 -94 -52t-35 -134q0 -40 10 -77t29 -65
q41 -63 114 -63q84 0 150 98q-17 -67 -53.5 -105z" />
    <glyph glyph-name="sterling" unicode="&#xa3;" horiz-adv-x="523" 
d="M492 25q-39 -40 -126 -40q-51 0 -113 16q-36 9 -54 12.5t-41 3.5q-28 0 -54.5 -6.5t-46.5 -19.5l-25 61q36 3 59.5 21t36.5 51q22 57 22 187h-76v49h77q1 73 8 128t25 97q21 47 58.5 72t97.5 25q33 0 63 -8t48 -23l-37 -71q-9 26 -32.5 40t-52.5 14q-35 0 -55 -20
t-29 -59q-8 -33 -10.5 -79t-2.5 -116h113v-49h-113q0 -90 -15 -150q-20 -75 -66 -99q32 6 49 6q24 0 45 -4t25 -5q42 -10 69 -10q45 0 73.5 12t48.5 41z" />
    <glyph glyph-name="currency" unicode="&#xa4;" horiz-adv-x="523" 
d="M386 183l-51 51q-29 -22 -73 -22q-39 0 -70 21l-53 -50l-35 35l54 52q-18 32 -18 69q0 40 19 71l-55 49l34 34l55 -48q32 20 69 20q41 0 72 -21l51 50l34 -34l-53 -52q18 -31 18 -69q0 -39 -17 -69l52 -53zM320.5 400q-20.5 25 -58.5 25q-37 0 -58 -25.5t-21 -60.5
q0 -36 21 -62t58 -26q38 0 58.5 26t20.5 62t-20.5 61z" />
    <glyph glyph-name="yen" unicode="&#xa5;" horiz-adv-x="523" 
d="M508 666q-25 -6 -52 -44q-13 -17 -31 -56l-59 -135h119v-43h-137l-43 -99h180v-43h-185v-144q0 -64 25 -89q12 -11 25 -13h-177q14 2 24 12.5t18 31.5t8 58v144h-190v43h185l-45 99h-140v43h122l-61 137q-25 56 -57 84q-14 11 -26 14h171q-14 -2 -20 -16q-3 -7 -3 -19
q0 -24 17 -62l99 -226l92 215q20 48 20 70q0 23 -13 32q-4 4 -12 6h146z" />
    <glyph glyph-name="brokenbar" unicode="&#xa6;" horiz-adv-x="224" 
d="M83 325v350h58v-350h-58zM83 -175v350h58v-350h-58z" />
    <glyph glyph-name="section" unicode="&#xa7;" horiz-adv-x="584" 
d="M481 173q-25 -33 -77 -55q38 -23 57.5 -50.5t19.5 -66.5q0 -37 -15.5 -67.5t-43.5 -52.5q-57 -45 -143 -45q-68 0 -119 24t-81 62l8 10l15 19l24 32q34 -48 86 -73q41 -20 88 -20q44 0 75 25q33 26 33 68q0 29 -22 51t-62 42q-34 16 -79 34q-97 36 -140 84q-24 26 -24 65
q0 91 111 135q-49 26 -69 54t-20 65q0 74 64 119q60 43 151 43q50 0 91.5 -15t65.5 -42q0 -2 -6 -10l-28 -39q-5 -7 -8 -13q-26 32 -63 49.5t-74 17.5q-49 0 -84 -24q-37 -25 -37 -61q0 -31 22.5 -53.5t63.5 -42.5q36 -17 80 -34q97 -36 141 -86q24 -28 24 -69
q0 -47 -25 -80zM364 317q-30 16 -63 30q-38 16 -57 25q-48 -17 -70.5 -39t-22.5 -53q0 -24 20.5 -43.5t56.5 -37.5q24 -13 66 -29q34 -13 60 -27q37 15 59.5 37.5t22.5 58.5q0 40 -72 78z" />
    <glyph glyph-name="dieresis" unicode="&#xa8;" horiz-adv-x="438" 
d="M178.5 585.5q-13.5 -14.5 -36.5 -14.5t-37 14.5t-14 35.5t14 35.5t37 14.5t36.5 -14.5t13.5 -35.5t-13.5 -35.5zM340.5 585.5q-13.5 -14.5 -36.5 -14.5t-37 14.5t-14 35.5t14 35.5t37 14.5t36.5 -14.5t13.5 -35.5t-13.5 -35.5z" />
    <glyph glyph-name="copyright" unicode="&#xa9;" horiz-adv-x="754" 
d="M689 185q-28 -65 -78 -110q-47 -42 -108 -64t-126 -22t-126.5 22t-108.5 64q-50 45 -78 110t-28 148t28 148t78 110q47 42 108.5 64t126.5 22t126 -22t108 -64q50 -45 78 -110t28 -148t-28 -148zM651.5 467q-24.5 59 -68.5 100q-41 38 -95 57.5t-111 19.5t-111 -20
t-95 -58q-45 -41 -70 -99.5t-25 -132.5q0 -75 25 -134t70 -100q41 -38 95 -58t111 -20t110.5 20t94.5 58q44 41 69 99.5t25 133.5t-24.5 134zM516 166q-19 -27 -56.5 -45t-77.5 -18q-49 0 -87.5 18.5t-64.5 50.5q-24 30 -37 70t-13 83q0 45 14 87.5t40 74.5q27 35 67 54.5
t90 19.5q64 0 117 -36v-118q-37 112 -119 112q-34 0 -62 -13.5t-46 -38.5q-19 -24 -29 -57.5t-10 -72.5t10.5 -73t30.5 -58q44 -54 110 -54q37 0 66 16.5t57 51.5v-54z" />
    <glyph glyph-name="ordfeminine" unicode="&#xaa;" horiz-adv-x="364" 
d="M299 319q-21 4 -36 18t-21 32q-14 -22 -43.5 -34.5t-63.5 -12.5q-41 0 -69 21.5t-28 59.5q0 37 44 72t152 59v36q0 78 -67 78q-34 0 -52.5 -14t-18.5 -34q0 -25 22 -32l-64 -25q-10 22 -10 41q0 39 34 67q38 31 102 31q55 0 82 -27.5t27 -74.5v-154q0 -29 13 -47.5
t41 -18.5l16 3zM234 502q-76 -17 -107 -39q-33 -22 -33 -51q0 -24 16.5 -38.5t41.5 -14.5q31 0 57 21q25 20 25 49v73z" />
    <glyph glyph-name="guillemotleft" unicode="&#xab;" horiz-adv-x="416" 
d="M156 72l-124 180l125 180h63l-124 -180l125 -180h-65zM323 72l-125 180l125 180h64l-125 -180l125 -180h-64z" />
    <glyph glyph-name="logicalnot" unicode="&#xac;" horiz-adv-x="664" 
d="M549 139v214h-489v53h544v-267h-55z" />
    <glyph glyph-name="registered" unicode="&#xae;" horiz-adv-x="753" 
d="M689 185q-28 -65 -77 -110q-47 -42 -108 -64t-126 -22t-126.5 22t-108.5 64q-50 45 -78.5 110t-28.5 148t28.5 148t78.5 110q47 42 108.5 64t126.5 22t126 -22t108 -64q49 -45 77 -110t28 -148t-28 -148zM651.5 467q-24.5 59 -68.5 100q-41 38 -95 57.5t-111 19.5
t-111 -20t-95 -58q-45 -41 -70 -99.5t-25 -132.5q0 -75 25 -134t70 -100q41 -38 95 -58t111 -20t110.5 20t94.5 58q44 41 69 99.5t25 133.5t-24.5 134zM469 119l-64 121q-20 37 -33.5 49.5t-33.5 12.5h-21v-115q0 -31 9 -49q6 -10 8 -12l5 -7h-95q1 2 6 7q8 10 13 31
q2 16 2 30v302q0 31 -10 51q-5 7 -8 11l-6 6h144q61 0 96 -38q31 -36 31 -84q0 -47 -27 -82q-29 -38 -80 -39q11 -4 24 -18q14 -14 30 -45l43 -79q20 -37 45 -53h-78zM441 489q-23 26 -63 26h-62v-172h64q37 0 59 25.5t22 61.5t-20 59z" />
    <glyph glyph-name="macron" unicode="&#xaf;" horiz-adv-x="438" 
d="M67 589v42h303v-42h-303z" />
    <glyph glyph-name="degree" unicode="&#xb0;" horiz-adv-x="410" 
d="M304 463q-37 -37 -94 -37t-94 37q-36 36 -36 91t36 91q37 37 94 37t94 -37q35 -35 35 -91t-35 -91zM271 617q-23 24 -61 24t-61 -24t-23 -63q0 -38 23 -63t60 -25q38 0 61.5 24.5t23.5 63.5t-23 63z" />
    <glyph glyph-name="plusminus" unicode="&#xb1;" horiz-adv-x="663" 
d="M360 341v-214h-55v214h-242v53h242v208h55v-208h241v-53h-241zM63 0v53h538v-53h-538z" />
    <glyph glyph-name="uni00B2" unicode="&#xb2;" horiz-adv-x="380" 
d="M327 230h-293l99 108q64 70 94.5 118.5t30.5 93.5q0 46 -25 71.5t-65 25.5q-32 0 -53.5 -18t-21.5 -43q0 -16 8 -27.5t23 -15.5l-44 -37q-14 6 -23.5 22.5t-9.5 36.5q0 22 9 43t25 37q37 35 102 35q24 0 47.5 -8t41.5 -23q40 -35 40 -92q0 -48 -42 -111
q-17 -26 -46.5 -59.5t-59.5 -66.5l-44 -48h139q39 0 63 15q9 5 14 11l3 4.5t2 2.5z" />
    <glyph glyph-name="uni00B3" unicode="&#xb3;" horiz-adv-x="392" 
d="M299 255q-41 -33 -107 -33q-54 0 -89 21t-48 59l53 34q2 -37 25 -59t66 -22q42 0 66.5 21.5t24.5 55.5q0 48 -46 77q-45 28 -115 28l9 32q14 -2 30 -2q24 0 45 8.5t35 22.5q28 28 28 67q0 35 -23.5 59.5t-64.5 24.5q-35 0 -56.5 -14.5t-21.5 -36.5t16 -29l-50 -26
q-13 20 -13 41t10.5 39.5t29.5 31.5q40 27 97 27t92 -30t35 -78q0 -40 -25.5 -73t-68.5 -45q54 -14 80.5 -45t26.5 -69q0 -54 -41 -87z" />
    <glyph glyph-name="uni00B5" unicode="&#xb5;" horiz-adv-x="511" 
d="M363 -18v96q-56 -93 -144 -93q-49 0 -78 32v-197h-73v555q0 55 -23 78q-9 9 -18 12q-2 0 -13 4h127v-310q0 -117 89 -117q24 0 48 12.5t44 32.5q18 20 29 44.5t11 47.5v204q0 49 -18 71q-9 9 -14 11q-3 1 -10 4h115v-349q0 -50 13 -67q10 -15 37 -15h10z" />
    <glyph glyph-name="paragraph" unicode="&#xb6;" horiz-adv-x="625" 
d="M521 667q-6 -45 -9 -98q-2 -38 -2 -59v-690h-51v802h-90v-802h-50v345q-123 0 -197 77q-33 35 -50.5 79.5t-17.5 93.5t17.5 93.5t50.5 80.5q35 37 88 57.5t120 20.5h191z" />
    <glyph glyph-name="periodcentered" unicode="&#xb7;" horiz-adv-x="236" 
d="M161 200.5q-16 -16.5 -43 -16.5t-43 16.5t-16 40.5q0 25 15.5 41.5t43.5 16.5q27 0 43 -17t16 -41t-16 -40.5z" />
    <glyph glyph-name="cedilla" unicode="&#xb8;" horiz-adv-x="438" 
d="M289.5 -157.5q-25.5 -21.5 -70.5 -21.5q-41 0 -72 21q11 -3 34 -3q33 0 53.5 16.5t20.5 38.5q0 20 -19.5 33.5t-53.5 14.5l39 67h42l-27 -46q38 -5 58.5 -25t20.5 -45q0 -29 -25.5 -50.5z" />
    <glyph glyph-name="uni00B9" unicode="&#xb9;" horiz-adv-x="352" 
d="M157 232l7 4q12 7 20 33q4 13 4 40v315l-126 -66v40l157 84h19v-373q0 -43 15 -62q4 -7 10 -11l7 -4h-113z" />
    <glyph glyph-name="ordmasculine" unicode="&#xba;" horiz-adv-x="403" 
d="M355.5 440q-10.5 -33 -31.5 -59q-47 -60 -126 -60q-38 0 -68.5 14.5t-50.5 40.5q-19 24 -29.5 55t-10.5 64q0 35 10.5 68t31.5 59q22 28 53.5 43.5t71.5 15.5q74 0 120 -54q20 -23 30 -54t10 -65q0 -35 -10.5 -68zM300 546q-7 27 -21 48q-34 50 -86 50q-48 0 -74 -46
q-22 -37 -22 -86q0 -58 29 -102q32 -51 85 -51q47 0 75 47q21 38 21 87q0 26 -7 53z" />
    <glyph glyph-name="guillemotright" unicode="&#xbb;" horiz-adv-x="416" 
d="M93 72h-64l125 180l-125 180h63l126 -180zM259 72h-64l125 180l-125 180h63l126 -180z" />
    <glyph glyph-name="onequarter" unicode="&#xbc;" horiz-adv-x="834" 
d="M153 232l7 4q12 7 20 33q4 13 4 40v315l-126 -66v40l157 84h19v-373q0 -43 15 -62q4 -7 10 -11l7 -4h-113zM225 0h-40l386 681h37zM687 107v-39q0 -37 10 -55q3 -8 7 -9l4 -4h-88l4 3q2 1 7 9q8 18 8 56v39h-206v15l213 329h41v-305l53 -1v-38h-53zM639 375l-150 -230
l150 1v229z" />
    <glyph glyph-name="onehalf" unicode="&#xbd;" horiz-adv-x="830" 
d="M153 232l7 4q12 7 20 33q4 13 4 40v315l-126 -66v40l157 84h19v-373q0 -43 15 -62q4 -7 10 -11l7 -4h-113zM225 0h-40l386 681h37zM768 0h-294l100 107q64 68 94.5 117.5t30.5 94.5q0 46 -25 71.5t-65 25.5q-33 0 -54.5 -18t-21.5 -43q0 -15 8 -26.5t23 -15.5l-43 -37
q-14 6 -23.5 22.5t-9.5 36.5q0 22 9 42.5t25 36.5q37 35 102 35q52 0 88 -30q40 -35 40 -92q0 -50 -42 -111q-31 -45 -105 -126l-45 -49h140q39 0 63 15q10 7 14 12l3 4.5t2 2.5z" />
    <glyph glyph-name="threequarters" unicode="&#xbe;" horiz-adv-x="834" 
d="M303 255q-41 -33 -107 -33q-54 0 -89 21t-48 59l53 34q2 -37 25 -59t66 -22q42 0 66.5 21.5t24.5 55.5q0 48 -46 77q-45 28 -115 28l9 32q14 -2 30 -2q24 0 45 8.5t35 22.5q28 28 28 67q0 35 -23.5 59.5t-64.5 24.5q-35 0 -56.5 -14.5t-21.5 -36.5t16 -29l-50 -26
q-13 20 -13 41t10.5 39.5t29.5 31.5q40 27 97 27t92 -30t35 -78q0 -40 -25.5 -73t-68.5 -45q54 -14 80.5 -45t26.5 -69q0 -54 -41 -87zM284 0h-39l385 681h37zM738 107v-39q0 -37 10 -55q3 -8 7 -9l4 -4h-89l4 3q2 1 7 9q8 18 8 56v39h-205v15l213 329h41v-305h52v-39h-52z
M689 375l-149 -229h149v229z" />
    <glyph glyph-name="questiondown" unicode="&#xbf;" horiz-adv-x="456" 
d="M283.5 422q-14.5 -15 -39.5 -15t-39.5 15t-14.5 37t14.5 37t39.5 15t39.5 -15t14.5 -37t-14.5 -37zM364 -140q-31 -19 -74 -30.5t-87 -11.5q-74 0 -120 34q-50 37 -50 108q0 59 52 120q23 26 48 48q60 53 85 93q15 24 15 52q0 33 -27 52q8 8 21 8q27 0 48.5 -22t21.5 -53
q0 -52 -47 -104q-20 -23 -43 -43q-53 -48 -76 -89q-14 -26 -14 -54q0 -46 29 -72.5t72 -26.5q45 0 85 27.5t61 80.5v-117z" />
    <glyph glyph-name="Agrave" unicode="&#xc0;" 
d="M216 860h111l68 -156zM485 0q18 5 27 18q5 8 5 23q0 17 -17 59l-41 106h-257l-40 -102q-15 -40 -15 -56q0 -28 20 -41q12 -6 20 -7h-166q24 4 54 49q14 21 33 67l237 578l235 -579q29 -71 62 -100q15 -13 29 -15h-186zM330 530l-109 -274h218z" />
    <glyph glyph-name="Aacute" unicode="&#xc1;" 
d="M314 705l72 156h106zM485 0q18 5 27 18q5 8 5 23q0 17 -17 59l-41 106h-257l-40 -102q-15 -40 -15 -56q0 -28 20 -41q12 -6 20 -7h-166q24 4 54 49q14 21 33 67l237 578l235 -579q29 -71 62 -100q15 -13 29 -15h-186zM330 530l-109 -274h218z" />
    <glyph glyph-name="Acircumflex" unicode="&#xc2;" 
d="M345 771l-121 -79l121 171l125 -172zM485 0q18 5 27 18q5 8 5 23q0 17 -17 59l-41 106h-257l-40 -102q-15 -40 -15 -56q0 -28 20 -41q12 -6 20 -7h-166q24 4 54 49q14 21 33 67l237 578l235 -579q29 -71 62 -100q15 -13 29 -15h-186zM330 530l-109 -274h218z" />
    <glyph glyph-name="Atilde" unicode="&#xc3;" 
d="M472 784.5q-5 -14.5 -14 -26.5q-21 -30 -55 -30q-22 0 -62 26q-24 13 -36 19t-23 6q-22 0 -35 -18t-15 -45q-8 11 -8 36q0 29 18 54q21 28 54 28q23 0 67 -26q23 -14 35.5 -20t23.5 -6q22 0 33.5 18.5t14.5 45.5q7 -10 7 -35q0 -12 -5 -26.5zM485 0q18 5 27 18q5 8 5 23
q0 17 -17 59l-41 106h-257l-40 -102q-15 -40 -15 -56q0 -28 20 -41q12 -6 20 -7h-166q24 4 54 49q14 21 33 67l237 578l235 -579q29 -71 62 -100q15 -13 29 -15h-186zM330 530l-109 -274h218z" />
    <glyph glyph-name="Adieresis" unicode="&#xc4;" 
d="M300 742q-14 -15 -36 -15q-23 0 -37.5 15t-14.5 36t14.5 35t37.5 14t36.5 -14t13.5 -35t-14 -36zM461 742q-14 -15 -36 -15q-23 0 -37 15t-14 36t14 35t37 14t36.5 -14t13.5 -35t-14 -36zM485 0q18 5 27 18q5 8 5 23q0 17 -17 59l-41 106h-257l-40 -102q-15 -40 -15 -56
q0 -28 20 -41q12 -6 20 -7h-166q24 4 54 49q14 21 33 67l237 578l235 -579q29 -71 62 -100q15 -13 29 -15h-186zM330 530l-109 -274h218z" />
    <glyph glyph-name="Aring" unicode="&#xc5;" 
d="M410 725.5q-24 -25.5 -65 -25.5t-65.5 25.5t-24.5 63.5t24.5 64t65.5 26t65 -26t24 -64t-24 -63.5zM384.5 829.5q-14.5 16.5 -39.5 16.5t-40 -16.5t-15 -40.5t15 -40.5t40 -16.5q24 0 39 16.5t15 40.5t-14.5 40.5zM485 0q18 5 27 18q5 8 5 23q0 17 -17 59l-41 106h-257
l-40 -102q-15 -40 -15 -56q0 -28 20 -41q12 -6 20 -7h-166q24 4 54 49q14 21 33 67l237 578l235 -579q29 -71 62 -100q15 -13 29 -15h-186zM330 530l-109 -274h218z" />
    <glyph glyph-name="AE" unicode="&#xc6;" horiz-adv-x="1023" 
d="M973 0h-433q15 3 25.5 14.5t19.5 33.5q8 22 8 61v207h-225l-134 -184q-25 -38 -36 -60q-11 -25 -11 -38q0 -20 13 -29q4 -3 14 -5h-192q26 4 75 53q24 24 59 71l324 437q25 33 38 59q9 20 9 30q0 9 -6 13l-5 3h437v-138l-4 19q-9 36 -45 58q-21 12 -56 12h-174v-252h147
q43 0 64 23q10 11 11 24v-143q-5 26 -32 40q-14 7 -41 7h-149v-266h180q60 0 90 22q31 23 53 81zM593 623l-190 -258h190v258z" />
    <glyph glyph-name="Ccedilla" unicode="&#xc7;" horiz-adv-x="629" 
d="M597 81q-76 -86 -197 -96l-13 -22q38 -5 58 -25t20 -45q0 -29 -25 -50.5t-70 -21.5q-42 0 -73 21q11 -3 34 -3q33 0 53.5 16.5t20.5 38.5q0 20 -19 33.5t-53 14.5l24 43q-75 4 -133.5 32.5t-98.5 77.5q-38 46 -57 103.5t-19 120.5q0 69 22.5 133.5t66.5 115.5
q46 53 113 83.5t151 30.5q51 0 97.5 -12t81.5 -31v-145q-24 67 -73 100.5t-125 33.5q-59 0 -105.5 -24t-78.5 -66q-30 -40 -46 -92t-16 -107q0 -57 16 -110t48 -94q34 -44 82 -68.5t110 -24.5q55 0 108.5 27.5t95.5 76.5v-65z" />
    <glyph glyph-name="Egrave" unicode="&#xc8;" horiz-adv-x="521" 
d="M160 861h110l68 -156zM470 0h-418q24 1 41 41q8 21 8 54v477q0 57 -26 81q-12 12 -26 13h401v-138l-4 19q-9 36 -45 58q-21 12 -56 12h-163v-252h136q43 0 64 23q10 11 11 24v-143q-2 24 -33 40q-14 7 -41 7h-137v-266h168q60 0 90 22q31 23 53 81z" />
    <glyph glyph-name="Eacute" unicode="&#xc9;" horiz-adv-x="521" 
d="M230 692l77 167h113zM470 0h-418q24 1 41 41q8 21 8 54v477q0 57 -26 81q-12 12 -26 13h401v-138l-4 19q-9 36 -45 58q-21 12 -56 12h-163v-252h136q43 0 64 23q10 11 11 24v-143q-2 24 -33 40q-14 7 -41 7h-137v-266h168q60 0 90 22q31 23 53 81z" />
    <glyph glyph-name="Ecircumflex" unicode="&#xca;" horiz-adv-x="521" 
d="M271 782l-120 -79l120 171l126 -172zM470 0h-418q24 1 41 41q8 21 8 54v477q0 57 -26 81q-12 12 -26 13h401v-138l-4 19q-9 36 -45 58q-21 12 -56 12h-163v-252h136q43 0 64 23q10 11 11 24v-143q-2 24 -33 40q-14 7 -41 7h-137v-266h168q60 0 90 22q31 23 53 81z" />
    <glyph glyph-name="Edieresis" unicode="&#xcb;" horiz-adv-x="521" 
d="M226.5 749.5q-13.5 -13.5 -34.5 -13.5t-34.5 13.5t-13.5 33.5q0 19 13.5 33t34.5 14t34.5 -14t13.5 -33q0 -20 -13.5 -33.5zM378.5 749.5q-13.5 -13.5 -34.5 -13.5t-34 13.5t-13 33.5q0 19 13 33t34 14t34.5 -14t13.5 -33q0 -20 -13.5 -33.5zM470 0h-418q24 1 41 41
q8 21 8 54v477q0 57 -26 81q-12 12 -26 13h401v-138l-4 19q-9 36 -45 58q-21 12 -56 12h-163v-252h136q43 0 64 23q10 11 11 24v-143q-2 24 -33 40q-14 7 -41 7h-137v-266h168q60 0 90 22q31 23 53 81z" />
    <glyph glyph-name="Igrave" unicode="&#xcc;" horiz-adv-x="276" 
d="M-34 857h118l72 -166zM51 0q26 5 40 38q7 17 7 52v485q0 54 -24 78q-12 12 -24 13h176q-25 -4 -40 -40q-8 -19 -8 -51v-485q0 -56 24 -78q11 -10 24 -12h-175z" />
    <glyph glyph-name="Iacute" unicode="&#xcd;" horiz-adv-x="276" 
d="M118 691l76 166h113zM51 0q26 5 40 38q7 17 7 52v485q0 54 -24 78q-12 12 -24 13h176q-25 -4 -40 -40q-8 -19 -8 -51v-485q0 -56 24 -78q11 -10 24 -12h-175z" />
    <glyph glyph-name="Icircumflex" unicode="&#xce;" horiz-adv-x="276" 
d="M136 774l-128 -84l128 183l133 -183zM51 0q26 5 40 38q7 17 7 52v485q0 54 -24 78q-12 12 -24 13h176q-25 -4 -40 -40q-8 -19 -8 -51v-485q0 -56 24 -78q11 -10 24 -12h-175z" />
    <glyph glyph-name="Idieresis" unicode="&#xcf;" horiz-adv-x="276" 
d="M93 741q-14 -15 -36 -15q-23 0 -37 15t-14 36t14 35t37 14t36.5 -14t13.5 -35t-14 -36zM255 741q-14 -15 -36 -15q-23 0 -37 15t-14 36t14 35t37 14t36.5 -14t13.5 -35t-14 -36zM51 0q26 5 40 38q7 17 7 52v485q0 54 -24 78q-12 12 -24 13h176q-25 -4 -40 -40
q-8 -19 -8 -51v-485q0 -56 24 -78q11 -10 24 -12h-175z" />
    <glyph glyph-name="Eth" unicode="&#xd0;" horiz-adv-x="703" 
d="M633 208q-21 -61 -63 -107q-91 -101 -255 -101h-262q25 4 41 43q8 21 8 58v210h-83v43h83v217q0 59 -26 83q-10 10 -25 12h267q78 0 141 -23.5t106 -67.5t66 -104.5t23 -131.5q0 -70 -21 -131zM498 544q-67 73 -200 73h-115v-263h129v-43h-129v-261h141q119 0 185 91
q28 39 42 89t14 103q0 138 -67 211z" />
    <glyph glyph-name="Ntilde" unicode="&#xd1;" horiz-adv-x="703" 
d="M490 777.5q-5 -15.5 -15 -28.5q-10 -14 -25.5 -23t-33.5 -9q-14 0 -29.5 7t-36.5 21q-20 13 -35 20t-28 7q-23 0 -37 -19.5t-16 -47.5q-9 13 -9 38q0 14 5 29.5t14 27.5q23 30 58 30q16 0 32.5 -7t38.5 -20q23 -14 37.5 -21t25.5 -7q24 0 36 19.5t15 48.5q8 -11 8 -37
q0 -13 -5 -28.5zM664 666q-15 -2 -25.5 -12t-18.5 -29q-8 -21 -8 -52v-602l-454 561v-440q0 -57 27 -79q13 -12 28 -13h-164q26 1 43 40q8 19 8 52v471q0 44 -29 73q-18 18 -47 30h130l401 -497v404q0 56 -26 80q-12 12 -26 13h161z" />
    <glyph glyph-name="Ograve" unicode="&#xd2;" horiz-adv-x="732" 
d="M241 862h111l68 -156zM670 201q-23 -65 -67 -113q-45 -49 -106 -76t-134 -27q-70 0 -128 25t-100 72q-42 46 -64 108t-22 136q0 75 24.5 140t68.5 114t105 75.5t134 26.5q69 0 127.5 -25.5t99.5 -71.5t63 -109t22 -135q0 -75 -23 -140zM595.5 441.5
q-17.5 56.5 -50.5 97.5q-34 42 -80.5 65t-103.5 23q-51 0 -93.5 -19.5t-72.5 -55.5q-31 -37 -47.5 -87t-16.5 -110q0 -68 18 -126t51 -100q34 -43 80.5 -66t102.5 -23q51 0 93.5 20t72.5 57q31 38 47.5 89t16.5 112q0 67 -17.5 123.5z" />
    <glyph glyph-name="Oacute" unicode="&#xd3;" horiz-adv-x="732" 
d="M321 705l72 157h106zM671 201q-23 -65 -67 -113q-44 -49 -105.5 -76t-135.5 -27q-70 0 -128 25t-100 72q-42 46 -64 108t-22 136q0 75 24.5 140t68.5 114t105 75.5t134 26.5q69 0 127 -25.5t100 -71.5q41 -46 63.5 -109t22.5 -135q0 -75 -23 -140zM595.5 441.5
q-17.5 56.5 -50.5 97.5q-34 42 -80.5 65t-103.5 23q-51 0 -93.5 -19.5t-72.5 -55.5q-31 -37 -47.5 -87t-16.5 -110q0 -68 18 -126t51 -100q34 -43 80.5 -66t102.5 -23q51 0 93.5 20t72.5 57q31 38 47.5 89t16.5 112q0 67 -17.5 123.5z" />
    <glyph glyph-name="Ocircumflex" unicode="&#xd4;" horiz-adv-x="732" 
d="M376 785l-120 -79l120 171l125 -172zM670 201q-23 -65 -67 -113q-45 -49 -106 -76t-134 -27q-70 0 -128 25t-100 72q-42 46 -64 108t-22 136q0 75 24.5 140t68.5 114t105 75.5t134 26.5q69 0 127.5 -25.5t99.5 -71.5t63 -109t22 -135q0 -75 -23 -140zM595.5 441.5
q-17.5 56.5 -50.5 97.5q-34 42 -80.5 65t-103.5 23q-51 0 -93.5 -19.5t-72.5 -55.5q-31 -37 -47.5 -87t-16.5 -110q0 -68 18 -126t51 -100q34 -43 80.5 -66t102.5 -23q51 0 93.5 20t72.5 57q31 38 47.5 89t16.5 112q0 67 -17.5 123.5z" />
    <glyph glyph-name="Otilde" unicode="&#xd5;" horiz-adv-x="732" 
d="M496 784q-5 -15 -14 -27q-21 -30 -55 -30q-22 0 -62 26q-21 13 -34.5 19.5t-24.5 6.5q-22 0 -35 -18t-15 -45q-8 11 -8 35q0 29 18 54q21 28 54 28q23 0 67 -26q23 -14 35.5 -20t23.5 -6q22 0 33.5 18.5t14.5 45.5q7 -10 7 -34q0 -12 -5 -27zM670 201q-23 -65 -67 -113
q-45 -49 -106 -76t-134 -27q-70 0 -128 25t-100 72q-42 46 -64 108t-22 136q0 75 24.5 140t68.5 114t105 75.5t134 26.5q69 0 127.5 -25.5t99.5 -71.5t63 -109t22 -135q0 -75 -23 -140zM595.5 441.5q-17.5 56.5 -50.5 97.5q-34 42 -80.5 65t-103.5 23q-51 0 -93.5 -19.5
t-72.5 -55.5q-31 -37 -47.5 -87t-16.5 -110q0 -68 18 -126t51 -100q34 -43 80.5 -66t102.5 -23q51 0 93.5 20t72.5 57q31 38 47.5 89t16.5 112q0 67 -17.5 123.5z" />
    <glyph glyph-name="Odieresis" unicode="&#xd6;" horiz-adv-x="732" 
d="M334.5 742.5q-13.5 -14.5 -36.5 -14.5t-37 14.5t-14 35.5t14 35.5t37 14.5t36.5 -14.5t13.5 -35.5t-13.5 -35.5zM496.5 742.5q-13.5 -14.5 -36.5 -14.5t-37 14.5t-14 35.5t14 35.5t37 14.5t36.5 -14.5t13.5 -35.5t-13.5 -35.5zM670 201q-23 -65 -67 -113
q-45 -49 -106 -76t-134 -27q-70 0 -128 25t-100 72q-42 46 -64 108t-22 136q0 75 24.5 140t68.5 114t105 75.5t134 26.5q69 0 127.5 -25.5t99.5 -71.5t63 -109t22 -135q0 -75 -23 -140zM595.5 441.5q-17.5 56.5 -50.5 97.5q-34 42 -80.5 65t-103.5 23q-51 0 -93.5 -19.5
t-72.5 -55.5q-31 -37 -47.5 -87t-16.5 -110q0 -68 18 -126t51 -100q34 -43 80.5 -66t102.5 -23q51 0 93.5 20t72.5 57q31 38 47.5 89t16.5 112q0 67 -17.5 123.5z" />
    <glyph glyph-name="multiply" unicode="&#xd7;" horiz-adv-x="663" 
d="M569 3l-236 238l-237 -238l-37 38l236 237l-237 239l37 38l237 -239l237 238l37 -38l-236 -238l236 -237z" />
    <glyph glyph-name="Oslash" unicode="&#xd8;" horiz-adv-x="742" 
d="M670 201q-23 -65 -67 -113q-44 -49 -105.5 -76t-135.5 -27q-96 0 -169 50l-53 -76l-43 14l61 89q-52 46 -80.5 114.5t-28.5 149.5q0 75 24.5 140t68.5 114t105 75.5t134 26.5q95 0 171 -52l48 69l41 -14l-55 -81q52 -46 79.5 -114t27.5 -149q0 -75 -23 -140zM511 571
q-62 56 -150 56q-51 0 -93.5 -19.5t-72.5 -55.5q-31 -37 -47.5 -87t-16.5 -110q0 -69 18.5 -126.5t53.5 -99.5zM542 538l-308 -442q62 -56 149 -56q51 0 93.5 20t72.5 57q31 38 47.5 89t16.5 112q0 135 -71 220z" />
    <glyph glyph-name="Ugrave" unicode="&#xd9;" horiz-adv-x="674" 
d="M209 861h111l68 -156zM641 666q-15 -1 -26 -10.5t-19 -29.5q-8 -21 -8 -55v-344q0 -122 -59 -182t-190 -60t-189.5 58.5t-58.5 179.5v351q0 56 -24 80q-11 11 -24 12h177q-24 -1 -40 -39q-8 -21 -8 -52v-350q0 -97 42.5 -141.5t136.5 -44.5q97 0 138 52q35 43 35 132v348
q0 57 -27 82q-12 12 -26 13h170z" />
    <glyph glyph-name="Uacute" unicode="&#xda;" horiz-adv-x="674" 
d="M305 704l72 156h106zM641 666q-15 -1 -26 -10.5t-19 -29.5q-8 -21 -8 -55v-344q0 -122 -59 -182t-190 -60t-189.5 58.5t-58.5 179.5v351q0 56 -24 80q-11 11 -24 12h177q-24 -1 -40 -39q-8 -21 -8 -52v-350q0 -97 42.5 -141.5t136.5 -44.5q97 0 138 52q35 43 35 132v348
q0 57 -27 82q-12 12 -26 13h170z" />
    <glyph glyph-name="Ucircumflex" unicode="&#xdb;" horiz-adv-x="674" 
d="M338 782l-120 -79l120 171l126 -172zM641 666q-15 -1 -26 -10.5t-19 -29.5q-8 -21 -8 -55v-344q0 -122 -59 -182t-190 -60t-189.5 58.5t-58.5 179.5v351q0 56 -24 80q-11 11 -24 12h177q-24 -1 -40 -39q-8 -21 -8 -52v-350q0 -97 42.5 -141.5t136.5 -44.5q97 0 138 52
q35 43 35 132v348q0 57 -27 82q-12 12 -26 13h170z" />
    <glyph glyph-name="Udieresis" unicode="&#xdc;" horiz-adv-x="674" 
d="M304 743.5q-14 -14.5 -37 -14.5t-37 14.5t-14 35.5t14 35t37 14t37 -14t14 -35t-14 -35.5zM465.5 743.5q-13.5 -14.5 -36.5 -14.5t-37 14.5t-14 35.5t14 35t37 14t36.5 -14t13.5 -35t-13.5 -35.5zM641 666q-15 -1 -26 -10.5t-19 -29.5q-8 -21 -8 -55v-344
q0 -122 -59 -182t-190 -60t-189.5 58.5t-58.5 179.5v351q0 56 -24 80q-11 11 -24 12h177q-24 -1 -40 -39q-8 -21 -8 -52v-350q0 -97 42.5 -141.5t136.5 -44.5q97 0 138 52q35 43 35 132v348q0 57 -27 82q-12 12 -26 13h170z" />
    <glyph glyph-name="Yacute" unicode="&#xdd;" horiz-adv-x="644" 
d="M300 693l72 156h106zM621 666q-22 -6 -55 -44q-17 -19 -39 -56l-167 -286v-187q0 -57 24 -81q11 -11 24 -12h-178q26 2 41 40q7 17 7 53v186l-168 289q-33 57 -68 85q-17 12 -26 13h187q-10 -2 -13 -5q-13 -7 -13 -26q0 -21 27 -66l132 -227l125 216q17 29 24.5 46.5
t7.5 29.5q0 20 -13 27q-3 3 -12 5h153z" />
    <glyph glyph-name="Thorn" unicode="&#xde;" horiz-adv-x="549" 
d="M455 210q-30 -30 -73 -46.5t-97 -16.5q-26 0 -55 4.5t-52 12.5v-74q0 -56 24 -78q11 -10 24 -12h-176q26 5 40 38q7 17 7 52v486q0 54 -24 78q-10 10 -23 12h176q-26 -5 -40 -39q-8 -19 -8 -51v-35q78 8 118 8q46 0 86 -13.5t68 -38.5q29 -26 45 -63.5t16 -82.5
q0 -85 -56 -141zM385.5 457.5q-41.5 41.5 -110.5 41.5q-29 0 -59.5 -3.5t-37.5 -4.5v-276q36 -16 101 -16q69 0 110 43q38 40 38 104q0 70 -41.5 111.5z" />
    <glyph glyph-name="germandbls" unicode="&#xdf;" horiz-adv-x="602" 
d="M520.5 22.5q-48.5 -36.5 -133.5 -36.5q-43 0 -85.5 11t-67.5 28l29 70q20 -31 56.5 -47.5t74.5 -16.5q39 0 66 16q36 20 36 57q0 27 -17.5 49t-48.5 42q-30 19 -62 35q-80 39 -110 74q-19 20 -19 50q0 44 45 76q20 14 42 24q51 25 73 58q13 19 13 47q0 43 -30.5 69.5
t-83.5 26.5q-22 0 -44.5 -8.5t-41.5 -24.5q-21 -18 -33.5 -43.5t-12.5 -56.5v-431q0 -35 7 -52q12 -37 36 -39h-160q24 1 37 38q7 17 7 53v385q0 50 17.5 92t49.5 72q31 29 73.5 44.5t90.5 15.5q70 0 117 -34q22 -16 34 -39t12 -50q0 -63 -46 -102q-19 -16 -43 -29
q-23 -11 -44 -23t-32 -23q-13 -12 -13 -29t17.5 -32.5t50.5 -32.5q23 -14 62 -32q76 -37 111 -87q19 -28 19 -65q0 -63 -48.5 -99.5z" />
    <glyph glyph-name="agrave" unicode="&#xe0;" horiz-adv-x="472" 
d="M79 682h118l73 -166zM406 -19q-29 5 -51 27t-28 48q-18 -34 -59 -52.5t-90 -18.5q-58 0 -93 28q-40 30 -40 82q0 56 61 100q67 50 212 83v52q0 56 -25 84t-70 28q-48 0 -74 -20t-26 -49q0 -17 7 -29.5t18 -16.5l-81 -32q-13 22 -13 54q0 25 12 49.5t35 43.5q51 43 140 43
q74 0 112 -38.5t38 -102.5v-216q0 -40 18.5 -66.5t55.5 -26.5l16 2zM318 237q-105 -24 -151 -55q-47 -32 -47 -73q0 -35 23.5 -55.5t59.5 -20.5q22 0 42.5 7.5t36.5 21.5q36 31 36 70v105z" />
    <glyph glyph-name="aacute" unicode="&#xe1;" horiz-adv-x="472" 
d="M194 516l77 166h113zM406 -19q-29 5 -51 27t-28 48q-18 -34 -59 -52.5t-90 -18.5q-58 0 -93 28q-40 30 -40 82q0 56 61 100q67 50 212 83v52q0 56 -25 84t-70 28q-48 0 -74 -20t-26 -49q0 -17 7 -29.5t18 -16.5l-81 -32q-13 22 -13 54q0 25 12 49.5t35 43.5q51 43 140 43
q74 0 112 -38.5t38 -102.5v-216q0 -40 18.5 -66.5t55.5 -26.5l16 2zM318 237q-105 -24 -151 -55q-47 -32 -47 -73q0 -35 23.5 -55.5t59.5 -20.5q22 0 42.5 7.5t36.5 21.5q36 31 36 70v105z" />
    <glyph glyph-name="acircumflex" unicode="&#xe2;" horiz-adv-x="472" 
d="M230 601l-127 -84l127 183l134 -183zM406 -19q-29 5 -51 27t-28 48q-18 -34 -59 -52.5t-90 -18.5q-58 0 -93 28q-40 30 -40 82q0 56 61 100q67 50 212 83v52q0 56 -25 84t-70 28q-48 0 -74 -20t-26 -49q0 -17 7 -29.5t18 -16.5l-81 -32q-13 22 -13 54q0 25 12 49.5
t35 43.5q51 43 140 43q74 0 112 -38.5t38 -102.5v-216q0 -40 18.5 -66.5t55.5 -26.5l16 2zM318 237q-105 -24 -151 -55q-47 -32 -47 -73q0 -35 23.5 -55.5t59.5 -20.5q22 0 42.5 7.5t36.5 21.5q36 31 36 70v105z" />
    <glyph glyph-name="atilde" unicode="&#xe3;" horiz-adv-x="472" 
d="M363 612.5q-5 -15.5 -15 -28.5q-10 -14 -25.5 -23t-33.5 -9q-14 0 -29.5 7t-36.5 21q-20 13 -35 20t-28 7q-23 0 -37 -19.5t-16 -47.5q-9 13 -9 38q0 14 5 29.5t14 27.5q23 30 58 30q16 0 32.5 -7t38.5 -20q23 -14 37.5 -21t25.5 -7q24 0 36 19.5t15 48.5q8 -11 8 -37
q0 -13 -5 -28.5zM406 -19q-29 5 -51 27t-28 48q-18 -34 -59 -52.5t-90 -18.5q-58 0 -93 28q-40 30 -40 82q0 56 61 100q67 50 212 83v52q0 56 -25 84t-70 28q-48 0 -74 -20t-26 -49q0 -17 7 -29.5t18 -16.5l-81 -32q-13 22 -13 54q0 25 12 49.5t35 43.5q51 43 140 43
q74 0 112 -38.5t38 -102.5v-216q0 -40 18.5 -66.5t55.5 -26.5l16 2zM318 237q-105 -24 -151 -55q-47 -32 -47 -73q0 -35 23.5 -55.5t59.5 -20.5q22 0 42.5 7.5t36.5 21.5q36 31 36 70v105z" />
    <glyph glyph-name="adieresis" unicode="&#xe4;" horiz-adv-x="472" 
d="M185.5 585.5q-13.5 -14.5 -36.5 -14.5t-37 14.5t-14 35.5t14 35t37 14t36.5 -14t13.5 -35t-13.5 -35.5zM347 585.5q-14 -14.5 -37 -14.5t-36.5 14.5t-13.5 35.5t13.5 35t36.5 14t37 -14t14 -35t-14 -35.5zM406 -19q-29 5 -51 27t-28 48q-18 -34 -59 -52.5t-90 -18.5
q-58 0 -93 28q-40 30 -40 82q0 56 61 100q67 50 212 83v52q0 56 -25 84t-70 28q-48 0 -74 -20t-26 -49q0 -17 7 -29.5t18 -16.5l-81 -32q-13 22 -13 54q0 25 12 49.5t35 43.5q51 43 140 43q74 0 112 -38.5t38 -102.5v-216q0 -40 18.5 -66.5t55.5 -26.5l16 2zM318 237
q-105 -24 -151 -55q-47 -32 -47 -73q0 -35 23.5 -55.5t59.5 -20.5q22 0 42.5 7.5t36.5 21.5q36 31 36 70v105z" />
    <glyph glyph-name="aring" unicode="&#xe5;" horiz-adv-x="472" 
d="M298 550q-24 -26 -65 -26t-65.5 26t-24.5 64t24.5 63.5t65.5 25.5t65 -25.5t24 -63.5t-24 -64zM272 654q-14 16 -39 16q-26 0 -41 -16t-15 -40t15.5 -41t40.5 -17q24 0 38.5 17t14.5 41t-14 40zM406 -19q-29 5 -51 27t-28 48q-18 -34 -59 -52.5t-90 -18.5q-58 0 -93 28
q-40 30 -40 82q0 56 61 100q67 50 212 83v52q0 56 -25 84t-70 28q-48 0 -74 -20t-26 -49q0 -17 7 -29.5t18 -16.5l-81 -32q-13 22 -13 54q0 25 12 49.5t35 43.5q51 43 140 43q74 0 112 -38.5t38 -102.5v-216q0 -40 18.5 -66.5t55.5 -26.5l16 2zM318 237q-105 -24 -151 -55
q-47 -32 -47 -73q0 -35 23.5 -55.5t59.5 -20.5q22 0 42.5 7.5t36.5 21.5q36 31 36 70v105z" />
    <glyph glyph-name="ae" unicode="&#xe6;" horiz-adv-x="733" 
d="M636 23q-46 -38 -113 -38q-58 0 -101 26t-69 71q-9 -22 -26.5 -40t-41.5 -30q-51 -27 -104 -27q-59 0 -97 29t-38 81q0 55 60 100q67 50 212 83v52q0 56 -25 84t-70 28q-48 0 -74 -20t-26 -49q0 -17 7 -29t18 -16l-81 -33q-12 21 -12 54q0 25 11.5 49.5t34.5 43.5
q51 43 140 43q50 0 84.5 -20t49.5 -55q56 75 144 75q86 0 134 -75q40 -64 45 -167h-310v-4q0 -4 1 -5q8 -81 49 -133q44 -55 109 -55q42 0 83 23.5t73 65.5q-21 -74 -67 -112zM615 284q0 60 -23 105q-27 53 -81 53q-55 0 -89 -51q-15 -22 -23.5 -51t-9.5 -56h226zM318 237
q-105 -24 -151 -55q-47 -32 -47 -73q0 -35 23.5 -55.5t59.5 -20.5q21 0 41.5 7t37.5 20q36 28 36 72v105z" />
    <glyph glyph-name="ccedilla" unicode="&#xe7;" horiz-adv-x="441" 
d="M355 33q-40 -38 -93 -45l-13 -24q38 -5 58 -24.5t20 -44.5q0 -29 -25 -51t-70 -22q-41 0 -72 21q11 -3 33 -3q33 0 53.5 16.5t20.5 38.5q0 20 -19 33.5t-53 14.5l25 44q-86 7 -136 75q-45 60 -45 153q0 59 17 109t48 87q30 36 71 55.5t88 19.5q60 0 99.5 -36t42.5 -99
l-79 -35q4 11 4 31q0 41 -25 64.5t-62 23.5q-59 0 -97 -52q-37 -51 -37 -134q0 -82 39 -141q43 -64 116 -64q40 0 77.5 23.5t70.5 70.5q-17 -67 -57 -105z" />
    <glyph glyph-name="egrave" unicode="&#xe8;" horiz-adv-x="456" 
d="M95 682h118l72 -166zM360 23q-46 -38 -113 -38q-98 0 -156 74q-26 33 -39 76.5t-13 91.5q0 54 14.5 101t41.5 82q56 75 148 75q86 0 134 -75q40 -64 45 -167h-310q0 -90 48 -145q22 -25 51 -38t61 -13q41 0 81.5 22t73.5 66q-21 -74 -67 -112zM339 284q0 60 -23 105
q-27 53 -80 53q-55 0 -89 -51q-15 -22 -24 -50.5t-10 -56.5h226z" />
    <glyph glyph-name="eacute" unicode="&#xe9;" horiz-adv-x="456" 
d="M192 516l76 166h113zM360 23q-46 -38 -113 -38q-98 0 -156 74q-26 33 -39 76.5t-13 91.5q0 54 14.5 101t41.5 82q56 75 148 75q86 0 134 -75q40 -64 45 -167h-310q0 -90 48 -145q21 -25 50 -38t61 -13q41 0 82 22t74 66q-21 -74 -67 -112zM339 284q0 60 -23 105
q-27 53 -80 53q-55 0 -89 -51q-15 -22 -24 -50.5t-10 -56.5h226z" />
    <glyph glyph-name="ecircumflex" unicode="&#xea;" horiz-adv-x="456" 
d="M235 602l-128 -84l128 182l133 -183zM360 23q-46 -38 -113 -38q-98 0 -156 74q-26 33 -39 76.5t-13 91.5q0 54 14.5 101t41.5 82q56 75 148 75q86 0 134 -75q40 -64 45 -167h-310q0 -90 48 -145q22 -25 51 -38t61 -13q41 0 81.5 22t73.5 66q-21 -74 -67 -112zM339 284
q0 60 -23 105q-27 53 -80 53q-55 0 -89 -51q-15 -22 -24 -50.5t-10 -56.5h226z" />
    <glyph glyph-name="edieresis" unicode="&#xeb;" horiz-adv-x="456" 
d="M193.5 585.5q-13.5 -14.5 -36.5 -14.5t-37 14.5t-14 35.5t14 35t37 14t36.5 -14t13.5 -35t-13.5 -35.5zM355.5 585.5q-13.5 -14.5 -36.5 -14.5t-37 14.5t-14 35.5t14 35t37 14t36.5 -14t13.5 -35t-13.5 -35.5zM360 23q-46 -38 -113 -38q-98 0 -156 74q-26 33 -39 76.5
t-13 91.5q0 54 14.5 101t41.5 82q56 75 148 75q86 0 134 -75q40 -64 45 -167h-310q0 -90 48 -145q22 -25 51 -38t61 -13q41 0 81.5 22t73.5 66q-21 -74 -67 -112zM339 284q0 60 -23 105q-27 53 -80 53q-55 0 -89 -51q-15 -22 -24 -50.5t-10 -56.5h226z" />
    <glyph glyph-name="igrave" unicode="&#xec;" horiz-adv-x="225" 
d="M-37 682h118l73 -166zM32 0q23 1 38 37q7 17 7 50v265q0 50 -12 65q-13 15 -35 15h-11l132 56v-401q0 -54 22 -76q10 -10 23 -11h-164z" />
    <glyph glyph-name="iacute" unicode="&#xed;" horiz-adv-x="225" 
d="M57 516l76 166h113zM32 0q23 1 38 37q7 17 7 50v265q0 51 -13 65q-14 15 -35 15h-10l131 56v-401q0 -54 22 -76q10 -10 23 -11h-163z" />
    <glyph glyph-name="icircumflex" unicode="&#xee;" horiz-adv-x="225" 
d="M110 602l-128 -84l128 182l133 -183zM32 0q23 1 38 37q7 17 7 50v265q0 50 -12 65q-13 15 -35 15h-11l131 56v-401q0 -54 22 -76q10 -10 23 -11h-163z" />
    <glyph glyph-name="idieresis" unicode="&#xef;" horiz-adv-x="225" 
d="M68 585.5q-14 -14.5 -37 -14.5t-37 14.5t-14 35.5t14 35.5t37 14.5t37 -14.5t14 -35.5t-14 -35.5zM229.5 585.5q-13.5 -14.5 -36.5 -14.5t-37 14.5t-14 35.5t14 35.5t37 14.5t36.5 -14.5t13.5 -35.5t-13.5 -35.5zM32 0q23 1 38 37q7 17 7 50v265q0 50 -12 65
q-13 15 -35 15h-10l131 56v-401q0 -54 22 -76q10 -10 23 -11h-164z" />
    <glyph glyph-name="eth" unicode="&#xf0;" horiz-adv-x="498" 
d="M400 56q-54 -71 -145 -71q-47 0 -87 20.5t-68 57.5q-28 35 -43 82t-15 99q0 50 13 94t37 77t56.5 51.5t70.5 18.5q52 0 97.5 -35t71.5 -106q-12 61 -42 119q-30 56 -77 107l-96 -50l-15 30l83 44q-38 33 -79 47l77 56q43 -36 73 -68l99 52l16 -31l-90 -48
q119 -147 119 -342q0 -129 -56 -204zM328 369q-24 29 -54 44.5t-58 15.5q-45 0 -74 -36t-29 -105q0 -111 54 -184q24 -32 53.5 -49.5t57.5 -17.5q45 0 75 42.5t30 119.5q0 101 -55 170z" />
    <glyph glyph-name="ntilde" unicode="&#xf1;" horiz-adv-x="519" 
d="M386 612.5q-5 -15.5 -15 -28.5q-10 -14 -25.5 -23t-33.5 -9q-14 0 -29.5 7t-36.5 21q-20 13 -35 20t-28 7q-23 0 -37 -19.5t-16 -47.5q-9 13 -9 38q0 14 5 29.5t14 27.5q23 30 58 30q16 0 32.5 -7t38.5 -20q23 -14 37.5 -21t25.5 -7q24 0 36 19.5t15 48.5q8 -11 8 -37
q0 -13 -5 -28.5zM334 0q21 2 33 37q6 17 6 49v225q0 60 -24 88.5t-64 28.5q-23 0 -47 -10t-44 -28q-20 -19 -32 -42.5t-12 -48.5v-214q0 -53 21 -74q8 -9 21 -11h-158q23 2 36 37q7 15 7 49v256q0 56 -12 75q-11 15 -37 15h-11l132 56v-94q24 37 75 65q50 26 94 26
q55 0 89 -34q40 -40 40 -120v-244q0 -55 21 -76q8 -9 21 -11h-155z" />
    <glyph glyph-name="ograve" unicode="&#xf2;" horiz-adv-x="534" 
d="M116 682h118l72 -166zM482.5 150.5q-14.5 -45.5 -42.5 -81.5q-67 -84 -177 -84q-55 0 -97 20.5t-71 56.5q-26 33 -39.5 75.5t-13.5 88.5t14.5 92.5t42.5 82.5q30 39 74 61.5t101 22.5q108 0 170 -77q26 -33 39.5 -77t13.5 -88q0 -47 -14.5 -92.5zM408 298q-10 38 -30 68
q-47 71 -121 71q-35 0 -61.5 -17t-44.5 -47q-16 -27 -24 -59.5t-8 -64.5q0 -38 10 -76.5t30 -68.5q47 -71 122 -71q35 0 61.5 17.5t44.5 47.5q16 26 23.5 59t7.5 65q0 38 -10 76z" />
    <glyph glyph-name="oacute" unicode="&#xf3;" horiz-adv-x="534" 
d="M228 516l77 166h113zM482.5 150.5q-14.5 -45.5 -42.5 -81.5q-67 -84 -177 -84q-55 0 -97 20.5t-71 56.5q-26 33 -39.5 75.5t-13.5 88.5t14.5 92.5t42.5 82.5q30 39 74 61.5t101 22.5q108 0 170 -77q26 -33 39.5 -77t13.5 -88q0 -47 -14.5 -92.5zM408 298q-10 38 -30 68
q-47 71 -121 71q-35 0 -61.5 -17t-44.5 -47q-16 -27 -24 -59.5t-8 -64.5q0 -38 10 -76.5t30 -68.5q47 -71 122 -71q35 0 61.5 17.5t44.5 47.5q16 26 23.5 59t7.5 65q0 38 -10 76z" />
    <glyph glyph-name="ocircumflex" unicode="&#xf4;" horiz-adv-x="534" 
d="M264 601l-128 -84l128 183l134 -183zM482.5 150.5q-14.5 -45.5 -42.5 -81.5q-67 -84 -177 -84q-55 0 -97 20.5t-71 56.5q-26 33 -39.5 75.5t-13.5 88.5t14.5 92.5t42.5 82.5q30 39 74 61.5t101 22.5q108 0 170 -77q26 -33 39.5 -77t13.5 -88q0 -47 -14.5 -92.5zM408 298
q-10 38 -30 68q-47 71 -121 71q-35 0 -61.5 -17t-44.5 -47q-16 -27 -24 -59.5t-8 -64.5q0 -38 10 -76.5t30 -68.5q47 -71 122 -71q35 0 61.5 17.5t44.5 47.5q16 26 23.5 59t7.5 65q0 38 -10 76z" />
    <glyph glyph-name="otilde" unicode="&#xf5;" horiz-adv-x="534" 
d="M396 612.5q-5 -15.5 -15 -28.5q-10 -14 -25.5 -23t-33.5 -9q-14 0 -29.5 7t-36.5 21q-20 13 -35 20t-28 7q-23 0 -37 -19.5t-16 -47.5q-9 13 -9 38q0 14 5 29.5t14 27.5q23 30 58 30q16 0 32.5 -7t38.5 -20q23 -14 37.5 -21t25.5 -7q24 0 36 19.5t15 48.5q8 -11 8 -37
q0 -13 -5 -28.5zM482.5 150.5q-14.5 -45.5 -42.5 -81.5q-67 -84 -177 -84q-55 0 -97 20.5t-71 56.5q-26 33 -39.5 75.5t-13.5 88.5t14.5 92.5t42.5 82.5q30 39 74 61.5t101 22.5q108 0 170 -77q26 -33 39.5 -77t13.5 -88q0 -47 -14.5 -92.5zM408 298q-10 38 -30 68
q-47 71 -121 71q-35 0 -61.5 -17t-44.5 -47q-16 -27 -24 -59.5t-8 -64.5q0 -38 10 -76.5t30 -68.5q47 -71 122 -71q35 0 61.5 17.5t44.5 47.5q16 26 23.5 59t7.5 65q0 38 -10 76z" />
    <glyph glyph-name="odieresis" unicode="&#xf6;" horiz-adv-x="534" 
d="M220.5 585.5q-13.5 -14.5 -36.5 -14.5t-37 14.5t-14 35.5t14 35t37 14t36.5 -14t13.5 -35t-13.5 -35.5zM382 585.5q-14 -14.5 -37 -14.5t-36.5 14.5t-13.5 35.5t13.5 35t36.5 14t37 -14t14 -35t-14 -35.5zM482.5 150.5q-14.5 -45.5 -42.5 -81.5q-67 -84 -177 -84
q-55 0 -97 20.5t-71 56.5q-26 33 -39.5 75.5t-13.5 88.5t14.5 92.5t42.5 82.5q30 39 74 61.5t101 22.5q108 0 170 -77q26 -33 39.5 -77t13.5 -88q0 -47 -14.5 -92.5zM408 298q-10 38 -30 68q-47 71 -121 71q-35 0 -61.5 -17t-44.5 -47q-16 -27 -24 -59.5t-8 -64.5
q0 -38 10 -76.5t30 -68.5q47 -71 122 -71q35 0 61.5 17.5t44.5 47.5q16 26 23.5 59t7.5 65q0 38 -10 76z" />
    <glyph glyph-name="divide" unicode="&#xf7;" horiz-adv-x="664" 
d="M369 440.5q-14 -14.5 -37 -14.5t-37 14.5t-14 36.5t14 36t37 14t37 -14.5t14 -35.5q0 -22 -14 -36.5zM59 256v52h544v-52h-544zM368.5 51.5q-14.5 -14.5 -37.5 -14.5t-37 14.5t-14 35.5q0 22 14 36.5t37 14.5t37.5 -15t14.5 -36t-14.5 -35.5z" />
    <glyph glyph-name="oslash" unicode="&#xf8;" horiz-adv-x="539" 
d="M482.5 150.5q-14.5 -45.5 -42.5 -81.5q-67 -84 -177 -84q-69 0 -118 33l-40 -59l-35 12l46 69q-37 34 -55.5 83t-18.5 103q0 46 14.5 92.5t42.5 82.5q30 39 74 61.5t101 22.5q68 0 118 -32l37 56l35 -13q-6 -6 -21 -32q-18 -28 -22 -33q38 -34 57 -84t19 -104
q0 -47 -14.5 -92.5zM355 396q-41 41 -98 41q-35 0 -61.5 -17t-44.5 -47q-16 -27 -24 -59.5t-8 -64.5q0 -39 10 -76.5t29 -67.5zM408 297q-10 38 -30 69l-196 -291q39 -42 99 -42q35 0 61.5 17.5t44.5 47.5q16 26 23.5 59t7.5 65q0 37 -10 75z" />
    <glyph glyph-name="ugrave" unicode="&#xf9;" horiz-adv-x="511" 
d="M110 682h118l72 -166zM367 -18v99q-29 -45 -75 -70.5t-95 -25.5q-127 0 -127 162v228q0 56 -22 78q-9 9 -18 12q-2 0 -13 4h127v-310q0 -58 24 -87.5t63 -29.5q24 0 49 12.5t44 32.5t30.5 44.5t11.5 47.5v204q0 49 -18 71q-9 9 -14 11q-3 1 -10 4h115v-349q0 -50 13 -67
q10 -15 37 -15h10z" />
    <glyph glyph-name="uacute" unicode="&#xfa;" horiz-adv-x="511" 
d="M216 516l76 166h113zM367 -18v99q-29 -45 -75 -70.5t-95 -25.5q-127 0 -127 162v228q0 56 -22 78q-9 9 -18 12q-2 0 -13 4h127v-310q0 -58 24 -87.5t63 -29.5q24 0 49 12.5t44 32.5t30.5 44.5t11.5 47.5v204q0 49 -18 71q-9 9 -14 11q-3 1 -10 4h115v-349q0 -50 13 -67
q10 -15 37 -15h10z" />
    <glyph glyph-name="ucircumflex" unicode="&#xfb;" horiz-adv-x="511" 
d="M247 602l-128 -84l128 182l133 -183zM367 -18v99q-29 -45 -75 -70.5t-95 -25.5q-127 0 -127 162v228q0 56 -22 78q-9 9 -18 12q-2 0 -13 4h127v-310q0 -58 24 -87.5t63 -29.5q24 0 49 12.5t44 32.5t30.5 44.5t11.5 47.5v204q0 49 -18 71q-9 9 -14 11q-3 1 -10 4h115v-349
q0 -50 13 -67q10 -15 37 -15h10z" />
    <glyph glyph-name="udieresis" unicode="&#xfc;" horiz-adv-x="511" 
d="M204 585.5q-14 -14.5 -37 -14.5t-37 14.5t-14 35.5t14 35t37 14t37 -14t14 -35t-14 -35.5zM365.5 585.5q-13.5 -14.5 -36.5 -14.5t-37 14.5t-14 35.5t14 35t37 14t36.5 -14t13.5 -35t-13.5 -35.5zM367 -18v99q-29 -45 -75 -70.5t-95 -25.5q-127 0 -127 162v228
q0 56 -22 78q-9 9 -18 12q-2 0 -13 4h127v-310q0 -58 24 -87.5t63 -29.5q24 0 49 12.5t44 32.5t30.5 44.5t11.5 47.5v204q0 49 -18 71q-9 9 -14 11q-3 1 -10 4h115v-349q0 -50 13 -67q10 -15 37 -15h10z" />
    <glyph glyph-name="yacute" unicode="&#xfd;" horiz-adv-x="485" 
d="M246 516l76 166h113zM483 469q-1 -1 -9 -4q-16 -9 -36 -37q-12 -18 -21 -41l-130 -331q-84 -213 -181 -250l-90 81q19 -9 48 -9q44 0 76 28q35 29 76 113l-145 372q-14 36 -41 63q-13 10 -17 11l-11 4h172q-28 -10 -28 -41q0 -18 12 -47l99 -262l97 249q14 36 14 57
q0 23 -17 38q-7 4 -17 6h149z" />
    <glyph glyph-name="thorn" unicode="&#xfe;" horiz-adv-x="517" 
d="M463 150q-15 -48 -43 -84q-29 -38 -70.5 -59t-93.5 -21q-70 0 -107 39v-119q0 -55 21 -76q8 -9 21 -11h-155q22 1 35 37q6 18 6 50l-1 641q0 55 -13 76q-12 17 -38 17h-8l132 53v-291q27 41 65 62t81 21q35 0 67.5 -14.5t58.5 -43.5q57 -64 57 -177q0 -52 -15 -100z
M364 374q-34 54 -95 54q-47 0 -82 -37q-17 -18 -27.5 -42t-10.5 -50v-160q0 -51 26 -78.5t79 -27.5q68 0 108 62q18 26 27 62t9 75q0 88 -34 142z" />
    <glyph glyph-name="ydieresis" unicode="&#xff;" horiz-adv-x="485" 
d="M214.5 585.5q-13.5 -14.5 -36.5 -14.5t-37 14.5t-14 35.5t14 35t37 14t36.5 -14t13.5 -35t-13.5 -35.5zM376 585.5q-14 -14.5 -37 -14.5t-36.5 14.5t-13.5 35.5t13.5 35t36.5 14t37 -14t14 -35t-14 -35.5zM483 469q-1 -1 -9 -4q-16 -9 -36 -37q-12 -18 -21 -41l-130 -331
q-84 -213 -181 -250l-90 81q19 -9 48 -9q44 0 76 28q35 29 76 113l-145 372q-14 36 -41 63q-13 10 -17 11l-11 4h172q-28 -10 -28 -41q0 -18 12 -47l99 -262l97 249q14 36 14 57q0 23 -17 38q-7 4 -17 6h149z" />
    <glyph glyph-name="Abreve" unicode="&#x102;" 
d="M485 0q18 5 27 18q5 8 5 23q0 17 -17 59l-41 106h-257l-40 -102q-15 -40 -15 -56q0 -28 20 -41q12 -6 20 -7h-166q24 4 54 49q14 21 33 67l237 578l235 -579q29 -71 62 -100q15 -13 29 -15h-186zM330 530l-109 -274h218zM419 785q-15 -16 -34 -25t-38 -9q-42 0 -73 34
q-33 36 -33 100q14 -35 42.5 -53.5t62.5 -18.5t62.5 18.5t42.5 53.5q0 -63 -32 -100z" />
    <glyph glyph-name="abreve" unicode="&#x103;" horiz-adv-x="468" 
d="M406 -19q-29 5 -51 27t-28 48q-18 -34 -59 -52.5t-90 -18.5q-58 0 -93 28q-40 30 -40 82q0 56 61 100q67 50 212 83v52q0 56 -25 84t-70 28q-48 0 -74 -20t-26 -49q0 -17 7 -29t18 -16l-81 -33q-13 22 -13 55q0 25 12 49.5t35 42.5q53 43 140 43q74 0 112 -38.5
t38 -102.5v-216q0 -40 18.5 -66.5t55.5 -26.5l16 2zM318 237q-105 -24 -151 -55q-47 -32 -47 -73q0 -35 23.5 -55.5t59.5 -20.5q22 0 42.5 7.5t36.5 21.5q36 31 36 70v105zM307 588q-15 -16 -34 -25t-38 -9q-42 0 -73 34q-33 36 -33 100q14 -35 42.5 -53.5t62.5 -18.5
t62.5 18.5t42.5 53.5q0 -63 -32 -100z" />
    <glyph glyph-name="Dcroat" unicode="&#x110;" horiz-adv-x="703" 
d="M633 208q-21 -61 -63 -107q-91 -101 -255 -101h-262q25 4 41 43q8 21 8 58v210h-83v43h83v217q0 59 -26 83q-10 10 -25 12h267q78 0 141 -23.5t106 -67.5t66 -104.5t23 -131.5q0 -70 -21 -131zM498 544q-67 73 -200 73h-115v-263h129v-43h-129v-261h141q119 0 185 91
q28 39 42 89t14 103q0 138 -67 211z" />
    <glyph glyph-name="dcroat" unicode="&#x111;" horiz-adv-x="517" 
d="M502 32l-123 -53l-1 87q-24 -35 -67 -58t-86 -23q-90 0 -140 68q-47 64 -47 166q0 55 16 103t46 84q30 37 71 57.5t91 20.5q36 0 66 -12.5t46 -33.5v87h-104v55h103q-1 33 -13 50q-12 16 -37 16h-9l133 52v-118h47v-55h-47v-399q0 -56 13 -77q10 -17 32 -17h10zM375 315
q0 57 -29 89t-82 32q-68 0 -110 -60q-19 -27 -28.5 -62.5t-9.5 -72.5q0 -93 34.5 -146.5t95.5 -53.5q22 0 45 9t42 25q42 37 42 79v161z" />
    <glyph glyph-name="Itilde" unicode="&#x128;" horiz-adv-x="276" 
d="M51 0q26 5 40 38q7 17 7 52v485q0 54 -24 78q-12 12 -24 13h176q-25 -4 -40 -40q-8 -19 -8 -51v-485q0 -56 24 -78q11 -10 24 -12h-175zM268 809.5q-5 -15.5 -15 -28.5q-10 -14 -25.5 -23t-33.5 -9q-14 0 -29.5 7t-36.5 21q-20 13 -35 20t-28 7q-23 0 -37 -19.5
t-16 -47.5q-9 13 -9 38q0 14 5 29.5t14 27.5q23 30 58 30q16 0 32.5 -7t38.5 -20q23 -14 37.5 -21t25.5 -7q24 0 36 19.5t15 48.5q8 -11 8 -37q0 -13 -5 -28.5z" />
    <glyph glyph-name="itilde" unicode="&#x129;" horiz-adv-x="225" 
d="M31 0q23 1 38 37q7 17 7 50v265q0 50 -12 65q-14 15 -35 15h-11l132 56v-401q0 -54 22 -76q10 -10 23 -11h-164zM243 612.5q-5 -15.5 -15 -28.5q-10 -14 -25.5 -23t-33.5 -9q-14 0 -29.5 7t-36.5 21q-20 13 -35 20t-28 7q-23 0 -37 -19.5t-16 -47.5q-9 13 -9 38
q0 14 5 29.5t14 27.5q23 30 58 30q16 0 32.5 -7t38.5 -20q23 -14 37.5 -21t25.5 -7q24 0 36 19.5t15 48.5q8 -11 8 -37q0 -13 -5 -28.5z" />
    <glyph glyph-name="dotlessi" unicode="&#x131;" horiz-adv-x="225" 
d="M31 0q23 1 38 37q7 17 7 50v265q0 50 -12 65q-14 15 -35 15h-11l132 56v-401q0 -54 22 -76q10 -10 23 -11h-164z" />
    <glyph glyph-name="Lslash" unicode="&#x141;" horiz-adv-x="527" 
d="M472 0h-421q25 5 40 43q7 18 7 57v162l-79 -62v57l79 62v254q0 57 -24 81q-10 11 -24 12h175q-24 -1 -40 -39q-8 -21 -8 -54v-193l107 85v-56l-107 -85v-274h164q34 0 56.5 6t40.5 20t31.5 36t26.5 57z" />
    <glyph glyph-name="lslash" unicode="&#x142;" horiz-adv-x="224" 
d="M150 340v-253q0 -56 20 -76q8 -9 21 -11h-157q23 2 36 37q6 18 6 50v196l-68 -53v57l68 53v207q0 55 -13 76q-12 17 -38 17h-8l133 53v-296l66 52v-57z" />
    <glyph glyph-name="OE" unicode="&#x152;" horiz-adv-x="927" 
d="M877 0h-413q-46 -15 -101 -15q-70 0 -128 25t-100 72q-42 46 -64 108t-22 136q0 75 24.5 140t68.5 114t105 75.5t134 26.5q56 0 101 -16h374v-138l-4 19q-9 36 -45 58q-21 12 -56 12h-174v-252h148q43 0 64 23q8 10 10 24v-143q-5 26 -32 40q-14 7 -41 7h-149v-266h180
q60 0 90 22q31 23 53 81zM497 582q-58 45 -136 45q-51 0 -93.5 -19.5t-72.5 -55.5q-31 -37 -47.5 -87t-16.5 -110q0 -68 18 -126t51 -100q34 -43 80.5 -66t102.5 -23q65 0 114 33v509z" />
    <glyph glyph-name="oe" unicode="&#x153;" horiz-adv-x="837" 
d="M740.5 23q-46.5 -38 -113.5 -38q-60 0 -104 28t-70 76q-30 -48 -77 -76t-113 -28q-55 0 -97 20.5t-71 56.5q-26 33 -39.5 75.5t-13.5 88.5t14.5 92.5t42.5 82.5q30 39 74 61.5t101 22.5q65 0 111 -27t74 -74q27 48 69 74.5t95 26.5q86 0 134 -75q40 -64 45 -167h-309
l1 -4v-5q6 -84 47 -134q43 -54 110 -54q42 0 83.5 23.5t73.5 65.5q-21 -74 -67.5 -112zM720 284q0 60 -23 105q-27 53 -81 53q-55 0 -89 -51q-15 -22 -24 -50.5t-10 -56.5h227zM408 298q-10 38 -30 68q-47 71 -121 71q-35 0 -61.5 -17t-44.5 -47q-16 -27 -24 -59.5t-8 -64.5
q0 -38 10 -76.5t30 -68.5q47 -71 122 -71q35 0 61.5 17.5t44.5 47.5q16 26 23.5 59t7.5 65q0 38 -10 76z" />
    <glyph glyph-name="Scaron" unicode="&#x160;" horiz-adv-x="476" 
d="M237 713l-125 173l125 -80l121 79zM399 56q-57 -71 -183 -71q-49 0 -93 14t-79 38v152q48 -153 184 -153q25 0 49 7.5t43 20.5q41 31 41 84q0 41 -21 70.5t-59 54.5q-37 24 -74 42q-92 46 -132 105q-23 35 -23 85q0 33 12 63.5t35 54.5q56 58 157 58q41 0 80.5 -13
t63.5 -32v-132q-19 65 -60 96t-96 31q-56 0 -89 -33t-33 -76q0 -37 21.5 -63.5t60.5 -50.5q38 -23 75 -41q91 -45 134 -110q23 -38 23 -92q0 -63 -37 -109z" />
    <glyph glyph-name="scaron" unicode="&#x161;" horiz-adv-x="370" 
d="M189 521l-133 184l133 -85l128 84zM295.5 22q-44.5 -37 -122.5 -37q-39 0 -75 10.5t-58 28.5v137q15 -73 55 -103q32 -27 84 -27q35 0 61 15q33 19 33 55q0 35 -33 62q-18 13 -37 24q-62 32 -92 52q-42 27 -58 64q-8 21 -8 45q0 60 44 99q43 38 112 38q64 0 113 -32v-122
q-11 54 -44 81.5t-75 27.5q-36 0 -61.5 -19.5t-25.5 -50.5q0 -16 4.5 -27.5t15.5 -22.5q22 -22 81 -52q40 -21 59 -32.5t35 -26.5q37 -35 37 -87q0 -63 -44.5 -100z" />
    <glyph glyph-name="Utilde" unicode="&#x168;" horiz-adv-x="674" 
d="M641 666q-15 -1 -25.5 -10.5t-19.5 -29.5q-8 -21 -8 -54v-345q0 -122 -59 -182t-190 -60t-189.5 58.5t-58.5 179.5v351q0 56 -24 80q-11 11 -24 12h177q-24 -1 -40 -39q-8 -21 -8 -52v-350q0 -97 42.5 -141.5t136.5 -44.5q97 0 138 52q35 43 35 132v349q0 57 -27 82
q-10 10 -26 12h170zM488 809.5q-5 -15.5 -15 -28.5q-10 -14 -25.5 -23t-33.5 -9q-14 0 -29.5 7t-36.5 21q-20 13 -35 20t-28 7q-23 0 -37 -19.5t-16 -47.5q-9 13 -9 38q0 14 5 29.5t14 27.5q23 30 58 30q16 0 32.5 -7t38.5 -20q23 -14 37.5 -21t25.5 -7q24 0 36 19.5
t15 48.5q8 -11 8 -37q0 -13 -5 -28.5z" />
    <glyph glyph-name="utilde" unicode="&#x169;" horiz-adv-x="515" 
d="M367 -18v99q-29 -45 -75 -70.5t-95 -25.5q-127 0 -127 162v228q0 56 -22 78q-9 9 -18 12q-2 0 -13 4h127v-310q0 -58 24 -87.5t63 -29.5q24 0 49 12.5t44 32.5t30.5 44.5t11.5 47.5v204q0 49 -18 71q-9 9 -14 11q-3 1 -10 4h115v-349q0 -50 13 -67q10 -15 37 -15h10z
M388 612.5q-5 -15.5 -15 -28.5q-10 -14 -25.5 -23t-33.5 -9q-14 0 -29.5 7t-36.5 21q-20 13 -35 20t-28 7q-23 0 -37 -19.5t-16 -47.5q-9 13 -9 38q0 14 5 29.5t14 27.5q23 30 58 30q16 0 32.5 -7t38.5 -20q23 -14 37.5 -21t25.5 -7q24 0 36 19.5t15 48.5q8 -11 8 -37
q0 -13 -5 -28.5z" />
    <glyph glyph-name="Ydieresis" unicode="&#x178;" horiz-adv-x="644" 
d="M280 733.5q-13 -13.5 -34 -13.5t-34.5 13.5t-13.5 34.5q0 19 13.5 32.5t34.5 13.5t34 -13.5t13 -32.5q0 -21 -13 -34.5zM432 733.5q-13 -13.5 -34 -13.5t-34 13.5t-13 34.5q0 19 13 32.5t34 13.5t34 -13.5t13 -32.5q0 -21 -13 -34.5zM621 666q-22 -6 -55 -44
q-17 -19 -39 -56l-167 -286v-187q0 -57 24 -81q11 -11 24 -12h-178q26 2 41 40q7 17 7 53v186l-168 289q-33 57 -68 85q-17 12 -26 13h187q-10 -2 -13 -5q-13 -7 -13 -26q0 -21 27 -66l132 -227l125 216q17 29 24.5 46.5t7.5 29.5q0 20 -13 27q-3 3 -12 5h153z" />
    <glyph glyph-name="Zcaron" unicode="&#x17d;" horiz-adv-x="585" 
d="M292 698l-133 183l133 -85l128 84zM534 0h-500l374 616h-225q-72 0 -105 -40q-12 -14 -16.5 -27.5t-9.5 -32.5v150h479l-373 -616h232q37 0 61.5 6.5t42.5 20.5q16 13 28.5 35t26.5 58z" />
    <glyph glyph-name="zcaron" unicode="&#x17e;" horiz-adv-x="452" 
d="M223 521l-133 184l133 -85l128 84zM33 0l262 428h-160q-43 0 -67 -33q-9 -13 -14.5 -27t-6.5 -24v125h355l-258 -423h175q45 0 69 31q13 17 21 50v-127h-376z" />
    <glyph glyph-name="florin" unicode="&#x192;" horiz-adv-x="523" 
d="M452 602q-11 12 -31 19t-41 7q-49 0 -71 -75q-14 -48 -24 -157h79l-3 -47h-80l-26 -236q-15 -136 -60 -195.5t-135 -59.5q-17 0 -31 3.5t-26 7.5t-16 6l24 65q10 -10 30 -20t39 -10q75 0 94 172l30 267h-74l3 47h75q14 134 50 201q46 85 138 85q44 0 83 -17z" />
    <glyph glyph-name="Ohorn" unicode="&#x1a0;" horiz-adv-x="742" 
d="M671 476q22 -63 22 -135q0 -75 -23 -140t-67 -113q-45 -49 -106 -76t-134 -27q-70 0 -128 25t-100 72q-42 46 -64 108t-22 136q0 75 24.5 140t68.5 114t105 75.5t134 26.5q52 0 103 -16q42 0 66 17.5t39 54.5h35q-8 -87 -55 -117q17 -12 39 -36q41 -46 63 -109z
M596.5 206q16.5 51 16.5 112q0 67 -17.5 123.5t-50.5 97.5q-34 42 -80.5 65t-103.5 23q-51 0 -93.5 -19.5t-72.5 -55.5q-31 -37 -47.5 -87t-16.5 -110q0 -68 18 -126t51 -100q34 -43 80.5 -66t102.5 -23q51 0 93.5 20t72.5 57q31 38 47.5 89z" />
    <glyph glyph-name="ohorn" unicode="&#x1a1;" horiz-adv-x="539" 
d="M483.5 331q13.5 -44 13.5 -88q0 -47 -14.5 -92.5t-42.5 -81.5q-67 -84 -177 -84q-55 0 -97 20.5t-71 56.5q-26 33 -39.5 75.5t-13.5 88.5t14.5 92.5t42.5 82.5q30 39 74 61.5t101 22.5q46 0 88 -16q39 1 61.5 18.5t36.5 53.5h35q-8 -93 -62 -120l11 -13q26 -33 39.5 -77z
M410.5 157q7.5 33 7.5 65q0 38 -10 76t-30 68q-47 71 -121 71q-35 0 -61.5 -17t-44.5 -47q-16 -27 -24 -59.5t-8 -64.5q0 -38 10 -76.5t30 -68.5q47 -71 122 -71q35 0 61.5 17.5t44.5 47.5q16 26 23.5 59z" />
    <glyph glyph-name="Uhorn" unicode="&#x1af;" horiz-adv-x="674" 
d="M697 649.5q-21 -29.5 -47.5 -37.5t-59.5 -8q-2 -18 -2 -32v-345q0 -122 -59 -182t-190 -60t-189.5 58.5t-58.5 179.5v351q0 56 -24 80q-11 11 -24 12h177q-24 -1 -40 -39q-8 -21 -8 -52v-350q0 -97 42.5 -141.5t136.5 -44.5q97 0 138 52q35 43 35 132v349q0 57 -27 82
q-10 10 -26 12h113q42 0 66 17.5t39 54.5h35q-6 -59 -27 -88.5z" />
    <glyph glyph-name="uhorn" unicode="&#x1b0;" horiz-adv-x="515" 
d="M523.5 434.5q-34.5 -26.5 -84.5 -27.5v-287q0 -50 13 -67q10 -15 37 -15h10l-132 -56v99q-29 -45 -75 -70.5t-95 -25.5q-127 0 -127 162v228q0 56 -22 78q-9 9 -18 12q-2 0 -13 4h127v-310q0 -58 24 -87.5t63 -29.5q24 0 49 12.5t44 32.5t30.5 44.5t11.5 47.5v204
q0 49 -18 71q-9 9 -14 11q-3 1 -10 4h101q42 0 66 17.5t39 54.5h35q-7 -80 -41.5 -106.5z" />
    <glyph glyph-name="caron" unicode="&#x2c7;" horiz-adv-x="438" 
d="M217 521l-133 184l133 -85l128 84z" />
    <glyph glyph-name="dotaccent" unicode="&#x2d9;" horiz-adv-x="438" 
d="M256 585.5q-14 -14.5 -37 -14.5q-24 0 -38 14.5t-14 35.5t14 35.5t38 14.5t37.5 -14.5t13.5 -35.5t-14 -35.5z" />
    <glyph glyph-name="ring" unicode="&#x2da;" horiz-adv-x="438" 
d="M287 550q-24 -26 -65 -26t-65.5 26t-24.5 64t24.5 63.5t65.5 25.5t65 -25.5t24 -63.5t-24 -64zM261 654q-14 16 -39 16q-26 0 -41 -16t-15 -40t15.5 -41t40.5 -17q24 0 38.5 17t14.5 41t-14 40z" />
    <glyph glyph-name="ogonek" unicode="&#x2db;" horiz-adv-x="438" 
d="M267.5 -166q-27.5 -16 -57.5 -16q-36 0 -58.5 21.5t-22.5 59.5q0 25 14.5 55t35.5 51h41q-33 -49 -33 -84q0 -26 17.5 -41t48.5 -15q21 0 56 13q-14 -28 -41.5 -44z" />
    <glyph glyph-name="hungarumlaut" unicode="&#x2dd;" horiz-adv-x="438" 
d="M58 516l69 164h112zM219 516l68 164h112z" />
    <glyph glyph-name="gravecomb" unicode="&#x300;" horiz-adv-x="0" 
d="M-357 682h118l72 -166z" />
    <glyph glyph-name="acutecomb" unicode="&#x301;" horiz-adv-x="0" 
d="M-257 516l77 166h113z" />
    <glyph glyph-name="uni0302" unicode="&#x302;" horiz-adv-x="0" 
d="M-218 602l-128 -84l128 182l133 -183z" />
    <glyph glyph-name="tildecomb" unicode="&#x303;" horiz-adv-x="0" 
d="M-82 612.5q-5 -15.5 -15 -28.5q-10 -14 -25.5 -23t-33.5 -9q-14 0 -29.5 7t-36.5 21q-20 13 -35 20t-28 7q-23 0 -37 -19.5t-16 -47.5q-9 13 -9 38q0 14 5 29.5t14 27.5q23 30 58 30q16 0 32.5 -7t38.5 -20q23 -14 37.5 -21t25.5 -7q24 0 36 19.5t15 48.5q8 -11 8 -37
q0 -13 -5 -28.5z" />
    <glyph glyph-name="uni0306" unicode="&#x306;" horiz-adv-x="0" 
d="M-146 588q-15 -16 -34 -25t-38 -9q-42 0 -73 34q-33 36 -33 100q14 -35 42.5 -53.5t62.5 -18.5t62.5 18.5t42.5 53.5q0 -63 -32 -100z" />
    <glyph glyph-name="hookabovecomb" unicode="&#x309;" horiz-adv-x="0" 
d="M-143 587.5q-14 -13.5 -38 -26.5l-9 -4.5t-9.5 -6.5t-2.5 -6q2 -17 15 -26q-5 -9 -17 -9q-19 0 -30.5 11t-11.5 28q0 13 9 21.5t27 19.5q15 9 23.5 16.5t8.5 17.5q0 19 -11.5 30t-30.5 11q-20 0 -36 -11q-17 -12 -27 -37l-10 2v58q14 10 36 16t44 6q33 0 59 -17
q25 -16 25 -54q0 -26 -14 -39.5z" />
    <glyph glyph-name="uni031B" unicode="&#x31b;" horiz-adv-x="0" 
d="M-79 541q-6 -61 -28 -90.5t-48.5 -36.5t-62.5 -7l-1 62q42 0 66 17.5t39 54.5h35z" />
    <glyph glyph-name="dotbelowcomb" unicode="&#x323;" horiz-adv-x="0" 
d="M-182 -156.5q-14 -14.5 -37 -14.5q-24 0 -38 14.5t-14 35.5t14 35.5t38 14.5t37.5 -14.5t13.5 -35.5t-14 -35.5z" />
    <glyph glyph-name="uni1EA0" unicode="&#x1ea0;" 
d="M485 0q18 5 27 18q5 8 5 23q0 17 -17 59l-41 106h-257l-40 -102q-15 -40 -15 -56q0 -28 20 -41q12 -6 20 -7h-166q24 4 54 49q14 21 33 67l237 578l235 -579q29 -71 62 -100q15 -13 29 -15h-186zM330 530l-109 -274h218zM383 -156.5q-14 -14.5 -37 -14.5q-24 0 -38 14.5
t-14 35.5t14 35.5t38 14.5t37.5 -14.5t13.5 -35.5t-14 -35.5z" />
    <glyph glyph-name="uni1EA1" unicode="&#x1ea1;" horiz-adv-x="468" 
d="M406 -19q-29 5 -51 27t-28 48q-18 -34 -59 -52.5t-90 -18.5q-58 0 -93 28q-40 30 -40 82q0 56 61 100q67 50 212 83v52q0 56 -25 84t-70 28q-48 0 -74 -20t-26 -49q0 -17 7 -29t18 -16l-81 -33q-13 22 -13 55q0 25 12 49.5t35 42.5q53 43 140 43q74 0 112 -38.5
t38 -102.5v-216q0 -40 18.5 -66.5t55.5 -26.5l16 2zM318 237q-105 -24 -151 -55q-47 -32 -47 -73q0 -35 23.5 -55.5t59.5 -20.5q22 0 42.5 7.5t36.5 21.5q36 31 36 70v105zM271 -156.5q-14 -14.5 -37 -14.5q-24 0 -38 14.5t-14 35.5t14 35.5t38 14.5t37.5 -14.5t13.5 -35.5
t-14 -35.5z" />
    <glyph glyph-name="uni1EA2" unicode="&#x1ea2;" 
d="M485 0q18 5 27 18q5 8 5 23q0 17 -17 59l-41 106h-257l-40 -102q-15 -40 -15 -56q0 -28 20 -41q12 -6 20 -7h-166q24 4 54 49q14 21 33 67l237 578l235 -579q29 -71 62 -100q15 -13 29 -15h-186zM330 530l-109 -274h218zM414 816.5q-14 -13.5 -38 -26.5l-9 -4.5
t-9.5 -6.5t-2.5 -6q2 -17 15 -26q-5 -9 -17 -9q-19 0 -30.5 11t-11.5 28q0 13 9 21.5t27 19.5q15 9 23.5 16.5t8.5 17.5q0 19 -11.5 30t-30.5 11q-20 0 -36 -11q-17 -12 -27 -37l-10 2v58q14 10 36 16t44 6q33 0 59 -17q25 -16 25 -54q0 -26 -14 -39.5z" />
    <glyph glyph-name="uni1EA3" unicode="&#x1ea3;" horiz-adv-x="468" 
d="M406 -19q-29 5 -51 27t-28 48q-18 -34 -59 -52.5t-90 -18.5q-58 0 -93 28q-40 30 -40 82q0 56 61 100q67 50 212 83v52q0 56 -25 84t-70 28q-48 0 -74 -20t-26 -49q0 -17 7 -29t18 -16l-81 -33q-13 22 -13 55q0 25 12 49.5t35 42.5q53 43 140 43q74 0 112 -38.5
t38 -102.5v-216q0 -40 18.5 -66.5t55.5 -26.5l16 2zM318 237q-105 -24 -151 -55q-47 -32 -47 -73q0 -35 23.5 -55.5t59.5 -20.5q22 0 42.5 7.5t36.5 21.5q36 31 36 70v105zM302 619.5q-14 -13.5 -38 -26.5l-9 -4.5t-9.5 -6.5t-2.5 -6q2 -17 15 -26q-5 -9 -17 -9
q-19 0 -30.5 11t-11.5 28q0 13 9 21.5t27 19.5q15 9 23.5 16.5t8.5 17.5q0 19 -11.5 30t-30.5 11q-20 0 -36 -11q-17 -12 -27 -37l-10 2v58q14 10 36 16t44 6q33 0 59 -17q25 -16 25 -54q0 -26 -14 -39.5z" />
    <glyph glyph-name="uni1EA4" unicode="&#x1ea4;" 
d="M455 768l63 138h94zM344 776l-106 -70l106 151l110 -152zM485 0q18 5 27 18q5 8 5 23q0 17 -17 59l-41 106h-257l-40 -102q-15 -40 -15 -56q0 -28 20 -41q12 -6 20 -7h-166q24 4 54 49q14 21 33 67l237 578l235 -579q29 -71 62 -100q15 -13 29 -15h-186zM330 530
l-109 -274h218z" />
    <glyph glyph-name="uni1EA5" unicode="&#x1ea5;" horiz-adv-x="468" 
d="M343 571l63 138h94zM232 579l-106 -70l106 151l110 -152zM406 -19q-29 5 -51 27t-28 48q-18 -34 -59 -52.5t-90 -18.5q-58 0 -93 28q-40 30 -40 82q0 56 61 100q67 50 212 83v52q0 56 -25 84t-70 28q-48 0 -74 -20t-26 -49q0 -17 7 -29t18 -16l-81 -33q-13 22 -13 55
q0 25 12 49.5t35 42.5q53 43 140 43q74 0 112 -38.5t38 -102.5v-216q0 -40 18.5 -66.5t55.5 -26.5l16 2zM318 237q-105 -24 -151 -55q-47 -32 -47 -73q0 -35 23.5 -55.5t59.5 -20.5q22 0 42.5 7.5t36.5 21.5q36 31 36 70v105z" />
    <glyph glyph-name="uni1EA6" unicode="&#x1ea6;" 
d="M306 948h97l60 -138zM344 776l-106 -70l106 151l110 -152zM485 0q18 5 27 18q5 8 5 23q0 17 -17 59l-41 106h-257l-40 -102q-15 -40 -15 -56q0 -28 20 -41q12 -6 20 -7h-166q24 4 54 49q14 21 33 67l237 578l235 -579q29 -71 62 -100q15 -13 29 -15h-186zM330 530
l-109 -274h218z" />
    <glyph glyph-name="uni1EA7" unicode="&#x1ea7;" horiz-adv-x="468" 
d="M194 751h97l60 -138zM232 579l-106 -70l106 151l110 -152zM406 -19q-29 5 -51 27t-28 48q-18 -34 -59 -52.5t-90 -18.5q-58 0 -93 28q-40 30 -40 82q0 56 61 100q67 50 212 83v52q0 56 -25 84t-70 28q-48 0 -74 -20t-26 -49q0 -17 7 -29t18 -16l-81 -33q-13 22 -13 55
q0 25 12 49.5t35 42.5q53 43 140 43q74 0 112 -38.5t38 -102.5v-216q0 -40 18.5 -66.5t55.5 -26.5l16 2zM318 237q-105 -24 -151 -55q-47 -32 -47 -73q0 -35 23.5 -55.5t59.5 -20.5q22 0 42.5 7.5t36.5 21.5q36 31 36 70v105z" />
    <glyph glyph-name="uni1EA8" unicode="&#x1ea8;" 
d="M519 860.5q-12 -11.5 -31 -20.5q-7 -3 -12.5 -7t-4.5 -7q1 -14 12 -22q-4 -7 -14 -7q-15 0 -24.5 9t-9.5 23q0 11 8 18t22 15q2 2 10 7t12 10.5t4 11.5q0 16 -9.5 25t-25.5 9q-14 0 -30 -9q-14 -11 -22 -31l-8 2v48q12 8 30 13t36 5q27 0 49 -14q20 -13 20 -45
q0 -22 -12 -33.5zM344 776l-106 -70l106 151l110 -152zM485 0q18 5 27 18q5 8 5 23q0 17 -17 59l-41 106h-257l-40 -102q-15 -40 -15 -56q0 -28 20 -41q12 -6 20 -7h-166q24 4 54 49q14 21 33 67l237 578l235 -579q29 -71 62 -100q15 -13 29 -15h-186zM330 530l-109 -274
h218z" />
    <glyph glyph-name="uni1EA9" unicode="&#x1ea9;" horiz-adv-x="468" 
d="M407 663.5q-12 -11.5 -31 -20.5q-7 -3 -12.5 -7t-4.5 -7q1 -14 12 -22q-4 -7 -14 -7q-15 0 -24.5 9t-9.5 23q0 11 8 18t22 15q2 2 10 7t12 10.5t4 11.5q0 16 -9.5 25t-25.5 9q-14 0 -30 -9q-14 -11 -22 -31l-8 2v48q12 8 30 13t36 5q27 0 49 -14q20 -13 20 -45
q0 -22 -12 -33.5zM232 579l-106 -70l106 151l110 -152zM406 -19q-29 5 -51 27t-28 48q-18 -34 -59 -52.5t-90 -18.5q-58 0 -93 28q-40 30 -40 82q0 56 61 100q67 50 212 83v52q0 56 -25 84t-70 28q-48 0 -74 -20t-26 -49q0 -17 7 -29t18 -16l-81 -33q-13 22 -13 55
q0 25 12 49.5t35 42.5q53 43 140 43q74 0 112 -38.5t38 -102.5v-216q0 -40 18.5 -66.5t55.5 -26.5l16 2zM318 237q-105 -24 -151 -55q-47 -32 -47 -73q0 -35 23.5 -55.5t59.5 -20.5q22 0 42.5 7.5t36.5 21.5q36 31 36 70v105z" />
    <glyph glyph-name="uni1EAA" unicode="&#x1eaa;" 
d="M455 890q-20 -27 -49 -27q-11 0 -23 5.5t-31 17.5q-18 11 -30 17t-23 6q-19 0 -30 -16.5t-13 -39.5q-8 12 -8 32q0 11 4 24t12 23q20 25 48 25q13 0 26.5 -6t32.5 -17q14 -8 28.5 -15.5t23.5 -7.5q36 0 42 56q6 -7 6 -30q0 -25 -16 -47zM344 776l-106 -70l106 151
l110 -152zM485 0q18 5 27 18q5 8 5 23q0 17 -17 59l-41 106h-257l-40 -102q-15 -40 -15 -56q0 -28 20 -41q12 -6 20 -7h-166q24 4 54 49q14 21 33 67l237 578l235 -579q29 -71 62 -100q15 -13 29 -15h-186zM330 530l-109 -274h218z" />
    <glyph glyph-name="uni1EAB" unicode="&#x1eab;" horiz-adv-x="468" 
d="M343 693q-20 -27 -49 -27q-11 0 -23 5.5t-31 17.5q-18 11 -30 17t-23 6q-19 0 -30 -16.5t-13 -39.5q-8 12 -8 32q0 11 4 24t12 23q20 25 48 25q13 0 26.5 -6t32.5 -17q14 -8 28.5 -15.5t23.5 -7.5q36 0 42 56q6 -7 6 -30q0 -25 -16 -47zM232 579l-106 -70l106 151
l110 -152zM406 -19q-29 5 -51 27t-28 48q-18 -34 -59 -52.5t-90 -18.5q-58 0 -93 28q-40 30 -40 82q0 56 61 100q67 50 212 83v52q0 56 -25 84t-70 28q-48 0 -74 -20t-26 -49q0 -17 7 -29t18 -16l-81 -33q-13 22 -13 55q0 25 12 49.5t35 42.5q53 43 140 43q74 0 112 -38.5
t38 -102.5v-216q0 -40 18.5 -66.5t55.5 -26.5l16 2zM318 237q-105 -24 -151 -55q-47 -32 -47 -73q0 -35 23.5 -55.5t59.5 -20.5q22 0 42.5 7.5t36.5 21.5q36 31 36 70v105z" />
    <glyph glyph-name="uni1EAC" unicode="&#x1eac;" 
d="M485 0q18 5 27 18q5 8 5 23q0 17 -17 59l-41 106h-257l-40 -102q-15 -40 -15 -56q0 -28 20 -41q12 -6 20 -7h-166q24 4 54 49q14 21 33 67l237 578l235 -579q29 -71 62 -100q15 -13 29 -15h-186zM330 530l-109 -274h218zM383 -156.5q-14 -14.5 -37 -14.5q-24 0 -38 14.5
t-14 35.5t14 35.5t38 14.5t37.5 -14.5t13.5 -35.5t-14 -35.5zM343 799l-128 -84l128 182l133 -183z" />
    <glyph glyph-name="uni1EAD" unicode="&#x1ead;" horiz-adv-x="468" 
d="M406 -19q-29 5 -51 27t-28 48q-18 -34 -59 -52.5t-90 -18.5q-58 0 -93 28q-40 30 -40 82q0 56 61 100q67 50 212 83v52q0 56 -25 84t-70 28q-48 0 -74 -20t-26 -49q0 -17 7 -29t18 -16l-81 -33q-13 22 -13 55q0 25 12 49.5t35 42.5q53 43 140 43q74 0 112 -38.5
t38 -102.5v-216q0 -40 18.5 -66.5t55.5 -26.5l16 2zM318 237q-105 -24 -151 -55q-47 -32 -47 -73q0 -35 23.5 -55.5t59.5 -20.5q22 0 42.5 7.5t36.5 21.5q36 31 36 70v105zM271 -156.5q-14 -14.5 -37 -14.5q-24 0 -38 14.5t-14 35.5t14 35.5t38 14.5t37.5 -14.5t13.5 -35.5
t-14 -35.5zM231 602l-128 -84l128 182l133 -183z" />
    <glyph glyph-name="uni1EAE" unicode="&#x1eae;" 
d="M340 845l63 138h94zM406 764q-12 -13 -28 -20.5t-31 -7.5q-35 0 -61 28q-27 30 -27 83q12 -29 35.5 -44.5t51.5 -15.5t51.5 15.5t35.5 44.5q0 -53 -27 -83zM485 0q18 5 27 18q5 8 5 23q0 17 -17 59l-41 106h-257l-40 -102q-15 -40 -15 -56q0 -28 20 -41q12 -6 20 -7h-166
q24 4 54 49q14 21 33 67l237 578l235 -579q29 -71 62 -100q15 -13 29 -15h-186zM330 530l-109 -274h218z" />
    <glyph glyph-name="uni1EAF" unicode="&#x1eaf;" horiz-adv-x="468" 
d="M228 648l63 138h94zM294 567q-12 -13 -28 -20.5t-31 -7.5q-35 0 -61 28q-27 30 -27 83q12 -29 35.5 -44.5t51.5 -15.5t51.5 15.5t35.5 44.5q0 -53 -27 -83zM406 -19q-29 5 -51 27t-28 48q-18 -34 -59 -52.5t-90 -18.5q-58 0 -93 28q-40 30 -40 82q0 56 61 100
q67 50 212 83v52q0 56 -25 84t-70 28q-48 0 -74 -20t-26 -49q0 -17 7 -29t18 -16l-81 -33q-13 22 -13 55q0 25 12 49.5t35 42.5q53 43 140 43q74 0 112 -38.5t38 -102.5v-216q0 -40 18.5 -66.5t55.5 -26.5l16 2zM318 237q-105 -24 -151 -55q-47 -32 -47 -73
q0 -35 23.5 -55.5t59.5 -20.5q22 0 42.5 7.5t36.5 21.5q36 31 36 70v105z" />
    <glyph glyph-name="uni1EB0" unicode="&#x1eb0;" 
d="M200 981h97l60 -138zM406 764q-12 -13 -28 -20.5t-31 -7.5q-35 0 -61 28q-27 30 -27 83q12 -29 35.5 -44.5t51.5 -15.5t51.5 15.5t35.5 44.5q0 -53 -27 -83zM485 0q18 5 27 18q5 8 5 23q0 17 -17 59l-41 106h-257l-40 -102q-15 -40 -15 -56q0 -28 20 -41q12 -6 20 -7
h-166q24 4 54 49q14 21 33 67l237 578l235 -579q29 -71 62 -100q15 -13 29 -15h-186zM330 530l-109 -274h218z" />
    <glyph glyph-name="uni1EB1" unicode="&#x1eb1;" horiz-adv-x="468" 
d="M88 784h97l60 -138zM294 567q-12 -13 -28 -20.5t-31 -7.5q-35 0 -61 28q-27 30 -27 83q12 -29 35.5 -44.5t51.5 -15.5t51.5 15.5t35.5 44.5q0 -53 -27 -83zM406 -19q-29 5 -51 27t-28 48q-18 -34 -59 -52.5t-90 -18.5q-58 0 -93 28q-40 30 -40 82q0 56 61 100
q67 50 212 83v52q0 56 -25 84t-70 28q-48 0 -74 -20t-26 -49q0 -17 7 -29t18 -16l-81 -33q-13 22 -13 55q0 25 12 49.5t35 42.5q53 43 140 43q74 0 112 -38.5t38 -102.5v-216q0 -40 18.5 -66.5t55.5 -26.5l16 2zM318 237q-105 -24 -151 -55q-47 -32 -47 -73
q0 -35 23.5 -55.5t59.5 -20.5q22 0 42.5 7.5t36.5 21.5q36 31 36 70v105z" />
    <glyph glyph-name="uni1EB2" unicode="&#x1eb2;" 
d="M401 898.5q-12 -11.5 -31 -20.5q-7 -3 -12.5 -7t-4.5 -7q1 -14 12 -22q-4 -7 -14 -7q-15 0 -24.5 9t-9.5 23q0 11 8 18t22 15q2 2 10 7t12 10.5t4 11.5q0 16 -9.5 25t-25.5 9q-14 0 -30 -9q-14 -11 -22 -31l-8 2v48q12 8 30 13t36 5q27 0 49 -14q20 -13 20 -45
q0 -22 -12 -33.5zM406 764q-12 -13 -28 -20.5t-31 -7.5q-35 0 -61 28q-27 30 -27 83q12 -29 35.5 -44.5t51.5 -15.5t51.5 15.5t35.5 44.5q0 -53 -27 -83zM485 0q18 5 27 18q5 8 5 23q0 17 -17 59l-41 106h-257l-40 -102q-15 -40 -15 -56q0 -28 20 -41q12 -6 20 -7h-166
q24 4 54 49q14 21 33 67l237 578l235 -579q29 -71 62 -100q15 -13 29 -15h-186zM330 530l-109 -274h218z" />
    <glyph glyph-name="uni1EB3" unicode="&#x1eb3;" horiz-adv-x="468" 
d="M289 701.5q-12 -11.5 -31 -20.5q-7 -3 -12.5 -7t-4.5 -7q1 -14 12 -22q-4 -7 -14 -7q-15 0 -24.5 9t-9.5 23q0 11 8 18t22 15q2 2 10 7t12 10.5t4 11.5q0 16 -9.5 25t-25.5 9q-14 0 -30 -9q-14 -11 -22 -31l-8 2v48q12 8 30 13t36 5q27 0 49 -14q20 -13 20 -45
q0 -22 -12 -33.5zM294 567q-12 -13 -28 -20.5t-31 -7.5q-35 0 -61 28q-27 30 -27 83q12 -29 35.5 -44.5t51.5 -15.5t51.5 15.5t35.5 44.5q0 -53 -27 -83zM406 -19q-29 5 -51 27t-28 48q-18 -34 -59 -52.5t-90 -18.5q-58 0 -93 28q-40 30 -40 82q0 56 61 100q67 50 212 83v52
q0 56 -25 84t-70 28q-48 0 -74 -20t-26 -49q0 -17 7 -29t18 -16l-81 -33q-13 22 -13 55q0 25 12 49.5t35 42.5q53 43 140 43q74 0 112 -38.5t38 -102.5v-216q0 -40 18.5 -66.5t55.5 -26.5l16 2zM318 237q-105 -24 -151 -55q-47 -32 -47 -73q0 -35 23.5 -55.5t59.5 -20.5
q22 0 42.5 7.5t36.5 21.5q36 31 36 70v105z" />
    <glyph glyph-name="uni1EB4" unicode="&#x1eb4;" 
d="M442 894q-20 -27 -49 -27q-11 0 -23 5.5t-31 17.5q-18 11 -30 17t-23 6q-19 0 -30 -16.5t-13 -39.5q-8 12 -8 32q0 11 4 24t12 23q20 25 48 25q13 0 26.5 -6t32.5 -17q14 -8 28.5 -15.5t23.5 -7.5q36 0 42 56q6 -7 6 -30q0 -25 -16 -47zM406 764q-12 -13 -28 -20.5
t-31 -7.5q-35 0 -61 28q-27 30 -27 83q12 -29 35.5 -44.5t51.5 -15.5t51.5 15.5t35.5 44.5q0 -53 -27 -83zM485 0q18 5 27 18q5 8 5 23q0 17 -17 59l-41 106h-257l-40 -102q-15 -40 -15 -56q0 -28 20 -41q12 -6 20 -7h-166q24 4 54 49q14 21 33 67l237 578l235 -579
q29 -71 62 -100q15 -13 29 -15h-186zM330 530l-109 -274h218z" />
    <glyph glyph-name="uni1EB5" unicode="&#x1eb5;" horiz-adv-x="468" 
d="M330 697q-20 -27 -49 -27q-11 0 -23 5.5t-31 17.5q-18 11 -30 17t-23 6q-19 0 -30 -16.5t-13 -39.5q-8 12 -8 32q0 11 4 24t12 23q20 25 48 25q13 0 26.5 -6t32.5 -17q14 -8 28.5 -15.5t23.5 -7.5q36 0 42 56q6 -7 6 -30q0 -25 -16 -47zM294 567q-12 -13 -28 -20.5
t-31 -7.5q-35 0 -61 28q-27 30 -27 83q12 -29 35.5 -44.5t51.5 -15.5t51.5 15.5t35.5 44.5q0 -53 -27 -83zM406 -19q-29 5 -51 27t-28 48q-18 -34 -59 -52.5t-90 -18.5q-58 0 -93 28q-40 30 -40 82q0 56 61 100q67 50 212 83v52q0 56 -25 84t-70 28q-48 0 -74 -20t-26 -49
q0 -17 7 -29t18 -16l-81 -33q-13 22 -13 55q0 25 12 49.5t35 42.5q53 43 140 43q74 0 112 -38.5t38 -102.5v-216q0 -40 18.5 -66.5t55.5 -26.5l16 2zM318 237q-105 -24 -151 -55q-47 -32 -47 -73q0 -35 23.5 -55.5t59.5 -20.5q22 0 42.5 7.5t36.5 21.5q36 31 36 70v105z" />
    <glyph glyph-name="uni1EB6" unicode="&#x1eb6;" 
d="M485 0q18 5 27 18q5 8 5 23q0 17 -17 59l-41 106h-257l-40 -102q-15 -40 -15 -56q0 -28 20 -41q12 -6 20 -7h-166q24 4 54 49q14 21 33 67l237 578l235 -579q29 -71 62 -100q15 -13 29 -15h-186zM330 530l-109 -274h218zM383 -156.5q-14 -14.5 -37 -14.5q-24 0 -38 14.5
t-14 35.5t14 35.5t38 14.5t37.5 -14.5t13.5 -35.5t-14 -35.5zM419 785q-15 -16 -34 -25t-38 -9q-42 0 -73 34q-33 36 -33 100q14 -35 42.5 -53.5t62.5 -18.5t62.5 18.5t42.5 53.5q0 -63 -32 -100z" />
    <glyph glyph-name="uni1EB7" unicode="&#x1eb7;" horiz-adv-x="468" 
d="M406 -19q-29 5 -51 27t-28 48q-18 -34 -59 -52.5t-90 -18.5q-58 0 -93 28q-40 30 -40 82q0 56 61 100q67 50 212 83v52q0 56 -25 84t-70 28q-48 0 -74 -20t-26 -49q0 -17 7 -29t18 -16l-81 -33q-13 22 -13 55q0 25 12 49.5t35 42.5q53 43 140 43q74 0 112 -38.5
t38 -102.5v-216q0 -40 18.5 -66.5t55.5 -26.5l16 2zM318 237q-105 -24 -151 -55q-47 -32 -47 -73q0 -35 23.5 -55.5t59.5 -20.5q22 0 42.5 7.5t36.5 21.5q36 31 36 70v105zM271 -156.5q-14 -14.5 -37 -14.5q-24 0 -38 14.5t-14 35.5t14 35.5t38 14.5t37.5 -14.5t13.5 -35.5
t-14 -35.5zM307 588q-15 -16 -34 -25t-38 -9q-42 0 -73 34q-33 36 -33 100q14 -35 42.5 -53.5t62.5 -18.5t62.5 18.5t42.5 53.5q0 -63 -32 -100z" />
    <glyph glyph-name="uni1EB8" unicode="&#x1eb8;" horiz-adv-x="521" 
d="M470 0h-418q24 1 41 41q8 21 8 54v477q0 57 -26 81q-12 12 -26 13h401v-138l-4 19q-9 36 -45 58q-21 12 -56 12h-163v-252h136q43 0 64 23q10 11 11 24v-143q-2 24 -33 40q-14 7 -41 7h-137v-266h168q60 0 90 22q31 23 53 81zM298 -156.5q-14 -14.5 -37 -14.5
q-24 0 -38 14.5t-14 35.5t14 35.5t38 14.5t37.5 -14.5t13.5 -35.5t-14 -35.5z" />
    <glyph glyph-name="uni1EB9" unicode="&#x1eb9;" horiz-adv-x="456" 
d="M360 23q-46 -38 -113 -38q-98 0 -156 74q-26 33 -39 76.5t-13 91.5q0 54 14.5 101t41.5 82q56 75 148 75q86 0 134 -75q40 -64 45 -167h-310q0 -90 48 -145q22 -25 51 -38t61 -13q41 0 81.5 22t73.5 66q-21 -74 -67 -112zM339 284q0 60 -23 105q-27 53 -80 53
q-55 0 -89 -51q-15 -22 -24 -50.5t-10 -56.5h226zM265 -156.5q-14 -14.5 -37 -14.5q-24 0 -38 14.5t-14 35.5t14 35.5t38 14.5t37.5 -14.5t13.5 -35.5t-14 -35.5z" />
    <glyph glyph-name="uni1EBA" unicode="&#x1eba;" horiz-adv-x="521" 
d="M470 0h-418q24 1 41 41q8 21 8 54v477q0 57 -26 81q-12 12 -26 13h401v-138l-4 19q-9 36 -45 58q-21 12 -56 12h-163v-252h136q43 0 64 23q10 11 11 24v-143q-2 24 -33 40q-14 7 -41 7h-137v-266h168q60 0 90 22q31 23 53 81zM329 816.5q-14 -13.5 -38 -26.5l-9 -4.5
t-9.5 -6.5t-2.5 -6q2 -17 15 -26q-5 -9 -17 -9q-19 0 -30.5 11t-11.5 28q0 13 9 21.5t27 19.5q15 9 23.5 16.5t8.5 17.5q0 19 -11.5 30t-30.5 11q-20 0 -36 -11q-17 -12 -27 -37l-10 2v58q14 10 36 16t44 6q33 0 59 -17q25 -16 25 -54q0 -26 -14 -39.5z" />
    <glyph glyph-name="uni1EBB" unicode="&#x1ebb;" horiz-adv-x="456" 
d="M360 23q-46 -38 -113 -38q-98 0 -156 74q-26 33 -39 76.5t-13 91.5q0 54 14.5 101t41.5 82q56 75 148 75q86 0 134 -75q40 -64 45 -167h-310q0 -90 48 -145q22 -25 51 -38t61 -13q41 0 81.5 22t73.5 66q-21 -74 -67 -112zM339 284q0 60 -23 105q-27 53 -80 53
q-55 0 -89 -51q-15 -22 -24 -50.5t-10 -56.5h226zM296 619.5q-14 -13.5 -38 -26.5l-9 -4.5t-9.5 -6.5t-2.5 -6q2 -17 15 -26q-5 -9 -17 -9q-19 0 -30.5 11t-11.5 28q0 13 9 21.5t27 19.5q15 9 23.5 16.5t8.5 17.5q0 19 -11.5 30t-30.5 11q-20 0 -36 -11q-17 -12 -27 -37
l-10 2v58q14 10 36 16t44 6q33 0 59 -17q25 -16 25 -54q0 -26 -14 -39.5z" />
    <glyph glyph-name="uni1EBC" unicode="&#x1ebc;" horiz-adv-x="521" 
d="M470 0h-418q24 1 41 41q8 21 8 54v477q0 57 -26 81q-12 12 -26 13h401v-138l-4 19q-9 36 -45 58q-21 12 -56 12h-163v-252h136q43 0 64 23q10 11 11 24v-143q-2 24 -33 40q-14 7 -41 7h-137v-266h168q60 0 90 22q31 23 53 81zM391 809.5q-5 -15.5 -15 -28.5
q-10 -14 -25.5 -23t-33.5 -9q-14 0 -29.5 7t-36.5 21q-20 13 -35 20t-28 7q-23 0 -37 -19.5t-16 -47.5q-9 13 -9 38q0 14 5 29.5t14 27.5q23 30 58 30q16 0 32.5 -7t38.5 -20q23 -14 37.5 -21t25.5 -7q24 0 36 19.5t15 48.5q8 -11 8 -37q0 -13 -5 -28.5z" />
    <glyph glyph-name="uni1EBD" unicode="&#x1ebd;" horiz-adv-x="456" 
d="M360 23q-46 -38 -113 -38q-98 0 -156 74q-26 33 -39 76.5t-13 91.5q0 54 14.5 101t41.5 82q56 75 148 75q86 0 134 -75q40 -64 45 -167h-310q0 -90 48 -145q22 -25 51 -38t61 -13q41 0 81.5 22t73.5 66q-21 -74 -67 -112zM339 284q0 60 -23 105q-27 53 -80 53
q-55 0 -89 -51q-15 -22 -24 -50.5t-10 -56.5h226zM358 612.5q-5 -15.5 -15 -28.5q-10 -14 -25.5 -23t-33.5 -9q-14 0 -29.5 7t-36.5 21q-20 13 -35 20t-28 7q-23 0 -37 -19.5t-16 -47.5q-9 13 -9 38q0 14 5 29.5t14 27.5q23 30 58 30q16 0 32.5 -7t38.5 -20q23 -14 37.5 -21
t25.5 -7q24 0 36 19.5t15 48.5q8 -11 8 -37q0 -13 -5 -28.5z" />
    <glyph glyph-name="uni1EBE" unicode="&#x1ebe;" horiz-adv-x="521" 
d="M370 768l63 138h94zM259 776l-106 -70l106 151l110 -152zM470 0h-418q24 1 41 41q8 21 8 54v477q0 57 -26 81q-12 12 -26 13h401v-138l-4 19q-9 36 -45 58q-21 12 -56 12h-163v-252h136q43 0 64 23q10 11 11 24v-143q-2 24 -33 40q-14 7 -41 7h-137v-266h168q60 0 90 22
q31 23 53 81z" />
    <glyph glyph-name="uni1EBF" unicode="&#x1ebf;" horiz-adv-x="456" 
d="M337 571l63 138h94zM226 579l-106 -70l106 151l110 -152zM360 23q-46 -38 -113 -38q-98 0 -156 74q-26 33 -39 76.5t-13 91.5q0 54 14.5 101t41.5 82q56 75 148 75q86 0 134 -75q40 -64 45 -167h-310q0 -90 48 -145q22 -25 51 -38t61 -13q41 0 81.5 22t73.5 66
q-21 -74 -67 -112zM339 284q0 60 -23 105q-27 53 -80 53q-55 0 -89 -51q-15 -22 -24 -50.5t-10 -56.5h226z" />
    <glyph glyph-name="uni1EC0" unicode="&#x1ec0;" horiz-adv-x="521" 
d="M221 948h97l60 -138zM259 776l-106 -70l106 151l110 -152zM470 0h-418q24 1 41 41q8 21 8 54v477q0 57 -26 81q-12 12 -26 13h401v-138l-4 19q-9 36 -45 58q-21 12 -56 12h-163v-252h136q43 0 64 23q10 11 11 24v-143q-2 24 -33 40q-14 7 -41 7h-137v-266h168q60 0 90 22
q31 23 53 81z" />
    <glyph glyph-name="uni1EC1" unicode="&#x1ec1;" horiz-adv-x="456" 
d="M188 751h97l60 -138zM226 579l-106 -70l106 151l110 -152zM360 23q-46 -38 -113 -38q-98 0 -156 74q-26 33 -39 76.5t-13 91.5q0 54 14.5 101t41.5 82q56 75 148 75q86 0 134 -75q40 -64 45 -167h-310q0 -90 48 -145q22 -25 51 -38t61 -13q41 0 81.5 22t73.5 66
q-21 -74 -67 -112zM339 284q0 60 -23 105q-27 53 -80 53q-55 0 -89 -51q-15 -22 -24 -50.5t-10 -56.5h226z" />
    <glyph glyph-name="uni1EC2" unicode="&#x1ec2;" horiz-adv-x="521" 
d="M434 860.5q-12 -11.5 -31 -20.5q-7 -3 -12.5 -7t-4.5 -7q1 -14 12 -22q-4 -7 -14 -7q-15 0 -24.5 9t-9.5 23q0 11 8 18t22 15q2 2 10 7t12 10.5t4 11.5q0 16 -9.5 25t-25.5 9q-14 0 -30 -9q-14 -11 -22 -31l-8 2v48q12 8 30 13t36 5q27 0 49 -14q20 -13 20 -45
q0 -22 -12 -33.5zM259 776l-106 -70l106 151l110 -152zM470 0h-418q24 1 41 41q8 21 8 54v477q0 57 -26 81q-12 12 -26 13h401v-138l-4 19q-9 36 -45 58q-21 12 -56 12h-163v-252h136q43 0 64 23q10 11 11 24v-143q-2 24 -33 40q-14 7 -41 7h-137v-266h168q60 0 90 22
q31 23 53 81z" />
    <glyph glyph-name="uni1EC3" unicode="&#x1ec3;" horiz-adv-x="456" 
d="M401 663.5q-12 -11.5 -31 -20.5q-7 -3 -12.5 -7t-4.5 -7q1 -14 12 -22q-4 -7 -14 -7q-15 0 -24.5 9t-9.5 23q0 11 8 18t22 15q2 2 10 7t12 10.5t4 11.5q0 16 -9.5 25t-25.5 9q-14 0 -30 -9q-14 -11 -22 -31l-8 2v48q12 8 30 13t36 5q27 0 49 -14q20 -13 20 -45
q0 -22 -12 -33.5zM226 579l-106 -70l106 151l110 -152zM360 23q-46 -38 -113 -38q-98 0 -156 74q-26 33 -39 76.5t-13 91.5q0 54 14.5 101t41.5 82q56 75 148 75q86 0 134 -75q40 -64 45 -167h-310q0 -90 48 -145q22 -25 51 -38t61 -13q41 0 81.5 22t73.5 66
q-21 -74 -67 -112zM339 284q0 60 -23 105q-27 53 -80 53q-55 0 -89 -51q-15 -22 -24 -50.5t-10 -56.5h226z" />
    <glyph glyph-name="uni1EC4" unicode="&#x1ec4;" horiz-adv-x="521" 
d="M370 890q-20 -27 -49 -27q-11 0 -23 5.5t-31 17.5q-18 11 -30 17t-23 6q-19 0 -30 -16.5t-13 -39.5q-8 12 -8 32q0 11 4 24t12 23q20 25 48 25q13 0 26.5 -6t32.5 -17q14 -8 28.5 -15.5t23.5 -7.5q36 0 42 56q6 -7 6 -30q0 -25 -16 -47zM259 776l-106 -70l106 151
l110 -152zM470 0h-418q24 1 41 41q8 21 8 54v477q0 57 -26 81q-12 12 -26 13h401v-138l-4 19q-9 36 -45 58q-21 12 -56 12h-163v-252h136q43 0 64 23q10 11 11 24v-143q-2 24 -33 40q-14 7 -41 7h-137v-266h168q60 0 90 22q31 23 53 81z" />
    <glyph glyph-name="uni1EC5" unicode="&#x1ec5;" horiz-adv-x="456" 
d="M337 693q-20 -27 -49 -27q-11 0 -23 5.5t-31 17.5q-18 11 -30 17t-23 6q-19 0 -30 -16.5t-13 -39.5q-8 12 -8 32q0 11 4 24t12 23q20 25 48 25q13 0 26.5 -6t32.5 -17q14 -8 28.5 -15.5t23.5 -7.5q36 0 42 56q6 -7 6 -30q0 -25 -16 -47zM226 579l-106 -70l106 151
l110 -152zM360 23q-46 -38 -113 -38q-98 0 -156 74q-26 33 -39 76.5t-13 91.5q0 54 14.5 101t41.5 82q56 75 148 75q86 0 134 -75q40 -64 45 -167h-310q0 -90 48 -145q22 -25 51 -38t61 -13q41 0 81.5 22t73.5 66q-21 -74 -67 -112zM339 284q0 60 -23 105q-27 53 -80 53
q-55 0 -89 -51q-15 -22 -24 -50.5t-10 -56.5h226z" />
    <glyph glyph-name="uni1EC6" unicode="&#x1ec6;" horiz-adv-x="521" 
d="M470 0h-418q24 1 41 41q8 21 8 54v477q0 57 -26 81q-12 12 -26 13h401v-138l-4 19q-9 36 -45 58q-21 12 -56 12h-163v-252h136q43 0 64 23q10 11 11 24v-143q-2 24 -33 40q-14 7 -41 7h-137v-266h168q60 0 90 22q31 23 53 81zM298 -156.5q-14 -14.5 -37 -14.5
q-24 0 -38 14.5t-14 35.5t14 35.5t38 14.5t37.5 -14.5t13.5 -35.5t-14 -35.5zM258 799l-128 -84l128 182l133 -183z" />
    <glyph glyph-name="uni1EC7" unicode="&#x1ec7;" horiz-adv-x="456" 
d="M360 23q-46 -38 -113 -38q-98 0 -156 74q-26 33 -39 76.5t-13 91.5q0 54 14.5 101t41.5 82q56 75 148 75q86 0 134 -75q40 -64 45 -167h-310q0 -90 48 -145q22 -25 51 -38t61 -13q41 0 81.5 22t73.5 66q-21 -74 -67 -112zM339 284q0 60 -23 105q-27 53 -80 53
q-55 0 -89 -51q-15 -22 -24 -50.5t-10 -56.5h226zM265 -156.5q-14 -14.5 -37 -14.5q-24 0 -38 14.5t-14 35.5t14 35.5t38 14.5t37.5 -14.5t13.5 -35.5t-14 -35.5zM225 602l-128 -84l128 182l133 -183z" />
    <glyph glyph-name="uni1EC8" unicode="&#x1ec8;" horiz-adv-x="276" 
d="M51 0q26 5 40 38q7 17 7 52v485q0 54 -24 78q-12 12 -24 13h176q-25 -4 -40 -40q-8 -19 -8 -51v-485q0 -56 24 -78q11 -10 24 -12h-175zM206 816.5q-14 -13.5 -38 -26.5l-9 -4.5t-9.5 -6.5t-2.5 -6q2 -17 15 -26q-5 -9 -17 -9q-19 0 -30.5 11t-11.5 28q0 13 9 21.5
t27 19.5q15 9 23.5 16.5t8.5 17.5q0 19 -11.5 30t-30.5 11q-20 0 -36 -11q-17 -12 -27 -37l-10 2v58q14 10 36 16t44 6q33 0 59 -17q25 -16 25 -54q0 -26 -14 -39.5z" />
    <glyph glyph-name="uni1EC9" unicode="&#x1ec9;" horiz-adv-x="225" 
d="M31 0q23 1 38 37q7 17 7 50v265q0 50 -12 65q-14 15 -35 15h-11l132 56v-401q0 -54 22 -76q10 -10 23 -11h-164zM181 619.5q-14 -13.5 -38 -26.5l-9 -4.5t-9.5 -6.5t-2.5 -6q2 -17 15 -26q-5 -9 -17 -9q-19 0 -30.5 11t-11.5 28q0 13 9 21.5t27 19.5q15 9 23.5 16.5
t8.5 17.5q0 19 -11.5 30t-30.5 11q-20 0 -36 -11q-17 -12 -27 -37l-10 2v58q14 10 36 16t44 6q33 0 59 -17q25 -16 25 -54q0 -26 -14 -39.5z" />
    <glyph glyph-name="uni1ECA" unicode="&#x1eca;" horiz-adv-x="276" 
d="M51 0q26 5 40 38q7 17 7 52v485q0 54 -24 78q-12 12 -24 13h176q-25 -4 -40 -40q-8 -19 -8 -51v-485q0 -56 24 -78q11 -10 24 -12h-175zM175 -156.5q-14 -14.5 -37 -14.5q-24 0 -38 14.5t-14 35.5t14 35.5t38 14.5t37.5 -14.5t13.5 -35.5t-14 -35.5z" />
    <glyph glyph-name="uni1ECB" unicode="&#x1ecb;" horiz-adv-x="225" 
d="M145.5 582q-15.5 -16 -40.5 -16q-26 0 -41 16t-15 39t15 38.5t41 15.5t41 -15.5t15 -38.5t-15.5 -39zM31 0q23 1 38 37q7 17 7 50v265q0 50 -12 65q-14 15 -35 15h-11l132 56v-401q0 -54 22 -76q10 -10 23 -11h-164zM150 -156.5q-14 -14.5 -37 -14.5q-24 0 -38 14.5
t-14 35.5t14 35.5t38 14.5t37.5 -14.5t13.5 -35.5t-14 -35.5z" />
    <glyph glyph-name="uni1ECC" unicode="&#x1ecc;" horiz-adv-x="742" 
d="M670 201q-23 -65 -67 -113q-45 -49 -106 -76t-134 -27q-70 0 -128 25t-100 72q-42 46 -64 108t-22 136q0 75 24.5 140t68.5 114t105 75.5t134 26.5q69 0 127.5 -25.5t99.5 -71.5t63 -109t22 -135q0 -75 -23 -140zM595.5 441.5q-17.5 56.5 -50.5 97.5q-34 42 -80.5 65
t-103.5 23q-51 0 -93.5 -19.5t-72.5 -55.5q-31 -37 -47.5 -87t-16.5 -110q0 -68 18 -126t51 -100q34 -43 80.5 -66t102.5 -23q51 0 93.5 20t72.5 57q31 38 47.5 89t16.5 112q0 67 -17.5 123.5zM408 -156.5q-14 -14.5 -37 -14.5q-24 0 -38 14.5t-14 35.5t14 35.5t38 14.5
t37.5 -14.5t13.5 -35.5t-14 -35.5z" />
    <glyph glyph-name="uni1ECD" unicode="&#x1ecd;" horiz-adv-x="539" 
d="M482.5 150.5q-14.5 -45.5 -42.5 -81.5q-67 -84 -177 -84q-55 0 -97 20.5t-71 56.5q-26 33 -39.5 75.5t-13.5 88.5t14.5 92.5t42.5 82.5q30 39 74 61.5t101 22.5q108 0 170 -77q26 -33 39.5 -77t13.5 -88q0 -47 -14.5 -92.5zM408 298q-10 38 -30 68q-47 71 -121 71
q-35 0 -61.5 -17t-44.5 -47q-16 -27 -24 -59.5t-8 -64.5q0 -38 10 -76.5t30 -68.5q47 -71 122 -71q35 0 61.5 17.5t44.5 47.5q16 26 23.5 59t7.5 65q0 38 -10 76zM307 -156.5q-14 -14.5 -37 -14.5q-24 0 -38 14.5t-14 35.5t14 35.5t38 14.5t37.5 -14.5t13.5 -35.5t-14 -35.5
z" />
    <glyph glyph-name="uni1ECE" unicode="&#x1ece;" horiz-adv-x="742" 
d="M670 201q-23 -65 -67 -113q-45 -49 -106 -76t-134 -27q-70 0 -128 25t-100 72q-42 46 -64 108t-22 136q0 75 24.5 140t68.5 114t105 75.5t134 26.5q69 0 127.5 -25.5t99.5 -71.5t63 -109t22 -135q0 -75 -23 -140zM595.5 441.5q-17.5 56.5 -50.5 97.5q-34 42 -80.5 65
t-103.5 23q-51 0 -93.5 -19.5t-72.5 -55.5q-31 -37 -47.5 -87t-16.5 -110q0 -68 18 -126t51 -100q34 -43 80.5 -66t102.5 -23q51 0 93.5 20t72.5 57q31 38 47.5 89t16.5 112q0 67 -17.5 123.5zM439 816.5q-14 -13.5 -38 -26.5l-9 -4.5t-9.5 -6.5t-2.5 -6q2 -17 15 -26
q-5 -9 -17 -9q-19 0 -30.5 11t-11.5 28q0 13 9 21.5t27 19.5q15 9 23.5 16.5t8.5 17.5q0 19 -11.5 30t-30.5 11q-20 0 -36 -11q-17 -12 -27 -37l-10 2v58q14 10 36 16t44 6q33 0 59 -17q25 -16 25 -54q0 -26 -14 -39.5z" />
    <glyph glyph-name="uni1ECF" unicode="&#x1ecf;" horiz-adv-x="539" 
d="M482.5 150.5q-14.5 -45.5 -42.5 -81.5q-67 -84 -177 -84q-55 0 -97 20.5t-71 56.5q-26 33 -39.5 75.5t-13.5 88.5t14.5 92.5t42.5 82.5q30 39 74 61.5t101 22.5q108 0 170 -77q26 -33 39.5 -77t13.5 -88q0 -47 -14.5 -92.5zM408 298q-10 38 -30 68q-47 71 -121 71
q-35 0 -61.5 -17t-44.5 -47q-16 -27 -24 -59.5t-8 -64.5q0 -38 10 -76.5t30 -68.5q47 -71 122 -71q35 0 61.5 17.5t44.5 47.5q16 26 23.5 59t7.5 65q0 38 -10 76zM338 619.5q-14 -13.5 -38 -26.5l-9 -4.5t-9.5 -6.5t-2.5 -6q2 -17 15 -26q-5 -9 -17 -9q-19 0 -30.5 11
t-11.5 28q0 13 9 21.5t27 19.5q15 9 23.5 16.5t8.5 17.5q0 19 -11.5 30t-30.5 11q-20 0 -36 -11q-17 -12 -27 -37l-10 2v58q14 10 36 16t44 6q33 0 59 -17q25 -16 25 -54q0 -26 -14 -39.5z" />
    <glyph glyph-name="uni1ED0" unicode="&#x1ed0;" horiz-adv-x="742" 
d="M480 768l63 138h94zM369 776l-106 -70l106 151l110 -152zM670 201q-23 -65 -67 -113q-45 -49 -106 -76t-134 -27q-70 0 -128 25t-100 72q-42 46 -64 108t-22 136q0 75 24.5 140t68.5 114t105 75.5t134 26.5q69 0 127.5 -25.5t99.5 -71.5t63 -109t22 -135q0 -75 -23 -140z
M595.5 441.5q-17.5 56.5 -50.5 97.5q-34 42 -80.5 65t-103.5 23q-51 0 -93.5 -19.5t-72.5 -55.5q-31 -37 -47.5 -87t-16.5 -110q0 -68 18 -126t51 -100q34 -43 80.5 -66t102.5 -23q51 0 93.5 20t72.5 57q31 38 47.5 89t16.5 112q0 67 -17.5 123.5z" />
    <glyph glyph-name="uni1ED1" unicode="&#x1ed1;" horiz-adv-x="539" 
d="M379 571l63 138h94zM268 579l-106 -70l106 151l110 -152zM482.5 150.5q-14.5 -45.5 -42.5 -81.5q-67 -84 -177 -84q-55 0 -97 20.5t-71 56.5q-26 33 -39.5 75.5t-13.5 88.5t14.5 92.5t42.5 82.5q30 39 74 61.5t101 22.5q108 0 170 -77q26 -33 39.5 -77t13.5 -88
q0 -47 -14.5 -92.5zM408 298q-10 38 -30 68q-47 71 -121 71q-35 0 -61.5 -17t-44.5 -47q-16 -27 -24 -59.5t-8 -64.5q0 -38 10 -76.5t30 -68.5q47 -71 122 -71q35 0 61.5 17.5t44.5 47.5q16 26 23.5 59t7.5 65q0 38 -10 76z" />
    <glyph glyph-name="uni1ED2" unicode="&#x1ed2;" horiz-adv-x="742" 
d="M331 948h97l60 -138zM369 776l-106 -70l106 151l110 -152zM670 201q-23 -65 -67 -113q-45 -49 -106 -76t-134 -27q-70 0 -128 25t-100 72q-42 46 -64 108t-22 136q0 75 24.5 140t68.5 114t105 75.5t134 26.5q69 0 127.5 -25.5t99.5 -71.5t63 -109t22 -135q0 -75 -23 -140
zM595.5 441.5q-17.5 56.5 -50.5 97.5q-34 42 -80.5 65t-103.5 23q-51 0 -93.5 -19.5t-72.5 -55.5q-31 -37 -47.5 -87t-16.5 -110q0 -68 18 -126t51 -100q34 -43 80.5 -66t102.5 -23q51 0 93.5 20t72.5 57q31 38 47.5 89t16.5 112q0 67 -17.5 123.5z" />
    <glyph glyph-name="uni1ED3" unicode="&#x1ed3;" horiz-adv-x="539" 
d="M230 751h97l60 -138zM268 579l-106 -70l106 151l110 -152zM482.5 150.5q-14.5 -45.5 -42.5 -81.5q-67 -84 -177 -84q-55 0 -97 20.5t-71 56.5q-26 33 -39.5 75.5t-13.5 88.5t14.5 92.5t42.5 82.5q30 39 74 61.5t101 22.5q108 0 170 -77q26 -33 39.5 -77t13.5 -88
q0 -47 -14.5 -92.5zM408 298q-10 38 -30 68q-47 71 -121 71q-35 0 -61.5 -17t-44.5 -47q-16 -27 -24 -59.5t-8 -64.5q0 -38 10 -76.5t30 -68.5q47 -71 122 -71q35 0 61.5 17.5t44.5 47.5q16 26 23.5 59t7.5 65q0 38 -10 76z" />
    <glyph glyph-name="uni1ED4" unicode="&#x1ed4;" horiz-adv-x="742" 
d="M544 860.5q-12 -11.5 -31 -20.5q-7 -3 -12.5 -7t-4.5 -7q1 -14 12 -22q-4 -7 -14 -7q-15 0 -24.5 9t-9.5 23q0 11 8 18t22 15q2 2 10 7t12 10.5t4 11.5q0 16 -9.5 25t-25.5 9q-14 0 -30 -9q-14 -11 -22 -31l-8 2v48q12 8 30 13t36 5q27 0 49 -14q20 -13 20 -45
q0 -22 -12 -33.5zM369 776l-106 -70l106 151l110 -152zM670 201q-23 -65 -67 -113q-45 -49 -106 -76t-134 -27q-70 0 -128 25t-100 72q-42 46 -64 108t-22 136q0 75 24.5 140t68.5 114t105 75.5t134 26.5q69 0 127.5 -25.5t99.5 -71.5t63 -109t22 -135q0 -75 -23 -140z
M595.5 441.5q-17.5 56.5 -50.5 97.5q-34 42 -80.5 65t-103.5 23q-51 0 -93.5 -19.5t-72.5 -55.5q-31 -37 -47.5 -87t-16.5 -110q0 -68 18 -126t51 -100q34 -43 80.5 -66t102.5 -23q51 0 93.5 20t72.5 57q31 38 47.5 89t16.5 112q0 67 -17.5 123.5z" />
    <glyph glyph-name="uni1ED5" unicode="&#x1ed5;" horiz-adv-x="539" 
d="M443 663.5q-12 -11.5 -31 -20.5q-7 -3 -12.5 -7t-4.5 -7q1 -14 12 -22q-4 -7 -14 -7q-15 0 -24.5 9t-9.5 23q0 11 8 18t22 15q2 2 10 7t12 10.5t4 11.5q0 16 -9.5 25t-25.5 9q-14 0 -30 -9q-14 -11 -22 -31l-8 2v48q12 8 30 13t36 5q27 0 49 -14q20 -13 20 -45
q0 -22 -12 -33.5zM268 579l-106 -70l106 151l110 -152zM482.5 150.5q-14.5 -45.5 -42.5 -81.5q-67 -84 -177 -84q-55 0 -97 20.5t-71 56.5q-26 33 -39.5 75.5t-13.5 88.5t14.5 92.5t42.5 82.5q30 39 74 61.5t101 22.5q108 0 170 -77q26 -33 39.5 -77t13.5 -88
q0 -47 -14.5 -92.5zM408 298q-10 38 -30 68q-47 71 -121 71q-35 0 -61.5 -17t-44.5 -47q-16 -27 -24 -59.5t-8 -64.5q0 -38 10 -76.5t30 -68.5q47 -71 122 -71q35 0 61.5 17.5t44.5 47.5q16 26 23.5 59t7.5 65q0 38 -10 76z" />
    <glyph glyph-name="uni1ED6" unicode="&#x1ed6;" horiz-adv-x="742" 
d="M480 890q-20 -27 -49 -27q-11 0 -23 5.5t-31 17.5q-18 11 -30 17t-23 6q-19 0 -30 -16.5t-13 -39.5q-8 12 -8 32q0 11 4 24t12 23q20 25 48 25q13 0 26.5 -6t32.5 -17q14 -8 28.5 -15.5t23.5 -7.5q36 0 42 56q6 -7 6 -30q0 -25 -16 -47zM369 776l-106 -70l106 151
l110 -152zM670 201q-23 -65 -67 -113q-45 -49 -106 -76t-134 -27q-70 0 -128 25t-100 72q-42 46 -64 108t-22 136q0 75 24.5 140t68.5 114t105 75.5t134 26.5q69 0 127.5 -25.5t99.5 -71.5t63 -109t22 -135q0 -75 -23 -140zM595.5 441.5q-17.5 56.5 -50.5 97.5
q-34 42 -80.5 65t-103.5 23q-51 0 -93.5 -19.5t-72.5 -55.5q-31 -37 -47.5 -87t-16.5 -110q0 -68 18 -126t51 -100q34 -43 80.5 -66t102.5 -23q51 0 93.5 20t72.5 57q31 38 47.5 89t16.5 112q0 67 -17.5 123.5z" />
    <glyph glyph-name="uni1ED7" unicode="&#x1ed7;" horiz-adv-x="539" 
d="M379 693q-20 -27 -49 -27q-11 0 -23 5.5t-31 17.5q-18 11 -30 17t-23 6q-19 0 -30 -16.5t-13 -39.5q-8 12 -8 32q0 11 4 24t12 23q20 25 48 25q13 0 26.5 -6t32.5 -17q14 -8 28.5 -15.5t23.5 -7.5q36 0 42 56q6 -7 6 -30q0 -25 -16 -47zM268 579l-106 -70l106 151
l110 -152zM482.5 150.5q-14.5 -45.5 -42.5 -81.5q-67 -84 -177 -84q-55 0 -97 20.5t-71 56.5q-26 33 -39.5 75.5t-13.5 88.5t14.5 92.5t42.5 82.5q30 39 74 61.5t101 22.5q108 0 170 -77q26 -33 39.5 -77t13.5 -88q0 -47 -14.5 -92.5zM408 298q-10 38 -30 68q-47 71 -121 71
q-35 0 -61.5 -17t-44.5 -47q-16 -27 -24 -59.5t-8 -64.5q0 -38 10 -76.5t30 -68.5q47 -71 122 -71q35 0 61.5 17.5t44.5 47.5q16 26 23.5 59t7.5 65q0 38 -10 76z" />
    <glyph glyph-name="uni1ED8" unicode="&#x1ed8;" horiz-adv-x="742" 
d="M670 201q-23 -65 -67 -113q-45 -49 -106 -76t-134 -27q-70 0 -128 25t-100 72q-42 46 -64 108t-22 136q0 75 24.5 140t68.5 114t105 75.5t134 26.5q69 0 127.5 -25.5t99.5 -71.5t63 -109t22 -135q0 -75 -23 -140zM595.5 441.5q-17.5 56.5 -50.5 97.5q-34 42 -80.5 65
t-103.5 23q-51 0 -93.5 -19.5t-72.5 -55.5q-31 -37 -47.5 -87t-16.5 -110q0 -68 18 -126t51 -100q34 -43 80.5 -66t102.5 -23q51 0 93.5 20t72.5 57q31 38 47.5 89t16.5 112q0 67 -17.5 123.5zM408 -156.5q-14 -14.5 -37 -14.5q-24 0 -38 14.5t-14 35.5t14 35.5t38 14.5
t37.5 -14.5t13.5 -35.5t-14 -35.5zM368 799l-128 -84l128 182l133 -183z" />
    <glyph glyph-name="uni1ED9" unicode="&#x1ed9;" horiz-adv-x="539" 
d="M482.5 150.5q-14.5 -45.5 -42.5 -81.5q-67 -84 -177 -84q-55 0 -97 20.5t-71 56.5q-26 33 -39.5 75.5t-13.5 88.5t14.5 92.5t42.5 82.5q30 39 74 61.5t101 22.5q108 0 170 -77q26 -33 39.5 -77t13.5 -88q0 -47 -14.5 -92.5zM408 298q-10 38 -30 68q-47 71 -121 71
q-35 0 -61.5 -17t-44.5 -47q-16 -27 -24 -59.5t-8 -64.5q0 -38 10 -76.5t30 -68.5q47 -71 122 -71q35 0 61.5 17.5t44.5 47.5q16 26 23.5 59t7.5 65q0 38 -10 76zM307 -156.5q-14 -14.5 -37 -14.5q-24 0 -38 14.5t-14 35.5t14 35.5t38 14.5t37.5 -14.5t13.5 -35.5t-14 -35.5
zM267 602l-128 -84l128 182l133 -183z" />
    <glyph glyph-name="uni1EDA" unicode="&#x1eda;" horiz-adv-x="742" 
d="M671 476q22 -63 22 -135q0 -75 -23 -140t-67 -113q-45 -49 -106 -76t-134 -27q-70 0 -128 25t-100 72q-42 46 -64 108t-22 136q0 75 24.5 140t68.5 114t105 75.5t134 26.5q52 0 103 -16q42 0 66 17.5t39 54.5h35q-8 -87 -55 -117q17 -12 39 -36q41 -46 63 -109z
M596.5 206q16.5 51 16.5 112q0 67 -17.5 123.5t-50.5 97.5q-34 42 -80.5 65t-103.5 23q-51 0 -93.5 -19.5t-72.5 -55.5q-31 -37 -47.5 -87t-16.5 -110q0 -68 18 -126t51 -100q34 -43 80.5 -66t102.5 -23q51 0 93.5 20t72.5 57q31 38 47.5 89zM334 713l77 166h113z" />
    <glyph glyph-name="uni1EDB" unicode="&#x1edb;" horiz-adv-x="539" 
d="M483.5 331q13.5 -44 13.5 -88q0 -47 -14.5 -92.5t-42.5 -81.5q-67 -84 -177 -84q-55 0 -97 20.5t-71 56.5q-26 33 -39.5 75.5t-13.5 88.5t14.5 92.5t42.5 82.5q30 39 74 61.5t101 22.5q46 0 88 -16q39 1 61.5 18.5t36.5 53.5h35q-8 -93 -62 -120l11 -13q26 -33 39.5 -77z
M410.5 157q7.5 33 7.5 65q0 38 -10 76t-30 68q-47 71 -121 71q-35 0 -61.5 -17t-44.5 -47q-16 -27 -24 -59.5t-8 -64.5q0 -38 10 -76.5t30 -68.5q47 -71 122 -71q35 0 61.5 17.5t44.5 47.5q16 26 23.5 59zM233 516l77 166h113z" />
    <glyph glyph-name="uni1EDC" unicode="&#x1edc;" horiz-adv-x="742" 
d="M671 476q22 -63 22 -135q0 -75 -23 -140t-67 -113q-45 -49 -106 -76t-134 -27q-70 0 -128 25t-100 72q-42 46 -64 108t-22 136q0 75 24.5 140t68.5 114t105 75.5t134 26.5q52 0 103 -16q42 0 66 17.5t39 54.5h35q-8 -87 -55 -117q17 -12 39 -36q41 -46 63 -109z
M596.5 206q16.5 51 16.5 112q0 67 -17.5 123.5t-50.5 97.5q-34 42 -80.5 65t-103.5 23q-51 0 -93.5 -19.5t-72.5 -55.5q-31 -37 -47.5 -87t-16.5 -110q0 -68 18 -126t51 -100q34 -43 80.5 -66t102.5 -23q51 0 93.5 20t72.5 57q31 38 47.5 89zM230 879h118l72 -166z" />
    <glyph glyph-name="uni1EDD" unicode="&#x1edd;" horiz-adv-x="539" 
d="M483.5 331q13.5 -44 13.5 -88q0 -47 -14.5 -92.5t-42.5 -81.5q-67 -84 -177 -84q-55 0 -97 20.5t-71 56.5q-26 33 -39.5 75.5t-13.5 88.5t14.5 92.5t42.5 82.5q30 39 74 61.5t101 22.5q46 0 88 -16q39 1 61.5 18.5t36.5 53.5h35q-8 -93 -62 -120l11 -13q26 -33 39.5 -77z
M410.5 157q7.5 33 7.5 65q0 38 -10 76t-30 68q-47 71 -121 71q-35 0 -61.5 -17t-44.5 -47q-16 -27 -24 -59.5t-8 -64.5q0 -38 10 -76.5t30 -68.5q47 -71 122 -71q35 0 61.5 17.5t44.5 47.5q16 26 23.5 59zM129 682h118l72 -166z" />
    <glyph glyph-name="uni1EDE" unicode="&#x1ede;" horiz-adv-x="742" 
d="M671 476q22 -63 22 -135q0 -75 -23 -140t-67 -113q-45 -49 -106 -76t-134 -27q-70 0 -128 25t-100 72q-42 46 -64 108t-22 136q0 75 24.5 140t68.5 114t105 75.5t134 26.5q52 0 103 -16q42 0 66 17.5t39 54.5h35q-8 -87 -55 -117q17 -12 39 -36q41 -46 63 -109z
M596.5 206q16.5 51 16.5 112q0 67 -17.5 123.5t-50.5 97.5q-34 42 -80.5 65t-103.5 23q-51 0 -93.5 -19.5t-72.5 -55.5q-31 -37 -47.5 -87t-16.5 -110q0 -68 18 -126t51 -100q34 -43 80.5 -66t102.5 -23q51 0 93.5 20t72.5 57q31 38 47.5 89zM439 816.5q-14 -13.5 -38 -26.5
l-9 -4.5t-9.5 -6.5t-2.5 -6q2 -17 15 -26q-5 -9 -17 -9q-19 0 -30.5 11t-11.5 28q0 13 9 21.5t27 19.5q15 9 23.5 16.5t8.5 17.5q0 19 -11.5 30t-30.5 11q-20 0 -36 -11q-17 -12 -27 -37l-10 2v58q14 10 36 16t44 6q33 0 59 -17q25 -16 25 -54q0 -26 -14 -39.5z" />
    <glyph glyph-name="uni1EDF" unicode="&#x1edf;" horiz-adv-x="539" 
d="M483.5 331q13.5 -44 13.5 -88q0 -47 -14.5 -92.5t-42.5 -81.5q-67 -84 -177 -84q-55 0 -97 20.5t-71 56.5q-26 33 -39.5 75.5t-13.5 88.5t14.5 92.5t42.5 82.5q30 39 74 61.5t101 22.5q46 0 88 -16q39 1 61.5 18.5t36.5 53.5h35q-8 -93 -62 -120l11 -13q26 -33 39.5 -77z
M410.5 157q7.5 33 7.5 65q0 38 -10 76t-30 68q-47 71 -121 71q-35 0 -61.5 -17t-44.5 -47q-16 -27 -24 -59.5t-8 -64.5q0 -38 10 -76.5t30 -68.5q47 -71 122 -71q35 0 61.5 17.5t44.5 47.5q16 26 23.5 59zM338 619.5q-14 -13.5 -38 -26.5l-9 -4.5t-9.5 -6.5t-2.5 -6
q2 -17 15 -26q-5 -9 -17 -9q-19 0 -30.5 11t-11.5 28q0 13 9 21.5t27 19.5q15 9 23.5 16.5t8.5 17.5q0 19 -11.5 30t-30.5 11q-20 0 -36 -11q-17 -12 -27 -37l-10 2v58q14 10 36 16t44 6q33 0 59 -17q25 -16 25 -54q0 -26 -14 -39.5z" />
    <glyph glyph-name="uni1EE0" unicode="&#x1ee0;" horiz-adv-x="742" 
d="M671 476q22 -63 22 -135q0 -75 -23 -140t-67 -113q-45 -49 -106 -76t-134 -27q-70 0 -128 25t-100 72q-42 46 -64 108t-22 136q0 75 24.5 140t68.5 114t105 75.5t134 26.5q52 0 103 -16q42 0 66 17.5t39 54.5h35q-8 -87 -55 -117q17 -12 39 -36q41 -46 63 -109z
M596.5 206q16.5 51 16.5 112q0 67 -17.5 123.5t-50.5 97.5q-34 42 -80.5 65t-103.5 23q-51 0 -93.5 -19.5t-72.5 -55.5q-31 -37 -47.5 -87t-16.5 -110q0 -68 18 -126t51 -100q34 -43 80.5 -66t102.5 -23q51 0 93.5 20t72.5 57q31 38 47.5 89zM501 809.5q-5 -15.5 -15 -28.5
q-10 -14 -25.5 -23t-33.5 -9q-14 0 -29.5 7t-36.5 21q-20 13 -35 20t-28 7q-23 0 -37 -19.5t-16 -47.5q-9 13 -9 38q0 14 5 29.5t14 27.5q23 30 58 30q16 0 32.5 -7t38.5 -20q23 -14 37.5 -21t25.5 -7q24 0 36 19.5t15 48.5q8 -11 8 -37q0 -13 -5 -28.5z" />
    <glyph glyph-name="uni1EE1" unicode="&#x1ee1;" horiz-adv-x="539" 
d="M483.5 331q13.5 -44 13.5 -88q0 -47 -14.5 -92.5t-42.5 -81.5q-67 -84 -177 -84q-55 0 -97 20.5t-71 56.5q-26 33 -39.5 75.5t-13.5 88.5t14.5 92.5t42.5 82.5q30 39 74 61.5t101 22.5q46 0 88 -16q39 1 61.5 18.5t36.5 53.5h35q-8 -93 -62 -120l11 -13q26 -33 39.5 -77z
M410.5 157q7.5 33 7.5 65q0 38 -10 76t-30 68q-47 71 -121 71q-35 0 -61.5 -17t-44.5 -47q-16 -27 -24 -59.5t-8 -64.5q0 -38 10 -76.5t30 -68.5q47 -71 122 -71q35 0 61.5 17.5t44.5 47.5q16 26 23.5 59zM400 612.5q-5 -15.5 -15 -28.5q-10 -14 -25.5 -23t-33.5 -9
q-14 0 -29.5 7t-36.5 21q-20 13 -35 20t-28 7q-23 0 -37 -19.5t-16 -47.5q-9 13 -9 38q0 14 5 29.5t14 27.5q23 30 58 30q16 0 32.5 -7t38.5 -20q23 -14 37.5 -21t25.5 -7q24 0 36 19.5t15 48.5q8 -11 8 -37q0 -13 -5 -28.5z" />
    <glyph glyph-name="uni1EE2" unicode="&#x1ee2;" horiz-adv-x="742" 
d="M671 476q22 -63 22 -135q0 -75 -23 -140t-67 -113q-45 -49 -106 -76t-134 -27q-70 0 -128 25t-100 72q-42 46 -64 108t-22 136q0 75 24.5 140t68.5 114t105 75.5t134 26.5q52 0 103 -16q42 0 66 17.5t39 54.5h35q-8 -87 -55 -117q17 -12 39 -36q41 -46 63 -109z
M596.5 206q16.5 51 16.5 112q0 67 -17.5 123.5t-50.5 97.5q-34 42 -80.5 65t-103.5 23q-51 0 -93.5 -19.5t-72.5 -55.5q-31 -37 -47.5 -87t-16.5 -110q0 -68 18 -126t51 -100q34 -43 80.5 -66t102.5 -23q51 0 93.5 20t72.5 57q31 38 47.5 89zM408 -156.5
q-14 -14.5 -37 -14.5q-24 0 -38 14.5t-14 35.5t14 35.5t38 14.5t37.5 -14.5t13.5 -35.5t-14 -35.5z" />
    <glyph glyph-name="uni1EE3" unicode="&#x1ee3;" horiz-adv-x="539" 
d="M483.5 331q13.5 -44 13.5 -88q0 -47 -14.5 -92.5t-42.5 -81.5q-67 -84 -177 -84q-55 0 -97 20.5t-71 56.5q-26 33 -39.5 75.5t-13.5 88.5t14.5 92.5t42.5 82.5q30 39 74 61.5t101 22.5q46 0 88 -16q39 1 61.5 18.5t36.5 53.5h35q-8 -93 -62 -120l11 -13q26 -33 39.5 -77z
M410.5 157q7.5 33 7.5 65q0 38 -10 76t-30 68q-47 71 -121 71q-35 0 -61.5 -17t-44.5 -47q-16 -27 -24 -59.5t-8 -64.5q0 -38 10 -76.5t30 -68.5q47 -71 122 -71q35 0 61.5 17.5t44.5 47.5q16 26 23.5 59zM307 -156.5q-14 -14.5 -37 -14.5q-24 0 -38 14.5t-14 35.5t14 35.5
t38 14.5t37.5 -14.5t13.5 -35.5t-14 -35.5z" />
    <glyph glyph-name="uni1EE4" unicode="&#x1ee4;" horiz-adv-x="674" 
d="M641 666q-15 -1 -25.5 -10.5t-19.5 -29.5q-8 -21 -8 -54v-345q0 -122 -59 -182t-190 -60t-189.5 58.5t-58.5 179.5v351q0 56 -24 80q-11 11 -24 12h177q-24 -1 -40 -39q-8 -21 -8 -52v-350q0 -97 42.5 -141.5t136.5 -44.5q97 0 138 52q35 43 35 132v349q0 57 -27 82
q-10 10 -26 12h170zM374 -156.5q-14 -14.5 -37 -14.5q-24 0 -38 14.5t-14 35.5t14 35.5t38 14.5t37.5 -14.5t13.5 -35.5t-14 -35.5z" />
    <glyph glyph-name="uni1EE5" unicode="&#x1ee5;" horiz-adv-x="515" 
d="M367 -18v99q-29 -45 -75 -70.5t-95 -25.5q-127 0 -127 162v228q0 56 -22 78q-9 9 -18 12q-2 0 -13 4h127v-310q0 -58 24 -87.5t63 -29.5q24 0 49 12.5t44 32.5t30.5 44.5t11.5 47.5v204q0 49 -18 71q-9 9 -14 11q-3 1 -10 4h115v-349q0 -50 13 -67q10 -15 37 -15h10z
M295 -156.5q-14 -14.5 -37 -14.5q-24 0 -38 14.5t-14 35.5t14 35.5t38 14.5t37.5 -14.5t13.5 -35.5t-14 -35.5z" />
    <glyph glyph-name="uni1EE6" unicode="&#x1ee6;" horiz-adv-x="674" 
d="M641 666q-15 -1 -25.5 -10.5t-19.5 -29.5q-8 -21 -8 -54v-345q0 -122 -59 -182t-190 -60t-189.5 58.5t-58.5 179.5v351q0 56 -24 80q-11 11 -24 12h177q-24 -1 -40 -39q-8 -21 -8 -52v-350q0 -97 42.5 -141.5t136.5 -44.5q97 0 138 52q35 43 35 132v349q0 57 -27 82
q-10 10 -26 12h170zM426 816.5q-14 -13.5 -38 -26.5l-9 -4.5t-9.5 -6.5t-2.5 -6q2 -17 15 -26q-5 -9 -17 -9q-19 0 -30.5 11t-11.5 28q0 13 9 21.5t27 19.5q15 9 23.5 16.5t8.5 17.5q0 19 -11.5 30t-30.5 11q-20 0 -36 -11q-17 -12 -27 -37l-10 2v58q14 10 36 16t44 6
q33 0 59 -17q25 -16 25 -54q0 -26 -14 -39.5z" />
    <glyph glyph-name="uni1EE7" unicode="&#x1ee7;" horiz-adv-x="515" 
d="M367 -18v99q-29 -45 -75 -70.5t-95 -25.5q-127 0 -127 162v228q0 56 -22 78q-9 9 -18 12q-2 0 -13 4h127v-310q0 -58 24 -87.5t63 -29.5q24 0 49 12.5t44 32.5t30.5 44.5t11.5 47.5v204q0 49 -18 71q-9 9 -14 11q-3 1 -10 4h115v-349q0 -50 13 -67q10 -15 37 -15h10z
M326 619.5q-14 -13.5 -38 -26.5l-9 -4.5t-9.5 -6.5t-2.5 -6q2 -17 15 -26q-5 -9 -17 -9q-19 0 -30.5 11t-11.5 28q0 13 9 21.5t27 19.5q15 9 23.5 16.5t8.5 17.5q0 19 -11.5 30t-30.5 11q-20 0 -36 -11q-17 -12 -27 -37l-10 2v58q14 10 36 16t44 6q33 0 59 -17
q25 -16 25 -54q0 -26 -14 -39.5z" />
    <glyph glyph-name="uni1EE8" unicode="&#x1ee8;" horiz-adv-x="674" 
d="M697 649.5q-21 -29.5 -47.5 -37.5t-59.5 -8q-2 -18 -2 -32v-345q0 -122 -59 -182t-190 -60t-189.5 58.5t-58.5 179.5v351q0 56 -24 80q-11 11 -24 12h177q-24 -1 -40 -39q-8 -21 -8 -52v-350q0 -97 42.5 -141.5t136.5 -44.5q97 0 138 52q35 43 35 132v349q0 57 -27 82
q-10 10 -26 12h113q42 0 66 17.5t39 54.5h35q-6 -59 -27 -88.5zM321 713l77 166h113z" />
    <glyph glyph-name="uni1EE9" unicode="&#x1ee9;" horiz-adv-x="515" 
d="M523.5 434.5q-34.5 -26.5 -84.5 -27.5v-287q0 -50 13 -67q10 -15 37 -15h10l-132 -56v99q-29 -45 -75 -70.5t-95 -25.5q-127 0 -127 162v228q0 56 -22 78q-9 9 -18 12q-2 0 -13 4h127v-310q0 -58 24 -87.5t63 -29.5q24 0 49 12.5t44 32.5t30.5 44.5t11.5 47.5v204
q0 49 -18 71q-9 9 -14 11q-3 1 -10 4h101q42 0 66 17.5t39 54.5h35q-7 -80 -41.5 -106.5zM221 516l77 166h113z" />
    <glyph glyph-name="uni1EEA" unicode="&#x1eea;" horiz-adv-x="674" 
d="M697 649.5q-21 -29.5 -47.5 -37.5t-59.5 -8q-2 -18 -2 -32v-345q0 -122 -59 -182t-190 -60t-189.5 58.5t-58.5 179.5v351q0 56 -24 80q-11 11 -24 12h177q-24 -1 -40 -39q-8 -21 -8 -52v-350q0 -97 42.5 -141.5t136.5 -44.5q97 0 138 52q35 43 35 132v349q0 57 -27 82
q-10 10 -26 12h113q42 0 66 17.5t39 54.5h35q-6 -59 -27 -88.5zM217 879h118l72 -166z" />
    <glyph glyph-name="uni1EEB" unicode="&#x1eeb;" horiz-adv-x="515" 
d="M523.5 434.5q-34.5 -26.5 -84.5 -27.5v-287q0 -50 13 -67q10 -15 37 -15h10l-132 -56v99q-29 -45 -75 -70.5t-95 -25.5q-127 0 -127 162v228q0 56 -22 78q-9 9 -18 12q-2 0 -13 4h127v-310q0 -58 24 -87.5t63 -29.5q24 0 49 12.5t44 32.5t30.5 44.5t11.5 47.5v204
q0 49 -18 71q-9 9 -14 11q-3 1 -10 4h101q42 0 66 17.5t39 54.5h35q-7 -80 -41.5 -106.5zM117 682h118l72 -166z" />
    <glyph glyph-name="uni1EEC" unicode="&#x1eec;" horiz-adv-x="674" 
d="M697 649.5q-21 -29.5 -47.5 -37.5t-59.5 -8q-2 -18 -2 -32v-345q0 -122 -59 -182t-190 -60t-189.5 58.5t-58.5 179.5v351q0 56 -24 80q-11 11 -24 12h177q-24 -1 -40 -39q-8 -21 -8 -52v-350q0 -97 42.5 -141.5t136.5 -44.5q97 0 138 52q35 43 35 132v349q0 57 -27 82
q-10 10 -26 12h113q42 0 66 17.5t39 54.5h35q-6 -59 -27 -88.5zM426 816.5q-14 -13.5 -38 -26.5l-9 -4.5t-9.5 -6.5t-2.5 -6q2 -17 15 -26q-5 -9 -17 -9q-19 0 -30.5 11t-11.5 28q0 13 9 21.5t27 19.5q15 9 23.5 16.5t8.5 17.5q0 19 -11.5 30t-30.5 11q-20 0 -36 -11
q-17 -12 -27 -37l-10 2v58q14 10 36 16t44 6q33 0 59 -17q25 -16 25 -54q0 -26 -14 -39.5z" />
    <glyph glyph-name="uni1EED" unicode="&#x1eed;" horiz-adv-x="515" 
d="M523.5 434.5q-34.5 -26.5 -84.5 -27.5v-287q0 -50 13 -67q10 -15 37 -15h10l-132 -56v99q-29 -45 -75 -70.5t-95 -25.5q-127 0 -127 162v228q0 56 -22 78q-9 9 -18 12q-2 0 -13 4h127v-310q0 -58 24 -87.5t63 -29.5q24 0 49 12.5t44 32.5t30.5 44.5t11.5 47.5v204
q0 49 -18 71q-9 9 -14 11q-3 1 -10 4h101q42 0 66 17.5t39 54.5h35q-7 -80 -41.5 -106.5zM326 619.5q-14 -13.5 -38 -26.5l-9 -4.5t-9.5 -6.5t-2.5 -6q2 -17 15 -26q-5 -9 -17 -9q-19 0 -30.5 11t-11.5 28q0 13 9 21.5t27 19.5q15 9 23.5 16.5t8.5 17.5q0 19 -11.5 30
t-30.5 11q-20 0 -36 -11q-17 -12 -27 -37l-10 2v58q14 10 36 16t44 6q33 0 59 -17q25 -16 25 -54q0 -26 -14 -39.5z" />
    <glyph glyph-name="uni1EEE" unicode="&#x1eee;" horiz-adv-x="674" 
d="M697 649.5q-21 -29.5 -47.5 -37.5t-59.5 -8q-2 -18 -2 -32v-345q0 -122 -59 -182t-190 -60t-189.5 58.5t-58.5 179.5v351q0 56 -24 80q-11 11 -24 12h177q-24 -1 -40 -39q-8 -21 -8 -52v-350q0 -97 42.5 -141.5t136.5 -44.5q97 0 138 52q35 43 35 132v349q0 57 -27 82
q-10 10 -26 12h113q42 0 66 17.5t39 54.5h35q-6 -59 -27 -88.5zM488 809.5q-5 -15.5 -15 -28.5q-10 -14 -25.5 -23t-33.5 -9q-14 0 -29.5 7t-36.5 21q-20 13 -35 20t-28 7q-23 0 -37 -19.5t-16 -47.5q-9 13 -9 38q0 14 5 29.5t14 27.5q23 30 58 30q16 0 32.5 -7t38.5 -20
q23 -14 37.5 -21t25.5 -7q24 0 36 19.5t15 48.5q8 -11 8 -37q0 -13 -5 -28.5z" />
    <glyph glyph-name="uni1EEF" unicode="&#x1eef;" horiz-adv-x="515" 
d="M523.5 434.5q-34.5 -26.5 -84.5 -27.5v-287q0 -50 13 -67q10 -15 37 -15h10l-132 -56v99q-29 -45 -75 -70.5t-95 -25.5q-127 0 -127 162v228q0 56 -22 78q-9 9 -18 12q-2 0 -13 4h127v-310q0 -58 24 -87.5t63 -29.5q24 0 49 12.5t44 32.5t30.5 44.5t11.5 47.5v204
q0 49 -18 71q-9 9 -14 11q-3 1 -10 4h101q42 0 66 17.5t39 54.5h35q-7 -80 -41.5 -106.5zM388 612.5q-5 -15.5 -15 -28.5q-10 -14 -25.5 -23t-33.5 -9q-14 0 -29.5 7t-36.5 21q-20 13 -35 20t-28 7q-23 0 -37 -19.5t-16 -47.5q-9 13 -9 38q0 14 5 29.5t14 27.5q23 30 58 30
q16 0 32.5 -7t38.5 -20q23 -14 37.5 -21t25.5 -7q24 0 36 19.5t15 48.5q8 -11 8 -37q0 -13 -5 -28.5z" />
    <glyph glyph-name="uni1EF0" unicode="&#x1ef0;" horiz-adv-x="674" 
d="M697 649.5q-21 -29.5 -47.5 -37.5t-59.5 -8q-2 -18 -2 -32v-345q0 -122 -59 -182t-190 -60t-189.5 58.5t-58.5 179.5v351q0 56 -24 80q-11 11 -24 12h177q-24 -1 -40 -39q-8 -21 -8 -52v-350q0 -97 42.5 -141.5t136.5 -44.5q97 0 138 52q35 43 35 132v349q0 57 -27 82
q-10 10 -26 12h113q42 0 66 17.5t39 54.5h35q-6 -59 -27 -88.5zM374 -156.5q-14 -14.5 -37 -14.5q-24 0 -38 14.5t-14 35.5t14 35.5t38 14.5t37.5 -14.5t13.5 -35.5t-14 -35.5z" />
    <glyph glyph-name="uni1EF1" unicode="&#x1ef1;" horiz-adv-x="515" 
d="M523.5 434.5q-34.5 -26.5 -84.5 -27.5v-287q0 -50 13 -67q10 -15 37 -15h10l-132 -56v99q-29 -45 -75 -70.5t-95 -25.5q-127 0 -127 162v228q0 56 -22 78q-9 9 -18 12q-2 0 -13 4h127v-310q0 -58 24 -87.5t63 -29.5q24 0 49 12.5t44 32.5t30.5 44.5t11.5 47.5v204
q0 49 -18 71q-9 9 -14 11q-3 1 -10 4h101q42 0 66 17.5t39 54.5h35q-7 -80 -41.5 -106.5zM295 -156.5q-14 -14.5 -37 -14.5q-24 0 -38 14.5t-14 35.5t14 35.5t38 14.5t37.5 -14.5t13.5 -35.5t-14 -35.5z" />
    <glyph glyph-name="Ygrave" unicode="&#x1ef2;" horiz-adv-x="644" 
d="M622 666q-24 -6 -56 -44q-17 -19 -39 -56l-167 -286v-187q0 -57 24 -81q11 -11 24 -12h-178q26 2 41 40q7 17 7 53v186l-168 289q-33 57 -68 85q-17 12 -26 13h187q-10 -2 -13 -5q-13 -7 -13 -26q0 -21 27 -66l132 -227l125 216q17 29 24.5 46.5t7.5 29.5q0 20 -13 27
q-3 3 -12 5h154zM181 879h118l72 -166z" />
    <glyph glyph-name="ygrave" unicode="&#x1ef3;" horiz-adv-x="485" 
d="M483 469q-1 -1 -9 -4q-16 -9 -36 -37q-12 -18 -21 -41l-130 -331q-84 -213 -181 -250l-90 81q19 -9 48 -9q44 0 76 28q35 29 76 113l-145 372q-14 36 -41 63q-13 10 -17 11l-11 4h172q-28 -10 -28 -41q0 -18 12 -47l99 -262l97 249q14 36 14 57q0 23 -17 38q-7 4 -17 6
h149zM102 682h118l72 -166z" />
    <glyph glyph-name="uni1EF4" unicode="&#x1ef4;" horiz-adv-x="644" 
d="M622 666q-24 -6 -56 -44q-17 -19 -39 -56l-167 -286v-187q0 -57 24 -81q11 -11 24 -12h-178q26 2 41 40q7 17 7 53v186l-168 289q-33 57 -68 85q-17 12 -26 13h187q-10 -2 -13 -5q-13 -7 -13 -26q0 -21 27 -66l132 -227l125 216q17 29 24.5 46.5t7.5 29.5q0 20 -13 27
q-3 3 -12 5h154zM359 -156.5q-14 -14.5 -37 -14.5q-24 0 -38 14.5t-14 35.5t14 35.5t38 14.5t37.5 -14.5t13.5 -35.5t-14 -35.5z" />
    <glyph glyph-name="uni1EF5" unicode="&#x1ef5;" horiz-adv-x="485" 
d="M483 469q-1 -1 -9 -4q-16 -9 -36 -37q-12 -18 -21 -41l-130 -331q-84 -213 -181 -250l-90 81q19 -9 48 -9q44 0 76 28q35 29 76 113l-145 372q-14 36 -41 63q-13 10 -17 11l-11 4h172q-28 -10 -28 -41q0 -18 12 -47l99 -262l97 249q14 36 14 57q0 23 -17 38q-7 4 -17 6
h149zM355 -156.5q-14 -14.5 -37 -14.5q-24 0 -38 14.5t-14 35.5t14 35.5t38 14.5t37.5 -14.5t13.5 -35.5t-14 -35.5z" />
    <glyph glyph-name="uni1EF6" unicode="&#x1ef6;" horiz-adv-x="644" 
d="M622 666q-24 -6 -56 -44q-17 -19 -39 -56l-167 -286v-187q0 -57 24 -81q11 -11 24 -12h-178q26 2 41 40q7 17 7 53v186l-168 289q-33 57 -68 85q-17 12 -26 13h187q-10 -2 -13 -5q-13 -7 -13 -26q0 -21 27 -66l132 -227l125 216q17 29 24.5 46.5t7.5 29.5q0 20 -13 27
q-3 3 -12 5h154zM390 816.5q-14 -13.5 -38 -26.5l-9 -4.5t-9.5 -6.5t-2.5 -6q2 -17 15 -26q-5 -9 -17 -9q-19 0 -30.5 11t-11.5 28q0 13 9 21.5t27 19.5q15 9 23.5 16.5t8.5 17.5q0 19 -11.5 30t-30.5 11q-20 0 -36 -11q-17 -12 -27 -37l-10 2v58q14 10 36 16t44 6
q33 0 59 -17q25 -16 25 -54q0 -26 -14 -39.5z" />
    <glyph glyph-name="uni1EF7" unicode="&#x1ef7;" horiz-adv-x="485" 
d="M483 469q-1 -1 -9 -4q-16 -9 -36 -37q-12 -18 -21 -41l-130 -331q-84 -213 -181 -250l-90 81q19 -9 48 -9q44 0 76 28q35 29 76 113l-145 372q-14 36 -41 63q-13 10 -17 11l-11 4h172q-28 -10 -28 -41q0 -18 12 -47l99 -262l97 249q14 36 14 57q0 23 -17 38q-7 4 -17 6
h149zM311 619.5q-14 -13.5 -38 -26.5l-9 -4.5t-9.5 -6.5t-2.5 -6q2 -17 15 -26q-5 -9 -17 -9q-19 0 -30.5 11t-11.5 28q0 13 9 21.5t27 19.5q15 9 23.5 16.5t8.5 17.5q0 19 -11.5 30t-30.5 11q-20 0 -36 -11q-17 -12 -27 -37l-10 2v58q14 10 36 16t44 6q33 0 59 -17
q25 -16 25 -54q0 -26 -14 -39.5z" />
    <glyph glyph-name="uni1EF8" unicode="&#x1ef8;" horiz-adv-x="644" 
d="M622 666q-24 -6 -56 -44q-17 -19 -39 -56l-167 -286v-187q0 -57 24 -81q11 -11 24 -12h-178q26 2 41 40q7 17 7 53v186l-168 289q-33 57 -68 85q-17 12 -26 13h187q-10 -2 -13 -5q-13 -7 -13 -26q0 -21 27 -66l132 -227l125 216q17 29 24.5 46.5t7.5 29.5q0 20 -13 27
q-3 3 -12 5h154zM452 809.5q-5 -15.5 -15 -28.5q-10 -14 -25.5 -23t-33.5 -9q-14 0 -29.5 7t-36.5 21q-20 13 -35 20t-28 7q-23 0 -37 -19.5t-16 -47.5q-9 13 -9 38q0 14 5 29.5t14 27.5q23 30 58 30q16 0 32.5 -7t38.5 -20q23 -14 37.5 -21t25.5 -7q24 0 36 19.5t15 48.5
q8 -11 8 -37q0 -13 -5 -28.5z" />
    <glyph glyph-name="uni1EF9" unicode="&#x1ef9;" horiz-adv-x="485" 
d="M483 469q-1 -1 -9 -4q-16 -9 -36 -37q-12 -18 -21 -41l-130 -331q-84 -213 -181 -250l-90 81q19 -9 48 -9q44 0 76 28q35 29 76 113l-145 372q-14 36 -41 63q-13 10 -17 11l-11 4h172q-28 -10 -28 -41q0 -18 12 -47l99 -262l97 249q14 36 14 57q0 23 -17 38q-7 4 -17 6
h149zM373 612.5q-5 -15.5 -15 -28.5q-10 -14 -25.5 -23t-33.5 -9q-14 0 -29.5 7t-36.5 21q-20 13 -35 20t-28 7q-23 0 -37 -19.5t-16 -47.5q-9 13 -9 38q0 14 5 29.5t14 27.5q23 30 58 30q16 0 32.5 -7t38.5 -20q23 -14 37.5 -21t25.5 -7q24 0 36 19.5t15 48.5q8 -11 8 -37
q0 -13 -5 -28.5z" />
    <glyph glyph-name="endash" unicode="&#x2013;" horiz-adv-x="678" 
d="M39 213v52h600v-52h-600z" />
    <glyph glyph-name="emdash" unicode="&#x2014;" horiz-adv-x="1078" 
d="M39 213v52h1000v-52h-1000z" />
    <glyph glyph-name="quoteleft" unicode="&#x2018;" horiz-adv-x="257" 
d="M136 628q-30 -39 -30 -84q0 -25 10 -41q14 8 23 8q25 0 38.5 -15t13.5 -37q0 -25 -16 -42t-44 -17q-36 0 -59 34q-22 31 -22 77q0 29 9.5 58.5t28.5 53.5q45 56 120 61q-42 -16 -72 -56z" />
    <glyph glyph-name="quoteright" unicode="&#x2019;" horiz-adv-x="257" 
d="M195 512.5q-9 -29.5 -28 -52.5q-44 -56 -121 -62q42 16 72 56q30 39 30 84q0 26 -9 40q-10 -7 -24 -7q-25 0 -38.5 15t-13.5 37q0 24 16 41t44 17q37 0 60 -33q21 -30 21 -77q0 -29 -9 -58.5z" />
    <glyph glyph-name="quotesinglbase" unicode="&#x201a;" horiz-adv-x="257" 
d="M191 -66.5q-9 -29.5 -28 -53.5q-44 -56 -121 -62q41 16 72 57q14 18 22 40t8 44q0 24 -10 40q-10 -7 -24 -7q-25 0 -38.5 15t-13.5 37q0 24 16.5 41t44.5 17q37 0 60 -33q21 -30 21 -77q0 -29 -9 -58.5z" />
    <glyph glyph-name="quotedblleft" unicode="&#x201c;" horiz-adv-x="461" 
d="M140 628q-30 -39 -30 -84q0 -27 9 -41q14 8 24 8q25 0 38.5 -15t13.5 -37q0 -25 -16 -42t-44 -17q-36 0 -59 34q-22 31 -22 77q0 29 9.5 58.5t28.5 53.5q45 56 120 61q-42 -16 -72 -56zM339 628q-30 -39 -30 -84q0 -27 9 -41q14 8 24 8q25 0 38.5 -15t13.5 -37
q0 -25 -16 -42t-44 -17q-37 0 -60 34q-22 31 -22 77q0 29 10 58.5t29 53.5q45 56 120 61q-42 -16 -72 -56z" />
    <glyph glyph-name="quotedblright" unicode="&#x201d;" horiz-adv-x="461" 
d="M198 512.5q-9 -29.5 -28 -52.5q-44 -56 -121 -62q42 16 72 56q30 39 30 84q0 26 -9 40q-10 -7 -24 -7q-25 0 -38.5 15t-13.5 37q0 24 16 41t44 17q37 0 60 -33q21 -30 21 -77q0 -29 -9 -58.5zM396 512.5q-9 -29.5 -28 -52.5q-44 -56 -121 -62q42 16 72 56q30 39 30 84
q0 24 -10 40q-10 -7 -24 -7q-25 0 -38.5 15t-13.5 37q0 24 16.5 41t44.5 17q37 0 60 -33q21 -30 21 -77q0 -29 -9 -58.5z" />
    <glyph glyph-name="quotedblbase" unicode="&#x201e;" horiz-adv-x="455" 
d="M195 -66.5q-9 -29.5 -28 -53.5q-44 -56 -121 -62q41 16 72 57q14 18 22 40t8 44q0 24 -10 40q-10 -7 -23 -7q-25 0 -39 15t-14 37q0 24 16.5 41t44.5 17q37 0 60 -33q21 -30 21 -77q0 -29 -9 -58.5zM388 -66.5q-9 -29.5 -28 -53.5q-44 -56 -121 -62q41 16 72 57
q14 18 22 40t8 44q0 24 -10 40q-10 -7 -24 -7q-25 0 -38.5 15t-13.5 37q0 24 16.5 41t44.5 17q37 0 60 -33q21 -30 21 -77q0 -29 -9 -58.5z" />
    <glyph glyph-name="dagger" unicode="&#x2020;" horiz-adv-x="544" 
d="M471 387q-4 10 -33 18q-15 3 -42 3h-93v-374q0 -96 -14 -168q-4 -21 -11 -43l-7 -20l-6 20q-13 43 -19 112q-4 36 -4 99v374h-95q-28 0 -41 -3q-32 -8 -33 -18v96q4 -12 33 -18q13 -3 40 -3h96v98q0 37 -5 60q-11 40 -29 46h126q-17 -6 -26 -46q-5 -23 -5 -60v-98h94
q41 0 63 10q10 5 11 11v-96z" />
    <glyph glyph-name="daggerdbl" unicode="&#x2021;" horiz-adv-x="544" 
d="M471 0q-4 10 -33 18q-13 3 -40 3h-96v-96q0 -37 5 -60q10 -42 29 -46h-126q16 4 26 46q5 23 5 60v96h-95q-26 0 -41 -3q-31 -8 -32 -18v96q1 -12 33 -18q15 -3 42 -3h93v335h-94q-28 0 -41 -3q-32 -8 -33 -18v96q4 -12 33 -18q13 -3 40 -3h95v96q0 37 -5 60
q-11 40 -29 46h127q-17 -6 -27 -46q-5 -23 -5 -60v-96h96q41 0 63 10q9 5 10 11v-96q-4 10 -33 18q-15 3 -42 3h-94v-335h95q42 0 64 10q9 4 10 11v-96z" />
    <glyph glyph-name="bullet" unicode="&#x2022;" horiz-adv-x="447" 
d="M309 218q-33 -35 -85 -35t-85 35q-31 33 -31 81q0 50 30 81q33 35 86 35q52 0 85 -35q30 -31 30 -81q0 -48 -30 -81z" />
    <glyph glyph-name="ellipsis" unicode="&#x2026;" horiz-adv-x="909" 
d="M198 5q-16 -17 -43 -17t-43.5 17t-16.5 41t16 40.5t44 16.5q27 0 43 -16.5t16 -40.5t-16 -41zM498 5q-16 -17 -43 -17t-43 17t-16 41t15.5 40.5t43.5 16.5q27 0 43 -16.5t16 -40.5t-16 -41zM798 5q-16 -17 -43 -17t-43 17t-16 41t15.5 40.5t43.5 16.5q27 0 43 -16.5
t16 -40.5t-16 -41z" />
    <glyph glyph-name="perthousand" unicode="&#x2030;" horiz-adv-x="1005" 
d="M289 421q-18 -22 -44.5 -35t-59.5 -13q-65 0 -103 48q-35 44 -35 106t37 107q39 47 101 47q33 0 59.5 -13t44.5 -35q35 -44 35 -106t-35 -106zM141 0h-56l471 666h54zM245 607q-23 33 -62 33q-38 0 -58 -30.5t-20 -80.5q0 -48 21 -80q21 -34 60 -34q38 0 59 31t21 80
q0 50 -21 81zM608 34q-18 -22 -44.5 -35t-59.5 -13q-65 0 -103 48q-35 44 -35 106q0 63 36 106q40 48 102 48q33 0 59.5 -13t44.5 -35q35 -44 35 -106t-35 -106zM926 34q-18 -22 -44.5 -35t-59.5 -13q-64 0 -102 48q-35 42 -35 106q0 63 36 106q38 48 101 48q33 0 59.5 -13
t44.5 -35q35 -44 35 -106t-35 -106zM563 221q-22 32 -60 32t-58.5 -31t-20.5 -81q0 -49 21.5 -80.5t59.5 -31.5t59 31t21 80t-22 81zM882 221q-22 32 -61 32q-38 0 -58 -31t-20 -81q0 -49 21.5 -80.5t59.5 -31.5t59 31t21 80t-22 81z" />
    <glyph glyph-name="guilsinglleft" unicode="&#x2039;" horiz-adv-x="251" 
d="M158 71l-124 181l124 180h64l-125 -180l125 -181h-64z" />
    <glyph glyph-name="guilsinglright" unicode="&#x203a;" horiz-adv-x="251" 
d="M93 72h-64l125 180l-125 180h63l125 -180z" />
    <glyph glyph-name="fraction" unicode="&#x2044;" horiz-adv-x="170" 
d="M-86 0h-41l386 681h38z" />
    <glyph glyph-name="Euro" unicode="&#x20ac;" horiz-adv-x="523" 
d="M493 60q-26 -33 -71.5 -54.5t-97.5 -21.5q-101 0 -168 75q-64 71 -82 180h-65v42h60q-2 30 -2 40q0 31 4 59h-62v43h69q22 109 86 179q73 80 189 80q84 0 140 -40l-29 -75q-40 62 -125 62q-75 0 -123 -64q-42 -57 -57 -142h248l-16 -43h-238q-2 -34 -2 -45q0 -25 3 -54
h197l-16 -42h-174q15 -83 58 -137q49 -62 120 -62q45 0 93 34q42 31 61 76v-90z" />
    <glyph glyph-name="trademark" unicode="&#x2122;" horiz-adv-x="622" 
d="M260 589l-3 13q-5 18 -20 29q-7 6 -20 6h-48v-182q0 -23 10 -37q6 -6 10 -7h-87q11 4 18 20q3 8 3 24v182h-49q-20 0 -31 -18q-10 -17 -12 -29l2 76h225zM510 411q11 4 17 20q3 8 3 24v174l-90 -224l-91 223v-171q0 -16 2.5 -24.5t8.5 -14.5t12 -7h-78q12 2 20 22
q3 9 3 26v165q0 23 -12 35q-6 6 -11 7h90l66 -159l64 159h84q-13 -4 -19 -21q-3 -9 -3 -23v-168q0 -25 11 -36q6 -6 11 -7h-88z" />
    <glyph glyph-name="minus" unicode="&#x2212;" horiz-adv-x="663" 
d="M60 255v53h544v-53h-544z" />
    <glyph glyph-name="notequal" unicode="&#x2260;" horiz-adv-x="930" 
 />
    <glyph glyph-name="uni03060301" horiz-adv-x="0" 
d="M-372 686l63 138h94zM-306 605q-12 -13 -28 -20.5t-31 -7.5q-35 0 -61 28q-27 30 -27 83q12 -29 35.5 -44.5t51.5 -15.5t51.5 15.5t35.5 44.5q0 -53 -27 -83z" />
    <glyph glyph-name="uni03060300" horiz-adv-x="0" 
d="M-542 821h97l60 -138zM-336 604q-12 -13 -28 -20.5t-31 -7.5q-35 0 -61 28q-27 30 -27 83q12 -29 35.5 -44.5t51.5 -15.5t51.5 15.5t35.5 44.5q0 -53 -27 -83z" />
    <glyph glyph-name="uni03060309" horiz-adv-x="0" 
d="M-326 737.5q-12 -11.5 -31 -20.5q-7 -3 -12.5 -7t-4.5 -7q1 -14 12 -22q-4 -7 -14 -7q-15 0 -24.5 9t-9.5 23q0 11 8 18t22 15q2 2 10 7t12 10.5t4 11.5q0 16 -9.5 25t-25.5 9q-14 0 -30 -9q-14 -11 -22 -31l-8 2v48q12 8 30 13t36 5q27 0 49 -14q20 -13 20 -45
q0 -22 -12 -33.5zM-321 603q-12 -13 -28 -20.5t-31 -7.5q-35 0 -61 28q-27 30 -27 83q12 -29 35.5 -44.5t51.5 -15.5t51.5 15.5t35.5 44.5q0 -53 -27 -83z" />
    <glyph glyph-name="uni03060303" horiz-adv-x="0" 
d="M-285 738q-20 -27 -49 -27q-11 0 -23 5.5t-31 17.5q-18 11 -30 17t-23 6q-19 0 -30 -16.5t-13 -39.5q-8 12 -8 32q0 11 4 24t12 23q20 25 48 25q13 0 26.5 -6t32.5 -17q14 -8 28.5 -15.5t23.5 -7.5q36 0 42 56q6 -7 6 -30q0 -25 -16 -47zM-321 608q-12 -13 -28 -20.5
t-31 -7.5q-35 0 -61 28q-27 30 -27 83q12 -29 35.5 -44.5t51.5 -15.5t51.5 15.5t35.5 44.5q0 -53 -27 -83z" />
    <glyph glyph-name="uni03020301" horiz-adv-x="0" 
d="M-229 593l63 138h94zM-340 601l-106 -70l106 151l110 -152z" />
    <glyph glyph-name="uni03020300" horiz-adv-x="0" 
d="M-410 781h97l60 -138zM-372 609l-106 -70l106 151l110 -152z" />
    <glyph glyph-name="uni03020309" horiz-adv-x="0" 
d="M-180 691.5q-12 -11.5 -31 -20.5q-7 -3 -12.5 -7t-4.5 -7q1 -14 12 -22q-4 -7 -14 -7q-15 0 -24.5 9t-9.5 23q0 11 8 18t22 15q2 2 10 7t12 10.5t4 11.5q0 16 -9.5 25t-25.5 9q-14 0 -30 -9q-14 -11 -22 -31l-8 2v48q12 8 30 13t36 5q27 0 49 -14q20 -13 20 -45
q0 -22 -12 -33.5zM-355 607l-106 -70l106 151l110 -152z" />
    <glyph glyph-name="uni03020303" horiz-adv-x="0" 
d="M-265 733q-20 -27 -49 -27q-11 0 -23 5.5t-31 17.5q-18 11 -30 17t-23 6q-19 0 -30 -16.5t-13 -39.5q-8 12 -8 32q0 11 4 24t12 23q20 25 48 25q13 0 26.5 -6t32.5 -17q14 -8 28.5 -15.5t23.5 -7.5q36 0 42 56q6 -7 6 -30q0 -25 -16 -47zM-376 619l-106 -70l106 151
l110 -152z" />
  </font>
</defs>
</svg>
