<svg width="80" height="86" viewBox="0 0 80 86" fill="none" xmlns="http://www.w3.org/2000/svg">
<path fill-rule="evenodd" clip-rule="evenodd" d="M37.376 30.1258C37.4943 30.2407 37.6156 30.3563 37.739 30.4727C37.9159 30.6394 38.0531 30.8286 38.1516 31.0301C36.2384 30.2752 34.8843 28.4088 34.8843 26.2256C34.8843 24.4421 35.788 22.87 37.162 21.9426C36.9757 22.4093 36.7919 22.7578 36.6144 22.9488C35.7203 23.911 35.3685 24.9834 35.3274 25.9707C35.3229 26.0551 35.3206 26.1401 35.3206 26.2257C35.3206 27.8451 36.1348 29.2743 37.376 30.1258ZM33.9688 26.2256C33.9688 28.9875 35.8099 31.3194 38.3313 32.059C38.315 32.2093 38.2806 32.3575 38.2285 32.5002C35.5075 31.7136 33.5175 29.2024 33.5175 26.2258C33.5175 23.4236 35.2811 21.0339 37.758 20.1072C37.705 20.2978 37.6519 20.4823 37.5987 20.6598C35.4611 21.6011 33.9688 23.7391 33.9688 26.2256ZM38.0144 19.1353C34.9311 20.017 32.6742 22.8578 32.6742 26.2258C32.6742 29.4932 34.7982 32.2644 37.7402 33.2321C37.6376 33.3267 37.5222 33.4121 37.3943 33.4861L37.2395 33.5755C34.2659 32.4588 32.1497 29.5893 32.1497 26.2255C32.1497 22.5286 34.7057 19.4287 38.1468 18.5965C38.1029 18.7791 38.0588 18.9589 38.0144 19.1353ZM31.427 26.2255C31.427 29.6943 33.4876 32.6819 36.4515 34.0309L35.7593 34.4309C32.8191 32.89 30.8132 29.8088 30.8132 26.259C30.8132 21.6986 34.124 17.9115 38.4732 17.1702C38.4256 17.3877 38.3776 17.6034 38.3291 17.8165C34.3943 18.5932 31.427 22.0628 31.427 26.2255ZM38.6073 16.5392C33.8583 17.23 30.2109 21.3185 30.2109 26.259C30.2109 29.9461 32.2424 33.1587 35.2471 34.8386L35.284 34.9243C35.41 35.217 35.4578 35.5153 35.4406 35.8016C31.8932 34.0911 29.4455 30.4608 29.4455 26.2589C29.4455 20.8452 33.5084 16.3805 38.7514 15.7476C38.7082 16.0118 38.6602 16.2757 38.6073 16.5392ZM28.9636 26.2589C28.9636 30.697 31.5754 34.5251 35.3457 36.2901C35.2533 36.5667 35.0991 36.8191 34.8979 37.0277C30.8811 35.1086 28.106 31.0081 28.106 26.2594C28.106 20.0436 32.8607 14.9383 38.9315 14.3822C38.9022 14.673 38.8672 14.9637 38.8264 15.254C33.2805 15.8554 28.9636 20.553 28.9636 26.2589ZM27.7446 26.2594C27.7446 31.0941 30.5366 35.2768 34.5962 37.283C34.231 37.5327 33.7734 37.661 33.275 37.5988L33.1648 37.585C29.3429 35.2621 26.79 31.059 26.79 26.2596C26.79 19.2842 32.1827 13.5684 39.0263 13.0537C39.0128 13.3746 38.9926 13.6956 38.9655 14.0163C32.6786 14.5576 27.7446 19.8323 27.7446 26.2594ZM39.0368 12.763C32.0283 13.2733 26.5009 19.121 26.5009 26.2596C26.5009 31.2532 29.2055 35.6151 33.2298 37.9602C33.4403 38.4018 33.4952 38.8759 33.4188 39.3224C28.6573 36.9066 25.3943 31.9641 25.3943 26.2595C25.3943 18.5074 31.4199 12.1627 39.043 11.6535C39.0497 12.0231 39.0477 12.393 39.0368 12.763ZM39.0387 11.4606C31.3111 11.9723 25.2016 18.4024 25.2016 26.2595C25.2016 32.0572 28.5281 37.0779 33.3767 39.5171C33.182 40.2607 32.6178 40.8991 31.8035 41.1367C31.4933 41.2272 31.2897 41.5234 31.3161 41.8454L31.5144 44.2547C31.6519 45.9268 30.332 47.3597 28.6543 47.3597H12.1172V46.7104C14.1688 45.9946 15.8301 44.4574 16.7025 42.4673L35.2086 0.255859H36.0885C37.8819 3.75507 38.9369 7.58857 39.0387 11.4606Z" fill="#B69325"/>
<path fill-rule="evenodd" clip-rule="evenodd" d="M42.624 30.1258C42.5057 30.2407 42.3844 30.3564 42.261 30.4727C42.0841 30.6394 41.9469 30.8286 41.8484 31.0301C43.7616 30.2752 45.1157 28.4088 45.1157 26.2256C45.1157 24.4421 44.212 22.87 42.838 21.9426C43.0243 22.4093 43.2081 22.7578 43.3856 22.9488C44.2791 23.9104 44.631 24.982 44.6726 25.9687C44.6771 26.0538 44.6794 26.1395 44.6794 26.2257C44.6794 27.8451 43.8652 29.2744 42.624 30.1258ZM46.0312 26.2256C46.0312 28.9875 44.1901 31.3194 41.6687 32.059C41.685 32.2093 41.7194 32.3575 41.7715 32.5002C44.4925 31.7136 46.4825 29.2024 46.4825 26.2258C46.4825 23.4236 44.7189 21.0339 42.242 20.1072C42.295 20.2978 42.3481 20.4823 42.4013 20.6598C44.5389 21.6011 46.0312 23.7391 46.0312 26.2256ZM41.9856 19.1353C45.0689 20.0169 47.3258 22.8578 47.3258 26.2258C47.3258 29.4932 45.2018 32.2645 42.2598 33.2321C42.3624 33.3267 42.4778 33.4121 42.6057 33.4861L42.7605 33.5755C45.7342 32.4588 47.8503 29.5893 47.8503 26.2255C47.8503 22.5286 45.2943 19.4287 41.8532 18.5965C41.8971 18.7791 41.9412 18.9589 41.9856 19.1353ZM48.5731 26.2255C48.5731 29.6943 46.5124 32.6819 43.5485 34.0309L44.2407 34.431C47.1809 32.89 49.1868 29.8088 49.1868 26.259C49.1868 21.6986 45.876 17.9115 41.5268 17.1702C41.5744 17.3877 41.6224 17.6034 41.6709 17.8165C45.6057 18.5932 48.5731 22.0628 48.5731 26.2255ZM41.3927 16.5392C46.1417 17.2299 49.7891 21.3185 49.7891 26.259C49.7891 29.9461 47.7576 33.1588 44.7529 34.8386L44.716 34.9243C44.59 35.217 44.5422 35.5153 44.5594 35.8016C48.1068 34.0911 50.5546 30.4608 50.5546 26.2589C50.5546 20.8452 46.4916 16.3805 41.2486 15.7476C41.2918 16.0118 41.3398 16.2757 41.3927 16.5392ZM51.0364 26.2589C51.0364 30.697 48.4247 34.5251 44.6543 36.2901C44.7467 36.5667 44.9009 36.8192 45.1021 37.0277C49.1189 35.1086 51.894 31.0081 51.894 26.2594C51.894 20.0436 47.1393 14.9383 41.0685 14.3822C41.0978 14.673 41.1328 14.9637 41.1736 15.254C46.7195 15.8554 51.0364 20.553 51.0364 26.2589ZM52.2554 26.2594C52.2554 31.0941 49.4634 35.2768 45.4038 37.283C45.769 37.5327 46.2266 37.661 46.725 37.5988L46.8352 37.585C50.6571 35.2621 53.21 31.059 53.21 26.2596C53.21 19.2842 47.8174 13.5684 40.9737 13.0537C40.9872 13.3746 41.0074 13.6956 41.0345 14.0163C47.3214 14.5576 52.2554 19.8323 52.2554 26.2594ZM40.9632 12.763C47.9717 13.2733 53.4991 19.1209 53.4991 26.2596C53.4991 31.2532 50.7945 35.6151 46.7702 37.9602C46.5597 38.4018 46.5048 38.8759 46.5812 39.3224C51.3427 36.9066 54.6057 31.9641 54.6057 26.2595C54.6057 18.5074 48.5801 12.1627 40.957 11.6535C40.9503 12.0231 40.9523 12.393 40.9632 12.763ZM40.9613 11.4606C48.6889 11.9723 54.7984 18.4024 54.7984 26.2595C54.7984 32.0572 51.4719 37.0779 46.6233 39.5171C46.818 40.2607 47.3822 40.8991 48.1965 41.1367C48.5067 41.2272 48.7103 41.5234 48.6839 41.8454L48.4856 44.2547C48.3481 45.9268 49.668 47.3597 51.3457 47.3597H67.8828V46.7104C65.8312 45.9946 64.1699 44.4574 63.2975 42.4673L44.7914 0.255859H43.9115C42.1181 3.75507 41.0631 7.58857 40.9613 11.4606Z" fill="#B69325"/>
<path d="M12.5283 57.0044C12.5907 55.3618 13.2353 55.0499 13.464 55.0707H9.86697C10.0333 55.0707 10.8234 55.3202 10.8234 57.0044V61.3291H3.25512V57.0044C3.25512 55.237 4.0868 55.0915 4.21155 55.0707H0.59375C0.760086 55.0707 1.57097 55.3202 1.57097 57.0044V66.9845C1.57097 68.0033 1.17593 68.6686 0.947214 68.8142C0.843254 68.8766 0.718502 68.8974 0.614542 68.9181H4.21155C3.96205 68.9389 3.3175 68.6271 3.25512 66.9845V62.3687H10.8234V66.9845C10.8234 68.6894 10.0541 68.9181 9.88776 68.9181H13.464C13.2561 68.9181 12.5283 68.6479 12.5283 66.9845V57.0044Z" fill="#4F4937"/>
<path d="M23.219 67.4403C23.219 67.8961 22.9979 68.5998 22.7025 68.5998C22.1437 68.5998 21.7007 67.8413 21.7007 66.4231V59.1667H19.3097L19.4136 59.1875C19.6839 59.2915 20.1829 59.5618 20.1829 60.9548V65.1964C20.1829 65.8825 19.8918 66.5271 19.2889 67.13C18.7067 67.733 18.0621 68.0449 17.376 68.0449C16.2948 68.0449 15.5671 67.2132 15.5671 65.6122V59.1667H12.9265L13.0513 59.2083C13.4047 59.333 14.0285 59.541 14.0285 61.1212V65.8617C14.0285 68.1073 14.9018 69.23 16.6691 69.23C18.0206 69.23 19.3928 68.4815 20.2037 67.234C20.2824 68.232 20.8595 69.2924 21.9811 69.2924C22.8513 69.2924 22.9297 68.9181 23.8282 68.9181L23.219 67.4403Z" fill="#4F4937"/>
<path d="M36.4107 62.2231C36.4107 60.2271 35.5374 58.834 33.8741 58.834C32.4602 58.834 31.0464 59.6657 30.381 60.7261C30.1523 59.5618 29.2998 58.834 28.1355 58.834C26.9088 58.834 25.4741 59.5618 24.7464 60.7261L24.7256 58.7717L21.9811 59.936H22.2098C22.9375 59.936 23.2286 60.3103 23.2286 61.8073V67.13C23.2286 68.731 22.5217 68.9181 22.3761 68.9181H25.5573C25.391 68.9597 24.8088 68.6271 24.7672 67.1092V62.6806C24.7672 61.9736 25.0375 61.3499 25.5781 60.8301C26.1187 60.2895 26.7216 60.0192 27.4078 60.0192C28.385 60.0192 29.0711 60.8093 29.0711 62.6182V67.1092C29.0088 68.6686 28.489 68.9389 28.281 68.9181H31.3998C31.1919 68.9597 30.6305 68.6271 30.5889 67.1092V62.6806C30.5889 61.9736 30.8592 61.3499 31.379 60.8301C31.9196 60.2895 32.5434 60.0192 33.2295 60.0192C34.3315 60.0192 34.8929 60.8924 34.8929 62.6182V67.1092C34.8305 68.6686 34.3107 68.9389 34.1028 68.9181H37.2424C37.0345 68.9597 36.4523 68.6271 36.4107 67.1092V62.2231Z" fill="#4F4937"/>
<path d="M45.7037 67.1298C45.7037 67.8957 45.5272 68.5998 45.1542 68.5998C44.4951 68.5998 44.181 67.3588 44.181 66.2568V61.7657C44.181 59.9984 43.1206 58.834 41.0622 58.834C39.8355 58.834 38.879 59.1251 38.1929 59.6865C37.5068 60.2479 37.1741 60.9132 37.1741 61.641C37.1741 62.036 37.2572 62.4311 37.4444 62.7845L39.1285 62.0984C38.7751 61.9736 38.6087 61.6618 38.6087 61.1627C38.6087 60.3519 39.3572 59.7281 40.6879 59.7281C41.9354 59.7281 42.6632 60.4974 42.6632 62.0568V63.138C38.7335 64.032 36.987 65.4251 36.987 66.9429C36.987 68.3568 38.1721 69.23 39.7523 69.23C41.083 69.23 42.3513 68.6686 42.8503 67.7538C42.9958 68.4399 43.6206 69.3132 44.4929 69.3132C45.3651 69.3132 45.4896 68.9179 46.3628 68.9179L45.7037 67.1298ZM42.6632 66.1736C42.6632 66.735 42.4137 67.234 41.9354 67.629C41.4572 68.0241 40.8958 68.232 40.2721 68.232C39.2741 68.232 38.5464 67.629 38.5464 66.6518C38.5464 65.4875 39.7731 64.6558 42.6632 63.9905V66.1736Z" fill="#4F4937"/>
<path d="M53.3968 62.0358C53.3968 59.8526 52.2324 58.8338 50.7146 58.8338C50.0909 58.8338 49.4255 59.0209 48.7394 59.3952C48.0532 59.7486 47.5542 60.2061 47.2008 60.7259V58.7714L44.4562 59.9358H44.6849C45.4127 59.9358 45.7037 60.2892 45.7037 61.8071V67.1298C45.7037 68.7308 44.9968 68.9179 44.8513 68.9179H48.0532C47.8453 68.9595 47.2631 68.6268 47.2216 67.1506V62.7011C47.2216 61.9942 47.5126 61.3704 48.1156 60.8298C48.7186 60.2892 49.3423 60.0189 50.0285 60.0189C51.1305 60.0189 51.8582 60.809 51.8582 62.4516V67.1298C51.7958 68.6892 51.276 68.9387 51.0681 68.9179H54.2285C54.0205 68.9595 53.4384 68.6268 53.3968 67.109V62.0358Z" fill="#4F4937"/>
<path d="M60.7672 54.4883L55.8395 66.506C54.9662 68.71 54.1346 68.8971 54.0514 68.9179H57.4405C56.9207 68.8555 56.6504 68.5229 56.6504 67.9199C56.6504 67.6912 56.7544 67.3169 56.9623 66.7555L57.794 64.6348H63.1375L63.99 66.8387C64.2187 67.4833 64.3434 67.8783 64.3434 68.0654C64.3434 68.7932 63.8028 68.9179 63.6989 68.9179H67.5038C67.3167 68.8971 67.0672 68.8347 66.4642 68.0654C66.1731 67.6704 65.9028 67.1714 65.6533 66.5268L60.7672 54.4883ZM58.189 63.5952L60.4553 57.8982L62.7216 63.5952H58.189Z" fill="#4F4937"/>
<path d="M73.7207 66.0694C72.7851 67.3793 71.7663 68.0239 70.6435 68.0239C69.6247 68.0239 68.8346 67.608 68.2732 66.7555C67.7118 65.9031 67.4208 64.9051 67.4208 63.7615C67.4208 61.4952 68.5435 59.8942 70.2069 59.8942C71.2257 59.8942 72.0158 60.6219 72.0158 61.7239C72.0158 61.9942 71.995 62.2229 71.9326 62.3892L73.5752 61.6615C73.492 59.915 72.2653 58.8338 70.6227 58.8338C69.292 58.8338 68.1901 59.3536 67.296 60.414C66.4019 61.4744 65.9653 62.8259 65.9653 64.4684C65.9653 65.8199 66.3396 66.9635 67.0673 67.8783C67.795 68.7724 68.8346 69.2298 70.1861 69.2298C71.8287 69.2298 73.2217 68.1278 73.7207 66.0694Z" fill="#4F4937"/>
<path d="M79.4054 66.8803C78.8024 67.6496 78.1786 68.0239 77.4925 68.0239C76.64 68.0239 76.2242 67.4001 76.2242 66.1318V60.1853H79.0727V59.1665H76.2242V56.8796L73.4381 60.1853H74.7272V66.5684C74.7272 68.2318 75.5797 69.2298 76.8895 69.2298C78.0747 69.2298 79.0519 68.4605 79.4054 66.8803Z" fill="#4F4937"/>
<path d="M32.969 74.8711C32.969 73.7691 32.574 72.8127 31.8047 72.0434C31.0354 71.2533 29.9334 70.8582 28.5404 70.8582H23.4047C23.6335 70.8166 24.3612 71.1701 24.4235 72.8127V82.7928C24.4235 83.8116 24.0285 84.4562 23.7998 84.6017C23.6958 84.6641 23.5711 84.6849 23.4671 84.7057H27.0433C26.7938 84.7473 26.0869 84.3938 26.0453 82.7928V78.8423C26.5859 79.0295 27.2928 79.1126 28.1661 79.1126C29.6839 79.1126 30.8483 78.6968 31.7007 77.8859C32.5532 77.0542 32.969 76.0562 32.969 74.8711ZM28.0621 71.8978C30.0582 71.8978 31.2433 73.2285 31.2433 74.9958C31.2433 76.7632 30.0998 78.0315 28.1245 78.0315C27.2305 78.0315 26.5235 77.9483 26.0453 77.8028V71.8978H28.0621Z" fill="#4F4937"/>
<path d="M40.3864 74.9076C39.1983 75.4117 39.1909 74.6216 37.8651 74.6216C36.5417 74.6216 35.5884 76.2307 35.3981 77.179V74.5592L32.8199 75.7028H33.0278C33.6724 75.7028 33.9427 76.0146 33.9427 77.3245V82.876C33.9011 84.4354 33.2981 84.7265 33.0902 84.7057H36.2714C36.0635 84.7265 35.4813 84.3938 35.4397 82.876V79.9859C35.4397 78.9209 36.2714 75.7028 37.7961 75.7028C38.8804 75.7028 39.6691 76.9919 39.6691 78.0695L40.3864 74.9076Z" fill="#4F4937"/>
<path d="M41.2077 74.5592L38.3279 75.7236H38.6919C39.3572 75.7236 39.6691 76.077 39.6691 77.3869V82.8968C39.6275 84.4562 38.983 84.7265 38.7751 84.7057H42.1018C41.9146 84.7057 41.2077 84.4562 41.2077 82.8968V74.5592ZM40.2721 72.8543C41.6859 72.8543 41.6859 70.7751 40.2721 70.7751C38.8374 70.6919 38.879 72.9374 40.2721 72.8543Z" fill="#4F4937"/>
<path d="M49.9114 82.377C49.7659 83.2295 49.1629 83.7493 48.2481 83.7493H44.4016L49.7659 74.9543H42.3847V77.2414C42.5511 76.2849 43.154 75.8067 44.2144 75.8067H47.5412L42.0937 84.7057H49.9114V82.377Z" fill="#4F4937"/>
<path d="M57.5231 81.8988C56.6082 83.1255 55.5271 83.7285 54.3003 83.7285C53.3647 83.7285 52.5746 83.3542 51.93 82.6265C51.2855 81.8988 50.9736 80.9008 50.9736 79.6532H57.4191C57.3983 77.075 56.1716 74.6632 53.6974 74.6216C52.429 74.6216 51.4102 75.1414 50.6202 76.1602C49.8508 77.179 49.4558 78.4681 49.4558 79.9859C49.4558 81.379 49.8301 82.5641 50.5994 83.5413C51.3687 84.5186 52.429 85.0176 53.7805 85.0176C55.6726 85.0176 56.9201 83.978 57.5231 81.8988ZM50.9944 78.8008C51.036 77.9483 51.2855 77.179 51.7221 76.5136C52.1795 75.8483 52.7825 75.5156 53.5518 75.5156C54.2795 75.5156 54.8201 75.8483 55.1736 76.5136C55.5271 77.179 55.6934 77.9483 55.6934 78.8008H50.9944Z" fill="#4F4937"/>
</svg>
