<svg width="186" height="408" viewBox="0 0 186 408" fill="none" xmlns="http://www.w3.org/2000/svg">
<g clip-path="url(#clip0_1318_7713)">
<path d="M270.392 230.369C302.288 132.094 302.243 44.2323 270.29 34.1251C238.338 24.0179 186.578 95.4923 154.681 193.768C122.785 292.043 122.83 379.904 154.783 390.012C186.735 400.119 238.495 328.644 270.392 230.369Z" stroke="#302B27" stroke-width="0.154" stroke-miterlimit="10"/>
<path d="M246.499 222.814C278.396 124.539 278.35 36.6776 246.398 26.5704C214.445 16.4632 162.685 87.9376 130.789 186.213C98.8924 284.488 98.9378 372.35 130.89 382.457C162.843 392.564 214.603 321.09 246.499 222.814Z" stroke="#302B27" stroke-width="0.154" stroke-miterlimit="10"/>
<path d="M390.907 268.49C401.253 236.614 329.781 185.513 231.27 154.352C132.759 123.191 44.513 123.77 34.1673 155.647C23.8215 187.523 95.2936 238.624 193.805 269.785C292.316 300.946 380.562 300.366 390.907 268.49Z" stroke="#302B27" stroke-width="0.154" stroke-miterlimit="10"/>
<path d="M398.641 244.654C408.986 212.778 337.514 161.677 239.003 130.516C140.492 99.3548 52.2464 99.9345 41.9007 131.811C31.5549 163.687 103.027 214.788 201.538 245.949C300.049 277.11 388.295 276.531 398.641 244.654Z" stroke="#302B27" stroke-width="0.154" stroke-miterlimit="10"/>
</g>
<defs>
<clipPath id="clip0_1318_7713">
<rect width="315" height="295" fill="white" transform="translate(0.960938 145.145) rotate(-27.2327)"/>
</clipPath>
</defs>
</svg>
