<svg width="137" height="296" viewBox="0 0 137 296" fill="none" xmlns="http://www.w3.org/2000/svg">
<mask id="mask0_1336_718" style="mask-type:alpha" maskUnits="userSpaceOnUse" x="0" y="0" width="137" height="296">
<rect width="137" height="296" fill="#D9D9D9"/>
</mask>
<g mask="url(#mask0_1336_718)">
<path d="M22.5666 199.071C95.8989 126.285 136.064 48.1419 112.279 24.5334C88.493 0.924852 9.76335 40.7912 -63.5689 113.577C-136.901 186.363 -177.067 264.507 -153.281 288.115C-129.495 311.724 -50.7656 271.857 22.5666 199.071Z" stroke="#302B27" stroke-width="0.154" stroke-miterlimit="10"/>
<path d="M4.77952 181.42C78.1117 108.634 118.277 30.4905 94.4915 6.88202C70.7058 -16.7265 -8.02376 23.1398 -81.356 95.9259C-154.688 168.712 -194.854 246.855 -171.068 270.464C-147.282 294.072 -68.5527 254.206 4.77952 181.42Z" stroke="#302B27" stroke-width="0.154" stroke-miterlimit="10"/>
<path d="M112.279 288.116C136.064 264.508 95.8989 186.364 22.5666 113.578C-50.7656 40.792 -129.495 0.925712 -153.281 24.5342C-177.067 48.1428 -136.901 126.286 -63.5689 199.072C9.76335 271.858 88.493 311.725 112.279 288.116Z" stroke="#302B27" stroke-width="0.154" stroke-miterlimit="10"/>
<path d="M130.063 270.461C153.848 246.852 113.683 168.709 40.3508 95.9228C-32.9814 23.1367 -111.711 -16.7296 -135.497 6.87895C-159.282 30.4875 -119.117 108.631 -45.7847 181.417C27.5475 254.203 106.277 294.069 130.063 270.461Z" stroke="#302B27" stroke-width="0.154" stroke-miterlimit="10"/>
</g>
</svg>
